<svg xmlns="http://www.w3.org/2000/svg" width="85" height="85" viewBox="0 0 85 85">
  <g id="Grupo_95354" data-name="Grupo 95354" transform="translate(-810 -2069)">
    <circle id="Elipse_4476" data-name="Elipse 4476" cx="42.5" cy="42.5" r="42.5" transform="translate(810 2069)" fill="#ffa648"/>
    <path id="Trazado_147291" data-name="Trazado 147291" d="M33.992,0H2.738V-6.768L17.134-21.9q5.322-6.06,5.322-9.628a6.7,6.7,0,0,0-1.261-4.4,4.5,4.5,0,0,0-3.661-1.507,4.559,4.559,0,0,0-3.845,2.015,8.281,8.281,0,0,0-1.477,5.03H1.815a14.709,14.709,0,0,1,2.061-7.614A14.453,14.453,0,0,1,9.6-43.466a17,17,0,0,1,8.183-1.969q7.26,0,11.182,3.353t3.922,9.628A13.982,13.982,0,0,1,31.9-27.3a22.6,22.6,0,0,1-3.061,5.26,77.1,77.1,0,0,1-6.691,7.367L16.365-8H33.992Z" transform="translate(835 2134)" fill="#12263f"/>
  </g>
</svg>
