<svg xmlns="http://www.w3.org/2000/svg" width="123.376" height="120" viewBox="0 0 123.376 120">
  <g id="Grupo_95362" data-name="Grupo 95362" transform="translate(-317.623 -3307)">
    <circle id="Elipse_4496" data-name="Elipse 4496" cx="60" cy="60" r="60" transform="translate(320 3307)" fill="#fff"/>
    <g id="Grupo_94111" data-name="Grupo 94111" transform="translate(-3434.886 2721.176)">
      <g id="Grupo_94100" data-name="Grupo 94100" transform="translate(3778.638 586.281)">
        <g id="Grupo_94097" data-name="Grupo 94097" transform="translate(26.678 0.014)">
          <ellipse id="Elipse_4501" data-name="Elipse 4501" cx="8.272" cy="8.302" rx="8.272" ry="8.302" transform="translate(1.551 1.551)" fill="#fff"/>
          <path id="Trazado_144344" data-name="Trazado 144344" d="M3840.347,606.008a9.853,9.853,0,1,1,9.823-9.853A9.85,9.85,0,0,1,3840.347,606.008Zm0-16.6a6.752,6.752,0,1,0,6.721,6.752A6.745,6.745,0,0,0,3840.347,589.4Z" transform="translate(-3830.523 -586.302)" fill="#12263f"/>
        </g>
        <g id="Grupo_94098" data-name="Grupo 94098" transform="translate(34.945 60.825)">
          <path id="Trazado_144345" data-name="Trazado 144345" d="M3845.028,678.43l.644,32.079Z" transform="translate(-3843.477 -676.879)" fill="#fff"/>
          <path id="Trazado_144346" data-name="Trazado 144346" d="M3844.93,711.319a1.55,1.55,0,0,1-1.549-1.52l-.645-32.079a1.551,1.551,0,0,1,1.52-1.581h.032a1.55,1.55,0,0,1,1.549,1.52l.644,32.079a1.55,1.55,0,0,1-1.519,1.581Z" transform="translate(-3842.736 -676.139)" fill="#512156"/>
        </g>
        <g id="Grupo_94099" data-name="Grupo 94099">
          <path id="Trazado_144347" data-name="Trazado 144347" d="M3817.321,649.4v31.111a5.785,5.785,0,0,0,5.934,6.055c4.922.029,5.736-5.087,5.736-5.087s-.411,4.549,4.034,5.1c3.6.447,6.743-1.867,6.743-5.241V649.4l-.638-24.634a4.308,4.308,0,0,1,.9-2.632l19.921-25.126c1.705-2.162,2.17-5.362.059-7.131a5.027,5.027,0,0,0-7.179.738l-15.426,19.775a2.5,2.5,0,0,1-1.462.649,4.558,4.558,0,0,1-2.132-.153,21.336,21.336,0,0,0-12.059.079,2.285,2.285,0,0,1-1.807-.085,5.12,5.12,0,0,1-1.822-1.4l-16.1-18.991a5.029,5.029,0,0,0-7.062-.834c-2.18,1.72-1.91,4.881-.19,7.061l22.267,25.847a4.306,4.306,0,0,1,1.01,2.783Z" transform="translate(-3791.851 -587.022)" fill="#faa182"/>
          <path id="Trazado_144348" data-name="Trazado 144348" d="M3833.172,687.442a8.642,8.642,0,0,1-1.078-.067,5.84,5.84,0,0,1-4.206-2.379,6.788,6.788,0,0,1-5.332,2.377h-.051a7.322,7.322,0,0,1-7.475-7.606v-31.11c0-.016,0-.031,0-.047l.723-24.028a2.751,2.751,0,0,0-.646-1.761l-22.255-25.834-.043-.051a7.688,7.688,0,0,1-1.7-4.652,5.646,5.646,0,0,1,2.148-4.588,6.577,6.577,0,0,1,9.221,1.069l16.085,18.971a3.553,3.553,0,0,0,1.264.979c.259.114.319.141.748.017a22.841,22.841,0,0,1,12.942-.074,3.016,3.016,0,0,0,1.408.11,2.406,2.406,0,0,0,.583-.162l15.357-19.689a6.579,6.579,0,0,1,9.4-.973c2.925,2.452,2.266,6.612.161,9.28l-19.922,25.129a2.751,2.751,0,0,0-.565,1.65l.638,24.612V680.6a6.547,6.547,0,0,1-2.244,4.968A7.765,7.765,0,0,1,3833.172,687.442Zm-4.922-8.253a1.55,1.55,0,0,1,1.546,1.685,3.014,3.014,0,0,0,2.68,3.423,4.827,4.827,0,0,0,3.806-1.058,3.445,3.445,0,0,0,1.2-2.644V648.656l-.638-24.594v-.041a5.884,5.884,0,0,1,1.225-3.581l19.931-25.14c1.216-1.541,1.655-3.827.279-4.979a3.475,3.475,0,0,0-4.966.509L3837.889,610.6a3.763,3.763,0,0,1-2.411,1.221,6.071,6.071,0,0,1-2.856-.194,19.758,19.758,0,0,0-11.177.083,3.79,3.79,0,0,1-2.865-.156,6.606,6.606,0,0,1-2.38-1.813l-16.1-18.991-.035-.043a3.477,3.477,0,0,0-4.883-.577,2.543,2.543,0,0,0-.967,2.128,4.633,4.633,0,0,0,1.015,2.731l22.244,25.82a5.872,5.872,0,0,1,1.386,3.8c0,.014,0,.028,0,.041l-.723,24.029v31.087a4.235,4.235,0,0,0,4.392,4.5h.03c3.418,0,4.1-3.4,4.166-3.789A1.557,1.557,0,0,1,3828.25,679.189Z" transform="translate(-3791.111 -586.281)" fill="#12263f"/>
        </g>
      </g>
      <g id="Grupo_94101" data-name="Grupo 94101" transform="translate(3788.2 637.104)">
        <rect id="Rectángulo_35536" data-name="Rectángulo 35536" width="52.432" height="57.095" transform="translate(1.551 1.551)" fill="#24d0e0"/>
        <path id="Trazado_144349" data-name="Trazado 144349" d="M3859.22,721.56h-52.432a1.551,1.551,0,0,1-1.551-1.551V662.915a1.551,1.551,0,0,1,1.551-1.551h52.432a1.551,1.551,0,0,1,1.551,1.551V720.01A1.551,1.551,0,0,1,3859.22,721.56Zm-50.881-3.1h49.331V664.466h-49.331Z" transform="translate(-3805.237 -661.364)" fill="#12263f"/>
      </g>
      <g id="Grupo_94110" data-name="Grupo 94110" transform="translate(3752.509 653.506)">
        <g id="Grupo_94102" data-name="Grupo 94102" transform="translate(94.642 0.142)">
          <path id="Trazado_144350" data-name="Trazado 144350" d="M3915.745,698.659a10.563,10.563,0,1,0-10.562,10.566A10.564,10.564,0,0,0,3915.745,698.659Z" transform="translate(-3893.067 -686.544)" fill="#fff"/>
          <path id="Trazado_144351" data-name="Trazado 144351" d="M3904.442,710.035a12.115,12.115,0,1,1,12.113-12.116A12.13,12.13,0,0,1,3904.442,710.035Zm0-21.129a9.014,9.014,0,1,0,9.012,9.013A9.024,9.024,0,0,0,3904.442,688.906Z" transform="translate(-3892.327 -685.804)" fill="#12263f"/>
        </g>
        <g id="Grupo_94103" data-name="Grupo 94103" transform="translate(90.136 28.725)">
          <path id="Trazado_144352" data-name="Trazado 144352" d="M3887.961,750.815V742.28a11.958,11.958,0,0,1,11.958-11.957h6.225A11.957,11.957,0,0,1,3918.1,742.28v8.534Z" transform="translate(-3886.41 -728.772)" fill="#fff"/>
          <path id="Trazado_144353" data-name="Trazado 144353" d="M3917.359,751.625a1.55,1.55,0,0,1-1.551-1.551V741.54a10.417,10.417,0,0,0-10.406-10.407h-6.225a10.418,10.418,0,0,0-10.407,10.407v8.534a1.551,1.551,0,0,1-3.1,0V741.54a13.523,13.523,0,0,1,13.508-13.508h6.225a13.523,13.523,0,0,1,13.507,13.508v8.534A1.55,1.55,0,0,1,3917.359,751.625Z" transform="translate(-3885.67 -728.032)" fill="#12263f"/>
        </g>
        <g id="Grupo_94104" data-name="Grupo 94104" transform="translate(34.365 0.142)">
          <path id="Trazado_144354" data-name="Trazado 144354" d="M3826.694,698.659a10.562,10.562,0,1,0-10.562,10.566A10.563,10.563,0,0,0,3826.694,698.659Z" transform="translate(-3804.018 -686.544)" fill="#fff"/>
          <path id="Trazado_144355" data-name="Trazado 144355" d="M3815.391,710.035a12.115,12.115,0,1,1,12.113-12.116A12.128,12.128,0,0,1,3815.391,710.035Zm0-21.129a9.014,9.014,0,1,0,9.012,9.013A9.022,9.022,0,0,0,3815.391,688.906Z" transform="translate(-3803.278 -685.804)" fill="#12263f"/>
        </g>
        <g id="Grupo_94105" data-name="Grupo 94105" transform="translate(29.857 28.725)">
          <path id="Trazado_144356" data-name="Trazado 144356" d="M3798.909,750.815V742.28a11.957,11.957,0,0,1,11.958-11.957h6.225a11.959,11.959,0,0,1,11.959,11.957v8.534Z" transform="translate(-3797.358 -728.772)" fill="#fff"/>
          <path id="Trazado_144357" data-name="Trazado 144357" d="M3828.31,751.625a1.551,1.551,0,0,1-1.551-1.551V741.54a10.419,10.419,0,0,0-10.408-10.407h-6.225a10.418,10.418,0,0,0-10.406,10.407v8.534a1.551,1.551,0,0,1-3.1,0V741.54a13.523,13.523,0,0,1,13.508-13.508h6.225a13.525,13.525,0,0,1,13.51,13.508v8.534A1.551,1.551,0,0,1,3828.31,751.625Z" transform="translate(-3796.618 -728.032)" fill="#12263f"/>
        </g>
        <g id="Grupo_94106" data-name="Grupo 94106" transform="translate(4.508)">
          <path id="Trazado_144358" data-name="Trazado 144358" d="M3782.584,698.451a10.562,10.562,0,1,0-10.562,10.564A10.562,10.562,0,0,0,3782.584,698.451Z" transform="translate(-3759.909 -686.336)" fill="#fff"/>
          <path id="Trazado_144359" data-name="Trazado 144359" d="M3771.283,709.824a12.114,12.114,0,1,1,12.112-12.114A12.127,12.127,0,0,1,3771.283,709.824Zm0-21.127a9.013,9.013,0,1,0,9.011,9.013A9.023,9.023,0,0,0,3771.283,688.7Z" transform="translate(-3759.169 -685.595)" fill="#12263f"/>
        </g>
        <g id="Grupo_94107" data-name="Grupo 94107" transform="translate(0 28.584)">
          <path id="Trazado_144360" data-name="Trazado 144360" d="M3754.8,750.606v-8.535a11.958,11.958,0,0,1,11.957-11.957h6.226a11.958,11.958,0,0,1,11.958,11.957v8.535Z" transform="translate(-3753.249 -728.563)" fill="#fff"/>
          <path id="Trazado_144361" data-name="Trazado 144361" d="M3784.2,751.417a1.551,1.551,0,0,1-1.551-1.551v-8.534a10.419,10.419,0,0,0-10.407-10.407h-6.225a10.419,10.419,0,0,0-10.407,10.407v8.534a1.551,1.551,0,1,1-3.1,0v-8.534a13.524,13.524,0,0,1,13.508-13.509h6.225a13.524,13.524,0,0,1,13.509,13.509v8.534A1.551,1.551,0,0,1,3784.2,751.417Z" transform="translate(-3752.509 -727.823)" fill="#12263f"/>
        </g>
        <g id="Grupo_94108" data-name="Grupo 94108" transform="translate(64.504 0.142)">
          <path id="Trazado_144362" data-name="Trazado 144362" d="M3871.219,698.659a10.562,10.562,0,1,0-10.562,10.566A10.562,10.562,0,0,0,3871.219,698.659Z" transform="translate(-3848.543 -686.544)" fill="#fff"/>
          <path id="Trazado_144363" data-name="Trazado 144363" d="M3859.917,710.035a12.115,12.115,0,1,1,12.112-12.116A12.129,12.129,0,0,1,3859.917,710.035Zm0-21.129a9.014,9.014,0,1,0,9.011,9.013A9.023,9.023,0,0,0,3859.917,688.906Z" transform="translate(-3847.803 -685.804)" fill="#12263f"/>
        </g>
        <g id="Grupo_94109" data-name="Grupo 94109" transform="translate(59.997 28.725)">
          <path id="Trazado_144364" data-name="Trazado 144364" d="M3843.435,750.815V742.28a11.958,11.958,0,0,1,11.958-11.957h6.225a11.957,11.957,0,0,1,11.957,11.957v8.534Z" transform="translate(-3841.884 -728.772)" fill="#fff"/>
          <path id="Trazado_144365" data-name="Trazado 144365" d="M3872.834,751.625a1.551,1.551,0,0,1-1.551-1.551V741.54a10.418,10.418,0,0,0-10.406-10.407h-6.225a10.418,10.418,0,0,0-10.406,10.407v8.534a1.551,1.551,0,0,1-3.1,0V741.54a13.523,13.523,0,0,1,13.509-13.508h6.225a13.523,13.523,0,0,1,13.508,13.508v8.534A1.55,1.55,0,0,1,3872.834,751.625Z" transform="translate(-3841.144 -728.032)" fill="#12263f"/>
        </g>
      </g>
    </g>
  </g>
</svg>
