<svg xmlns="http://www.w3.org/2000/svg" width="125" height="131.727" viewBox="0 0 125 131.727">
  <g id="Grupo_95364" data-name="Grupo 95364" transform="translate(-1160 -3307)">
    <circle id="Elipse_4498" data-name="Elipse 4498" cx="60" cy="60" r="60" transform="translate(1160 3307)" fill="#fff"/>
    <g id="Grupo_94096" data-name="Grupo 94096" transform="translate(-2131.279 2739.985)">
      <g id="Grupo_94095" data-name="Grupo 94095" transform="translate(3296.279 579.634)">
        <g id="Grupo_94082" data-name="Grupo 94082" transform="translate(37.25)">
          <path id="Trazado_144324" data-name="Trazado 144324" d="M3435.709,625.919V615.674l-9.369-3.39a30.58,30.58,0,0,0-2.552-6.479l4.157-8.873-7.247-7.246-8.683,4.07a30.756,30.756,0,0,0-6.81-2.865l-3.248-8.966H3391.71l-3.245,8.966a30.789,30.789,0,0,0-6.81,2.865l-8.687-4.07-7.247,7.246,4.161,8.877a30.483,30.483,0,0,0-2.553,6.475l-4.614,7.016-4.753,6.618,9.642,3.49a30.564,30.564,0,0,0,2.532,5.84l-4.415,9.412,7.247,7.246,9.635-4.513a30.411,30.411,0,0,0,5.476,2.232l3.631,10.044h10.246l3.634-10.044a30.535,30.535,0,0,0,5.477-2.232l9.63,4.513,7.247-7.246-4.41-9.412a30.523,30.523,0,0,0,2.531-5.84Z" transform="translate(-3356.526 -580.488)" fill="#faa182"/>
          <path id="Trazado_144325" data-name="Trazado 144325" d="M3401.1,660.254h-10.246a1.438,1.438,0,0,1-1.352-.948l-3.387-9.373a31.877,31.877,0,0,1-4.4-1.793l-9,4.215a1.436,1.436,0,0,1-1.625-.285l-7.247-7.247a1.437,1.437,0,0,1-.285-1.626l4.1-8.753a32.159,32.159,0,0,1-2.07-4.777l-8.982-3.251a1.437,1.437,0,0,1-.678-2.19l4.736-6.594,4.473-6.8a32.263,32.263,0,0,1,2.275-5.91l-3.858-8.233a1.435,1.435,0,0,1,.285-1.626l7.246-7.246a1.437,1.437,0,0,1,1.625-.285l8.022,3.759a32.254,32.254,0,0,1,5.76-2.422l3-8.286a1.438,1.438,0,0,1,1.352-.948H3401.1a1.437,1.437,0,0,1,1.351.947l3,8.286a32.278,32.278,0,0,1,5.761,2.422l8.019-3.758a1.438,1.438,0,0,1,1.626.285l7.246,7.246a1.438,1.438,0,0,1,.285,1.625l-3.856,8.231a32.156,32.156,0,0,1,2.132,5.412l8.677,3.139a1.438,1.438,0,0,1,.948,1.352v10.244a1.437,1.437,0,0,1-.948,1.351l-8.984,3.251a31.905,31.905,0,0,1-2.071,4.778l4.1,8.753a1.437,1.437,0,0,1-.284,1.626l-7.246,7.247a1.437,1.437,0,0,1-1.626.285l-8.993-4.215a32.057,32.057,0,0,1-4.4,1.793l-3.391,9.374A1.438,1.438,0,0,1,3401.1,660.254Zm-9.238-2.874h8.23l3.291-9.1a1.438,1.438,0,0,1,.941-.888,29.134,29.134,0,0,0,5.219-2.127,1.434,1.434,0,0,1,1.278-.029l8.717,4.086,5.821-5.821-3.982-8.5a1.438,1.438,0,0,1,.047-1.313,29.057,29.057,0,0,0,2.412-5.564,1.44,1.44,0,0,1,.884-.924l8.7-3.147v-8.229L3425,612.781a1.435,1.435,0,0,1-.9-.975,29.269,29.269,0,0,0-2.431-6.175,1.436,1.436,0,0,1-.036-1.29l3.73-7.962-5.821-5.82-7.772,3.642a1.435,1.435,0,0,1-1.323-.053,29.336,29.336,0,0,0-6.491-2.731,1.437,1.437,0,0,1-.956-.893l-2.9-8.019h-8.23l-2.9,8.019a1.437,1.437,0,0,1-.955.893,29.43,29.43,0,0,0-6.493,2.731,1.434,1.434,0,0,1-1.322.053l-7.774-3.643-5.821,5.82,3.732,7.964a1.438,1.438,0,0,1-.035,1.291,29.159,29.159,0,0,0-2.432,6.171,1.43,1.43,0,0,1-.186.413l-4.613,7.016c-.011.017-.022.033-.034.049l-3.646,5.076,7.856,2.843a1.437,1.437,0,0,1,.883.924,29.2,29.2,0,0,0,2.413,5.566,1.439,1.439,0,0,1,.047,1.312l-3.985,8.5,5.821,5.821,8.721-4.086a1.436,1.436,0,0,1,1.277.029,29.113,29.113,0,0,0,5.219,2.127,1.438,1.438,0,0,1,.941.889Zm42.991-32.315h0Z" transform="translate(-3355.672 -579.634)" fill="#12263f"/>
        </g>
        <g id="Grupo_94083" data-name="Grupo 94083" transform="translate(55.223 17.484)">
          <path id="Trazado_144326" data-name="Trazado 144326" d="M3388.776,620.627a21.011,21.011,0,1,1-2.156,14.676Z" transform="translate(-3385.183 -608.366)" fill="#fff"/>
          <path id="Trazado_144327" data-name="Trazado 144327" d="M3406.251,652.422a22.469,22.469,0,0,1-21.89-17.667,1.437,1.437,0,1,1,2.808-.613,19.577,19.577,0,1,0,2.009-13.672,1.437,1.437,0,0,1-2.511-1.4,22.433,22.433,0,1,1,19.585,33.348Z" transform="translate(-3384.328 -607.51)" fill="#12263f"/>
        </g>
        <g id="Grupo_94084" data-name="Grupo 94084" transform="translate(7.511 63.835)">
          <path id="Trazado_144328" data-name="Trazado 144328" d="M3419.234,690.1a3.883,3.883,0,0,0-4.517-6.069l-101.846,44.628a3.882,3.882,0,1,0,3.112,7.114l101.846-44.627A3.866,3.866,0,0,0,3419.234,690.1Z" transform="translate(-3309.108 -682.269)" fill="#24d0e0"/>
          <path id="Trazado_144329" data-name="Trazado 144329" d="M3313.575,736.686a5.321,5.321,0,0,1-2.133-10.2l101.845-44.627a5.32,5.32,0,0,1,6.191,8.314h0a5.279,5.279,0,0,1-1.926,1.432l-101.846,44.627A5.306,5.306,0,0,1,3313.575,736.686Zm101.844-52.4a2.44,2.44,0,0,0-.979.206l-101.845,44.627a2.446,2.446,0,1,0,1.959,4.482L3416.4,688.977a2.432,2.432,0,0,0,.886-.657h0a2.449,2.449,0,0,0-1.866-4.031Zm2.962,4.959h0Z" transform="translate(-3308.254 -681.414)" fill="#12263f"/>
        </g>
        <g id="Grupo_94089" data-name="Grupo 94089" transform="translate(0 21.444)">
          <g id="Grupo_94085" data-name="Grupo 94085" transform="translate(13.513 0)">
            <circle id="Elipse_4499" data-name="Elipse 4499" cx="7.207" cy="7.207" r="7.207" transform="translate(0 3.894) rotate(-15.674)" fill="#fff"/>
            <path id="Trazado_144330" data-name="Trazado 144330" d="M3326.834,631.5a8.656,8.656,0,1,1,1.463-.124A8.8,8.8,0,0,1,3326.834,631.5Zm.021-14.416a5.77,5.77,0,1,0,.961,11.459h0a5.77,5.77,0,0,0-.961-11.459Z" transform="translate(-3317.967 -613.968)" fill="#12263f"/>
          </g>
          <g id="Grupo_94086" data-name="Grupo 94086" transform="translate(0 41.604)">
            <path id="Trazado_144331" data-name="Trazado 144331" d="M3302.557,728.317a4.991,4.991,0,0,1-3.881-5.9,5.109,5.109,0,0,1,.191-.681c.287-1.113,3.772-12.518,4.681-16.756l.367-17.645a4.992,4.992,0,1,1,9.981.207l-.386,18.6-.1.465s-4.782,17.253-4.864,17.58a5.33,5.33,0,0,1-2.721,3.679A5.2,5.2,0,0,1,3302.557,728.317Z" transform="translate(-3297.134 -681.013)" fill="#ffd778"/>
            <path id="Trazado_144332" data-name="Trazado 144332" d="M3302.631,728.991a6.016,6.016,0,0,1-1.22-.121,6.427,6.427,0,0,1-5-7.593,6.627,6.627,0,0,1,.223-.814c.1-.364.366-1.273.761-2.608,1.112-3.769,3.169-10.739,3.861-13.895l.365-17.507a6.428,6.428,0,1,1,12.854.266l-.387,18.6a1.376,1.376,0,0,1-.032.272l-.1.465c-.005.028-.012.055-.02.081-1.638,5.91-4.761,17.184-4.858,17.554a6.505,6.505,0,0,1-6.45,5.3Zm5.418-45.959a3.559,3.559,0,0,0-3.553,3.482l-.367,17.645a1.426,1.426,0,0,1-.031.272c-.685,3.2-2.8,10.379-3.943,14.239-.382,1.291-.683,2.312-.75,2.575-.011.042-.024.083-.038.124a3.608,3.608,0,0,0-.137.488,3.556,3.556,0,0,0,2.763,4.2h0a3.747,3.747,0,0,0,2.33-.327,3.957,3.957,0,0,0,1.974-2.749c.084-.33,4.321-15.62,4.862-17.569l.062-.289.384-18.461a3.559,3.559,0,0,0-3.48-3.628Z" transform="translate(-3296.279 -680.159)" fill="#12263f"/>
          </g>
          <g id="Grupo_94087" data-name="Grupo 94087" transform="translate(2.6 13.879)">
            <path id="Trazado_144333" data-name="Trazado 144333" d="M3302.844,666.239l2.225-13.692,1.14-6.321a9.706,9.706,0,0,1,19.1,3.45l-1.1,6.07L3322,669.354a9.693,9.693,0,0,1-.816,2.61l7.722,6.04a9.308,9.308,0,0,1,3.383,6.68l.464,13.608a4.991,4.991,0,1,1-9.977.34l-.447-13.1s-11.07-8.093-11.467-8.157A9.706,9.706,0,0,1,3302.844,666.239Z" transform="translate(-3301.28 -636.807)" fill="#ffd778"/>
            <path id="Trazado_144334" data-name="Trazado 144334" d="M3326.911,704.037a6.437,6.437,0,0,1-6.422-6.209l-.422-12.4c-3.793-2.768-9.41-6.826-10.531-7.529a11.157,11.157,0,0,1-8.965-12.743h0l2.226-13.691,1.144-6.346a11.143,11.143,0,0,1,21.931,3.96l-1.1,6.07-2.208,13.583a11.129,11.129,0,0,1-.491,1.919l6.865,5.369a10.812,10.812,0,0,1,3.933,7.759l.465,13.613a6.449,6.449,0,0,1-3.54,5.965,6.377,6.377,0,0,1-2.667.679Q3327.021,704.037,3326.911,704.037Zm-23.5-38.422a8.279,8.279,0,0,0,6.834,9.489c.427.069.736.119,12.084,8.414a1.434,1.434,0,0,1,.588,1.111l.448,13.1a3.554,3.554,0,1,0,7.1-.242L3330,683.879a7.823,7.823,0,0,0-2.843-5.606l-7.711-6.031a1.437,1.437,0,0,1-.413-1.747,8.317,8.317,0,0,0,.7-2.225l2.212-13.608,1.1-6.1a8.269,8.269,0,0,0-16.275-2.938l-1.14,6.321-2.221,13.667Zm6.374,12.326h0Z" transform="translate(-3300.425 -635.953)" fill="#12263f"/>
          </g>
          <g id="Grupo_94088" data-name="Grupo 94088" transform="translate(18.16 4.34)">
            <path id="Trazado_144335" data-name="Trazado 144335" d="M3327.987,645.433l15.47.949a4.715,4.715,0,0,0,4.369-2.344l8.059-13.924a4.714,4.714,0,0,0-8.161-4.723l-6.6,11.4-13.6-3.883Z" transform="translate(-3326.089 -621.6)" fill="#ffd778"/>
            <path id="Trazado_144336" data-name="Trazado 144336" d="M3342.893,646.973c-.125,0-.252,0-.379-.012l-15.469-.949a1.437,1.437,0,0,1,.175-2.868l15.47.949a3.249,3.249,0,0,0,.991-.091,3.3,3.3,0,0,0,2.046-1.539l8.059-13.923a3.278,3.278,0,0,0-5.673-3.285l-6.6,11.4a1.435,1.435,0,0,1-1.638.662l-13.6-3.883a1.436,1.436,0,1,1,.788-2.763l12.523,3.575,6.039-10.433a6.151,6.151,0,0,1,10.647,6.163l-8.06,13.923a6.155,6.155,0,0,1-5.322,3.071Z" transform="translate(-3325.234 -620.745)" fill="#12263f"/>
          </g>
        </g>
        <g id="Grupo_94094" data-name="Grupo 94094" transform="translate(36.584 26.741)">
          <g id="Grupo_94090" data-name="Grupo 94090" transform="translate(13.753)">
            <circle id="Elipse_4500" data-name="Elipse 4500" cx="7.207" cy="7.207" r="7.207" transform="translate(1.37 1.508) rotate(-0.547)" fill="#fff"/>
            <path id="Trazado_144337" data-name="Trazado 144337" d="M3385.178,639.561a8.654,8.654,0,1,1,1.448-.122A8.657,8.657,0,0,1,3385.178,639.561Zm.017-14.415a5.854,5.854,0,0,0-.977.083,5.74,5.74,0,1,0,.977-.083Z" transform="translate(-3376.537 -622.27)" fill="#12263f"/>
          </g>
          <g id="Grupo_94091" data-name="Grupo 94091" transform="translate(0 41.366)">
            <path id="Trazado_144338" data-name="Trazado 144338" d="M3360.885,736.382a4.991,4.991,0,0,1-3.88-5.9,5.109,5.109,0,0,1,.19-.682c.287-1.112,3.772-12.518,4.68-16.756l.368-17.645a4.992,4.992,0,1,1,9.981.207l-.387,18.6-.1.465s-4.781,17.253-4.864,17.579a5.326,5.326,0,0,1-2.721,3.679A5.207,5.207,0,0,1,3360.885,736.382Z" transform="translate(-3355.463 -689.078)" fill="#fff"/>
            <path id="Trazado_144339" data-name="Trazado 144339" d="M3360.96,737.056a6.011,6.011,0,0,1-1.219-.121h0a6.427,6.427,0,0,1-5-7.593,6.492,6.492,0,0,1,.223-.814c.1-.363.366-1.273.76-2.608,1.112-3.769,3.169-10.739,3.862-13.895l.364-17.507a6.428,6.428,0,0,1,12.854.267l-.386,18.6a1.42,1.42,0,0,1-.032.272l-.1.465c-.006.027-.013.055-.02.081-1.638,5.909-4.761,17.184-4.858,17.554a6.506,6.506,0,0,1-6.449,5.3Zm5.416-45.958a3.554,3.554,0,0,0-3.551,3.481l-.367,17.645a1.425,1.425,0,0,1-.031.271c-.685,3.2-2.8,10.379-3.944,14.239-.381,1.291-.682,2.312-.75,2.575-.011.042-.023.083-.038.124a3.583,3.583,0,0,0-.136.487,3.554,3.554,0,0,0,2.763,4.2h0a3.743,3.743,0,0,0,2.331-.327,3.962,3.962,0,0,0,1.973-2.749c.084-.331,4.321-15.62,4.862-17.569l.062-.289.384-18.46a3.56,3.56,0,0,0-3.481-3.628Z" transform="translate(-3354.608 -688.224)" fill="#12263f"/>
          </g>
          <g id="Grupo_94092" data-name="Grupo 94092" transform="translate(2.601 13.64)">
            <path id="Trazado_144340" data-name="Trazado 144340" d="M3361.172,674.3l2.226-13.691,1.139-6.321a9.706,9.706,0,1,1,19.1,3.449l-1.1,6.07-2.211,13.608a9.712,9.712,0,0,1-.816,2.61l7.722,6.04a9.313,9.313,0,0,1,3.382,6.68l.464,13.608a4.992,4.992,0,1,1-9.978.341l-.446-13.1s-11.071-8.092-11.466-8.156A9.706,9.706,0,0,1,3361.172,674.3Z" transform="translate(-3359.609 -644.872)" fill="#fff"/>
            <path id="Trazado_144341" data-name="Trazado 144341" d="M3385.238,712.1a6.428,6.428,0,0,1-6.419-6.209l-.423-12.4c-3.792-2.768-9.41-6.826-10.531-7.529a11.156,11.156,0,0,1-8.964-12.743h0l2.226-13.691,1.144-6.345a11.143,11.143,0,0,1,21.932,3.959l-1.1,6.07L3380.9,676.8a11.134,11.134,0,0,1-.492,1.919l6.865,5.369a10.808,10.808,0,0,1,3.933,7.759l.465,13.612a6.45,6.45,0,0,1-3.539,5.965,6.364,6.364,0,0,1-2.667.679Q3385.35,712.1,3385.238,712.1Zm-23.5-38.421a8.279,8.279,0,0,0,6.835,9.489c.428.07.736.12,12.084,8.415a1.437,1.437,0,0,1,.588,1.111l.447,13.1a3.554,3.554,0,1,0,7.1-.242l-.464-13.609a7.826,7.826,0,0,0-2.843-5.607l-7.711-6.03a1.437,1.437,0,0,1-.412-1.749,8.33,8.33,0,0,0,.7-2.224l2.211-13.608,1.1-6.094a8.269,8.269,0,0,0-16.275-2.938l-1.14,6.32-2.222,13.667Zm6.374,12.325h0Z" transform="translate(-3358.755 -644.018)" fill="#12263f"/>
          </g>
          <g id="Grupo_94093" data-name="Grupo 94093" transform="translate(18.16 4.101)">
            <path id="Trazado_144342" data-name="Trazado 144342" d="M3386.316,653.5l15.47.95a4.714,4.714,0,0,0,4.368-2.344l8.06-13.924a4.714,4.714,0,0,0-8.16-4.724l-6.6,11.4-13.6-3.883Z" transform="translate(-3384.418 -629.664)" fill="#fff"/>
            <path id="Trazado_144343" data-name="Trazado 144343" d="M3401.222,655.037q-.189,0-.379-.011l-15.469-.95a1.437,1.437,0,0,1,.176-2.868l15.47.949a3.275,3.275,0,0,0,3.037-1.629l8.06-13.924a3.278,3.278,0,0,0-5.673-3.284l-6.6,11.4a1.436,1.436,0,0,1-1.638.662l-13.6-3.883a1.437,1.437,0,0,1,.789-2.763l12.523,3.576,6.038-10.433a6.151,6.151,0,0,1,10.647,6.163l-8.059,13.923a6.152,6.152,0,0,1-5.323,3.07Z" transform="translate(-3383.563 -628.809)" fill="#12263f"/>
          </g>
        </g>
      </g>
    </g>
  </g>
</svg>
