<svg xmlns="http://www.w3.org/2000/svg" width="190" height="141.031" viewBox="0 0 190 141.031">
  <g id="Grupo_95353" data-name="Grupo 95353" transform="translate(-390 -6234)">
    <rect id="Rectángulo_35334" data-name="Rectángulo 35334" width="190" height="73" rx="10" transform="translate(390 6249)" fill="#fff"/>
    <g id="Grupo_92980" data-name="Grupo 92980" transform="translate(167.533 6209.692)">
      <path id="Trazado_143055" data-name="Trazado 143055" d="M509.073,237.357a1.743,1.743,0,0,1-.9-.248l-5.381-3.226.326-.543,5.381,3.226a1.108,1.108,0,0,0,1.133.006l8.758-5.123a.44.44,0,0,0-.013-.768l-11.673-6.251.3-.559,11.673,6.251a1.073,1.073,0,0,1,.034,1.873l-8.758,5.122A1.742,1.742,0,0,1,509.073,237.357Z" transform="translate(-145.696 -120.482)" fill="#b2d3ea"/>
      <path id="Trazado_143056" data-name="Trazado 143056" d="M426.9,333.428a2.261,2.261,0,0,1-1.1-.285l-21.476-11.954a.988.988,0,0,1-.006-1.724l9.719-5.481a.338.338,0,0,0,0-.586l-10.813-6.209a.971.971,0,0,1-.035-1.662l4.417-2.8.339.535-4.418,2.8a.338.338,0,0,0,.012.577l10.813,6.209a.971.971,0,0,1-.006,1.687l-9.719,5.481a.355.355,0,0,0,0,.619l21.476,11.955a1.638,1.638,0,0,0,1.641-.03l8.166-5.02a.152.152,0,0,0,.074-.133.156.156,0,0,0-.075-.133L430,323.681l.329-.541,5.91,3.593a.789.789,0,0,1,0,1.346l-8.168,5.022A2.27,2.27,0,0,1,426.9,333.428Z" transform="translate(-85.288 -168.089)" fill="#b2d3ea"/>
      <g id="Grupo_92916" data-name="Grupo 92916" transform="translate(337.093 77.942)">
        <path id="Trazado_143057" data-name="Trazado 143057" d="M470.69,238.109l-10.354-5.978c-.636-.367-.556-1.008.178-1.431l10-5.772a2.756,2.756,0,0,1,2.479-.1l10.354,5.978c.636.367.556,1.008-.178,1.431l-10,5.772A2.757,2.757,0,0,1,470.69,238.109Z" transform="translate(-456.897 -198.85)" fill="#b2d3ea"/>
        <g id="Grupo_92910" data-name="Grupo 92910" transform="translate(0 14.298)">
          <path id="Trazado_143058" data-name="Trazado 143058" d="M482.2,218.45h0v-4.474l-10.031-.006-3.467-2a3.449,3.449,0,0,0-3.1.129l-3.235,1.868-10.04-.006v4.6a.9.9,0,0,0,.533.832l12.965,7.486a3.45,3.45,0,0,0,3.1-.129l12.519-7.228A1.23,1.23,0,0,0,482.2,218.45Z" transform="translate(-452.314 -205.349)" fill="#396caa"/>
          <path id="Trazado_143059" data-name="Trazado 143059" d="M467.258,211.665a3.579,3.579,0,0,0-1.664.437l-3.235,1.868-10.04-.006v4.6a.9.9,0,0,0,.533.832l12.965,7.486a2.811,2.811,0,0,0,1.441.308Z" transform="translate(-452.314 -205.353)" fill="#396caa"/>
          <path id="Trazado_143060" data-name="Trazado 143060" d="M453.454,217.466h-1.137v4.6a.9.9,0,0,0,.533.832l.6.348Z" transform="translate(-452.314 -208.855)" fill="#5793ce"/>
          <path id="Trazado_143061" data-name="Trazado 143061" d="M486.889,242.31a3.538,3.538,0,0,0,2.482-.028v-5.224h-2.482Z" transform="translate(-473.187 -220.683)" fill="#5793ce"/>
          <path id="Trazado_143062" data-name="Trazado 143062" d="M465.814,212.681,452.848,205.2c-.8-.46-.7-1.262.223-1.793l12.519-7.228a3.45,3.45,0,0,1,3.1-.128l12.966,7.486c.8.459.7,1.262-.223,1.792l-12.519,7.228A3.451,3.451,0,0,1,465.814,212.681Z" transform="translate(-452.311 -195.736)" fill="#d4ecff"/>
          <path id="Trazado_143063" data-name="Trazado 143063" d="M469.735,213.463,458.87,207.19c-.667-.385-.583-1.058.187-1.5l10.491-6.057a2.891,2.891,0,0,1,2.6-.108l10.865,6.273c.667.385.583,1.057-.187,1.5l-10.491,6.057A2.893,2.893,0,0,1,469.735,213.463Z" transform="translate(-455.999 -197.865)" fill="#5793ce"/>
          <g id="Grupo_92909" data-name="Grupo 92909" transform="translate(24.066 11.962)">
            <path id="Trazado_143064" data-name="Trazado 143064" d="M514.09,231.206a1.157,1.157,0,0,1-.524.907c-.289.167-.523.032-.523-.3a1.158,1.158,0,0,1,.523-.907C513.856,230.737,514.09,230.872,514.09,231.206Z" transform="translate(-513.043 -228.887)" fill="#d4ecff"/>
            <path id="Trazado_143065" data-name="Trazado 143065" d="M518.342,228.752a1.157,1.157,0,0,1-.524.907c-.289.167-.524.032-.524-.3a1.158,1.158,0,0,1,.524-.907C518.107,228.282,518.342,228.418,518.342,228.752Z" transform="translate(-515.609 -227.405)" fill="#d4ecff"/>
            <path id="Trazado_143066" data-name="Trazado 143066" d="M522.593,226.3a1.158,1.158,0,0,1-.523.907c-.289.167-.524.031-.524-.3a1.157,1.157,0,0,1,.524-.907C522.359,225.828,522.593,225.963,522.593,226.3Z" transform="translate(-518.177 -225.923)" fill="#d4ecff"/>
          </g>
        </g>
        <g id="Grupo_92912" data-name="Grupo 92912" transform="translate(0 7.149)">
          <path id="Trazado_143067" data-name="Trazado 143067" d="M482.2,200.41h0v-4.474l-10.031-.006-3.467-2a3.45,3.45,0,0,0-3.1.129l-3.235,1.868-10.04-.006v4.6a.9.9,0,0,0,.533.832l12.965,7.486a3.451,3.451,0,0,0,3.1-.128l12.519-7.228A1.23,1.23,0,0,0,482.2,200.41Z" transform="translate(-452.314 -187.308)" fill="#396caa"/>
          <path id="Trazado_143068" data-name="Trazado 143068" d="M467.258,193.624a3.58,3.58,0,0,0-1.664.437l-3.235,1.868-10.04-.006v4.6a.9.9,0,0,0,.533.832l12.965,7.486a2.811,2.811,0,0,0,1.441.308Z" transform="translate(-452.314 -187.312)" fill="#396caa"/>
          <path id="Trazado_143069" data-name="Trazado 143069" d="M453.454,199.425h-1.137v4.6a.9.9,0,0,0,.533.832l.6.348Z" transform="translate(-452.314 -190.814)" fill="#5793ce"/>
          <path id="Trazado_143070" data-name="Trazado 143070" d="M486.889,224.269a3.538,3.538,0,0,0,2.482-.028v-5.224h-2.482Z" transform="translate(-473.187 -202.642)" fill="#5793ce"/>
          <path id="Trazado_143071" data-name="Trazado 143071" d="M465.814,194.64l-12.965-7.486c-.8-.46-.7-1.262.223-1.793l12.519-7.228a3.45,3.45,0,0,1,3.1-.128l12.966,7.486c.8.459.7,1.262-.223,1.792l-12.519,7.228A3.451,3.451,0,0,1,465.814,194.64Z" transform="translate(-452.311 -177.695)" fill="#d4ecff"/>
          <path id="Trazado_143072" data-name="Trazado 143072" d="M469.735,195.422l-10.865-6.273c-.667-.385-.583-1.058.187-1.5l10.491-6.057a2.891,2.891,0,0,1,2.6-.108l10.865,6.273c.667.385.583,1.058-.187,1.5l-10.491,6.057A2.892,2.892,0,0,1,469.735,195.422Z" transform="translate(-455.999 -179.824)" fill="#5793ce"/>
          <g id="Grupo_92911" data-name="Grupo 92911" transform="translate(24.066 11.962)">
            <path id="Trazado_143073" data-name="Trazado 143073" d="M514.09,213.165a1.157,1.157,0,0,1-.524.907c-.289.167-.523.032-.523-.3a1.158,1.158,0,0,1,.523-.907C513.856,212.7,514.09,212.831,514.09,213.165Z" transform="translate(-513.043 -210.846)" fill="#d4ecff"/>
            <path id="Trazado_143074" data-name="Trazado 143074" d="M518.342,210.711a1.157,1.157,0,0,1-.524.907c-.289.167-.524.032-.524-.3a1.158,1.158,0,0,1,.524-.907C518.107,210.241,518.342,210.377,518.342,210.711Z" transform="translate(-515.609 -209.364)" fill="#d4ecff"/>
            <path id="Trazado_143075" data-name="Trazado 143075" d="M522.593,208.256a1.157,1.157,0,0,1-.523.907c-.289.167-.524.032-.524-.3a1.157,1.157,0,0,1,.524-.907C522.359,207.787,522.593,207.922,522.593,208.256Z" transform="translate(-518.177 -207.882)" fill="#d4ecff"/>
          </g>
        </g>
        <g id="Grupo_92915" data-name="Grupo 92915">
          <path id="Trazado_143076" data-name="Trazado 143076" d="M482.2,182.368h0v-4.474l-10.031-.006-3.467-2a3.449,3.449,0,0,0-3.1.129l-3.235,1.868-10.04-.006v4.6a.9.9,0,0,0,.533.832l12.965,7.486a3.451,3.451,0,0,0,3.1-.128l12.519-7.228A1.23,1.23,0,0,0,482.2,182.368Z" transform="translate(-452.314 -169.267)" fill="#396caa"/>
          <path id="Trazado_143077" data-name="Trazado 143077" d="M467.258,175.583a3.579,3.579,0,0,0-1.664.437l-3.235,1.868-10.04-.006v4.6a.9.9,0,0,0,.533.832l12.965,7.486a2.811,2.811,0,0,0,1.441.308Z" transform="translate(-452.314 -169.271)" fill="#396caa"/>
          <path id="Trazado_143078" data-name="Trazado 143078" d="M453.454,181.384h-1.137v4.6a.9.9,0,0,0,.533.832l.6.348Z" transform="translate(-452.314 -172.773)" fill="#5793ce"/>
          <path id="Trazado_143079" data-name="Trazado 143079" d="M486.889,206.228a3.538,3.538,0,0,0,2.482-.028v-5.224h-2.482Z" transform="translate(-473.187 -184.601)" fill="#5793ce"/>
          <path id="Trazado_143080" data-name="Trazado 143080" d="M465.814,176.6l-12.965-7.486c-.8-.46-.7-1.262.223-1.792l12.519-7.228a3.449,3.449,0,0,1,3.1-.129l12.966,7.486c.8.459.7,1.262-.223,1.792l-12.519,7.228A3.451,3.451,0,0,1,465.814,176.6Z" transform="translate(-452.311 -159.654)" fill="#d4ecff"/>
          <path id="Trazado_143081" data-name="Trazado 143081" d="M481.438,180.776,468.919,188a3.45,3.45,0,0,1-3.1.129l-12.965-7.486a1.2,1.2,0,0,1-.4-.352.834.834,0,0,0,.4,1.233l12.965,7.486a3.451,3.451,0,0,0,3.1-.129l12.519-7.228c.714-.412.931-.988.62-1.44A1.736,1.736,0,0,1,481.438,180.776Z" transform="translate(-452.311 -172.068)" fill="#fff"/>
          <g id="Grupo_92913" data-name="Grupo 92913" transform="translate(24.066 11.962)">
            <path id="Trazado_143082" data-name="Trazado 143082" d="M514.09,195.124a1.157,1.157,0,0,1-.524.907c-.289.167-.523.032-.523-.3a1.158,1.158,0,0,1,.523-.907C513.856,194.655,514.09,194.79,514.09,195.124Z" transform="translate(-513.043 -192.805)" fill="#d4ecff"/>
            <path id="Trazado_143083" data-name="Trazado 143083" d="M518.342,192.67a1.157,1.157,0,0,1-.524.907c-.289.167-.524.032-.524-.3a1.158,1.158,0,0,1,.524-.907C518.107,192.2,518.342,192.336,518.342,192.67Z" transform="translate(-515.609 -191.323)" fill="#d4ecff"/>
            <path id="Trazado_143084" data-name="Trazado 143084" d="M522.593,190.215a1.158,1.158,0,0,1-.523.907c-.289.167-.524.031-.524-.3a1.157,1.157,0,0,1,.524-.907C522.359,189.746,522.593,189.881,522.593,190.215Z" transform="translate(-518.177 -189.841)" fill="#d4ecff"/>
          </g>
          <g id="Grupo_92914" data-name="Grupo 92914" transform="translate(7.951 4.374)">
            <path id="Trazado_143085" data-name="Trazado 143085" d="M478.693,178.623l-6.067-3.5c-.372-.215-.326-.591.1-.839l5.859-3.383a1.614,1.614,0,0,1,1.453-.06l6.067,3.5c.372.215.326.59-.1.839l-5.859,3.382A1.613,1.613,0,0,1,478.693,178.623Z" transform="translate(-472.375 -170.693)" fill="#5793ce"/>
            <path id="Trazado_143086" data-name="Trazado 143086" d="M488.454,181.63l-.84-.485c-.051-.03-.045-.082.015-.116l.81-.468a.224.224,0,0,1,.2-.008l.839.485c.051.03.045.082-.015.116l-.81.468A.223.223,0,0,1,488.454,181.63Z" transform="translate(-481.554 -176.634)" fill="#d4ecff"/>
            <path id="Trazado_143087" data-name="Trazado 143087" d="M472.626,175.12l.017.01a.98.98,0,0,1,.087-.06l5.859-3.382a1.613,1.613,0,0,1,1.453-.06l6.05,3.493c.343-.246.361-.581.017-.779l-6.067-3.5a1.616,1.616,0,0,0-1.453.06l-5.859,3.383C472.3,174.529,472.254,174.9,472.626,175.12Z" transform="translate(-472.375 -170.693)" fill="#396caa"/>
          </g>
        </g>
      </g>
      <g id="Grupo_92936" data-name="Grupo 92936" transform="translate(303.185 57.755)">
        <g id="Grupo_92928" data-name="Grupo 92928" transform="translate(0)">
          <g id="Grupo_92919" data-name="Grupo 92919">
            <path id="Trazado_143088" data-name="Trazado 143088" d="M393.327,278.594l-22.378-12.76c-.819-.473-.716-1.3.229-1.844l12.876-7.434a3.55,3.55,0,0,1,3.193-.132l22.378,12.76c.819.472.716,1.3-.229,1.843l-12.876,7.434A3.549,3.549,0,0,1,393.327,278.594Z" transform="translate(-368.949 -197.697)" fill="#b2d3ea"/>
            <path id="Trazado_143089" data-name="Trazado 143089" d="M409.422,186.51h0V134.267l-20.769-5.436-3.825-2.209a3.807,3.807,0,0,0-3.425.142l-3.569,2.061-11.078-.006,3.28,50.433a.993.993,0,0,0,.588.918l20.726,15.639a3.807,3.807,0,0,0,3.425-.142l13.813-7.975A1.357,1.357,0,0,0,409.422,186.51Z" transform="translate(-366.751 -119.319)" fill="#396caa"/>
            <path id="Trazado_143090" data-name="Trazado 143090" d="M383.235,126.287a3.956,3.956,0,0,0-1.836.481l-3.569,2.061-11.078-.006v52.383a.993.993,0,0,0,.588.918l24.006,13.689a3.106,3.106,0,0,0,1.59.34l.247-52.711Z" transform="translate(-366.747 -119.323)" fill="#d4ecff"/>
            <path id="Trazado_143091" data-name="Trazado 143091" d="M429.377,221.107a3.9,3.9,0,0,0,2.738-.031V168h-2.738Z" transform="translate(-404.557 -144.509)" fill="#5793ce"/>
            <path id="Trazado_143092" data-name="Trazado 143092" d="M391.343,132.838l-24.006-13.689c-.878-.507-.768-1.392.246-1.977L381.4,109.2a3.807,3.807,0,0,1,3.425-.142l24.006,13.688c.878.507.768,1.392-.246,1.978L394.768,132.7A3.807,3.807,0,0,1,391.343,132.838Z" transform="translate(-366.744 -108.712)" fill="#d4ecff"/>
            <path id="Trazado_143093" data-name="Trazado 143093" d="M408.581,137.578l-13.813,7.975a3.806,3.806,0,0,1-3.425.142l-24.006-13.688a1.326,1.326,0,0,1-.438-.389.92.92,0,0,0,.438,1.36l24.006,13.689a3.808,3.808,0,0,0,3.425-.142l13.813-7.975c.787-.455,1.027-1.09.684-1.589A1.92,1.92,0,0,1,408.581,137.578Z" transform="translate(-366.744 -122.541)" fill="#fafdff"/>
            <g id="Grupo_92918" data-name="Grupo 92918" transform="translate(9.018 4.429)">
              <path id="Trazado_143094" data-name="Trazado 143094" d="M405.761,134.037l-15.983-9.265c-.411-.237-.359-.651.115-.926l6.464-3.732a1.783,1.783,0,0,1,1.6-.067l15.983,9.265c.411.237.359.651-.115.925l-6.464,3.732A1.783,1.783,0,0,1,405.761,134.037Z" transform="translate(-389.501 -119.888)" fill="#173d7a"/>
              <g id="Grupo_92917" data-name="Grupo 92917" transform="translate(6.667 4.089)">
                <path id="Trazado_143095" data-name="Trazado 143095" d="M407.29,131.419l-.926-.535c-.057-.032-.05-.09.016-.128l.894-.516a.247.247,0,0,1,.222-.009l.926.535c.057.032.05.09-.016.128l-.894.516A.247.247,0,0,1,407.29,131.419Z" transform="translate(-406.325 -130.208)" fill="#d4ecff"/>
                <path id="Trazado_143096" data-name="Trazado 143096" d="M415.1,135.908l-.926-.535c-.057-.033-.05-.09.016-.128l.894-.516a.246.246,0,0,1,.222-.009l.926.535c.057.033.05.09-.016.128l-.894.516A.247.247,0,0,1,415.1,135.908Z" transform="translate(-411.039 -132.919)" fill="#d4ecff"/>
                <path id="Trazado_143097" data-name="Trazado 143097" d="M422.906,140.4l-.926-.535c-.057-.033-.05-.09.016-.128l.894-.516a.246.246,0,0,1,.222-.009l.926.535c.057.033.05.09-.016.128l-.894.516A.245.245,0,0,1,422.906,140.4Z" transform="translate(-415.753 -135.629)" fill="#d4ecff"/>
                <path id="Trazado_143098" data-name="Trazado 143098" d="M430.714,144.888l-.926-.535c-.057-.032-.05-.09.016-.128l.894-.516a.247.247,0,0,1,.222-.009l.926.535c.057.032.05.09-.016.128l-.894.516A.246.246,0,0,1,430.714,144.888Z" transform="translate(-420.467 -138.34)" fill="#d4ecff"/>
              </g>
              <path id="Trazado_143099" data-name="Trazado 143099" d="M389.778,124.772l.019.011a1.071,1.071,0,0,1,.1-.066l6.464-3.732a1.781,1.781,0,0,1,1.6-.066l15.964,9.254c.378-.271.4-.64.019-.86l-15.983-9.265a1.783,1.783,0,0,0-1.6.067l-6.464,3.732C389.419,124.121,389.367,124.535,389.778,124.772Z" transform="translate(-389.501 -119.888)" fill="#5793ce"/>
            </g>
          </g>
          <g id="Grupo_92921" data-name="Grupo 92921" transform="translate(29.795 23.443)">
            <path id="Trazado_143100" data-name="Trazado 143100" d="M442.859,178.9l9.087-5.2a2.219,2.219,0,0,0,.926-1.769v-3.25c0-.682-.415-1-.926-.7l-9.087,5.2a2.217,2.217,0,0,0-.926,1.769v3.25C441.933,178.886,442.347,179.2,442.859,178.9Z" transform="translate(-441.933 -167.871)" fill="#173d7a"/>
            <path id="Trazado_143101" data-name="Trazado 143101" d="M452.751,167.9a.906.906,0,0,1,.233.676v3.25a2.217,2.217,0,0,1-.926,1.769l-9.087,5.2a.668.668,0,0,1-.45.1.552.552,0,0,0,.693.024l9.087-5.2a2.218,2.218,0,0,0,.926-1.769V168.7C453.227,168.239,453.033,167.952,452.751,167.9Z" transform="translate(-442.287 -167.891)" fill="#fff"/>
            <g id="Grupo_92920" data-name="Grupo 92920" transform="translate(3.457 3.959)">
              <path id="Trazado_143102" data-name="Trazado 143102" d="M450.86,183.857l.834-.481a.483.483,0,0,0,.2-.386v-.89c0-.149-.09-.217-.2-.153l-.834.481a.483.483,0,0,0-.2.386v.89C450.658,183.853,450.748,183.921,450.86,183.857Z" transform="translate(-450.658 -180.314)" fill="#396caa"/>
              <path id="Trazado_143103" data-name="Trazado 143103" d="M457.894,179.8l.834-.481a.483.483,0,0,0,.2-.386v-.89c0-.149-.09-.217-.2-.153l-.834.481a.483.483,0,0,0-.2.386v.89C457.692,179.792,457.782,179.86,457.894,179.8Z" transform="translate(-454.905 -177.862)" fill="#fff"/>
            </g>
          </g>
          <g id="Grupo_92923" data-name="Grupo 92923" transform="translate(29.795 46.926)">
            <path id="Trazado_143104" data-name="Trazado 143104" d="M442.859,238.164l9.087-5.2a2.218,2.218,0,0,0,.926-1.769v-3.25c0-.682-.415-1-.926-.7l-9.087,5.2a2.217,2.217,0,0,0-.926,1.769v3.25C441.933,238.146,442.347,238.459,442.859,238.164Z" transform="translate(-441.933 -227.131)" fill="#173d7a"/>
            <path id="Trazado_143105" data-name="Trazado 143105" d="M452.751,227.164a.906.906,0,0,1,.233.676v3.25a2.217,2.217,0,0,1-.926,1.769l-9.087,5.2a.666.666,0,0,1-.45.1.552.552,0,0,0,.693.024l9.087-5.2a2.218,2.218,0,0,0,.926-1.769v-3.25C453.227,227.5,453.033,227.212,452.751,227.164Z" transform="translate(-442.287 -227.151)" fill="#fff"/>
            <g id="Grupo_92922" data-name="Grupo 92922" transform="translate(3.457 3.959)">
              <path id="Trazado_143106" data-name="Trazado 143106" d="M450.86,243.117l.834-.481a.485.485,0,0,0,.2-.386v-.89c0-.149-.09-.217-.2-.153l-.834.481a.483.483,0,0,0-.2.386v.89C450.658,243.113,450.748,243.181,450.86,243.117Z" transform="translate(-450.658 -239.574)" fill="#396caa"/>
              <path id="Trazado_143107" data-name="Trazado 143107" d="M457.894,239.056l.834-.481a.483.483,0,0,0,.2-.386v-.89c0-.149-.09-.217-.2-.153l-.834.481a.483.483,0,0,0-.2.386v.89C457.692,239.052,457.782,239.12,457.894,239.056Z" transform="translate(-454.905 -237.122)" fill="#396caa"/>
            </g>
          </g>
          <g id="Grupo_92925" data-name="Grupo 92925" transform="translate(29.795 58.667)">
            <path id="Trazado_143108" data-name="Trazado 143108" d="M442.859,267.794l9.087-5.2a2.218,2.218,0,0,0,.926-1.769v-3.249c0-.682-.415-1-.926-.7l-9.087,5.2a2.217,2.217,0,0,0-.926,1.769v3.249C441.933,267.776,442.347,268.089,442.859,267.794Z" transform="translate(-441.933 -256.761)" fill="#173d7a"/>
            <path id="Trazado_143109" data-name="Trazado 143109" d="M452.751,256.794a.906.906,0,0,1,.233.676v3.25a2.217,2.217,0,0,1-.926,1.769l-9.087,5.2a.667.667,0,0,1-.45.1.552.552,0,0,0,.693.024l9.087-5.2a2.218,2.218,0,0,0,.926-1.769v-3.25C453.227,257.129,453.033,256.842,452.751,256.794Z" transform="translate(-442.287 -256.781)" fill="#fff"/>
            <g id="Grupo_92924" data-name="Grupo 92924" transform="translate(3.457 3.959)">
              <path id="Trazado_143110" data-name="Trazado 143110" d="M450.86,272.747l.834-.481a.485.485,0,0,0,.2-.386v-.89c0-.149-.09-.217-.2-.153l-.834.482a.483.483,0,0,0-.2.386v.89C450.658,272.743,450.748,272.812,450.86,272.747Z" transform="translate(-450.658 -269.204)" fill="#fff"/>
              <path id="Trazado_143111" data-name="Trazado 143111" d="M457.894,268.686l.834-.481a.483.483,0,0,0,.2-.386v-.89c0-.149-.09-.217-.2-.153l-.834.482a.483.483,0,0,0-.2.386v.89C457.692,268.682,457.782,268.751,457.894,268.686Z" transform="translate(-454.905 -266.752)" fill="#396caa"/>
            </g>
          </g>
          <g id="Grupo_92927" data-name="Grupo 92927" transform="translate(29.795 35.184)">
            <path id="Trazado_143112" data-name="Trazado 143112" d="M442.859,208.533l9.087-5.2a2.218,2.218,0,0,0,.926-1.769v-3.25c0-.682-.415-1-.926-.7l-9.087,5.2a2.217,2.217,0,0,0-.926,1.769v3.25C441.933,208.516,442.347,208.829,442.859,208.533Z" transform="translate(-441.933 -197.501)" fill="#173d7a"/>
            <path id="Trazado_143113" data-name="Trazado 143113" d="M452.751,197.534a.906.906,0,0,1,.233.676v3.25a2.217,2.217,0,0,1-.926,1.769l-9.087,5.2a.666.666,0,0,1-.45.1.552.552,0,0,0,.693.024l9.087-5.2a2.218,2.218,0,0,0,.926-1.769v-3.25C453.227,197.869,453.033,197.582,452.751,197.534Z" transform="translate(-442.287 -197.521)" fill="#fff"/>
            <g id="Grupo_92926" data-name="Grupo 92926" transform="translate(3.457 3.959)">
              <path id="Trazado_143114" data-name="Trazado 143114" d="M450.86,213.487l.834-.481a.483.483,0,0,0,.2-.386v-.89c0-.149-.09-.217-.2-.153l-.834.481a.483.483,0,0,0-.2.386v.89C450.658,213.483,450.748,213.551,450.86,213.487Z" transform="translate(-450.658 -209.944)" fill="#fff"/>
              <path id="Trazado_143115" data-name="Trazado 143115" d="M457.894,209.426l.834-.481a.483.483,0,0,0,.2-.386v-.89c0-.149-.09-.217-.2-.153l-.834.481a.483.483,0,0,0-.2.386v.89C457.692,209.422,457.782,209.49,457.894,209.426Z" transform="translate(-454.905 -207.492)" fill="#fff"/>
            </g>
          </g>
        </g>
        <g id="Grupo_92929" data-name="Grupo 92929" transform="translate(1.035 12.679)">
          <path id="Trazado_143116" data-name="Trazado 143116" d="M391.172,159.179l-20.966-12.1a2.035,2.035,0,0,1-.85-1.624v-4c0-.626.38-.913.85-.642l20.966,12.1a2.034,2.034,0,0,1,.85,1.623v4C392.022,159.162,391.641,159.449,391.172,159.179Z" transform="translate(-369.357 -140.709)" fill="#5793ce"/>
          <path id="Trazado_143117" data-name="Trazado 143117" d="M392.125,159.989l-19.762-11.41a1.032,1.032,0,0,1-.431-.823V144.75c0-.317.193-.463.431-.326l19.762,11.409a1.033,1.033,0,0,1,.431.823v3.006C392.556,159.98,392.363,160.126,392.125,159.989Z" transform="translate(-370.912 -142.92)" fill="#d4ecff" opacity="0.4"/>
          <path id="Trazado_143118" data-name="Trazado 143118" d="M378.281,152.783l-2.949-1.7a1,1,0,0,1-.419-.8h0c0-.308.187-.45.419-.316l2.949,1.7a1,1,0,0,1,.419.8h0C378.7,152.775,378.513,152.917,378.281,152.783Z" transform="translate(-372.712 -146.266)" fill="#d4ecff"/>
          <path id="Trazado_143119" data-name="Trazado 143119" d="M388.281,158.031c0,.308-.216.434-.483.279a1.068,1.068,0,0,1-.483-.837c0-.308.216-.433.483-.279A1.069,1.069,0,0,1,388.281,158.031Z" transform="translate(-380.199 -150.622)" fill="#173d7a"/>
          <path id="Trazado_143120" data-name="Trazado 143120" d="M392.585,160.516c0,.308-.216.433-.483.279a1.068,1.068,0,0,1-.483-.837c0-.308.216-.434.483-.279A1.068,1.068,0,0,1,392.585,160.516Z" transform="translate(-382.797 -152.121)" fill="#173d7a"/>
          <path id="Trazado_143121" data-name="Trazado 143121" d="M396.888,163c0,.308-.216.434-.483.279a1.068,1.068,0,0,1-.483-.837c0-.308.216-.433.483-.279A1.068,1.068,0,0,1,396.888,163Z" transform="translate(-385.394 -153.622)" fill="#d4ecff"/>
          <path id="Trazado_143122" data-name="Trazado 143122" d="M401.191,165.485c0,.308-.216.433-.483.279a1.069,1.069,0,0,1-.483-.837c0-.308.217-.433.483-.279A1.068,1.068,0,0,1,401.191,165.485Z" transform="translate(-387.992 -155.121)" fill="#173d7a"/>
          <path id="Trazado_143123" data-name="Trazado 143123" d="M418.869,175.941l-.993-.574a.643.643,0,0,1-.268-.513V173.8c0-.2.12-.289.268-.2l.993.574a.643.643,0,0,1,.269.513v1.051C419.137,175.936,419.017,176.027,418.869,175.941Z" transform="translate(-398.487 -160.547)" fill="#173d7a"/>
        </g>
        <g id="Grupo_92930" data-name="Grupo 92930" transform="translate(1.035 19.729)">
          <path id="Trazado_143124" data-name="Trazado 143124" d="M391.172,176.969l-20.966-12.1a2.035,2.035,0,0,1-.85-1.624v-4c0-.626.38-.913.85-.642l20.966,12.1a2.035,2.035,0,0,1,.85,1.624v4C392.022,176.952,391.641,177.239,391.172,176.969Z" transform="translate(-369.357 -158.499)" fill="#5793ce"/>
          <path id="Trazado_143125" data-name="Trazado 143125" d="M392.125,177.779l-19.762-11.409a1.032,1.032,0,0,1-.431-.823V162.54c0-.317.193-.463.431-.326l19.762,11.409a1.032,1.032,0,0,1,.431.824v3.005C392.556,177.77,392.363,177.916,392.125,177.779Z" transform="translate(-370.912 -160.71)" fill="#d4ecff" opacity="0.4"/>
          <path id="Trazado_143126" data-name="Trazado 143126" d="M378.281,170.573l-2.949-1.7a1,1,0,0,1-.419-.8h0c0-.308.187-.45.419-.316l2.949,1.7a1,1,0,0,1,.419.8h0C378.7,170.565,378.513,170.707,378.281,170.573Z" transform="translate(-372.712 -164.056)" fill="#d4ecff"/>
          <path id="Trazado_143127" data-name="Trazado 143127" d="M388.281,175.822c0,.308-.216.433-.483.279a1.068,1.068,0,0,1-.483-.837c0-.308.216-.433.483-.279A1.069,1.069,0,0,1,388.281,175.822Z" transform="translate(-380.199 -168.412)" fill="#fff"/>
          <path id="Trazado_143128" data-name="Trazado 143128" d="M392.585,178.306c0,.308-.216.433-.483.279a1.068,1.068,0,0,1-.483-.837c0-.308.216-.433.483-.279A1.068,1.068,0,0,1,392.585,178.306Z" transform="translate(-382.797 -169.911)" fill="#173d7a"/>
          <path id="Trazado_143129" data-name="Trazado 143129" d="M396.888,180.79c0,.308-.216.434-.483.279a1.068,1.068,0,0,1-.483-.837c0-.308.216-.433.483-.279A1.068,1.068,0,0,1,396.888,180.79Z" transform="translate(-385.394 -171.412)" fill="#d4ecff"/>
          <path id="Trazado_143130" data-name="Trazado 143130" d="M401.191,183.275c0,.308-.216.433-.483.279a1.069,1.069,0,0,1-.483-.837c0-.308.217-.433.483-.279A1.068,1.068,0,0,1,401.191,183.275Z" transform="translate(-387.992 -172.911)" fill="#173d7a"/>
          <path id="Trazado_143131" data-name="Trazado 143131" d="M418.869,193.731l-.993-.574a.643.643,0,0,1-.268-.513v-1.051c0-.2.12-.289.268-.2l.993.574a.643.643,0,0,1,.269.513v1.051C419.137,193.726,419.017,193.817,418.869,193.731Z" transform="translate(-398.487 -178.337)" fill="#173d7a"/>
        </g>
        <g id="Grupo_92931" data-name="Grupo 92931" transform="translate(1.035 26.779)">
          <path id="Trazado_143132" data-name="Trazado 143132" d="M391.172,194.758l-20.966-12.1a2.035,2.035,0,0,1-.85-1.624v-4c0-.626.38-.913.85-.642l20.966,12.1a2.035,2.035,0,0,1,.85,1.624v4C392.022,194.742,391.641,195.029,391.172,194.758Z" transform="translate(-369.357 -176.289)" fill="#5793ce"/>
          <path id="Trazado_143133" data-name="Trazado 143133" d="M392.125,195.568l-19.762-11.409a1.032,1.032,0,0,1-.431-.823V180.33c0-.317.193-.463.431-.326l19.762,11.409a1.032,1.032,0,0,1,.431.823v3.006C392.556,195.56,392.363,195.706,392.125,195.568Z" transform="translate(-370.912 -178.5)" fill="#d4ecff" opacity="0.4"/>
          <path id="Trazado_143134" data-name="Trazado 143134" d="M378.281,188.363l-2.949-1.7a1,1,0,0,1-.419-.8h0c0-.308.187-.45.419-.316l2.949,1.7a1,1,0,0,1,.419.8h0C378.7,188.355,378.513,188.5,378.281,188.363Z" transform="translate(-372.712 -181.846)" fill="#d4ecff"/>
          <path id="Trazado_143135" data-name="Trazado 143135" d="M388.281,193.611c0,.308-.216.434-.483.279a1.068,1.068,0,0,1-.483-.837c0-.308.216-.433.483-.279A1.069,1.069,0,0,1,388.281,193.611Z" transform="translate(-380.199 -186.202)" fill="#fff"/>
          <path id="Trazado_143136" data-name="Trazado 143136" d="M392.585,196.1c0,.308-.216.433-.483.279a1.068,1.068,0,0,1-.483-.837c0-.308.216-.433.483-.279A1.068,1.068,0,0,1,392.585,196.1Z" transform="translate(-382.797 -187.701)" fill="#173d7a"/>
          <path id="Trazado_143137" data-name="Trazado 143137" d="M396.888,198.58c0,.308-.216.434-.483.279a1.067,1.067,0,0,1-.483-.837c0-.308.216-.433.483-.279A1.068,1.068,0,0,1,396.888,198.58Z" transform="translate(-385.394 -189.202)" fill="#d4ecff"/>
          <path id="Trazado_143138" data-name="Trazado 143138" d="M401.191,201.065c0,.308-.216.433-.483.279a1.069,1.069,0,0,1-.483-.837c0-.308.217-.433.483-.279A1.068,1.068,0,0,1,401.191,201.065Z" transform="translate(-387.992 -190.701)" fill="#173d7a"/>
          <path id="Trazado_143139" data-name="Trazado 143139" d="M418.869,211.521l-.993-.574a.643.643,0,0,1-.268-.513v-1.051c0-.2.12-.289.268-.2l.993.573a.644.644,0,0,1,.269.514v1.051C419.137,211.516,419.017,211.607,418.869,211.521Z" transform="translate(-398.487 -196.127)" fill="#173d7a"/>
        </g>
        <g id="Grupo_92932" data-name="Grupo 92932" transform="translate(1.035 33.828)">
          <path id="Trazado_143140" data-name="Trazado 143140" d="M391.172,212.548l-20.966-12.1a2.035,2.035,0,0,1-.85-1.624v-4c0-.626.38-.913.85-.642l20.966,12.1a2.035,2.035,0,0,1,.85,1.624v4C392.022,212.532,391.641,212.819,391.172,212.548Z" transform="translate(-369.357 -194.079)" fill="#5793ce"/>
          <path id="Trazado_143141" data-name="Trazado 143141" d="M392.125,213.359l-19.762-11.409a1.032,1.032,0,0,1-.431-.823V198.12c0-.317.193-.463.431-.326L392.125,209.2a1.032,1.032,0,0,1,.431.823v3.006C392.556,213.35,392.363,213.5,392.125,213.359Z" transform="translate(-370.912 -196.29)" fill="#d4ecff" opacity="0.4"/>
          <path id="Trazado_143142" data-name="Trazado 143142" d="M378.281,206.153l-2.949-1.7a1,1,0,0,1-.419-.8h0c0-.308.187-.45.419-.317l2.949,1.7a1,1,0,0,1,.419.8h0C378.7,206.144,378.513,206.286,378.281,206.153Z" transform="translate(-372.712 -199.636)" fill="#d4ecff"/>
          <path id="Trazado_143143" data-name="Trazado 143143" d="M388.281,211.4c0,.308-.216.434-.483.279a1.068,1.068,0,0,1-.483-.837c0-.308.216-.433.483-.279A1.068,1.068,0,0,1,388.281,211.4Z" transform="translate(-380.199 -203.992)" fill="#173d7a"/>
          <path id="Trazado_143144" data-name="Trazado 143144" d="M392.585,213.886c0,.308-.216.433-.483.279a1.068,1.068,0,0,1-.483-.837c0-.308.216-.433.483-.279A1.068,1.068,0,0,1,392.585,213.886Z" transform="translate(-382.797 -205.491)" fill="#173d7a"/>
          <path id="Trazado_143145" data-name="Trazado 143145" d="M396.888,216.37c0,.308-.216.433-.483.279a1.068,1.068,0,0,1-.483-.837c0-.308.216-.433.483-.279A1.068,1.068,0,0,1,396.888,216.37Z" transform="translate(-385.394 -206.991)" fill="#d4ecff"/>
          <path id="Trazado_143146" data-name="Trazado 143146" d="M401.191,218.855c0,.308-.216.433-.483.279a1.069,1.069,0,0,1-.483-.837c0-.308.217-.433.483-.279A1.068,1.068,0,0,1,401.191,218.855Z" transform="translate(-387.992 -208.491)" fill="#173d7a"/>
          <path id="Trazado_143147" data-name="Trazado 143147" d="M418.869,229.311l-.993-.574a.643.643,0,0,1-.268-.513v-1.051c0-.2.12-.289.268-.2l.993.573a.644.644,0,0,1,.269.514v1.051C419.137,229.306,419.017,229.4,418.869,229.311Z" transform="translate(-398.487 -213.916)" fill="#d4ecff"/>
        </g>
        <g id="Grupo_92933" data-name="Grupo 92933" transform="translate(1.035 40.878)">
          <path id="Trazado_143148" data-name="Trazado 143148" d="M391.172,230.338l-20.966-12.1a2.035,2.035,0,0,1-.85-1.624v-4c0-.625.38-.913.85-.642l20.966,12.1a2.035,2.035,0,0,1,.85,1.623v4C392.022,230.322,391.641,230.609,391.172,230.338Z" transform="translate(-369.357 -211.869)" fill="#5793ce"/>
          <path id="Trazado_143149" data-name="Trazado 143149" d="M392.125,231.149l-19.762-11.409a1.032,1.032,0,0,1-.431-.823V215.91c0-.317.193-.463.431-.326l19.762,11.409a1.032,1.032,0,0,1,.431.823v3.006C392.556,231.14,392.363,231.286,392.125,231.149Z" transform="translate(-370.912 -214.08)" fill="#d4ecff" opacity="0.4"/>
          <path id="Trazado_143150" data-name="Trazado 143150" d="M378.281,223.943l-2.949-1.7a1,1,0,0,1-.419-.8h0c0-.308.187-.45.419-.317l2.949,1.7a1,1,0,0,1,.419.8h0C378.7,223.934,378.513,224.076,378.281,223.943Z" transform="translate(-372.712 -217.426)" fill="#d4ecff"/>
          <path id="Trazado_143151" data-name="Trazado 143151" d="M388.281,229.191c0,.308-.216.433-.483.279a1.067,1.067,0,0,1-.483-.837c0-.308.216-.433.483-.279A1.068,1.068,0,0,1,388.281,229.191Z" transform="translate(-380.199 -221.782)" fill="#173d7a"/>
          <path id="Trazado_143152" data-name="Trazado 143152" d="M392.585,231.676c0,.308-.216.433-.483.279a1.068,1.068,0,0,1-.483-.837c0-.308.216-.433.483-.279A1.068,1.068,0,0,1,392.585,231.676Z" transform="translate(-382.797 -223.281)" fill="#fff"/>
          <path id="Trazado_143153" data-name="Trazado 143153" d="M396.888,234.16c0,.308-.216.433-.483.279a1.067,1.067,0,0,1-.483-.837c0-.308.216-.434.483-.279A1.067,1.067,0,0,1,396.888,234.16Z" transform="translate(-385.394 -224.781)" fill="#d4ecff"/>
          <path id="Trazado_143154" data-name="Trazado 143154" d="M401.191,236.645c0,.308-.216.433-.483.279a1.069,1.069,0,0,1-.483-.837c0-.308.217-.433.483-.279A1.068,1.068,0,0,1,401.191,236.645Z" transform="translate(-387.992 -226.281)" fill="#fff"/>
          <path id="Trazado_143155" data-name="Trazado 143155" d="M418.869,247.1l-.993-.574a.643.643,0,0,1-.268-.513v-1.051c0-.2.12-.289.268-.2l.993.573a.643.643,0,0,1,.269.514V246.9C419.137,247.1,419.017,247.187,418.869,247.1Z" transform="translate(-398.487 -231.706)" fill="#d4ecff"/>
        </g>
        <g id="Grupo_92934" data-name="Grupo 92934" transform="translate(1.035 47.927)">
          <path id="Trazado_143156" data-name="Trazado 143156" d="M391.172,248.128l-20.966-12.1a2.035,2.035,0,0,1-.85-1.624v-4c0-.625.38-.913.85-.642l20.966,12.1a2.035,2.035,0,0,1,.85,1.624v4C392.022,248.111,391.641,248.4,391.172,248.128Z" transform="translate(-369.357 -229.658)" fill="#5793ce"/>
          <path id="Trazado_143157" data-name="Trazado 143157" d="M392.125,248.938l-19.762-11.409a1.032,1.032,0,0,1-.431-.823V233.7c0-.317.193-.463.431-.326l19.762,11.41a1.032,1.032,0,0,1,.431.823v3.006C392.556,248.93,392.363,249.076,392.125,248.938Z" transform="translate(-370.912 -231.87)" fill="#d4ecff" opacity="0.4"/>
          <path id="Trazado_143158" data-name="Trazado 143158" d="M378.281,241.733l-2.949-1.7a1,1,0,0,1-.419-.8h0c0-.308.187-.45.419-.317l2.949,1.7a1,1,0,0,1,.419.8h0C378.7,241.724,378.513,241.866,378.281,241.733Z" transform="translate(-372.712 -235.216)" fill="#d4ecff"/>
          <path id="Trazado_143159" data-name="Trazado 143159" d="M388.281,246.981c0,.308-.216.433-.483.279a1.067,1.067,0,0,1-.483-.837c0-.308.216-.433.483-.279A1.068,1.068,0,0,1,388.281,246.981Z" transform="translate(-380.199 -239.571)" fill="#173d7a"/>
          <path id="Trazado_143160" data-name="Trazado 143160" d="M392.585,249.466c0,.308-.216.433-.483.279a1.068,1.068,0,0,1-.483-.837c0-.308.216-.433.483-.279A1.068,1.068,0,0,1,392.585,249.466Z" transform="translate(-382.797 -241.071)" fill="#173d7a"/>
          <path id="Trazado_143161" data-name="Trazado 143161" d="M396.888,251.95c0,.308-.216.433-.483.279a1.068,1.068,0,0,1-.483-.837c0-.308.216-.433.483-.279A1.068,1.068,0,0,1,396.888,251.95Z" transform="translate(-385.394 -242.571)" fill="#d4ecff"/>
          <path id="Trazado_143162" data-name="Trazado 143162" d="M401.191,254.435c0,.308-.216.433-.483.279a1.069,1.069,0,0,1-.483-.837c0-.308.217-.433.483-.279A1.068,1.068,0,0,1,401.191,254.435Z" transform="translate(-387.992 -244.071)" fill="#173d7a"/>
          <path id="Trazado_143163" data-name="Trazado 143163" d="M418.869,264.891l-.993-.573a.643.643,0,0,1-.268-.513v-1.051c0-.2.12-.288.268-.2l.993.573a.643.643,0,0,1,.269.514v1.051C419.137,264.886,419.017,264.977,418.869,264.891Z" transform="translate(-398.487 -249.496)" fill="#173d7a"/>
        </g>
        <g id="Grupo_92935" data-name="Grupo 92935" transform="translate(1.035 54.977)">
          <path id="Trazado_143164" data-name="Trazado 143164" d="M391.172,265.918l-20.966-12.1a2.035,2.035,0,0,1-.85-1.624v-4c0-.626.38-.913.85-.642l20.966,12.1a2.035,2.035,0,0,1,.85,1.624v4C392.022,265.9,391.641,266.189,391.172,265.918Z" transform="translate(-369.357 -247.448)" fill="#5793ce"/>
          <path id="Trazado_143165" data-name="Trazado 143165" d="M392.125,266.729l-19.762-11.41a1.033,1.033,0,0,1-.431-.824V251.49c0-.317.193-.463.431-.326l19.762,11.41a1.031,1.031,0,0,1,.431.823V266.4C392.556,266.72,392.363,266.866,392.125,266.729Z" transform="translate(-370.912 -249.66)" fill="#d4ecff" opacity="0.4"/>
          <path id="Trazado_143166" data-name="Trazado 143166" d="M378.281,259.522l-2.949-1.7a1,1,0,0,1-.419-.8h0c0-.308.187-.45.419-.317l2.949,1.7a1,1,0,0,1,.419.8h0C378.7,259.514,378.513,259.656,378.281,259.522Z" transform="translate(-372.712 -253.005)" fill="#d4ecff"/>
          <path id="Trazado_143167" data-name="Trazado 143167" d="M388.281,264.771c0,.308-.216.433-.483.279a1.067,1.067,0,0,1-.483-.837c0-.308.216-.433.483-.279A1.069,1.069,0,0,1,388.281,264.771Z" transform="translate(-380.199 -257.361)" fill="#fff"/>
          <path id="Trazado_143168" data-name="Trazado 143168" d="M392.585,267.256c0,.308-.216.433-.483.279a1.068,1.068,0,0,1-.483-.837c0-.308.216-.433.483-.279A1.068,1.068,0,0,1,392.585,267.256Z" transform="translate(-382.797 -258.861)" fill="#173d7a"/>
          <path id="Trazado_143169" data-name="Trazado 143169" d="M396.888,269.74c0,.308-.216.433-.483.279a1.068,1.068,0,0,1-.483-.837c0-.308.216-.434.483-.279A1.068,1.068,0,0,1,396.888,269.74Z" transform="translate(-385.394 -260.361)" fill="#d4ecff"/>
          <path id="Trazado_143170" data-name="Trazado 143170" d="M401.191,272.225c0,.308-.216.433-.483.279a1.069,1.069,0,0,1-.483-.837c0-.308.217-.433.483-.279A1.068,1.068,0,0,1,401.191,272.225Z" transform="translate(-387.992 -261.861)" fill="#173d7a"/>
          <path id="Trazado_143171" data-name="Trazado 143171" d="M418.869,282.681l-.993-.573a.643.643,0,0,1-.268-.513v-1.051c0-.2.12-.289.268-.2l.993.573a.643.643,0,0,1,.269.514v1.051C419.137,282.676,419.017,282.767,418.869,282.681Z" transform="translate(-398.487 -267.286)" fill="#d4ecff"/>
        </g>
      </g>
      <g id="Grupo_92940" data-name="Grupo 92940" transform="translate(318.103 46.009)">
        <path id="Trazado_143172" data-name="Trazado 143172" d="M408.537,111.191a.316.316,0,0,1-.316-.317V97.842a.316.316,0,1,1,.633,0v13.033A.317.317,0,0,1,408.537,111.191Z" transform="translate(-406.703 -90.212)" fill="#5793ce"/>
        <g id="Grupo_92939" data-name="Grupo 92939">
          <g id="Grupo_92937" data-name="Grupo 92937" transform="translate(0.702 6.81)">
            <rect id="Rectángulo_35338" data-name="Rectángulo 35338" width="2.264" height="4.886" transform="translate(0)" fill="#5793ce"/>
            <path id="Trazado_143173" data-name="Trazado 143173" d="M408.095,108.052a1.769,1.769,0,0,1-1.6,0,.488.488,0,0,1,0-.924,1.77,1.77,0,0,1,1.6,0A.488.488,0,0,1,408.095,108.052Z" transform="translate(-406.162 -102.704)" fill="#5793ce"/>
          </g>
          <g id="Grupo_92938" data-name="Grupo 92938">
            <rect id="Rectángulo_35339" data-name="Rectángulo 35339" width="3.669" height="7.663" fill="#5793ce"/>
            <path id="Trazado_143174" data-name="Trazado 143174" d="M406.162,97.937v1.654a2.929,2.929,0,0,0,2.264,0V97.937A2.929,2.929,0,0,0,406.162,97.937Z" transform="translate(-405.46 -90.324)" fill="#396caa"/>
            <path id="Trazado_143175" data-name="Trazado 143175" d="M407.522,97.545a2.867,2.867,0,0,1-2.594,0,.791.791,0,0,1,0-1.5,2.866,2.866,0,0,1,2.594,0A.791.791,0,0,1,407.522,97.545Z" transform="translate(-404.39 -89.133)" fill="#5793ce"/>
          </g>
        </g>
      </g>
      <g id="Grupo_92944" data-name="Grupo 92944" transform="translate(321.197 47.857)">
        <path id="Trazado_143176" data-name="Trazado 143176" d="M416.345,115.853a.317.317,0,0,1-.317-.317V102.5a.317.317,0,0,1,.633,0v13.033A.317.317,0,0,1,416.345,115.853Z" transform="translate(-414.51 -94.875)" fill="#5793ce"/>
        <g id="Grupo_92943" data-name="Grupo 92943" transform="translate(0)">
          <g id="Grupo_92941" data-name="Grupo 92941" transform="translate(0.702 6.81)">
            <rect id="Rectángulo_35340" data-name="Rectángulo 35340" width="2.264" height="4.886" transform="translate(0)" fill="#5793ce"/>
            <path id="Trazado_143177" data-name="Trazado 143177" d="M415.9,112.715a1.767,1.767,0,0,1-1.6,0,.488.488,0,0,1,0-.924,1.77,1.77,0,0,1,1.6,0A.488.488,0,0,1,415.9,112.715Z" transform="translate(-413.97 -107.367)" fill="#5793ce"/>
          </g>
          <g id="Grupo_92942" data-name="Grupo 92942">
            <rect id="Rectángulo_35341" data-name="Rectángulo 35341" width="3.669" height="7.663" fill="#5793ce"/>
            <path id="Trazado_143178" data-name="Trazado 143178" d="M413.97,102.6v1.653a2.929,2.929,0,0,0,2.264,0V102.6A2.929,2.929,0,0,0,413.97,102.6Z" transform="translate(-413.268 -94.987)" fill="#396caa"/>
            <path id="Trazado_143179" data-name="Trazado 143179" d="M415.33,102.208a2.867,2.867,0,0,1-2.594,0,.791.791,0,0,1,0-1.5,2.869,2.869,0,0,1,2.594,0A.791.791,0,0,1,415.33,102.208Z" transform="translate(-412.198 -93.796)" fill="#5793ce"/>
          </g>
        </g>
      </g>
      <g id="Grupo_92948" data-name="Grupo 92948" transform="translate(324.292 49.704)">
        <path id="Trazado_143180" data-name="Trazado 143180" d="M424.154,120.516a.316.316,0,0,1-.317-.317V107.167a.317.317,0,0,1,.633,0V120.2A.317.317,0,0,1,424.154,120.516Z" transform="translate(-422.319 -99.538)" fill="#5793ce"/>
        <g id="Grupo_92947" data-name="Grupo 92947">
          <g id="Grupo_92945" data-name="Grupo 92945" transform="translate(0.702 6.81)">
            <rect id="Rectángulo_35342" data-name="Rectángulo 35342" width="2.264" height="4.886" transform="translate(0)" fill="#5793ce"/>
            <path id="Trazado_143181" data-name="Trazado 143181" d="M423.711,117.377a1.77,1.77,0,0,1-1.6,0,.488.488,0,0,1,0-.925,1.77,1.77,0,0,1,1.6,0A.488.488,0,0,1,423.711,117.377Z" transform="translate(-421.778 -112.029)" fill="#5793ce"/>
          </g>
          <g id="Grupo_92946" data-name="Grupo 92946">
            <rect id="Rectángulo_35343" data-name="Rectángulo 35343" width="3.669" height="7.663" fill="#5793ce"/>
            <path id="Trazado_143182" data-name="Trazado 143182" d="M421.778,107.262v1.654a2.929,2.929,0,0,0,2.264,0v-1.654A2.929,2.929,0,0,0,421.778,107.262Z" transform="translate(-421.076 -99.649)" fill="#396caa"/>
            <path id="Trazado_143183" data-name="Trazado 143183" d="M423.138,106.87a2.869,2.869,0,0,1-2.594,0,.791.791,0,0,1,0-1.5,2.867,2.867,0,0,1,2.594,0A.791.791,0,0,1,423.138,106.87Z" transform="translate(-420.006 -98.458)" fill="#5793ce"/>
          </g>
        </g>
      </g>
      <g id="Grupo_92952" data-name="Grupo 92952" transform="translate(327.386 51.552)">
        <path id="Trazado_143184" data-name="Trazado 143184" d="M431.961,125.178a.316.316,0,0,1-.317-.317V111.829a.317.317,0,0,1,.633,0v13.033A.316.316,0,0,1,431.961,125.178Z" transform="translate(-430.126 -104.2)" fill="#5793ce"/>
        <g id="Grupo_92951" data-name="Grupo 92951">
          <g id="Grupo_92949" data-name="Grupo 92949" transform="translate(0.702 6.81)">
            <rect id="Rectángulo_35344" data-name="Rectángulo 35344" width="2.264" height="4.886" fill="#5793ce"/>
            <path id="Trazado_143185" data-name="Trazado 143185" d="M431.519,122.039a1.769,1.769,0,0,1-1.6,0,.488.488,0,0,1,0-.924,1.767,1.767,0,0,1,1.6,0A.488.488,0,0,1,431.519,122.039Z" transform="translate(-429.587 -116.691)" fill="#5793ce"/>
          </g>
          <g id="Grupo_92950" data-name="Grupo 92950">
            <rect id="Rectángulo_35345" data-name="Rectángulo 35345" width="3.669" height="7.663" fill="#5793ce"/>
            <path id="Trazado_143186" data-name="Trazado 143186" d="M429.586,111.925v1.654a2.929,2.929,0,0,0,2.264,0v-1.654A2.932,2.932,0,0,0,429.586,111.925Z" transform="translate(-428.884 -104.311)" fill="#396caa"/>
            <path id="Trazado_143187" data-name="Trazado 143187" d="M430.946,111.532a2.867,2.867,0,0,1-2.594,0,.791.791,0,0,1,0-1.5,2.867,2.867,0,0,1,2.594,0A.791.791,0,0,1,430.946,111.532Z" transform="translate(-427.814 -103.12)" fill="#5793ce"/>
          </g>
        </g>
      </g>
      <g id="Grupo_92959" data-name="Grupo 92959" transform="translate(305.873 24.307)">
        <g id="Grupo_92955" data-name="Grupo 92955">
          <path id="Trazado_143188" data-name="Trazado 143188" d="M467.213,115.092l4.919-2.9-4.685-5.847-1.232,2.012Z" transform="translate(-429.485 -73.837)" fill="#5793ce"/>
          <path id="Trazado_143189" data-name="Trazado 143189" d="M378.592,40.547l7.851-4.517s-.3,4.508-.3,4.517-4.51,1.4-4.51,1.4Z" transform="translate(-376.584 -31.385)" fill="#5793ce"/>
          <path id="Trazado_143190" data-name="Trazado 143190" d="M424.567,50.858a4.95,4.95,0,0,0-1.7-.629c-.792-4.16-3.687-8.579-7.138-10.571a6.987,6.987,0,0,0-2.921-.988c-.472-5.043-3.977-10.773-8.235-13.232-2.224-1.284-4.242-1.436-5.731-.649v0l-.072.042-.113.065-4.63,2.734,1.538,1.215c-1.381.6-2.254,2.153-2.254,4.442a14.633,14.633,0,0,0,6.62,11.467l24.634,17.59c2.745,1.585,4.971.3,4.971-2.87A10.989,10.989,0,0,0,424.567,50.858Z" transform="translate(-385.472 -24.308)" fill="#5793ce"/>
          <path id="Trazado_143191" data-name="Trazado 143191" d="M393.89,31.423l10.626-6.208c-2.063-1.076-3.927-1.165-5.324-.426v0l-.072.042-.113.065-4.63,2.734,1.538,1.215A3.712,3.712,0,0,0,393.89,31.423Z" transform="translate(-385.82 -24.307)" fill="#5793ce"/>
          <path id="Trazado_143192" data-name="Trazado 143192" d="M431.084,72.451l7.753-4.55a15.019,15.019,0,0,0-5.188-5.48q-.4-.232-.794-.409l-9.861,5.767Z" transform="translate(-403.391 -47.071)" fill="#5793ce"/>
          <path id="Trazado_143193" data-name="Trazado 143193" d="M400.631,28.44l3.455,1.995,6.328-3.727a12.594,12.594,0,0,0-1.422-.963,8.877,8.877,0,0,0-2.211-.929Z" transform="translate(-389.89 -24.614)" fill="#d4ecff"/>
          <path id="Trazado_143194" data-name="Trazado 143194" d="M451.389,73.494,445.2,77.14l2.153,2.4,5.617-3.317A18.007,18.007,0,0,0,451.389,73.494Z" transform="translate(-416.798 -54.003)" fill="#d4ecff"/>
          <path id="Trazado_143195" data-name="Trazado 143195" d="M407.76,58.081a4.944,4.944,0,0,0-1.7-.63c-.792-4.16-3.687-8.579-7.138-10.571A6.989,6.989,0,0,0,396,45.891c-.472-5.043-3.977-10.773-8.235-13.232-4.579-2.644-8.29-.5-8.29,4.787,0,.179.005.36.013.542-3.348-1.553-5.964.2-5.964,4.163a14.633,14.633,0,0,0,6.62,11.467L407.76,69.561c2.745,1.585,4.971.3,4.971-2.87A10.988,10.988,0,0,0,407.76,58.081Z" transform="translate(-373.526 -28.667)" fill="#d4ecff"/>
          <g id="Grupo_92953" data-name="Grupo 92953" transform="translate(1.514 2.468)">
            <path id="Trazado_143196" data-name="Trazado 143196" d="M381.8,46.386c-.008-.182-.013-.363-.013-.542,0-.008,0-.015,0-.023-1.85-.719-3.439-.406-4.437.748C378.431,45.678,380.007,45.556,381.8,46.386Z" transform="translate(-377.347 -39.532)" fill="#fff"/>
            <path id="Trazado_143197" data-name="Trazado 143197" d="M420.026,57.087a4.95,4.95,0,0,0-1.7-.629c-.791-4.16-3.686-8.579-7.138-10.571a6.986,6.986,0,0,0-2.921-.988c-.471-5.043-3.977-10.773-8.235-13.232-2.853-1.647-5.369-1.435-6.86.236,1.52-1.3,3.846-1.349,6.456.158,4.258,2.458,7.764,8.189,8.235,13.231a6.993,6.993,0,0,1,2.921.988c3.452,1.993,6.346,6.411,7.138,10.571a4.944,4.944,0,0,1,1.7.63,10.988,10.988,0,0,1,4.971,8.61,4.1,4.1,0,0,1-.793,2.645A3.682,3.682,0,0,0,425,65.7,10.989,10.989,0,0,0,420.026,57.087Z" transform="translate(-386.901 -30.534)" fill="#fff"/>
          </g>
          <g id="Grupo_92954" data-name="Grupo 92954" transform="translate(1.388 4.246)">
            <path id="Trazado_143198" data-name="Trazado 143198" d="M381.02,41.357l2.076.963-.106-2.285c-.008-.16-.012-.32-.012-.478,0-2.04.616-3.519,1.734-4.165s2.708-.439,4.475.581c3.8,2.194,7.115,7.535,7.547,12.159l.109,1.165,1.167.09a5.614,5.614,0,0,1,2.334.807c3.018,1.742,5.738,5.792,6.468,9.628l.183.961.966.151a3.593,3.593,0,0,1,1.22.461,9.614,9.614,0,0,1,4.277,7.408,1.7,1.7,0,0,1-2.89,1.668L382.954,54.526a13.32,13.32,0,0,1-5.926-10.265,3.508,3.508,0,0,1,1.178-3.043,2.015,2.015,0,0,1,1.1-.294A4.148,4.148,0,0,1,381.02,41.357Z" transform="translate(-377.028 -35.022)" fill="#396caa"/>
          </g>
        </g>
        <g id="Grupo_92958" data-name="Grupo 92958" transform="translate(13.14 17.664)">
          <path id="Trazado_143199" data-name="Trazado 143199" d="M421.882,93.3l.728-.366-.717-.543Z" transform="translate(-415.86 -83.074)" fill="#5793ce"/>
          <path id="Trazado_143200" data-name="Trazado 143200" d="M416.361,69.306l.707-.358.013.37Z" transform="translate(-412.527 -68.923)" fill="#5793ce"/>
          <path id="Trazado_143201" data-name="Trazado 143201" d="M426.086,86.255l.738-.371-1.42-1.351Z" transform="translate(-417.986 -78.331)" fill="#5793ce"/>
          <g id="Grupo_92956" data-name="Grupo 92956" transform="translate(0.739)">
            <path id="Trazado_143202" data-name="Trazado 143202" d="M417.447,83.64,414,81.609a.737.737,0,0,1-.316-.58l.011-3.993,4.083,2.4-.011,3.993C417.764,83.651,417.622,83.743,417.447,83.64Z" transform="translate(-411.649 -73.805)" fill="#5793ce"/>
            <path id="Trazado_143203" data-name="Trazado 143203" d="M412.346,68.913l-3.725,2.4c-.158.1-.03.481.21.622l3.8,2.241,3.8,2.241c.24.141.37-.086.213-.374l-3.7-6.769C412.793,68.978,412.506,68.81,412.346,68.913Z" transform="translate(-408.551 -68.883)" fill="#5793ce"/>
          </g>
          <g id="Grupo_92957" data-name="Grupo 92957" transform="translate(0 0.372)">
            <path id="Trazado_143204" data-name="Trazado 143204" d="M415.581,84.58l-3.449-2.031a.733.733,0,0,1-.316-.58l.011-3.993,4.082,2.4-.011,3.993C415.9,84.591,415.756,84.683,415.581,84.58Z" transform="translate(-409.783 -74.745)" fill="#d4ecff"/>
            <path id="Trazado_143205" data-name="Trazado 143205" d="M410.479,69.853l-3.725,2.4c-.158.1-.03.481.21.623l3.8,2.241,3.8,2.241c.24.141.37-.086.212-.374l-3.7-6.769C410.927,69.918,410.64,69.75,410.479,69.853Z" transform="translate(-406.685 -69.823)" fill="#d4ecff"/>
          </g>
        </g>
      </g>
      <path id="Trazado_143206" data-name="Trazado 143206" d="M452.108,217.167h-.423v-23.6l2.788-1.609v-11.62h.423V192.2l-2.787,1.609Z" transform="translate(-114.84 -94.197)" fill="#fff"/>
      <g id="Grupo_92960" data-name="Grupo 92960" transform="translate(261.467 110.645)">
        <path id="Trazado_143207" data-name="Trazado 143207" d="M270.259,259.605a1.449,1.449,0,0,1-.714-.189l-7.7-4.361a.739.739,0,0,1-.006-1.284l19.212-11.113a3.581,3.581,0,0,1,3.574,0l21.959,12.692-.317.549-21.959-12.692a2.948,2.948,0,0,0-2.94,0L262.153,254.32a.106.106,0,0,0,0,.184l7.7,4.361a.811.811,0,0,0,.844-.025l3.255-2.1.344.532-3.255,2.1A1.446,1.446,0,0,1,270.259,259.605Z" transform="translate(-261.467 -242.18)" fill="#b2d3ea"/>
      </g>
      <g id="Grupo_92971" data-name="Grupo 92971" transform="translate(266.495 90.496)">
        <path id="Trazado_143208" data-name="Trazado 143208" d="M292.534,269.79l-10.354-5.978c-.636-.367-.556-1.008.178-1.431l10-5.773a2.756,2.756,0,0,1,2.479-.1l10.354,5.978c.636.367.556,1.008-.178,1.432l-10,5.772A2.756,2.756,0,0,1,292.534,269.79Z" transform="translate(-278.742 -230.531)" fill="#b2d3ea"/>
        <g id="Grupo_92962" data-name="Grupo 92962" transform="translate(0 14.298)">
          <path id="Trazado_143209" data-name="Trazado 143209" d="M304.042,250.132h0v-4.473l-10.031-.006-3.467-2a3.45,3.45,0,0,0-3.1.129l-3.235,1.868-10.04-.006v4.6a.9.9,0,0,0,.533.831l12.965,7.486a3.451,3.451,0,0,0,3.1-.129l12.519-7.228A1.23,1.23,0,0,0,304.042,250.132Z" transform="translate(-274.159 -237.031)" fill="#396caa"/>
          <path id="Trazado_143210" data-name="Trazado 143210" d="M289.1,243.347a3.578,3.578,0,0,0-1.664.436l-3.235,1.868-10.04-.006v4.6a.9.9,0,0,0,.533.831l12.965,7.486a2.807,2.807,0,0,0,1.441.307Z" transform="translate(-274.159 -237.035)" fill="#396caa"/>
          <path id="Trazado_143211" data-name="Trazado 143211" d="M275.3,249.148h-1.137v4.6a.9.9,0,0,0,.533.831l.6.348Z" transform="translate(-274.159 -240.536)" fill="#5793ce"/>
          <path id="Trazado_143212" data-name="Trazado 143212" d="M308.734,273.992a3.538,3.538,0,0,0,2.482-.029v-5.224h-2.482Z" transform="translate(-295.032 -252.364)" fill="#5793ce"/>
          <path id="Trazado_143213" data-name="Trazado 143213" d="M287.659,244.362l-12.965-7.486c-.8-.459-.7-1.262.223-1.792l12.519-7.228a3.45,3.45,0,0,1,3.1-.129l12.966,7.486c.8.46.7,1.262-.223,1.792l-12.519,7.228A3.451,3.451,0,0,1,287.659,244.362Z" transform="translate(-274.156 -227.417)" fill="#d4ecff"/>
          <path id="Trazado_143214" data-name="Trazado 143214" d="M291.58,245.144l-10.865-6.273c-.667-.385-.583-1.058.187-1.5l10.491-6.057a2.892,2.892,0,0,1,2.6-.108l10.865,6.273c.667.385.583,1.058-.187,1.5l-10.491,6.057A2.891,2.891,0,0,1,291.58,245.144Z" transform="translate(-277.844 -229.547)" fill="#5793ce"/>
          <g id="Grupo_92961" data-name="Grupo 92961" transform="translate(24.066 11.962)">
            <path id="Trazado_143215" data-name="Trazado 143215" d="M335.935,262.888a1.158,1.158,0,0,1-.524.907c-.289.167-.523.031-.523-.3a1.157,1.157,0,0,1,.523-.907C335.7,262.419,335.935,262.554,335.935,262.888Z" transform="translate(-334.888 -260.569)" fill="#d4ecff"/>
            <path id="Trazado_143216" data-name="Trazado 143216" d="M340.186,260.433a1.157,1.157,0,0,1-.523.907c-.289.167-.524.031-.524-.3a1.157,1.157,0,0,1,.524-.907C339.952,259.964,340.186,260.1,340.186,260.433Z" transform="translate(-337.454 -259.087)" fill="#d4ecff"/>
            <path id="Trazado_143217" data-name="Trazado 143217" d="M344.438,257.978a1.157,1.157,0,0,1-.523.907c-.289.167-.524.032-.524-.3a1.158,1.158,0,0,1,.524-.907C344.2,257.509,344.438,257.644,344.438,257.978Z" transform="translate(-340.021 -257.605)" fill="#d4ecff"/>
          </g>
        </g>
        <g id="Grupo_92964" data-name="Grupo 92964" transform="translate(0 7.149)">
          <path id="Trazado_143218" data-name="Trazado 143218" d="M304.042,232.091h0v-4.474l-10.031-.006-3.467-2a3.45,3.45,0,0,0-3.1.129l-3.235,1.868-10.04-.006v4.6a.9.9,0,0,0,.533.832l12.965,7.486a3.451,3.451,0,0,0,3.1-.129l12.519-7.228A1.229,1.229,0,0,0,304.042,232.091Z" transform="translate(-274.159 -218.99)" fill="#396caa"/>
          <path id="Trazado_143219" data-name="Trazado 143219" d="M289.1,225.306a3.573,3.573,0,0,0-1.664.436L284.2,227.61l-10.04-.006v4.6a.9.9,0,0,0,.533.832l12.965,7.486a2.811,2.811,0,0,0,1.441.307Z" transform="translate(-274.159 -218.994)" fill="#396caa"/>
          <path id="Trazado_143220" data-name="Trazado 143220" d="M275.3,231.107h-1.137v4.6a.9.9,0,0,0,.533.832l.6.348Z" transform="translate(-274.159 -222.495)" fill="#5793ce"/>
          <path id="Trazado_143221" data-name="Trazado 143221" d="M308.734,255.951a3.538,3.538,0,0,0,2.482-.029V250.7h-2.482Z" transform="translate(-295.032 -234.323)" fill="#5793ce"/>
          <path id="Trazado_143222" data-name="Trazado 143222" d="M287.659,226.321l-12.965-7.486c-.8-.459-.7-1.262.223-1.792l12.519-7.228a3.45,3.45,0,0,1,3.1-.129l12.966,7.486c.8.46.7,1.262-.223,1.793l-12.519,7.228A3.451,3.451,0,0,1,287.659,226.321Z" transform="translate(-274.156 -209.376)" fill="#d4ecff"/>
          <path id="Trazado_143223" data-name="Trazado 143223" d="M291.58,227.1l-10.865-6.273c-.667-.385-.583-1.058.187-1.5l10.491-6.057a2.893,2.893,0,0,1,2.6-.108l10.865,6.273c.667.385.583,1.058-.187,1.5L294.182,227A2.891,2.891,0,0,1,291.58,227.1Z" transform="translate(-277.844 -211.506)" fill="#5793ce"/>
          <g id="Grupo_92963" data-name="Grupo 92963" transform="translate(24.066 11.962)">
            <path id="Trazado_143224" data-name="Trazado 143224" d="M335.935,244.847a1.158,1.158,0,0,1-.524.907c-.289.167-.523.031-.523-.3a1.157,1.157,0,0,1,.523-.907C335.7,244.378,335.935,244.513,335.935,244.847Z" transform="translate(-334.888 -242.528)" fill="#d4ecff"/>
            <path id="Trazado_143225" data-name="Trazado 143225" d="M340.186,242.392a1.157,1.157,0,0,1-.523.907c-.289.167-.524.032-.524-.3a1.157,1.157,0,0,1,.524-.907C339.952,241.923,340.186,242.058,340.186,242.392Z" transform="translate(-337.454 -241.046)" fill="#d4ecff"/>
            <path id="Trazado_143226" data-name="Trazado 143226" d="M344.438,239.937a1.157,1.157,0,0,1-.523.907c-.289.167-.524.032-.524-.3a1.157,1.157,0,0,1,.524-.907C344.2,239.468,344.438,239.6,344.438,239.937Z" transform="translate(-340.021 -239.564)" fill="#d4ecff"/>
          </g>
        </g>
        <g id="Grupo_92967" data-name="Grupo 92967" transform="translate(0)">
          <path id="Trazado_143227" data-name="Trazado 143227" d="M304.042,214.05h0v-4.474l-10.031-.006-3.467-2a3.45,3.45,0,0,0-3.1.129l-3.235,1.868-10.04-.006v4.6a.9.9,0,0,0,.533.832l12.965,7.486a3.451,3.451,0,0,0,3.1-.129l12.519-7.228A1.229,1.229,0,0,0,304.042,214.05Z" transform="translate(-274.159 -200.949)" fill="#396caa"/>
          <path id="Trazado_143228" data-name="Trazado 143228" d="M289.1,207.265a3.578,3.578,0,0,0-1.664.436l-3.235,1.868-10.04-.006v4.6a.9.9,0,0,0,.533.832l12.965,7.486a2.811,2.811,0,0,0,1.441.308Z" transform="translate(-274.159 -200.953)" fill="#396caa"/>
          <path id="Trazado_143229" data-name="Trazado 143229" d="M275.3,213.066h-1.137v4.6a.9.9,0,0,0,.533.832l.6.348Z" transform="translate(-274.159 -204.454)" fill="#5793ce"/>
          <path id="Trazado_143230" data-name="Trazado 143230" d="M308.734,237.91a3.538,3.538,0,0,0,2.482-.029v-5.224h-2.482Z" transform="translate(-295.032 -216.282)" fill="#5793ce"/>
          <path id="Trazado_143231" data-name="Trazado 143231" d="M287.659,208.28l-12.965-7.486c-.8-.459-.7-1.262.223-1.792l12.519-7.228a3.45,3.45,0,0,1,3.1-.129l12.966,7.486c.8.46.7,1.262-.223,1.793l-12.519,7.228A3.45,3.45,0,0,1,287.659,208.28Z" transform="translate(-274.156 -191.335)" fill="#d4ecff"/>
          <path id="Trazado_143232" data-name="Trazado 143232" d="M303.283,212.457l-12.519,7.228a3.451,3.451,0,0,1-3.1.129l-12.965-7.486a1.193,1.193,0,0,1-.4-.352.834.834,0,0,0,.4,1.233l12.965,7.486a3.45,3.45,0,0,0,3.1-.129l12.519-7.228c.714-.413.931-.988.62-1.44A1.736,1.736,0,0,1,303.283,212.457Z" transform="translate(-274.156 -203.749)" fill="#fff"/>
          <g id="Grupo_92965" data-name="Grupo 92965" transform="translate(24.066 11.962)">
            <path id="Trazado_143233" data-name="Trazado 143233" d="M335.935,226.806a1.158,1.158,0,0,1-.524.907c-.289.167-.523.031-.523-.3a1.157,1.157,0,0,1,.523-.907C335.7,226.337,335.935,226.472,335.935,226.806Z" transform="translate(-334.888 -224.487)" fill="#d4ecff"/>
            <path id="Trazado_143234" data-name="Trazado 143234" d="M340.186,224.351a1.157,1.157,0,0,1-.523.907c-.289.167-.524.032-.524-.3a1.157,1.157,0,0,1,.524-.907C339.952,223.882,340.186,224.017,340.186,224.351Z" transform="translate(-337.454 -223.005)" fill="#d4ecff"/>
            <path id="Trazado_143235" data-name="Trazado 143235" d="M344.438,221.9a1.157,1.157,0,0,1-.523.907c-.289.167-.524.032-.524-.3a1.157,1.157,0,0,1,.524-.907C344.2,221.427,344.438,221.562,344.438,221.9Z" transform="translate(-340.021 -221.523)" fill="#d4ecff"/>
          </g>
          <g id="Grupo_92966" data-name="Grupo 92966" transform="translate(7.951 4.375)">
            <path id="Trazado_143236" data-name="Trazado 143236" d="M300.538,210.3l-6.067-3.5c-.372-.215-.326-.59.1-.839l5.858-3.382a1.615,1.615,0,0,1,1.453-.06l6.067,3.5c.372.215.326.59-.1.839l-5.859,3.383A1.616,1.616,0,0,1,300.538,210.3Z" transform="translate(-294.22 -202.375)" fill="#5793ce"/>
            <path id="Trazado_143237" data-name="Trazado 143237" d="M310.3,213.312l-.84-.485c-.051-.03-.045-.082.015-.116l.81-.468a.223.223,0,0,1,.2-.009l.84.485c.052.03.045.082-.015.116l-.81.468A.223.223,0,0,1,310.3,213.312Z" transform="translate(-303.399 -208.315)" fill="#d4ecff"/>
            <path id="Trazado_143238" data-name="Trazado 143238" d="M294.471,206.8l.017.01a.985.985,0,0,1,.087-.06l5.858-3.383a1.616,1.616,0,0,1,1.453-.06l6.05,3.493c.343-.246.361-.58.017-.779l-6.067-3.5a1.615,1.615,0,0,0-1.453.06l-5.858,3.382C294.145,206.211,294.1,206.586,294.471,206.8Z" transform="translate(-294.22 -202.375)" fill="#396caa"/>
          </g>
        </g>
        <g id="Grupo_92968" data-name="Grupo 92968" transform="translate(10.869 16.967)">
          <path id="Trazado_143239" data-name="Trazado 143239" d="M305.048,236.392c0,.225-.158.316-.353.2a.78.78,0,0,1-.352-.611c0-.225.158-.316.352-.2A.779.779,0,0,1,305.048,236.392Z" transform="translate(-303.25 -235.106)" fill="#d4ecff"/>
          <path id="Trazado_143240" data-name="Trazado 143240" d="M302.289,234.81c0,.225-.158.316-.353.2a.778.778,0,0,1-.352-.61c0-.225.158-.316.352-.2A.778.778,0,0,1,302.289,234.81Z" transform="translate(-301.584 -234.151)" fill="#d4ecff"/>
          <path id="Trazado_143241" data-name="Trazado 143241" d="M305.048,239.722c0,.225-.158.316-.353.2a.779.779,0,0,1-.352-.61c0-.225.158-.316.352-.2A.78.78,0,0,1,305.048,239.722Z" transform="translate(-303.25 -237.117)" fill="#d4ecff"/>
          <path id="Trazado_143242" data-name="Trazado 143242" d="M302.289,238.139c0,.225-.158.316-.353.2a.779.779,0,0,1-.352-.611c0-.225.158-.316.352-.2A.778.778,0,0,1,302.289,238.139Z" transform="translate(-301.584 -236.161)" fill="#d4ecff"/>
        </g>
        <g id="Grupo_92969" data-name="Grupo 92969" transform="translate(10.869 24.08)">
          <path id="Trazado_143243" data-name="Trazado 143243" d="M305.048,254.344c0,.225-.158.316-.353.2a.779.779,0,0,1-.352-.61c0-.225.158-.316.352-.2A.78.78,0,0,1,305.048,254.344Z" transform="translate(-303.25 -253.058)" fill="#d4ecff"/>
          <path id="Trazado_143244" data-name="Trazado 143244" d="M302.289,252.761c0,.225-.158.316-.353.2a.779.779,0,0,1-.352-.611c0-.225.158-.315.352-.2A.778.778,0,0,1,302.289,252.761Z" transform="translate(-301.584 -252.103)" fill="#d4ecff"/>
          <path id="Trazado_143245" data-name="Trazado 143245" d="M305.048,257.673c0,.225-.158.316-.353.2a.78.78,0,0,1-.352-.611c0-.225.158-.316.352-.2A.779.779,0,0,1,305.048,257.673Z" transform="translate(-303.25 -255.068)" fill="#d4ecff"/>
          <path id="Trazado_143246" data-name="Trazado 143246" d="M302.289,256.091c0,.225-.158.316-.353.2a.778.778,0,0,1-.352-.61c0-.225.158-.316.352-.2A.779.779,0,0,1,302.289,256.091Z" transform="translate(-301.584 -254.113)" fill="#d4ecff"/>
        </g>
        <g id="Grupo_92970" data-name="Grupo 92970" transform="translate(10.869 31.194)">
          <path id="Trazado_143247" data-name="Trazado 143247" d="M305.048,272.295c0,.225-.158.316-.353.2a.779.779,0,0,1-.352-.61c0-.225.158-.316.352-.2A.779.779,0,0,1,305.048,272.295Z" transform="translate(-303.25 -271.009)" fill="#d4ecff"/>
          <path id="Trazado_143248" data-name="Trazado 143248" d="M302.289,270.713c0,.225-.158.316-.353.2a.778.778,0,0,1-.352-.61c0-.225.158-.316.352-.2A.779.779,0,0,1,302.289,270.713Z" transform="translate(-301.584 -270.054)" fill="#d4ecff"/>
          <path id="Trazado_143249" data-name="Trazado 143249" d="M305.048,275.624c0,.225-.158.316-.353.2a.779.779,0,0,1-.352-.61c0-.225.158-.316.352-.2A.78.78,0,0,1,305.048,275.624Z" transform="translate(-303.25 -273.019)" fill="#d4ecff"/>
          <path id="Trazado_143250" data-name="Trazado 143250" d="M302.289,274.042c0,.225-.158.316-.353.2a.78.78,0,0,1-.352-.611c0-.225.158-.316.352-.2A.778.778,0,0,1,302.289,274.042Z" transform="translate(-301.584 -272.064)" fill="#d4ecff"/>
        </g>
      </g>
      <path id="Trazado_143251" data-name="Trazado 143251" d="M300.163,291.033a2.135,2.135,0,0,1-1.072-.288l-6.533-3.792a.712.712,0,0,1,0-1.232l4.3-2.492.318.548-4.3,2.492a.078.078,0,0,0,0,.136l6.534,3.792a1.51,1.51,0,0,0,1.5.006l12.8-7.292a2.146,2.146,0,0,1,2.131.009l10.72,6.191a1.5,1.5,0,0,0,1.508,0l5.169-2.989.317.549-5.169,2.989a2.14,2.14,0,0,1-2.143,0l-10.719-6.191a1.51,1.51,0,0,0-1.5-.007l-12.8,7.292A2.134,2.134,0,0,1,300.163,291.033Z" transform="translate(-18.556 -155.958)" fill="#b2d3ea"/>
      <g id="Grupo_92979" data-name="Grupo 92979" transform="translate(324.57 119.939)">
        <path id="Trazado_143252" data-name="Trazado 143252" d="M439.088,344.089l-10.354-5.978c-.636-.367-.556-1.008.178-1.431l10-5.772a2.756,2.756,0,0,1,2.479-.1l10.354,5.978c.636.367.556,1.008-.178,1.431l-10,5.772A2.756,2.756,0,0,1,439.088,344.089Z" transform="translate(-425.295 -304.83)" fill="#b2d3ea"/>
        <g id="Grupo_92973" data-name="Grupo 92973" transform="translate(0 14.298)">
          <path id="Trazado_143253" data-name="Trazado 143253" d="M450.6,324.431h0v-4.474l-10.031-.006-3.467-2a3.449,3.449,0,0,0-3.1.128l-3.235,1.868-10.04-.006v4.6a.9.9,0,0,0,.533.832l12.965,7.486a3.451,3.451,0,0,0,3.1-.129l12.519-7.228A1.229,1.229,0,0,0,450.6,324.431Z" transform="translate(-420.713 -311.33)" fill="#396caa"/>
          <path id="Trazado_143254" data-name="Trazado 143254" d="M435.656,317.646a3.577,3.577,0,0,0-1.664.436l-3.235,1.868-10.04-.006v4.6a.9.9,0,0,0,.533.832l12.965,7.486a2.812,2.812,0,0,0,1.441.308Z" transform="translate(-420.713 -311.334)" fill="#396caa"/>
          <path id="Trazado_143255" data-name="Trazado 143255" d="M421.853,323.447h-1.137v4.6a.9.9,0,0,0,.533.832l.6.348Z" transform="translate(-420.713 -314.835)" fill="#5793ce"/>
          <path id="Trazado_143256" data-name="Trazado 143256" d="M455.288,348.291a3.536,3.536,0,0,0,2.482-.029v-5.224h-2.482Z" transform="translate(-441.586 -326.663)" fill="#5793ce"/>
          <path id="Trazado_143257" data-name="Trazado 143257" d="M434.212,318.661l-12.965-7.486c-.8-.459-.7-1.262.223-1.792l12.52-7.228a3.45,3.45,0,0,1,3.1-.129l12.966,7.486c.8.46.7,1.262-.223,1.793l-12.519,7.228A3.451,3.451,0,0,1,434.212,318.661Z" transform="translate(-420.71 -301.716)" fill="#d4ecff"/>
          <path id="Trazado_143258" data-name="Trazado 143258" d="M438.134,319.443l-10.865-6.273c-.667-.385-.583-1.057.187-1.5l10.491-6.057a2.892,2.892,0,0,1,2.6-.108l10.865,6.273c.667.385.583,1.058-.187,1.5l-10.491,6.057A2.891,2.891,0,0,1,438.134,319.443Z" transform="translate(-424.398 -303.846)" fill="#5793ce"/>
          <g id="Grupo_92972" data-name="Grupo 92972" transform="translate(24.067 11.962)">
            <path id="Trazado_143259" data-name="Trazado 143259" d="M482.489,337.187a1.158,1.158,0,0,1-.524.907c-.289.167-.523.032-.523-.3a1.157,1.157,0,0,1,.523-.907C482.255,336.718,482.489,336.853,482.489,337.187Z" transform="translate(-481.442 -334.868)" fill="#d4ecff"/>
            <path id="Trazado_143260" data-name="Trazado 143260" d="M486.74,334.732a1.157,1.157,0,0,1-.523.907c-.289.167-.524.032-.524-.3a1.158,1.158,0,0,1,.524-.907C486.506,334.263,486.74,334.4,486.74,334.732Z" transform="translate(-484.008 -333.386)" fill="#d4ecff"/>
            <path id="Trazado_143261" data-name="Trazado 143261" d="M490.992,332.277a1.157,1.157,0,0,1-.524.907c-.289.167-.524.032-.524-.3a1.158,1.158,0,0,1,.524-.907C490.758,331.808,490.992,331.943,490.992,332.277Z" transform="translate(-486.575 -331.904)" fill="#d4ecff"/>
          </g>
        </g>
        <g id="Grupo_92975" data-name="Grupo 92975" transform="translate(0 7.149)">
          <path id="Trazado_143262" data-name="Trazado 143262" d="M450.6,306.39h0v-4.474l-10.031-.006-3.467-2a3.452,3.452,0,0,0-3.1.129l-3.235,1.868-10.04-.006v4.6a.9.9,0,0,0,.533.832l12.965,7.486a3.451,3.451,0,0,0,3.1-.129l12.519-7.228A1.229,1.229,0,0,0,450.6,306.39Z" transform="translate(-420.713 -293.289)" fill="#396caa"/>
          <path id="Trazado_143263" data-name="Trazado 143263" d="M435.656,299.6a3.578,3.578,0,0,0-1.664.436l-3.235,1.868-10.04-.006v4.6a.9.9,0,0,0,.533.832l12.965,7.486a2.811,2.811,0,0,0,1.441.308Z" transform="translate(-420.713 -293.293)" fill="#396caa"/>
          <path id="Trazado_143264" data-name="Trazado 143264" d="M421.853,305.406h-1.137v4.6a.9.9,0,0,0,.533.832l.6.348Z" transform="translate(-420.713 -296.794)" fill="#5793ce"/>
          <path id="Trazado_143265" data-name="Trazado 143265" d="M455.288,330.25a3.539,3.539,0,0,0,2.482-.029V325h-2.482Z" transform="translate(-441.586 -308.622)" fill="#5793ce"/>
          <path id="Trazado_143266" data-name="Trazado 143266" d="M434.212,300.62l-12.965-7.486c-.8-.459-.7-1.262.223-1.792l12.52-7.228a3.45,3.45,0,0,1,3.1-.129l12.966,7.486c.8.459.7,1.262-.223,1.792l-12.519,7.228A3.451,3.451,0,0,1,434.212,300.62Z" transform="translate(-420.71 -283.675)" fill="#d4ecff"/>
          <path id="Trazado_143267" data-name="Trazado 143267" d="M438.134,301.4l-10.865-6.273c-.667-.385-.583-1.057.187-1.5l10.491-6.057a2.893,2.893,0,0,1,2.6-.108l10.865,6.273c.667.385.583,1.057-.187,1.5l-10.491,6.057A2.891,2.891,0,0,1,438.134,301.4Z" transform="translate(-424.398 -285.805)" fill="#5793ce"/>
          <g id="Grupo_92974" data-name="Grupo 92974" transform="translate(24.067 11.962)">
            <path id="Trazado_143268" data-name="Trazado 143268" d="M482.489,319.146a1.158,1.158,0,0,1-.524.907c-.289.167-.523.032-.523-.3a1.157,1.157,0,0,1,.523-.907C482.255,318.677,482.489,318.812,482.489,319.146Z" transform="translate(-481.442 -316.827)" fill="#d4ecff"/>
            <path id="Trazado_143269" data-name="Trazado 143269" d="M486.74,316.691a1.157,1.157,0,0,1-.523.907c-.289.167-.524.032-.524-.3a1.158,1.158,0,0,1,.524-.907C486.506,316.222,486.74,316.357,486.74,316.691Z" transform="translate(-484.008 -315.345)" fill="#d4ecff"/>
            <path id="Trazado_143270" data-name="Trazado 143270" d="M490.992,314.236a1.157,1.157,0,0,1-.524.907c-.289.167-.524.032-.524-.3a1.158,1.158,0,0,1,.524-.907C490.758,313.767,490.992,313.9,490.992,314.236Z" transform="translate(-486.575 -313.863)" fill="#d4ecff"/>
          </g>
        </g>
        <g id="Grupo_92978" data-name="Grupo 92978" transform="translate(0)">
          <path id="Trazado_143271" data-name="Trazado 143271" d="M450.6,288.349h0v-4.474l-10.031-.006-3.467-2a3.45,3.45,0,0,0-3.1.128l-3.235,1.868-10.04-.005v4.6a.9.9,0,0,0,.533.832l12.965,7.486a3.451,3.451,0,0,0,3.1-.129l12.519-7.228A1.229,1.229,0,0,0,450.6,288.349Z" transform="translate(-420.713 -275.248)" fill="#396caa"/>
          <path id="Trazado_143272" data-name="Trazado 143272" d="M435.656,281.564a3.583,3.583,0,0,0-1.664.436l-3.235,1.868-10.04-.006v4.6a.9.9,0,0,0,.533.832l12.965,7.486a2.811,2.811,0,0,0,1.441.308Z" transform="translate(-420.713 -275.252)" fill="#396caa"/>
          <path id="Trazado_143273" data-name="Trazado 143273" d="M421.853,287.365h-1.137v4.6a.9.9,0,0,0,.533.832l.6.348Z" transform="translate(-420.713 -278.753)" fill="#5793ce"/>
          <path id="Trazado_143274" data-name="Trazado 143274" d="M455.288,312.209a3.536,3.536,0,0,0,2.482-.029v-5.224h-2.482Z" transform="translate(-441.586 -290.582)" fill="#5793ce"/>
          <path id="Trazado_143275" data-name="Trazado 143275" d="M434.212,282.58l-12.965-7.486c-.8-.459-.7-1.262.223-1.792l12.52-7.228a3.45,3.45,0,0,1,3.1-.129l12.966,7.486c.8.459.7,1.262-.223,1.792l-12.519,7.228A3.452,3.452,0,0,1,434.212,282.58Z" transform="translate(-420.71 -265.634)" fill="#d4ecff"/>
          <path id="Trazado_143276" data-name="Trazado 143276" d="M449.837,286.757l-12.519,7.228a3.451,3.451,0,0,1-3.1.129l-12.965-7.486a1.2,1.2,0,0,1-.4-.352.834.834,0,0,0,.4,1.232l12.965,7.486a3.453,3.453,0,0,0,3.1-.129l12.519-7.228c.714-.413.931-.988.62-1.44A1.736,1.736,0,0,1,449.837,286.757Z" transform="translate(-420.71 -278.049)" fill="#fff"/>
          <g id="Grupo_92976" data-name="Grupo 92976" transform="translate(24.067 11.962)">
            <path id="Trazado_143277" data-name="Trazado 143277" d="M482.489,301.105a1.158,1.158,0,0,1-.524.907c-.289.167-.523.032-.523-.3a1.157,1.157,0,0,1,.523-.907C482.255,300.636,482.489,300.771,482.489,301.105Z" transform="translate(-481.442 -298.786)" fill="#d4ecff"/>
            <path id="Trazado_143278" data-name="Trazado 143278" d="M486.74,298.65a1.157,1.157,0,0,1-.523.907c-.289.167-.524.032-.524-.3a1.158,1.158,0,0,1,.524-.907C486.506,298.181,486.74,298.316,486.74,298.65Z" transform="translate(-484.008 -297.304)" fill="#d4ecff"/>
            <path id="Trazado_143279" data-name="Trazado 143279" d="M490.992,296.2a1.157,1.157,0,0,1-.524.907c-.289.167-.524.032-.524-.3a1.159,1.159,0,0,1,.524-.907C490.758,295.726,490.992,295.862,490.992,296.2Z" transform="translate(-486.575 -295.822)" fill="#d4ecff"/>
          </g>
          <g id="Grupo_92977" data-name="Grupo 92977" transform="translate(7.951 4.375)">
            <path id="Trazado_143280" data-name="Trazado 143280" d="M447.092,284.6l-6.067-3.5c-.372-.215-.326-.59.1-.839l5.859-3.383a1.616,1.616,0,0,1,1.453-.06l6.067,3.5c.372.215.326.59-.1.839l-5.859,3.383A1.616,1.616,0,0,1,447.092,284.6Z" transform="translate(-440.773 -276.674)" fill="#5793ce"/>
            <path id="Trazado_143281" data-name="Trazado 143281" d="M456.853,287.611l-.84-.485c-.052-.03-.045-.082.015-.116l.81-.468a.223.223,0,0,1,.2-.008l.84.485c.052.03.045.082-.015.116l-.81.468A.223.223,0,0,1,456.853,287.611Z" transform="translate(-449.953 -282.615)" fill="#d4ecff"/>
            <path id="Trazado_143282" data-name="Trazado 143282" d="M441.025,281.1l.017.01c.029-.02.055-.041.087-.06l5.859-3.382a1.613,1.613,0,0,1,1.453-.06l6.05,3.493c.343-.246.361-.58.017-.779l-6.067-3.5a1.616,1.616,0,0,0-1.453.06l-5.859,3.383C440.7,280.51,440.652,280.886,441.025,281.1Z" transform="translate(-440.773 -276.674)" fill="#396caa"/>
          </g>
        </g>
      </g>
      <path id="Trazado_143283" data-name="Trazado 143283" d="M407.068,105.445c0,.225-.158.316-.352.2a.779.779,0,0,1-.353-.611c0-.225.158-.316.353-.2A.779.779,0,0,1,407.068,105.445Z" transform="translate(-87.478 -48.587)" fill="#d4ecff"/>
      <path id="Trazado_143284" data-name="Trazado 143284" d="M414.9,110.195c0,.225-.158.316-.352.2a.78.78,0,0,1-.352-.611c0-.225.158-.316.352-.2A.779.779,0,0,1,414.9,110.195Z" transform="translate(-92.207 -51.455)" fill="#d4ecff"/>
      <path id="Trazado_143285" data-name="Trazado 143285" d="M422.735,114.945c0,.225-.158.316-.353.2a.78.78,0,0,1-.352-.611c0-.225.158-.316.352-.2A.779.779,0,0,1,422.735,114.945Z" transform="translate(-96.936 -54.323)" fill="#d4ecff"/>
      <path id="Trazado_143286" data-name="Trazado 143286" d="M430.568,119.695c0,.225-.158.316-.352.2a.779.779,0,0,1-.353-.611c0-.225.158-.316.353-.2A.779.779,0,0,1,430.568,119.695Z" transform="translate(-101.665 -57.19)" fill="#d4ecff"/>
    </g>
  </g>
</svg>
