<svg xmlns="http://www.w3.org/2000/svg" width="193.751" height="205.852" viewBox="0 0 193.751 205.852">
  <g id="Grupo_92905" data-name="Grupo 92905" transform="translate(0 0)">
    <g id="Grupo_92841" data-name="Grupo 92841" transform="translate(15.334 23.847)">
      <g id="Grupo_92830" data-name="Grupo 92830" transform="translate(0 10.202)">
        <g id="Grupo_92829" data-name="Grupo 92829">
          <g id="Grupo_92826" data-name="Grupo 92826" transform="translate(0 44.327)">
            <path id="Trazado_142978" data-name="Trazado 142978" d="M2889.1,1418.851a1.133,1.133,0,0,1-1.068-1.512c.509-1.436,1.061-2.878,1.642-4.287a1.134,1.134,0,0,1,2.1.864c-.566,1.374-1.105,2.781-1.6,4.18A1.133,1.133,0,0,1,2889.1,1418.851Z" transform="translate(-2887.97 -1412.351)" fill="#ff6d60"/>
          </g>
          <g id="Grupo_92827" data-name="Grupo 92827" transform="translate(4.973 6.902)">
            <path id="Trazado_142979" data-name="Trazado 142979" d="M2905.737,1319.662a1.133,1.133,0,0,1-1-1.656c1.231-2.37,2.584-4.716,4.021-6.971a1.133,1.133,0,0,1,1.912,1.217c-1.4,2.2-2.72,4.488-3.921,6.8A1.133,1.133,0,0,1,2905.737,1319.662Zm8.529-13.4a1.133,1.133,0,0,1-.9-1.823c1.626-2.12,3.367-4.194,5.173-6.165a1.133,1.133,0,1,1,1.671,1.531c-1.761,1.923-3.459,3.946-5.045,6.013A1.131,1.131,0,0,1,2914.266,1306.265Zm10.73-11.71a1.133,1.133,0,0,1-.767-1.969c1.969-1.805,4.043-3.546,6.163-5.174a1.134,1.134,0,0,1,1.381,1.8c-2.068,1.588-4.091,3.286-6.012,5.047A1.128,1.128,0,0,1,2925,1294.555Z" transform="translate(-2904.604 -1287.178)" fill="#ff6d60"/>
          </g>
          <g id="Grupo_92828" data-name="Grupo 92828" transform="translate(36.833)">
            <path id="Trazado_142980" data-name="Trazado 142980" d="M3012.3,1268.7a1.133,1.133,0,0,1-.61-2.089c1.288-.82,2.611-1.617,3.932-2.368a1.133,1.133,0,1,1,1.121,1.97c-1.288.733-2.579,1.51-3.835,2.31A1.127,1.127,0,0,1,3012.3,1268.7Z" transform="translate(-3011.161 -1264.095)" fill="#ff6d60"/>
          </g>
        </g>
      </g>
      <g id="Grupo_92835" data-name="Grupo 92835" transform="translate(17.758 149.356)">
        <g id="Grupo_92834" data-name="Grupo 92834">
          <g id="Grupo_92831" data-name="Grupo 92831" transform="translate(63.19 30.27)">
            <path id="Trazado_142981" data-name="Trazado 142981" d="M3164.374,1833.128c-1.528,0-3.072-.038-4.589-.113a1.133,1.133,0,1,1,.112-2.264c1.48.073,2.987.11,4.478.11a1.134,1.134,0,0,1,0,2.267Z" transform="translate(-3158.707 -1830.75)" fill="#ff6d60"/>
          </g>
          <g id="Grupo_92832" data-name="Grupo 92832" transform="translate(10.207 9.806)">
            <path id="Trazado_142982" data-name="Trazado 142982" d="M3026.041,1784.055a1.163,1.163,0,0,1-.176-.014,91.871,91.871,0,0,1-9.536-2.016,1.133,1.133,0,0,1,.587-2.189,89.48,89.48,0,0,0,9.3,1.966,1.133,1.133,0,0,1-.173,2.253Zm-18.57-4.975a1.13,1.13,0,0,1-.408-.076,91.551,91.551,0,0,1-8.89-3.994,1.133,1.133,0,1,1,1.038-2.015,89.41,89.41,0,0,0,8.669,3.895,1.133,1.133,0,0,1-.408,2.191Zm-17.091-8.8a1.132,1.132,0,0,1-.622-.187,92.464,92.464,0,0,1-7.846-5.78,1.133,1.133,0,1,1,1.439-1.751A90.048,90.048,0,0,0,2991,1768.2a1.134,1.134,0,0,1-.625,2.08Z" transform="translate(-2981.499 -1762.303)" fill="#ff6d60"/>
          </g>
          <g id="Grupo_92833" data-name="Grupo 92833">
            <path id="Trazado_142983" data-name="Trazado 142983" d="M2951.594,1735.083a1.129,1.129,0,0,1-.808-.338c-1.069-1.086-2.124-2.213-3.138-3.35a1.134,1.134,0,0,1,1.693-1.508c.988,1.109,2.018,2.208,3.06,3.268a1.134,1.134,0,0,1-.808,1.928Z" transform="translate(-2947.362 -1729.508)" fill="#ff6d60"/>
          </g>
        </g>
      </g>
      <g id="Grupo_92840" data-name="Grupo 92840" transform="translate(102.535)">
        <g id="Grupo_92839" data-name="Grupo 92839">
          <g id="Grupo_92836" data-name="Grupo 92836">
            <path id="Trazado_142984" data-name="Trazado 142984" d="M3236.474,1233.2a1.15,1.15,0,0,1-.269-.032c-1.44-.35-2.912-.669-4.375-.947a1.133,1.133,0,0,1,.424-2.227c1.5.285,3.01.612,4.487.971a1.134,1.134,0,0,1-.267,2.235Z" transform="translate(-3230.908 -1229.974)" fill="#ff6d60"/>
          </g>
          <g id="Grupo_92837" data-name="Grupo 92837" transform="translate(13.094 3.531)">
            <path id="Trazado_142985" data-name="Trazado 142985" d="M3333.262,1353.166a1.135,1.135,0,0,1-1.1-1.428c.769-2.86,1.4-5.795,1.879-8.721a1.133,1.133,0,1,1,2.237.365c-.491,3-1.14,6.011-1.927,8.944A1.135,1.135,0,0,1,3333.262,1353.166Zm2.916-17.812-.072,0a1.134,1.134,0,0,1-1.061-1.2c.119-1.884.179-3.8.179-5.7,0-1.075-.019-2.162-.057-3.228a1.133,1.133,0,1,1,2.265-.081c.039,1.093.059,2.206.059,3.309,0,1.943-.062,3.907-.183,5.837A1.134,1.134,0,0,1,3336.177,1335.354Zm-.646-18.035a1.134,1.134,0,0,1-1.122-.981c-.4-2.939-.947-5.889-1.635-8.769a1.133,1.133,0,1,1,2.2-.527c.706,2.953,1.27,5.979,1.678,8.991a1.134,1.134,0,0,1-.972,1.275A1.089,1.089,0,0,1,3335.532,1317.319Zm-4.193-17.549a1.134,1.134,0,0,1-1.07-.761c-.973-2.795-2.1-5.574-3.349-8.261a1.133,1.133,0,0,1,2.056-.956c1.281,2.755,2.436,5.605,3.434,8.471a1.134,1.134,0,0,1-1.071,1.506Zm-7.6-16.354a1.133,1.133,0,0,1-.976-.555c-1.51-2.547-3.167-5.049-4.924-7.436a1.134,1.134,0,0,1,1.826-1.344c1.8,2.448,3.5,5.012,5.049,7.624a1.133,1.133,0,0,1-.974,1.711Zm-10.7-14.529a1.131,1.131,0,0,1-.842-.374c-1.985-2.2-4.1-4.328-6.295-6.321a1.133,1.133,0,1,1,1.524-1.677c2.248,2.044,4.419,4.224,6.454,6.481a1.133,1.133,0,0,1-.841,1.892Zm-13.354-12.14a1.129,1.129,0,0,1-.675-.223c-2.382-1.769-4.878-3.436-7.419-4.957a1.133,1.133,0,0,1,1.164-1.945c2.606,1.559,5.165,3.269,7.607,5.082a1.133,1.133,0,0,1-.676,2.043Zm-15.49-9.266a1.121,1.121,0,0,1-.48-.108c-2.686-1.261-5.463-2.4-8.258-3.385a1.133,1.133,0,0,1,.753-2.138c2.866,1.01,5.714,2.178,8.468,3.471a1.133,1.133,0,0,1-.483,2.159Z" transform="translate(-3274.702 -1241.784)" fill="#ff6d60"/>
          </g>
          <g id="Grupo_92838" data-name="Grupo 92838" transform="translate(66.012 121.272)">
            <path id="Trazado_142986" data-name="Trazado 142986" d="M3452.825,1642.043a1.134,1.134,0,0,1-1.037-1.589c.6-1.358,1.166-2.752,1.695-4.143a1.134,1.134,0,0,1,2.119.805c-.542,1.426-1.127,2.856-1.739,4.249A1.134,1.134,0,0,1,3452.825,1642.043Z" transform="translate(-3451.692 -1635.58)" fill="#ff6d60"/>
          </g>
        </g>
      </g>
    </g>
    <g id="Grupo_92851" data-name="Grupo 92851" transform="translate(0 83.644)">
      <g id="Grupo_92850" data-name="Grupo 92850">
        <g id="Grupo_92842" data-name="Grupo 92842" transform="translate(38.119 52.067)">
          <path id="Trazado_142987" data-name="Trazado 142987" d="M2965.311,1631.57a1.134,1.134,0,0,1-1.059-1.536l9.568-25.189a1.134,1.134,0,0,1,1.046-.731h.014a1.132,1.132,0,0,1,1.049.706l10.275,25.189a1.134,1.134,0,0,1-2.1.856l-9.187-22.524-8.546,22.5A1.134,1.134,0,0,1,2965.311,1631.57Z" transform="translate(-2964.177 -1604.114)" fill="#ff6d60"/>
        </g>
        <g id="Grupo_92843" data-name="Grupo 92843" transform="translate(29.683)">
          <rect id="Rectángulo_35323" data-name="Rectángulo 35323" width="36.234" height="55.952" transform="translate(1.133 1.133)" fill="#fff"/>
          <path id="Trazado_142988" data-name="Trazado 142988" d="M2973.328,1488.191h-36.234a1.133,1.133,0,0,1-1.133-1.133v-55.952a1.133,1.133,0,0,1,1.133-1.133h36.234a1.133,1.133,0,0,1,1.134,1.133v55.952A1.134,1.134,0,0,1,2973.328,1488.191Zm-35.1-2.267h33.966v-53.685h-33.966Z" transform="translate(-2935.961 -1429.972)" fill="#ff6d60"/>
        </g>
        <g id="Grupo_92844" data-name="Grupo 92844" transform="translate(33.737 10.159)">
          <path id="Trazado_142989" data-name="Trazado 142989" d="M2950.654,1497a1.134,1.134,0,0,1-.84-1.894l6.544-7.233a1.132,1.132,0,0,1,.84-.373h6.714l4.729-8.5,6.309-14.382a1.134,1.134,0,0,1,2.077.911l-6.332,14.431c-.015.033-.03.065-.047.1l-5.079,9.125a1.133,1.133,0,0,1-.99.582H2957.7l-6.207,6.86A1.129,1.129,0,0,1,2950.654,1497Z" transform="translate(-2949.521 -1463.949)" fill="#ff6d60"/>
        </g>
        <g id="Grupo_92845" data-name="Grupo 92845" transform="translate(8.566 9.057)">
          <ellipse id="Elipse_4452" data-name="Elipse 4452" cx="6.332" cy="6.372" rx="6.332" ry="6.372" transform="translate(1.134 1.133)" fill="#fff"/>
          <path id="Trazado_142990" data-name="Trazado 142990" d="M2872.8,1475.274a7.5,7.5,0,1,1,7.465-7.5A7.493,7.493,0,0,1,2872.8,1475.274Zm0-12.743a5.238,5.238,0,1,0,5.2,5.239A5.225,5.225,0,0,0,2872.8,1462.531Z" transform="translate(-2865.333 -1460.264)" fill="#ff6d60"/>
        </g>
        <g id="Grupo_92846" data-name="Grupo 92846" transform="translate(74.019 9.057)">
          <ellipse id="Elipse_4453" data-name="Elipse 4453" cx="6.332" cy="6.372" rx="6.332" ry="6.372" transform="translate(1.133 1.133)" fill="#fff"/>
          <path id="Trazado_142991" data-name="Trazado 142991" d="M3091.713,1475.274a7.5,7.5,0,1,1,7.465-7.5A7.494,7.494,0,0,1,3091.713,1475.274Zm0-12.743a5.238,5.238,0,1,0,5.2,5.239A5.225,5.225,0,0,0,3091.713,1462.531Z" transform="translate(-3084.247 -1460.264)" fill="#ff6d60"/>
        </g>
        <g id="Grupo_92847" data-name="Grupo 92847" transform="translate(56.363 22.408)">
          <path id="Trazado_142992" data-name="Trazado 142992" d="M3067.2,1519.672l-6.12-8.076-.049-.062a7.442,7.442,0,0,0-5.849-2.825h-2.945a7.426,7.426,0,0,0-4.067,1.207l-.062.04a24.692,24.692,0,0,0-4.017,3.773,32.009,32.009,0,0,1-3.509,3.435,1.108,1.108,0,0,1-1.2.09l-5.585-3.028a3.257,3.257,0,0,0-4.426,1.335,3.3,3.3,0,0,0,1.327,4.454l5.584,3.028a7.625,7.625,0,0,0,8.245-.638c.252-.193.5-.4.754-.615v15.819c0,.055.007.109.008.163l-3.883,32.423a3.476,3.476,0,0,0,3.021,3.873,3.515,3.515,0,0,0,.418.025,3.468,3.468,0,0,0,3.431-3.065l3.1-25.853a7.635,7.635,0,0,0,3.168.007l2.47,25.8a3.468,3.468,0,0,0,3.439,3.147c.111,0,.223-.005.336-.016a3.475,3.475,0,0,0,3.112-3.8l-3.241-33.848v-14.584l.641.845-.348,11.015a3.28,3.28,0,0,0,3.163,3.39l.105,0a3.277,3.277,0,0,0,3.264-3.183l.385-12.183A3.305,3.305,0,0,0,3067.2,1519.672Z" transform="translate(-3027.848 -1507.575)" fill="#ffc967"/>
          <path id="Trazado_142993" data-name="Trazado 142993" d="M3057.8,1572.608a4.583,4.583,0,0,1-4.568-4.173l-2.358-24.632a8.675,8.675,0,0,1-1.163,0l-2.959,24.706a4.6,4.6,0,0,1-4.555,4.063,4.541,4.541,0,0,1-.556-.034,4.614,4.614,0,0,1-4.008-5.132l3.871-32.323c0-.047,0-.087,0-.128v-13.607a8.761,8.761,0,0,1-8.406.037l-5.585-3.028a4.438,4.438,0,0,1-1.786-5.985,4.391,4.391,0,0,1,5.965-1.8l5.585,3.027a33.489,33.489,0,0,0,3.337-3.3,25.389,25.389,0,0,1,4.227-3.95l.067-.043a8.537,8.537,0,0,1,4.682-1.389h2.945a8.572,8.572,0,0,1,6.735,3.252l.069.089,6.117,8.072h0a4.451,4.451,0,0,1,.9,2.817l-.384,12.184a4.4,4.4,0,0,1-6.709,3.622l3.121,32.6a4.614,4.614,0,0,1-4.131,5.035C3058.091,1572.6,3057.942,1572.608,3057.8,1572.608Zm-5.91-31.217a1.134,1.134,0,0,1,1.128,1.025l2.47,25.8a2.327,2.327,0,1,0,4.631-.452l-3.241-33.848c0-.036,0-.072,0-.108v-14.584a1.134,1.134,0,0,1,2.037-.685l.64.845a1.132,1.132,0,0,1,.229.72l-.348,11.015a2.148,2.148,0,0,0,2.065,2.222h.069a2.133,2.133,0,0,0,2.131-2.086l.385-12.183a2.179,2.179,0,0,0-.438-1.378l-6.154-8.119a6.316,6.316,0,0,0-4.96-2.4h-2.945a6.282,6.282,0,0,0-3.447,1.022l-.067.043a24,24,0,0,0-3.8,3.588,32.785,32.785,0,0,1-3.657,3.57,2.243,2.243,0,0,1-2.426.186l-5.585-3.028a2.106,2.106,0,0,0-1.616-.167,2.128,2.128,0,0,0-1.271,1.041,2.166,2.166,0,0,0,.869,2.922l5.584,3.028a6.491,6.491,0,0,0,7.018-.543c.2-.154.426-.337.706-.575a1.133,1.133,0,0,1,1.869.862v15.819c0,.052.007.1.008.139a1.085,1.085,0,0,1-.008.159l-3.883,32.423a2.327,2.327,0,1,0,4.619.563l3.1-25.852a1.134,1.134,0,0,1,1.361-.974,6.527,6.527,0,0,0,2.7.006A1.144,1.144,0,0,1,3051.887,1541.391Z" transform="translate(-3025.195 -1504.917)" fill="#ff6d60"/>
        </g>
        <g id="Grupo_92848" data-name="Grupo 92848" transform="translate(0 20.567)">
          <path id="Trazado_142994" data-name="Trazado 142994" d="M2878.379,1503.5a3.251,3.251,0,0,0-3.819-.552l-7.346,3.932a2.7,2.7,0,0,1-1.65.312,26.764,26.764,0,0,1-5.807-1.813l-.066-.029a11.329,11.329,0,0,0-4.575-.95h-1.955a7.443,7.443,0,0,0-5.849,2.825l-.049.063-6.12,8.076a3.3,3.3,0,0,0-.668,2.1l.384,12.183a3.277,3.277,0,0,0,3.264,3.183l.1,0a3.279,3.279,0,0,0,3.163-3.39l-.348-11.016.641-.845v14.584l-3.241,33.848a3.476,3.476,0,0,0,3.112,3.8c.113.011.225.016.336.016a3.469,3.469,0,0,0,3.439-3.147l2.471-25.8a7.63,7.63,0,0,0,3.167-.007l3.1,25.853a3.46,3.46,0,1,0,6.869-.833l-3.883-32.423c0-.054.008-.108.008-.163v-19.9c.521.12,1.047.224,1.566.3a9.247,9.247,0,0,0,5.657-1.014l7.346-3.932a3.294,3.294,0,0,0,1.416-4.3Z" transform="translate(-2839.341 -1501.425)" fill="#ffc967"/>
          <path id="Trazado_142995" data-name="Trazado 142995" d="M2845.235,1568.292c-.145,0-.294-.007-.443-.022a4.614,4.614,0,0,1-4.132-5.035l3.121-32.6a4.36,4.36,0,0,1-2.171.657l-.141,0a4.39,4.39,0,0,1-4.4-4.281l-.385-12.184a4.457,4.457,0,0,1,.9-2.818l6.176-8.148a8.577,8.577,0,0,1,6.744-3.265h1.955a12.469,12.469,0,0,1,5.03,1.045l-.417,1.055.454-1.039.039.017a25.875,25.875,0,0,0,5.506,1.726,1.564,1.564,0,0,0,.952-.19l7.346-3.932a4.368,4.368,0,0,1,5.149.744,1.125,1.125,0,0,1,.132.156l.665.948a1.06,1.06,0,0,1,.1.169,4.423,4.423,0,0,1-1.907,5.787l-7.346,3.932a10.4,10.4,0,0,1-6.355,1.137l-.268-.042v18.521c0,.044,0,.087,0,.13l3.871,32.321a4.615,4.615,0,0,1-4.01,5.133,4.507,4.507,0,0,1-.555.034,4.6,4.6,0,0,1-4.556-4.063l-2.958-24.706a8.69,8.69,0,0,1-1.164,0l-2.358,24.632A4.583,4.583,0,0,1,2845.235,1568.292Zm-.207-54.514a1.135,1.135,0,0,1,1.133,1.134V1529.5c0,.036,0,.072-.005.108l-3.241,33.848a2.344,2.344,0,0,0,2.093,2.563c.075.007.151.011.227.011a2.323,2.323,0,0,0,2.312-2.122l2.47-25.8a1.134,1.134,0,0,1,1.36-1,6.531,6.531,0,0,0,2.7-.006,1.134,1.134,0,0,1,1.361.974l3.1,25.852a2.333,2.333,0,0,0,2.3,2.067,2.3,2.3,0,0,0,.281-.017,2.346,2.346,0,0,0,2.033-2.613l-3.883-32.422a1.1,1.1,0,0,1-.008-.165c0-.041,0-.083.007-.124v-19.91a1.134,1.134,0,0,1,1.387-1.1c.541.124,1.024.217,1.476.283a8.109,8.109,0,0,0,4.958-.892l7.345-3.932a2.157,2.157,0,0,0,.961-2.743l-.539-.766a2.11,2.11,0,0,0-2.422-.3l-7.346,3.932a3.828,3.828,0,0,1-2.35.434,27.6,27.6,0,0,1-6.126-1.91l-.054-.023a10.178,10.178,0,0,0-4.1-.847H2850.5a6.313,6.313,0,0,0-4.961,2.4l-.029.036-6.124,8.081a2.176,2.176,0,0,0-.438,1.378l.384,12.183a2.133,2.133,0,0,0,2.131,2.086h.068a2.149,2.149,0,0,0,2.067-2.222l-.348-11.015a1.136,1.136,0,0,1,.23-.721l.641-.845A1.132,1.132,0,0,1,2845.028,1513.777Z" transform="translate(-2836.684 -1498.76)" fill="#ff6d60"/>
        </g>
        <g id="Grupo_92849" data-name="Grupo 92849" transform="translate(37.904 10.159)">
          <line id="Línea_167" data-name="Línea 167" y1="11.349" x2="8.65" transform="translate(1.133 1.134)" fill="#fff"/>
          <path id="Trazado_142996" data-name="Trazado 142996" d="M2964.59,1477.565a1.133,1.133,0,0,1-.9-1.821l8.65-11.349a1.133,1.133,0,0,1,1.8,1.374l-8.65,11.349A1.131,1.131,0,0,1,2964.59,1477.565Z" transform="translate(-2963.458 -1463.949)" fill="#ff6d60"/>
        </g>
      </g>
    </g>
    <g id="Grupo_92873" data-name="Grupo 92873" transform="translate(53.292)">
      <g id="Grupo_92872" data-name="Grupo 92872">
        <g id="Grupo_92868" data-name="Grupo 92868" transform="translate(48.746 39.674)">
          <g id="Grupo_92852" data-name="Grupo 92852" transform="translate(47.015 15.164)">
            <path id="Trazado_142997" data-name="Trazado 142997" d="M3336.543,1358.62l1.851.7,1.432.541a1.867,1.867,0,0,0,2.311-.873l9.051-17.1a1.868,1.868,0,0,0-.991-2.62l-3.663-1.385-1.883-.712" transform="translate(-3336.142 -1336.112)" fill="#ffc967"/>
            <path id="Trazado_142998" data-name="Trazado 142998" d="M3339.542,1358.629a2.979,2.979,0,0,1-1.056-.193l-3.283-1.241.8-2.12,3.283,1.241a.735.735,0,0,0,.909-.343l9.05-17.1a.734.734,0,0,0-.389-1.03l-5.547-2.1.8-2.12,5.547,2.1a3,3,0,0,1,1.591,4.21l-9.051,17.1A3.009,3.009,0,0,1,3339.542,1358.629Z" transform="translate(-3335.203 -1333.626)" fill="#ff6d60"/>
          </g>
          <g id="Grupo_92853" data-name="Grupo 92853" transform="translate(45.817 37.545)">
            <path id="Trazado_142999" data-name="Trazado 142999" d="M3338.113,1412.272c-2.59,3.576-1.5,16.148-3.127,19.6" transform="translate(-3333.853 -1411.139)" fill="#fff"/>
            <path id="Trazado_143000" data-name="Trazado 143000" d="M3332.328,1430.349a1.134,1.134,0,0,1-1.023-1.618c.618-1.308.814-4.612,1-7.807.283-4.764.576-9.69,2.229-11.974a1.134,1.134,0,0,1,1.836,1.33c-1.267,1.748-1.564,6.755-1.8,10.778-.221,3.722-.412,6.937-1.217,8.642A1.134,1.134,0,0,1,3332.328,1430.349Z" transform="translate(-3331.195 -1408.482)" fill="#ff6d60"/>
          </g>
          <g id="Grupo_92865" data-name="Grupo 92865" transform="translate(17.027 46.178)">
            <g id="Grupo_92854" data-name="Grupo 92854" transform="translate(27.036 14.239)">
              <path id="Trazado_143001" data-name="Trazado 143001" d="M3329.12,1488.956c.564.031,1.1-.006,1.673-.027s1.149-.073,1.714-.153" transform="translate(-3327.987 -1487.641)" fill="#ff6d60"/>
              <path id="Trazado_143002" data-name="Trazado 143002" d="M3326.919,1487.442c-.169,0-.341,0-.517-.013a1.133,1.133,0,0,1,.121-2.263c.4.021.806,0,1.235-.015l.335-.014c.551-.023,1.09-.071,1.6-.143a1.133,1.133,0,0,1,.318,2.244c-.582.083-1.2.137-1.826.164l-.327.014C3327.552,1487.428,3327.24,1487.442,3326.919,1487.442Z" transform="translate(-3325.33 -1484.982)" fill="#ff6d60"/>
            </g>
            <g id="Grupo_92855" data-name="Grupo 92855" transform="translate(24.098 16.701)">
              <path id="Trazado_143003" data-name="Trazado 143003" d="M3319.294,1497.006q.785.178,1.642.313c.556.068,1.125.113,1.717.147" transform="translate(-3318.161 -1495.873)" fill="#ff6d60"/>
              <path id="Trazado_143004" data-name="Trazado 143004" d="M3320,1495.943l-.064,0c-.687-.038-1.257-.087-1.792-.153l-.037,0c-.583-.091-1.161-.2-1.718-.328a1.133,1.133,0,0,1,.5-2.211c.5.114,1.022.213,1.548.3.478.059,1,.1,1.624.137a1.133,1.133,0,0,1-.063,2.265Z" transform="translate(-3315.503 -1493.216)" fill="#ff6d60"/>
            </g>
            <g id="Grupo_92856" data-name="Grupo 92856" transform="translate(20.775 18.197)">
              <path id="Trazado_143005" data-name="Trazado 143005" d="M3308.18,1502.011c.465.251.965.493,1.5.723.518.2,1.068.379,1.646.548" transform="translate(-3307.046 -1500.877)" fill="#ff6d60"/>
              <path id="Trazado_143006" data-name="Trazado 143006" d="M3308.665,1501.758a1.144,1.144,0,0,1-.317-.045c-.592-.172-1.174-.366-1.729-.575l-.049-.02c-.547-.236-1.08-.494-1.585-.766a1.133,1.133,0,1,1,1.075-2c.439.237.906.462,1.383.67.494.185,1.011.356,1.539.51a1.134,1.134,0,0,1-.317,2.222Z" transform="translate(-3304.388 -1498.22)" fill="#ff6d60"/>
            </g>
            <g id="Grupo_92857" data-name="Grupo 92857" transform="translate(17.219 18.644)">
              <path id="Trazado_143007" data-name="Trazado 143007" d="M3296.286,1503.5a11.508,11.508,0,0,0,2.621,2.152" transform="translate(-3295.153 -1502.371)" fill="#ff6d60"/>
              <path id="Trazado_143008" data-name="Trazado 143008" d="M3296.249,1504.133a1.124,1.124,0,0,1-.589-.166,12.654,12.654,0,0,1-2.877-2.365,1.133,1.133,0,1,1,1.693-1.507,10.4,10.4,0,0,0,2.364,1.938,1.133,1.133,0,0,1-.591,2.1Z" transform="translate(-3292.496 -1499.715)" fill="#ff6d60"/>
            </g>
            <g id="Grupo_92858" data-name="Grupo 92858" transform="translate(13.701 17.964)">
              <path id="Trazado_143009" data-name="Trazado 143009" d="M3284.523,1501.231a11.821,11.821,0,0,0,1.817,2.863" transform="translate(-3283.389 -1500.097)" fill="#ff6d60"/>
              <path id="Trazado_143010" data-name="Trazado 143010" d="M3283.682,1502.569a1.131,1.131,0,0,1-.859-.393,12.92,12.92,0,0,1-1.992-3.138,1.133,1.133,0,0,1,2.067-.931,10.652,10.652,0,0,0,1.642,2.588,1.134,1.134,0,0,1-.857,1.874Z" transform="translate(-3280.73 -1497.439)" fill="#ff6d60"/>
            </g>
            <g id="Grupo_92859" data-name="Grupo 92859" transform="translate(10.49 16.263)">
              <path id="Trazado_143011" data-name="Trazado 143011" d="M3273.781,1495.542c.087.534.21,1.069.354,1.629.157.539.351,1.08.57,1.642" transform="translate(-3272.647 -1494.408)" fill="#ff6d60"/>
              <path id="Trazado_143012" data-name="Trazado 143012" d="M3272.048,1497.289a1.134,1.134,0,0,1-1.056-.721c-.263-.673-.455-1.225-.6-1.738l-.01-.035c-.176-.689-.292-1.222-.374-1.728a1.133,1.133,0,1,1,2.237-.365c.071.433.172.9.328,1.513.129.442.3.928.533,1.528a1.134,1.134,0,0,1-1.056,1.546Z" transform="translate(-3269.99 -1491.751)" fill="#ff6d60"/>
            </g>
            <g id="Grupo_92860" data-name="Grupo 92860" transform="translate(7.724 13.775)">
              <path id="Trazado_143013" data-name="Trazado 143013" d="M3264.56,1487.219a17.461,17.461,0,0,0,.125,3.4" transform="translate(-3263.396 -1486.086)" fill="#ff6d60"/>
              <path id="Trazado_143014" data-name="Trazado 143014" d="M3262.027,1489.09a1.134,1.134,0,0,1-1.122-.978,18.688,18.688,0,0,1-.133-3.615,1.133,1.133,0,1,1,2.263.128,16.407,16.407,0,0,0,.116,3.176,1.134,1.134,0,0,1-1.124,1.289Z" transform="translate(-3260.74 -1483.428)" fill="#ff6d60"/>
            </g>
            <g id="Grupo_92861" data-name="Grupo 92861" transform="translate(5.007 10.752)">
              <path id="Trazado_143015" data-name="Trazado 143015" d="M3255.974,1477.109q-.181.8-.328,1.643c-.1.564-.147,1.123-.2,1.711" transform="translate(-3254.311 -1475.976)" fill="#ff6d60"/>
              <path id="Trazado_143016" data-name="Trazado 143016" d="M3252.787,1478.939c-.036,0-.071,0-.107,0a1.134,1.134,0,0,1-1.023-1.234l.006-.068c.055-.589.107-1.145.208-1.73s.215-1.154.339-1.7a1.133,1.133,0,1,1,2.21.5c-.116.51-.222,1.043-.316,1.585-.086.5-.133,1.011-.184,1.555l-.006.068A1.133,1.133,0,0,1,3252.787,1478.939Z" transform="translate(-3251.652 -1473.318)" fill="#ff6d60"/>
            </g>
            <g id="Grupo_92862" data-name="Grupo 92862" transform="translate(2.771 7.364)">
              <path id="Trazado_143017" data-name="Trazado 143017" d="M3249.042,1465.778a26.165,26.165,0,0,0-1.076,3.233" transform="translate(-3246.833 -1464.644)" fill="#ff6d60"/>
              <path id="Trazado_143018" data-name="Trazado 143018" d="M3245.309,1467.486a1.134,1.134,0,0,1-1.094-1.429,26.9,26.9,0,0,1,1.123-3.372,1.133,1.133,0,1,1,2.093.869,24.878,24.878,0,0,0-1.028,3.095A1.134,1.134,0,0,1,3245.309,1467.486Z" transform="translate(-3244.175 -1461.986)" fill="#ff6d60"/>
            </g>
            <g id="Grupo_92863" data-name="Grupo 92863" transform="translate(1.134 3.754)">
              <path id="Trazado_143019" data-name="Trazado 143019" d="M3243.98,1453.7a29.2,29.2,0,0,0-1.491,3.052" transform="translate(-3241.355 -1452.571)" fill="#ff6d60"/>
              <path id="Trazado_143020" data-name="Trazado 143020" d="M3239.831,1455.232a1.134,1.134,0,0,1-1.051-1.557,30.528,30.528,0,0,1,1.548-3.173,1.133,1.133,0,1,1,1.989,1.087,28.284,28.284,0,0,0-1.434,2.932A1.135,1.135,0,0,1,3239.831,1455.232Z" transform="translate(-3238.698 -1449.913)" fill="#ff6d60"/>
            </g>
            <g id="Grupo_92864" data-name="Grupo 92864">
              <path id="Trazado_143021" data-name="Trazado 143021" d="M3240.556,1441.148c-.676.908-1.254,1.852-1.859,2.857" transform="translate(-3237.564 -1440.015)" fill="#ff6d60"/>
              <path id="Trazado_143022" data-name="Trazado 143022" d="M3236.038,1442.481a1.134,1.134,0,0,1-.97-1.718c.607-1.011,1.212-2,1.92-2.949a1.133,1.133,0,1,1,1.819,1.353c-.646.869-1.219,1.8-1.8,2.764A1.133,1.133,0,0,1,3236.038,1442.481Z" transform="translate(-3234.906 -1437.357)" fill="#ff6d60"/>
            </g>
          </g>
          <g id="Grupo_92866" data-name="Grupo 92866" transform="translate(0 26.712)">
            <path id="Trazado_143023" data-name="Trazado 143023" d="M3214.144,1382.143l-4.341,5.162a2.454,2.454,0,0,1-2.772.747l-.146-.055a1.994,1.994,0,0,0-1.984.335l-15.382,12.855a3.733,3.733,0,0,1-5.4-.646l-1.625-2.2a3.733,3.733,0,0,1,.672-5.134l9.507-7.6a2.195,2.195,0,0,0,.766-2.219l-.421-1.778a2.257,2.257,0,0,1,1.617-2.7l3.3-.877a.72.72,0,0,0,.483-.964l-.411-1.025" transform="translate(-3180.626 -1374.909)" fill="#ffc967"/>
            <path id="Trazado_143024" data-name="Trazado 143024" d="M3184.448,1400.53a4.747,4.747,0,0,1-.573-.034,4.885,4.885,0,0,1-3.335-1.94l-1.625-2.2a4.851,4.851,0,0,1,.876-6.693l9.507-7.6a1.066,1.066,0,0,0,.37-1.073l-.421-1.778a3.373,3.373,0,0,1,2.428-4.058l2.848-.757-.237-.592a1.133,1.133,0,1,1,2.1-.843l.41,1.025a1.852,1.852,0,0,1-1.244,2.479l-3.3.877a1.117,1.117,0,0,0-.8,1.345l.42,1.778a3.341,3.341,0,0,1-1.16,3.366l-9.507,7.6a2.592,2.592,0,0,0-.468,3.575l1.625,2.2a2.6,2.6,0,0,0,3.759.45L3201.5,1384.8a3.134,3.134,0,0,1,3.112-.526l.146.055a1.318,1.318,0,0,0,1.492-.4l4.353-5.176a1.133,1.133,0,1,1,1.735,1.459l-4.341,5.162a3.578,3.578,0,0,1-4.04,1.077l-.146-.055a.864.864,0,0,0-.857.145l-15.382,12.855A4.889,4.889,0,0,1,3184.448,1400.53Z" transform="translate(-3177.956 -1372.251)" fill="#ff6d60"/>
          </g>
          <g id="Grupo_92867" data-name="Grupo 92867" transform="translate(12.563)">
            <path id="Trazado_143025" data-name="Trazado 143025" d="M3267.24,1300.228h0l-32.887-12.431-9.494,25.116,32.887,12.431,9.494-25.116" transform="translate(-3223.399 -1286.336)" fill="#fff"/>
            <path id="Trazado_143026" data-name="Trazado 143026" d="M3254.981,1323.38l-35.007-13.233,10.3-27.236,33.947,12.832h0a1.133,1.133,0,0,1,.659,1.461Zm-32.086-14.552,30.767,11.63,8.693-23-30.767-11.63Z" transform="translate(-3219.974 -1282.91)" fill="#ff6d60"/>
          </g>
        </g>
        <g id="Grupo_92869" data-name="Grupo 92869">
          <path id="Trazado_143027" data-name="Trazado 143027" d="M3080.349,1219.125l-61.636-1.532,24.036-63.586,47.094,40Z" transform="translate(-3017.579 -1152.874)" fill="#ffc967"/>
          <path id="Trazado_143028" data-name="Trazado 143028" d="M3077.691,1217.6h-.028l-61.636-1.532a1.134,1.134,0,0,1-1.032-1.534l24.036-63.586a1.133,1.133,0,0,1,1.793-.463l47.094,40a1.133,1.133,0,0,1,.326,1.265l-9.494,25.116A1.134,1.134,0,0,1,3077.691,1217.6Zm-60.011-3.759,59.235,1.472,8.927-23.616-45.26-38.444Z" transform="translate(-3014.922 -1150.217)" fill="#ff6d60"/>
        </g>
        <g id="Grupo_92870" data-name="Grupo 92870" transform="translate(5.811 3.884)">
          <line id="Línea_168" data-name="Línea 168" x1="22.474" y2="59.454" transform="translate(1.134 1.133)" fill="#fff"/>
          <path id="Trazado_143029" data-name="Trazado 143029" d="M3035.492,1224.929a1.134,1.134,0,0,1-1.06-1.534l22.474-59.454a1.133,1.133,0,1,1,2.12.8l-22.473,59.454A1.134,1.134,0,0,1,3035.492,1224.929Z" transform="translate(-3034.359 -1163.209)" fill="#ff6d60"/>
        </g>
        <g id="Grupo_92871" data-name="Grupo 92871" transform="translate(87.616 49.822)">
          <line id="Línea_169" data-name="Línea 169" x1="9.494" y2="25.116" transform="translate(1.134 1.134)" fill="#fff"/>
          <path id="Trazado_143030" data-name="Trazado 143030" d="M3309.095,1344.235a1.134,1.134,0,0,1-1.06-1.534l9.494-25.116a1.134,1.134,0,0,1,2.121.8l-9.494,25.116A1.134,1.134,0,0,1,3309.095,1344.235Z" transform="translate(-3307.961 -1316.852)" fill="#ff6d60"/>
        </g>
      </g>
    </g>
    <g id="Grupo_92904" data-name="Grupo 92904" transform="translate(101.335 117.754)">
      <g id="Grupo_92895" data-name="Grupo 92895" transform="translate(0 28.399)">
        <g id="Grupo_92879" data-name="Grupo 92879" transform="translate(15.923)">
          <g id="Grupo_92874" data-name="Grupo 92874">
            <path id="Trazado_143031" data-name="Trazado 143031" d="M3257.963,1673c-.33-5.09-1.009-10.019-3.1-13-1.379-1.96-3.534-4.17-5.845-4.356a7.1,7.1,0,0,0,2.917-5.774,6.8,6.8,0,1,0-13.6,0,7.1,7.1,0,0,0,2.951,5.8c-2.079.347-4.031,2.3-5.315,4.038-2.217,3-2.95,8.042-3.3,13.273a4.5,4.5,0,0,0,4.482,4.81h16.333A4.5,4.5,0,0,0,3257.963,1673Z" transform="translate(-3231.52 -1641.694)" fill="#fff"/>
            <path id="Trazado_143032" data-name="Trazado 143032" d="M3250.823,1676.266H3234.49a5.566,5.566,0,0,1-4.106-1.783,5.667,5.667,0,0,1-1.507-4.237c.334-4.952,1.015-10.472,3.522-13.87a13.439,13.439,0,0,1,4.1-3.795,8.317,8.317,0,0,1-1.956-5.37,7.936,7.936,0,1,1,15.866,0,8.322,8.322,0,0,1-1.852,5.241,13.153,13.153,0,0,1,4.573,4.237c2.356,3.35,2.995,8.743,3.308,13.577h0a5.66,5.66,0,0,1-1.512,4.222A5.569,5.569,0,0,1,3250.823,1676.266Zm-8.348-34.962a5.8,5.8,0,0,0-5.667,5.906,5.983,5.983,0,0,0,2.475,4.878,1.133,1.133,0,0,1-.47,2.041c-1.405.235-3.078,1.545-4.59,3.593-2.174,2.945-2.791,8.321-3.084,12.676a3.366,3.366,0,0,0,3.352,3.6h16.333a3.364,3.364,0,0,0,3.353-3.587c-.276-4.255-.855-9.513-2.9-12.42-1.622-2.307-3.494-3.757-5.008-3.879a1.133,1.133,0,0,1-.573-2.049,5.988,5.988,0,0,0,2.446-4.855A5.8,5.8,0,0,0,3242.475,1641.3Z" transform="translate(-3228.863 -1639.037)" fill="#1a1861"/>
          </g>
          <g id="Grupo_92878" data-name="Grupo 92878">
            <g id="Grupo_92877" data-name="Grupo 92877">
              <g id="Grupo_92875" data-name="Grupo 92875" transform="translate(0 12.809)">
                <path id="Trazado_143033" data-name="Trazado 143033" d="M3249.027,1685.669c2.306.193,4.456,2.4,5.832,4.361,2.095,2.979,2.774,7.908,3.1,13a4.5,4.5,0,0,1-4.484,4.793h-16.333a4.5,4.5,0,0,1-4.482-4.811c.354-5.23,1.086-10.27,3.3-13.273,1.269-1.719,3.189-3.649,5.24-4.03" transform="translate(-3231.52 -1684.536)" fill="#fff"/>
                <path id="Trazado_143034" data-name="Trazado 143034" d="M3250.823,1706.3H3234.49a5.566,5.566,0,0,1-4.106-1.783,5.667,5.667,0,0,1-1.507-4.237c.334-4.952,1.015-10.472,3.522-13.87,1.075-1.457,3.278-3.976,5.945-4.471a1.133,1.133,0,1,1,.414,2.228c-1.389.259-3.042,1.567-4.535,3.589-2.174,2.945-2.791,8.321-3.084,12.676a3.366,3.366,0,0,0,3.352,3.6h16.333a3.364,3.364,0,0,0,3.353-3.587c-.276-4.255-.855-9.512-2.9-12.42-1.621-2.305-3.489-3.757-5-3.884a1.133,1.133,0,0,1,.189-2.259c3.016.253,5.47,3.14,6.664,4.838,2.356,3.35,2.995,8.743,3.308,13.577a5.657,5.657,0,0,1-1.512,4.223A5.57,5.57,0,0,1,3250.823,1706.3Z" transform="translate(-3228.863 -1681.879)" fill="#ff6d60"/>
              </g>
              <g id="Grupo_92876" data-name="Grupo 92876" transform="translate(5.678)">
                <ellipse id="Elipse_4454" data-name="Elipse 4454" cx="6.8" cy="7.04" rx="6.8" ry="7.04" transform="translate(1.133 1.133)" fill="#fff"/>
                <path id="Trazado_143035" data-name="Trazado 143035" d="M3255.787,1655.383a8.177,8.177,0,1,1,7.933-8.173A8.065,8.065,0,0,1,3255.787,1655.383Zm0-14.079a5.911,5.911,0,1,0,5.666,5.906A5.8,5.8,0,0,0,3255.787,1641.3Z" transform="translate(-3247.854 -1639.037)" fill="#ff6d60"/>
              </g>
            </g>
          </g>
        </g>
        <g id="Grupo_92885" data-name="Grupo 92885" transform="translate(42.832)">
          <g id="Grupo_92880" data-name="Grupo 92880">
            <path id="Trazado_143036" data-name="Trazado 143036" d="M3347.963,1673c-.33-5.09-1.009-10.019-3.1-13-1.378-1.96-3.534-4.17-5.845-4.356a7.1,7.1,0,0,0,2.916-5.774,6.8,6.8,0,1,0-13.6,0,7.1,7.1,0,0,0,2.951,5.8c-2.079.347-4.031,2.3-5.315,4.038-2.217,3-2.95,8.042-3.3,13.273a4.5,4.5,0,0,0,4.482,4.81h16.333A4.5,4.5,0,0,0,3347.963,1673Z" transform="translate(-3321.52 -1641.694)" fill="#fff"/>
            <path id="Trazado_143037" data-name="Trazado 143037" d="M3340.823,1676.266H3324.49a5.566,5.566,0,0,1-4.106-1.783,5.668,5.668,0,0,1-1.507-4.237c.334-4.952,1.014-10.472,3.522-13.87a13.431,13.431,0,0,1,4.1-3.795,8.317,8.317,0,0,1-1.956-5.37,7.937,7.937,0,1,1,15.866,0,8.322,8.322,0,0,1-1.852,5.241,13.157,13.157,0,0,1,4.573,4.237c2.356,3.35,2.994,8.743,3.308,13.577h0a5.662,5.662,0,0,1-1.513,4.222A5.569,5.569,0,0,1,3340.823,1676.266Zm-8.348-34.962a5.8,5.8,0,0,0-5.667,5.906,5.983,5.983,0,0,0,2.475,4.878,1.133,1.133,0,0,1-.471,2.041c-1.406.235-3.078,1.544-4.59,3.593-2.174,2.945-2.791,8.321-3.084,12.676a3.366,3.366,0,0,0,3.352,3.6h16.333a3.364,3.364,0,0,0,3.353-3.587c-.276-4.255-.855-9.512-2.9-12.42-1.622-2.307-3.494-3.757-5.008-3.879a1.134,1.134,0,0,1-.573-2.049,5.986,5.986,0,0,0,2.446-4.855A5.8,5.8,0,0,0,3332.475,1641.3Z" transform="translate(-3318.864 -1639.037)" fill="#1a1861"/>
          </g>
          <g id="Grupo_92884" data-name="Grupo 92884">
            <g id="Grupo_92883" data-name="Grupo 92883">
              <g id="Grupo_92881" data-name="Grupo 92881" transform="translate(0 12.809)">
                <path id="Trazado_143038" data-name="Trazado 143038" d="M3339.027,1685.669c2.306.193,4.456,2.4,5.832,4.361,2.1,2.979,2.774,7.908,3.1,13a4.5,4.5,0,0,1-4.484,4.793h-16.333a4.5,4.5,0,0,1-4.482-4.811c.353-5.23,1.086-10.27,3.3-13.273,1.269-1.719,3.19-3.649,5.24-4.03" transform="translate(-3321.52 -1684.536)" fill="#fff"/>
                <path id="Trazado_143039" data-name="Trazado 143039" d="M3340.823,1706.3H3324.49a5.566,5.566,0,0,1-4.106-1.783,5.669,5.669,0,0,1-1.507-4.237c.334-4.952,1.014-10.472,3.522-13.87,1.075-1.457,3.278-3.976,5.944-4.471a1.133,1.133,0,1,1,.414,2.228c-1.389.259-3.042,1.567-4.535,3.589-2.174,2.945-2.791,8.321-3.084,12.676a3.366,3.366,0,0,0,3.352,3.6h16.333a3.364,3.364,0,0,0,3.353-3.587c-.276-4.255-.855-9.512-2.9-12.42-1.621-2.305-3.489-3.757-5-3.884a1.133,1.133,0,0,1,.189-2.259c3.016.253,5.47,3.14,6.664,4.838,2.356,3.35,2.994,8.743,3.308,13.577a5.659,5.659,0,0,1-1.513,4.223A5.57,5.57,0,0,1,3340.823,1706.3Z" transform="translate(-3318.864 -1681.879)" fill="#ff6d60"/>
              </g>
              <g id="Grupo_92882" data-name="Grupo 92882" transform="translate(5.678)">
                <ellipse id="Elipse_4455" data-name="Elipse 4455" cx="6.8" cy="7.04" rx="6.8" ry="7.04" transform="translate(1.133 1.133)" fill="#fff"/>
                <path id="Trazado_143040" data-name="Trazado 143040" d="M3345.787,1655.383a8.177,8.177,0,1,1,7.933-8.173A8.065,8.065,0,0,1,3345.787,1655.383Zm0-14.079a5.911,5.911,0,1,0,5.666,5.906A5.8,5.8,0,0,0,3345.787,1641.3Z" transform="translate(-3337.854 -1639.037)" fill="#ff6d60"/>
              </g>
            </g>
          </g>
        </g>
        <g id="Grupo_92888" data-name="Grupo 92888" transform="translate(0 6.743)">
          <g id="Grupo_92886" data-name="Grupo 92886" transform="translate(0 15.641)">
            <path id="Trazado_143041" data-name="Trazado 143041" d="M3184.9,1744.838a5.506,5.506,0,0,1-5.486-5.887c.433-6.4,1.33-12.569,4.042-16.244,1.734-2.349,4.464-5.021,7.3-5.015q3.487.009,8.3.018c2.968,0,5.766,2.849,7.527,5.354,2.564,3.646,3.395,9.679,3.8,15.908a5.5,5.5,0,0,1-5.487,5.867Z" transform="translate(-3178.266 -1716.559)" fill="#ffc967"/>
            <path id="Trazado_143042" data-name="Trazado 143042" d="M3202.23,1743.316h-19.989a6.56,6.56,0,0,1-4.839-2.1,6.684,6.684,0,0,1-1.778-5c.408-6.024,1.232-12.736,4.262-16.841,1.511-2.046,4.583-5.475,8.2-5.475h.014l1.782,0q2.88.008,6.512.014c3.788,0,6.921,3.658,8.453,5.835,2.847,4.049,3.621,10.606,4,16.487a6.672,6.672,0,0,1-1.783,4.978A6.562,6.562,0,0,1,3202.23,1743.316Zm-14.145-27.147c-1.887,0-4.27,1.7-6.375,4.554-2.7,3.656-3.461,10.283-3.824,15.647a4.372,4.372,0,0,0,4.355,4.677h19.989a4.371,4.371,0,0,0,4.356-4.66c-.34-5.24-1.055-11.718-3.6-15.329-2.143-3.048-4.61-4.87-6.6-4.872q-3.632-.005-6.516-.014l-1.781,0Z" transform="translate(-3175.609 -1713.902)" fill="#ff6d60"/>
          </g>
          <g id="Grupo_92887" data-name="Grupo 92887" transform="translate(6.949)">
            <ellipse id="Elipse_4456" data-name="Elipse 4456" cx="8.322" cy="8.615" rx="8.322" ry="8.615" transform="translate(1.133 1.133)" fill="#fff"/>
            <path id="Trazado_143043" data-name="Trazado 143043" d="M3208.306,1681.086a9.753,9.753,0,1,1,9.455-9.749A9.617,9.617,0,0,1,3208.306,1681.086Zm0-17.231a7.488,7.488,0,1,0,7.188,7.481A7.348,7.348,0,0,0,3208.306,1663.855Z" transform="translate(-3198.851 -1661.588)" fill="#ff6d60"/>
          </g>
        </g>
        <g id="Grupo_92891" data-name="Grupo 92891" transform="translate(53.134 6.743)">
          <g id="Grupo_92889" data-name="Grupo 92889" transform="translate(0 15.641)">
            <path id="Trazado_143044" data-name="Trazado 143044" d="M3362.608,1744.838a5.505,5.505,0,0,1-5.485-5.887c.432-6.4,1.329-12.569,4.042-16.244,1.734-2.349,4.464-5.021,7.3-5.015q3.486.009,8.3.018c2.969,0,5.766,2.849,7.527,5.354,2.565,3.646,3.4,9.679,3.8,15.908a5.5,5.5,0,0,1-5.488,5.867Z" transform="translate(-3355.976 -1716.559)" fill="#ffc967"/>
            <path id="Trazado_143045" data-name="Trazado 143045" d="M3379.94,1743.316h-19.989a6.56,6.56,0,0,1-4.839-2.1,6.683,6.683,0,0,1-1.777-5c.407-6.024,1.231-12.736,4.262-16.841,1.511-2.046,4.583-5.475,8.2-5.475h.015l1.782,0q2.88.008,6.512.014c3.788,0,6.922,3.658,8.453,5.835,2.848,4.049,3.622,10.606,4,16.487a6.672,6.672,0,0,1-1.783,4.978A6.564,6.564,0,0,1,3379.94,1743.316Zm-14.144-27.147c-1.888,0-4.27,1.7-6.376,4.554-2.7,3.656-3.462,10.283-3.824,15.647a4.372,4.372,0,0,0,4.354,4.677h19.989a4.371,4.371,0,0,0,4.357-4.66c-.34-5.24-1.056-11.719-3.6-15.329-2.144-3.048-4.611-4.87-6.6-4.872q-3.631-.005-6.515-.014l-1.781,0Z" transform="translate(-3353.319 -1713.902)" fill="#ff6d60"/>
          </g>
          <g id="Grupo_92890" data-name="Grupo 92890" transform="translate(6.949)">
            <ellipse id="Elipse_4457" data-name="Elipse 4457" cx="8.322" cy="8.615" rx="8.322" ry="8.615" transform="translate(1.133 1.133)" fill="#fff"/>
            <path id="Trazado_143046" data-name="Trazado 143046" d="M3386.016,1681.086a9.753,9.753,0,1,1,9.456-9.749A9.617,9.617,0,0,1,3386.016,1681.086Zm0-17.231a7.488,7.488,0,1,0,7.188,7.481A7.348,7.348,0,0,0,3386.016,1663.855Z" transform="translate(-3376.561 -1661.588)" fill="#ff6d60"/>
          </g>
        </g>
        <g id="Grupo_92894" data-name="Grupo 92894" transform="translate(25.826 11.777)">
          <g id="Grupo_92892" data-name="Grupo 92892" transform="translate(0 16.074)">
            <path id="Trazado_143047" data-name="Trazado 143047" d="M3271.427,1763.874a5.658,5.658,0,0,1-5.637-6.05c.444-6.578,1.366-12.916,4.154-16.693,1.783-2.414,4.587-5.16,7.5-5.153q3.583.008,8.525.019c3.05,0,5.924,2.928,7.734,5.5,2.636,3.748,3.489,9.947,3.9,16.348a5.656,5.656,0,0,1-5.64,6.029Z" transform="translate(-3264.644 -1734.844)" fill="#ffc967"/>
            <path id="Trazado_143048" data-name="Trazado 143048" d="M3289.313,1762.35h-20.542a6.71,6.71,0,0,1-4.95-2.149,6.835,6.835,0,0,1-1.818-5.11c.418-6.186,1.265-13.078,4.374-17.29,1.549-2.1,4.7-5.614,8.4-5.614h.014l1.708,0q3.005.008,6.815.014c3.878.005,7.09,3.751,8.66,5.983,2.922,4.154,3.716,10.887,4.108,16.926a6.821,6.821,0,0,1-1.824,5.092A6.713,6.713,0,0,1,3289.313,1762.35Zm-14.536-27.9c-2.81,0-5.535,3.281-6.577,4.693-2.779,3.764-3.563,10.579-3.936,16.1a4.525,4.525,0,0,0,4.506,4.839h20.542a4.522,4.522,0,0,0,4.508-4.822c-.35-5.389-1.087-12.052-3.7-15.769-1.061-1.508-3.847-5.016-6.809-5.02q-3.81-.005-6.818-.014l-1.708,0Z" transform="translate(-3261.987 -1732.187)" fill="#ff6d60"/>
          </g>
          <g id="Grupo_92893" data-name="Grupo 92893" transform="translate(7.141)">
            <ellipse id="Elipse_4458" data-name="Elipse 4458" cx="8.552" cy="8.854" rx="8.552" ry="8.854" transform="translate(1.133 1.133)" fill="#fff"/>
            <path id="Trazado_143049" data-name="Trazado 143049" d="M3295.556,1698.4a9.992,9.992,0,1,1,9.685-9.987A9.851,9.851,0,0,1,3295.556,1698.4Zm0-17.707a7.726,7.726,0,1,0,7.418,7.72A7.582,7.582,0,0,0,3295.556,1680.694Z" transform="translate(-3285.871 -1678.427)" fill="#ff6d60"/>
          </g>
        </g>
      </g>
      <g id="Grupo_92903" data-name="Grupo 92903" transform="translate(4.258)">
        <g id="Grupo_92896" data-name="Grupo 92896">
          <path id="Trazado_143050" data-name="Trazado 143050" d="M3257.549,1547.846H3203.7a10.06,10.06,0,0,0-10.06,10.06h0a10.06,10.06,0,0,0,10.06,10.06h15.4a13.066,13.066,0,0,1,9.1,3.687l2.43,2.356,2.43-2.356a13.068,13.068,0,0,1,9.1-3.687h15.4a10.059,10.059,0,0,0,10.059-10.06h0A10.059,10.059,0,0,0,3257.549,1547.846Z" transform="translate(-3192.507 -1546.713)" fill="#fff"/>
          <path id="Trazado_143051" data-name="Trazado 143051" d="M3227.967,1572.484a1.129,1.129,0,0,1-.789-.32l-2.43-2.356a11.874,11.874,0,0,0-8.309-3.367h-15.4a11.193,11.193,0,0,1,0-22.386h53.849a11.193,11.193,0,1,1,0,22.386h-15.4a11.874,11.874,0,0,0-8.309,3.367l-2.43,2.356A1.129,1.129,0,0,1,3227.967,1572.484Zm-26.924-26.163a8.926,8.926,0,0,0,0,17.853h15.4a14.129,14.129,0,0,1,9.886,4.007l1.641,1.591,1.641-1.591a14.129,14.129,0,0,1,9.887-4.007h15.4a8.926,8.926,0,0,0,0-17.853Z" transform="translate(-3189.85 -1544.055)" fill="#ff6d60"/>
        </g>
        <g id="Grupo_92898" data-name="Grupo 92898" transform="translate(33.467 6.555)">
          <g id="Grupo_92897" data-name="Grupo 92897">
            <circle id="Elipse_4459" data-name="Elipse 4459" cx="3.945" cy="3.945" r="3.945" transform="matrix(0.23, -0.973, 0.973, 0.23, 0.333, 8.012)" fill="#ffc967"/>
            <path id="Trazado_143052" data-name="Trazado 143052" d="M3306.864,1576.137a5.079,5.079,0,1,1,5.079-5.079A5.084,5.084,0,0,1,3306.864,1576.137Zm0-7.89a2.812,2.812,0,1,0,2.812,2.812A2.815,2.815,0,0,0,3306.864,1568.246Z" transform="translate(-3301.785 -1565.979)" fill="#ff6d60"/>
          </g>
        </g>
        <g id="Grupo_92900" data-name="Grupo 92900" transform="translate(19.165 6.055)">
          <g id="Grupo_92899" data-name="Grupo 92899" transform="translate(0 0)">
            <circle id="Elipse_4460" data-name="Elipse 4460" cx="3.945" cy="3.945" r="3.945" transform="translate(0 5.579) rotate(-45)" fill="#ffc967"/>
            <path id="Trazado_143053" data-name="Trazado 143053" d="M3260.7,1576.137a5.079,5.079,0,1,1,5.079-5.079A5.084,5.084,0,0,1,3260.7,1576.137Zm0-7.89a2.812,2.812,0,1,0,2.812,2.812A2.815,2.815,0,0,0,3260.7,1568.246Z" transform="translate(-3255.122 -1565.479)" fill="#ff6d60"/>
          </g>
        </g>
        <g id="Grupo_92902" data-name="Grupo 92902" transform="translate(46.769 6.055)">
          <g id="Grupo_92901" data-name="Grupo 92901" transform="translate(0 0)">
            <circle id="Elipse_4461" data-name="Elipse 4461" cx="3.945" cy="3.945" r="3.945" transform="translate(0 5.579) rotate(-45)" fill="#ffc967"/>
            <path id="Trazado_143054" data-name="Trazado 143054" d="M3353.026,1576.137a5.079,5.079,0,1,1,5.079-5.079A5.084,5.084,0,0,1,3353.026,1576.137Zm0-7.89a2.812,2.812,0,1,0,2.812,2.812A2.815,2.815,0,0,0,3353.026,1568.246Z" transform="translate(-3347.447 -1565.479)" fill="#ff6d60"/>
          </g>
        </g>
      </g>
    </g>
  </g>
</svg>
