<svg xmlns="http://www.w3.org/2000/svg" width="298" height="282" viewBox="0 0 298 282">
  <g id="Grupo_93438" data-name="Grupo 93438" transform="translate(6879 8997)">
    <rect id="Rectángulo_35175" data-name="Rectángulo 35175" width="298" height="282" transform="translate(-6879 -8997)" fill="#f90"/>
    <g id="Grupo_93437" data-name="Grupo 93437" transform="translate(-6932.581 -8998.473)">
      <path id="Trazado_143884" data-name="Trazado 143884" d="M197.861,78.468a19,19,0,1,1-19-18.995A19,19,0,0,1,197.861,78.468Z" transform="translate(23.615 0)" fill="#fff"/>
      <g id="Grupo_93435" data-name="Grupo 93435" transform="translate(119.828 101.428)">
        <path id="Trazado_143885" data-name="Trazado 143885" d="M141.3,94.512a2.544,2.544,0,0,0-1.867-1.7,10.793,10.793,0,0,0-3.349-.45c-2.855,0-4.117.519-4.117,1.419,0,3.739,22.729,1.419,22.729,10.488,0,5.782-7.632,8.585-18.5,8.585-10.431,0-17.24-3.842-17.514-8.343h12.407a3.249,3.249,0,0,0,2.141,1.974,10.464,10.464,0,0,0,3.678.623c3.239,0,5.38-.657,5.38-1.835,0-3.774-22.729-1.176-22.729-10.7,0-5.295,7.247-7.961,17.129-7.961,10.979,0,15.976,3.53,16.91,7.893Z" transform="translate(-118.682 -86.619)" fill="#fff"/>
        <path id="Trazado_143886" data-name="Trazado 143886" d="M145.856,111.967V87.044h32.226V92.86h-19.27v3.566h16.305v5.816H158.812v3.912h20.039v5.814Z" transform="translate(-103.858 -86.387)" fill="#fff"/>
        <path id="Trazado_143887" data-name="Trazado 143887" d="M197.5,100.649,197,94.971V87.044h12.406v24.923H197.277L183.167,98.4l.495,5.677v7.891H171.253V87.044h12.134Z" transform="translate(-90.003 -86.387)" fill="#fff"/>
        <path id="Trazado_143888" data-name="Trazado 143888" d="M198.783,111.967l14.165-24.923h13.176l14.165,24.923h-12.9l-1.538-3.289h-12.9l-1.484,3.289Zm20.644-17.41-4.009,8.93h8.18Z" transform="translate(-74.985 -86.387)" fill="#fff"/>
      </g>
      <g id="Grupo_93436" data-name="Grupo 93436" transform="translate(116.581 132.437)">
        <path id="Trazado_143889" data-name="Trazado 143889" d="M255.461,106.683H176.247l46.109,81.887,10.167-8.854-36.886-61.6,60.193-.149Z" transform="translate(-84.032 -106.683)" fill="#fff"/>
        <path id="Trazado_143890" data-name="Trazado 143890" d="M116.949,106.683h79.214L150.054,188.57l-10.167-8.854,36.886-61.6-60.192-.149Z" transform="translate(-116.581 -106.683)" fill="#fff"/>
        <path id="Trazado_143891" data-name="Trazado 143891" d="M143.949,190.25l43.237-74.6,44.46,73.868-11.741,5.3-31.739-56.736-33.779,57.412Z" transform="translate(-101.651 -101.791)" fill="#fff"/>
      </g>
    </g>
  </g>
</svg>
