<svg xmlns="http://www.w3.org/2000/svg" width="1241.74" height="1255.188" viewBox="0 0 1241.74 1255.188">
  <path id="Unión_4" data-name="Unión 4" d="M8648,12954.191l.287-1020.026-.044-.073-.243-76.114s21.147-33.847,39.194-42.28c37.605-17.581,81.231-1.371,122.413,3.862a228,228,0,0,0,156.178-37.816c6.519-4.473,12.829-9.308,19.149-14.122a160.166,160.166,0,0,1,50.7-30.3c38.616-14.334,81.134-15.053,121.954-9.546s80.549,16.994,120.608,26.578c32.349,7.74,66.92,17.7,100.321,18.439,21.776.484,38.708-1.5,58.348,7.419,12.357,2.309,24.721,4.809,36.873,6.353a228.034,228.034,0,0,0,156.179-37.822c20.349-13.967,38.694-31.438,61.5-40.876,24.679-10.212,52.979-9.99,78.514-2.159s48.447,22.895,67.973,41.123c22.758,21.256,50.834,78.313,50.834,78.313l-.481,44.26h.046L9888,12954.191Z" transform="translate(-8647.501 -11699.503)" fill="#fff0e1" stroke="rgba(0,0,0,0)" stroke-miterlimit="10" stroke-width="1"/>
</svg>
