<svg xmlns="http://www.w3.org/2000/svg" width="400" height="400" viewBox="0 0 400 400">
  <g id="Grupo_95365" data-name="Grupo 95365" transform="translate(-600 -2669.811)">
    <g id="Grupo_92160" data-name="Grupo 92160">
      <g id="Grupo_92155" data-name="Grupo 92155" transform="translate(-53.595 2436.216)">
        <path id="Trazado_141971" data-name="Trazado 141971" d="M848.7,428.7V233.6c-106.6,2.561-192.544,88.5-195.1,195.1Z" fill="#ffc967"/>
        <path id="Trazado_141972" data-name="Trazado 141972" d="M967.5,547.5V742.6c106.6-2.561,192.544-88.5,195.1-195.1Z" transform="translate(-109.01 -109.01)" fill="#373660"/>
        <path id="Trazado_141973" data-name="Trazado 141973" d="M967.5,428.7h195.1c-2.561-106.6-88.5-192.544-195.1-195.1Z" transform="translate(-109.01)" fill="#ffa648"/>
        <path id="Trazado_141974" data-name="Trazado 141974" d="M848.7,547.5h-195.1c2.561,106.6,88.5,192.544,195.1,195.1Z" transform="translate(0 -109.01)" fill="#ff6d60"/>
      </g>
      <path id="Trazado_147294" data-name="Trazado 147294" d="M11.871-7.242H5.4v4.078h7.641V0H1.289V-17.062H13.066v3.176H5.4v3.6h6.469Zm9.188,1.207H18.832V0H14.719V-17.062h6.715a7.5,7.5,0,0,1,4.746,1.346,4.561,4.561,0,0,1,1.711,3.8,5.54,5.54,0,0,1-.721,2.95,5.115,5.115,0,0,1-2.256,1.9L28.477-.176V0H24.07ZM18.832-9.2h2.6A2.335,2.335,0,0,0,23.2-9.816a2.384,2.384,0,0,0,.592-1.721,2.412,2.412,0,0,0-.6-1.733,2.313,2.313,0,0,0-1.758-.629h-2.6Zm15.656,3.41V0H30.375V-17.062h6.809a7.93,7.93,0,0,1,3.463.721,5.431,5.431,0,0,1,2.332,2.051,5.6,5.6,0,0,1,.826,3.018,4.937,4.937,0,0,1-1.787,3.99,7.415,7.415,0,0,1-4.9,1.494Zm0-3.176h2.7a2.542,2.542,0,0,0,1.822-.6,2.221,2.221,0,0,0,.627-1.687,2.745,2.745,0,0,0-.645-1.91,2.282,2.282,0,0,0-1.758-.727H34.488Z" transform="translate(685 2799)" fill="#12263f"/>
      <path id="Trazado_147295" data-name="Trazado 147295" d="M15.094-5.777a6.231,6.231,0,0,1-.961,3.146A5.8,5.8,0,0,1,11.666-.516a8.4,8.4,0,0,1-3.627.75,6.7,6.7,0,0,1-5.3-2.191A9.048,9.048,0,0,1,.809-8.145v-.844a10.328,10.328,0,0,1,.873-4.389A6.615,6.615,0,0,1,4.2-16.283a7.013,7.013,0,0,1,3.8-1.025,7.354,7.354,0,0,1,4.992,1.635,6.459,6.459,0,0,1,2.145,4.506h-4.1a3.056,3.056,0,0,0-.785-2.238,3.229,3.229,0,0,0-2.25-.68,2.457,2.457,0,0,0-2.25,1.148,7.381,7.381,0,0,0-.75,3.668v1.207a8.167,8.167,0,0,0,.686,3.9A2.509,2.509,0,0,0,8.039-2.988a3.159,3.159,0,0,0,2.168-.668A2.835,2.835,0,0,0,11-5.777Zm8.285-.258H21.152V0H17.039V-17.062h6.715A7.5,7.5,0,0,1,28.5-15.716a4.561,4.561,0,0,1,1.711,3.8,5.54,5.54,0,0,1-.721,2.95,5.115,5.115,0,0,1-2.256,1.9L30.8-.176V0H26.391ZM21.152-9.2h2.6a2.335,2.335,0,0,0,1.764-.617,2.384,2.384,0,0,0,.592-1.721,2.412,2.412,0,0,0-.6-1.733,2.313,2.313,0,0,0-1.758-.629h-2.6ZM38.1-17.062,41.906-5.191l3.8-11.871h5.414V0H46.992V-3.984l.4-8.156L43.266,0H40.547L36.41-12.152l.4,8.168V0H32.7V-17.062Z" transform="translate(857 2799)" fill="#12263f"/>
      <path id="Trazado_147296" data-name="Trazado 147296" d="M1.289,0V-17.062H7.418a8.679,8.679,0,0,1,5.01,1.207,4.016,4.016,0,0,1,1.717,3.5,4.06,4.06,0,0,1-.609,2.262,3.551,3.551,0,0,1-1.793,1.383,3.6,3.6,0,0,1,2.051,1.313,3.816,3.816,0,0,1,.715,2.344A4.518,4.518,0,0,1,12.92-1.283,7.556,7.556,0,0,1,8.215,0ZM5.4-7.254v4.09H8.1a2.564,2.564,0,0,0,1.711-.51,1.784,1.784,0,0,0,.6-1.436A1.891,1.891,0,0,0,8.285-7.254Zm0-2.7H7.547a3.047,3.047,0,0,0,1.922-.494,1.752,1.752,0,0,0,.574-1.422,1.839,1.839,0,0,0-.621-1.557,3.324,3.324,0,0,0-2-.476H5.4ZM20.754,0H16.793V-12.68h3.961Zm-4.2-15.949a1.763,1.763,0,0,1,.609-1.383,2.3,2.3,0,0,1,1.582-.539,2.3,2.3,0,0,1,1.582.539,1.763,1.763,0,0,1,.609,1.383,1.763,1.763,0,0,1-.609,1.383,2.3,2.3,0,0,1-1.582.539,2.3,2.3,0,0,1-1.582-.539A1.763,1.763,0,0,1,16.559-15.949ZM27.352,0H23.391V-18h3.961Zm6.6,0H29.988V-18h3.961Zm6.6,0H36.586V-12.68h3.961Zm-4.2-15.949a1.763,1.763,0,0,1,.609-1.383,2.3,2.3,0,0,1,1.582-.539,2.3,2.3,0,0,1,1.582.539,1.763,1.763,0,0,1,.609,1.383,1.763,1.763,0,0,1-.609,1.383,2.3,2.3,0,0,1-1.582.539,2.3,2.3,0,0,1-1.582-.539A1.763,1.763,0,0,1,36.352-15.949Zm10.254,3.27.129,1.488a4.3,4.3,0,0,1,3.621-1.723,3.618,3.618,0,0,1,2.959,1.184,5.635,5.635,0,0,1,1.014,3.563V0H50.367V-8a2.14,2.14,0,0,0-.387-1.412,1.789,1.789,0,0,0-1.406-.451,1.883,1.883,0,0,0-1.723.914V0H42.9V-12.68Zm9.445,6.246a8.561,8.561,0,0,1,.633-3.4A5.094,5.094,0,0,1,58.5-12.111a4.788,4.788,0,0,1,2.754-.8,3.807,3.807,0,0,1,3.094,1.336l.141-1.1h3.586V-.48a5.346,5.346,0,0,1-.779,2.912,5,5,0,0,1-2.256,1.9,8.292,8.292,0,0,1-3.422.662,7.153,7.153,0,0,1-2.7-.527,4.876,4.876,0,0,1-2-1.371L58.57.773a3.621,3.621,0,0,0,2.906,1.3q2.625,0,2.625-2.7v-.4A3.708,3.708,0,0,1,61.23.234a4.583,4.583,0,0,1-3.75-1.775,7.356,7.356,0,0,1-1.43-4.752Zm3.961.246A4.511,4.511,0,0,0,60.6-3.721a1.849,1.849,0,0,0,1.641.908A2.1,2.1,0,0,0,64.1-3.668V-9a2.045,2.045,0,0,0-1.84-.867,1.861,1.861,0,0,0-1.652.943A5.144,5.144,0,0,0,60.012-6.187Z" transform="translate(670 2963)" fill="#12263f"/>
      <path id="Trazado_147297" data-name="Trazado 147297" d="M10.09-4.535a1.69,1.69,0,0,0-.639-1.406A7.938,7.938,0,0,0,7.207-6.984,21.53,21.53,0,0,1,4.582-8.027Q1.266-9.656,1.266-12.5a4.014,4.014,0,0,1,.826-2.5A5.344,5.344,0,0,1,4.43-16.693a9.1,9.1,0,0,1,3.4-.6,7.958,7.958,0,0,1,3.3.656,5.223,5.223,0,0,1,2.268,1.869A4.881,4.881,0,0,1,14.2-12H10.1a2.063,2.063,0,0,0-.639-1.617,2.489,2.489,0,0,0-1.729-.574,2.807,2.807,0,0,0-1.74.486,1.492,1.492,0,0,0-.639,1.236,1.5,1.5,0,0,0,.7,1.189,8.867,8.867,0,0,0,2.473,1.1,15.147,15.147,0,0,1,2.906,1.225A4.884,4.884,0,0,1,14.2-4.559a4.166,4.166,0,0,1-1.687,3.516A7.506,7.506,0,0,1,7.887.234,9.184,9.184,0,0,1,4.131-.51,5.663,5.663,0,0,1,1.6-2.549,5.313,5.313,0,0,1,.75-5.531H4.875A2.617,2.617,0,0,0,5.584-3.51a3.351,3.351,0,0,0,2.3.65A2.647,2.647,0,0,0,9.5-3.3,1.45,1.45,0,0,0,10.09-4.535ZM20.3,0H16.336V-12.68H20.3ZM16.1-15.949a1.763,1.763,0,0,1,.609-1.383,2.3,2.3,0,0,1,1.582-.539,2.3,2.3,0,0,1,1.582.539,1.763,1.763,0,0,1,.609,1.383,1.763,1.763,0,0,1-.609,1.383,2.3,2.3,0,0,1-1.582.539,2.3,2.3,0,0,1-1.582-.539A1.763,1.763,0,0,1,16.1-15.949ZM29.367-3.562a.912.912,0,0,0-.527-.809,8.021,8.021,0,0,0-2-.633A9.138,9.138,0,0,1,24.4-5.865,4.083,4.083,0,0,1,22.934-7.16a3.092,3.092,0,0,1-.5-1.746,3.5,3.5,0,0,1,1.441-2.877,5.938,5.938,0,0,1,3.773-1.131,6.579,6.579,0,0,1,4.031,1.137A3.555,3.555,0,0,1,33.2-8.789H29.238q0-1.523-1.605-1.523a1.591,1.591,0,0,0-1.043.346,1.07,1.07,0,0,0-.422.861.982.982,0,0,0,.516.855,4.872,4.872,0,0,0,1.646.539,14.228,14.228,0,0,1,1.986.5q2.859.984,2.859,3.527A3.321,3.321,0,0,1,31.635-.855a6.758,6.758,0,0,1-3.99,1.09,6.9,6.9,0,0,1-2.906-.586,4.86,4.86,0,0,1-1.992-1.594,3.609,3.609,0,0,1-.715-2.121h3.691a1.526,1.526,0,0,0,.586,1.283,2.41,2.41,0,0,0,1.441.4,1.9,1.9,0,0,0,1.213-.328A1.05,1.05,0,0,0,29.367-3.562Zm10.254-12.27v3.152h2.086v2.742H39.621v5.8a1.481,1.481,0,0,0,.258,1,1.383,1.383,0,0,0,1.02.281,5.793,5.793,0,0,0,.984-.07V-.105a7.288,7.288,0,0,1-2.227.34,4.137,4.137,0,0,1-3.012-.961,3.939,3.939,0,0,1-.973-2.918V-9.937H34.055V-12.68h1.617v-3.152ZM49.395.234a6.518,6.518,0,0,1-4.723-1.74,6.009,6.009,0,0,1-1.8-4.529v-.328A7.787,7.787,0,0,1,43.588-9.8a5.274,5.274,0,0,1,2.1-2.3,6.35,6.35,0,0,1,3.281-.814,5.489,5.489,0,0,1,4.219,1.658,6.516,6.516,0,0,1,1.547,4.623V-5.1H46.887a2.846,2.846,0,0,0,.926,1.676,2.755,2.755,0,0,0,1.852.609,3.549,3.549,0,0,0,2.93-1.312l1.8,2.133A5.045,5.045,0,0,1,52.307-.369,7.069,7.069,0,0,1,49.395.234Zm-.445-10.1q-1.734,0-2.062,2.3h3.984v-.3a1.956,1.956,0,0,0-.48-1.471A1.912,1.912,0,0,0,48.949-9.867ZM60.059-12.68l.129,1.488a4.36,4.36,0,0,1,3.621-1.723A3.21,3.21,0,0,1,67.055-11a4.22,4.22,0,0,1,3.727-1.91q3.855,0,3.961,4.664V0H70.781V-8a2.417,2.417,0,0,0-.328-1.418,1.4,1.4,0,0,0-1.2-.445,1.871,1.871,0,0,0-1.746,1.043l.012.164V0H63.563V-7.98a2.541,2.541,0,0,0-.316-1.441,1.393,1.393,0,0,0-1.207-.445A1.894,1.894,0,0,0,60.3-8.824V0H56.355V-12.68ZM84.141,0a4.459,4.459,0,0,1-.375-1.137A3.672,3.672,0,0,1,80.719.234,4.5,4.5,0,0,1,77.672-.85a3.45,3.45,0,0,1-1.254-2.725,3.546,3.546,0,0,1,1.523-3.117,7.761,7.761,0,0,1,4.43-1.055H83.59v-.671q0-1.755-1.512-1.755a1.236,1.236,0,0,0-1.406,1.39H76.723a3.54,3.54,0,0,1,1.564-2.985,6.575,6.575,0,0,1,3.99-1.147,5.764,5.764,0,0,1,3.832,1.184,4.115,4.115,0,0,1,1.441,3.246v5.613A5.748,5.748,0,0,0,88.09-.2V0ZM81.668-2.578a2.2,2.2,0,0,0,1.225-.316,1.983,1.983,0,0,0,.7-.715V-5.637H82.441q-2.062,0-2.062,1.852a1.131,1.131,0,0,0,.363.873A1.315,1.315,0,0,0,81.668-2.578Zm14.707-.984a.912.912,0,0,0-.527-.809,8.021,8.021,0,0,0-2-.633,9.138,9.138,0,0,1-2.437-.861A4.083,4.083,0,0,1,89.941-7.16a3.092,3.092,0,0,1-.5-1.746,3.5,3.5,0,0,1,1.441-2.877,5.938,5.938,0,0,1,3.773-1.131,6.579,6.579,0,0,1,4.031,1.137,3.555,3.555,0,0,1,1.523,2.988H96.246q0-1.523-1.605-1.523a1.591,1.591,0,0,0-1.043.346,1.07,1.07,0,0,0-.422.861.982.982,0,0,0,.516.855,4.872,4.872,0,0,0,1.646.539,14.228,14.228,0,0,1,1.986.5q2.859.984,2.859,3.527A3.321,3.321,0,0,1,98.643-.855a6.758,6.758,0,0,1-3.99,1.09,6.9,6.9,0,0,1-2.906-.586,4.86,4.86,0,0,1-1.992-1.594,3.609,3.609,0,0,1-.715-2.121H92.73a1.526,1.526,0,0,0,.586,1.283,2.41,2.41,0,0,0,1.441.4,1.9,1.9,0,0,0,1.213-.328A1.05,1.05,0,0,0,96.375-3.562ZM.609,21.566a7.746,7.746,0,0,1,1.3-4.746,4.282,4.282,0,0,1,3.633-1.734A3.641,3.641,0,0,1,8.4,16.422V10h3.961V28H8.813l-.2-1.359A3.739,3.739,0,0,1,5.52,28.234,4.274,4.274,0,0,1,1.934,26.5,7.991,7.991,0,0,1,.609,21.566Zm3.949.246q0,3.375,1.969,3.375a1.944,1.944,0,0,0,1.875-1.1V19.258a1.892,1.892,0,0,0-1.852-1.125q-1.828,0-1.98,2.953Zm16.184,6.422a6.518,6.518,0,0,1-4.723-1.74,6.009,6.009,0,0,1-1.8-4.529v-.328a7.787,7.787,0,0,1,.721-3.434,5.274,5.274,0,0,1,2.1-2.3,6.35,6.35,0,0,1,3.281-.814,5.489,5.489,0,0,1,4.219,1.658,6.516,6.516,0,0,1,1.547,4.623V22.9H18.234a2.846,2.846,0,0,0,.926,1.676,2.755,2.755,0,0,0,1.852.609,3.549,3.549,0,0,0,2.93-1.312l1.8,2.133a5.045,5.045,0,0,1-2.092,1.623A7.069,7.069,0,0,1,20.742,28.234Zm-.445-10.1q-1.734,0-2.062,2.3h3.984v-.3a1.956,1.956,0,0,0-.48-1.471A1.912,1.912,0,0,0,20.3,18.133ZM33.832,28V10.938h6.129a8.679,8.679,0,0,1,5.01,1.207,4.016,4.016,0,0,1,1.717,3.5,4.06,4.06,0,0,1-.609,2.262,3.551,3.551,0,0,1-1.793,1.383,3.6,3.6,0,0,1,2.051,1.313,3.816,3.816,0,0,1,.715,2.344,4.518,4.518,0,0,1-1.588,3.768A7.556,7.556,0,0,1,40.758,28Zm4.113-7.254v4.09h2.7a2.564,2.564,0,0,0,1.711-.51,1.784,1.784,0,0,0,.6-1.436,1.891,1.891,0,0,0-2.121-2.145Zm0-2.7H40.09a3.047,3.047,0,0,0,1.922-.494,1.752,1.752,0,0,0,.574-1.422,1.839,1.839,0,0,0-.621-1.557,3.324,3.324,0,0,0-2-.476H37.945ZM53.7,28h-4.1V10.938h4.1Z" transform="translate(833 2948)" fill="#fff"/>
    </g>
  </g>
</svg>
