<svg id="Grupo_92825" data-name="Grupo 92825" xmlns="http://www.w3.org/2000/svg" width="194.45" height="197.151" viewBox="0 0 194.45 197.151">
  <g id="Grupo_92771" data-name="Grupo 92771" transform="translate(15.344 19.02)">
    <g id="Grupo_92760" data-name="Grupo 92760">
      <g id="Grupo_92759" data-name="Grupo 92759">
        <g id="Grupo_92756" data-name="Grupo 92756" transform="translate(0 35.672)">
          <path id="Trazado_142926" data-name="Trazado 142926" d="M2129.41,666.724a1.133,1.133,0,0,1-.978-1.705c.769-1.315,1.581-2.629,2.414-3.9a1.133,1.133,0,0,1,1.9,1.24c-.812,1.244-1.6,2.525-2.354,3.808A1.131,1.131,0,0,1,2129.41,666.724Z" transform="translate(-2128.278 -660.601)" fill="#ff6d60"/>
        </g>
        <g id="Grupo_92757" data-name="Grupo 92757" transform="translate(6.852 4.956)">
          <path id="Trazado_142927" data-name="Trazado 142927" d="M2152.327,584.605a1.134,1.134,0,0,1-.892-1.831c1.589-2.033,3.284-4.025,5.04-5.92a1.133,1.133,0,0,1,1.663,1.541c-1.712,1.848-3.367,3.791-4.916,5.774A1.13,1.13,0,0,1,2152.327,584.605Zm10.432-11.255a1.133,1.133,0,0,1-.764-1.971c1.909-1.74,3.915-3.42,5.961-4.991a1.133,1.133,0,1,1,1.381,1.8c-2,1.533-3.952,3.171-5.814,4.869A1.131,1.131,0,0,1,2162.759,573.35ZM2174.929,564a1.134,1.134,0,0,1-.614-2.088c2.176-1.4,4.435-2.714,6.716-3.917a1.133,1.133,0,0,1,1.058,2c-2.225,1.174-4.428,2.459-6.55,3.82A1.128,1.128,0,0,1,2174.929,564Z" transform="translate(-2151.194 -557.868)" fill="#ff6d60"/>
        </g>
        <g id="Grupo_92758" data-name="Grupo 92758" transform="translate(43.026)">
          <path id="Trazado_142928" data-name="Trazado 142928" d="M2273.318,545.222a1.134,1.134,0,0,1-.443-2.177c1.4-.594,2.842-1.161,4.271-1.683a1.133,1.133,0,1,1,.778,2.129c-1.394.509-2.8,1.061-4.165,1.641A1.129,1.129,0,0,1,2273.318,545.222Z" transform="translate(-2272.183 -541.292)" fill="#ff6d60"/>
        </g>
      </g>
    </g>
    <g id="Grupo_92765" data-name="Grupo 92765" transform="translate(28.699 161.075)">
      <g id="Grupo_92764" data-name="Grupo 92764">
        <g id="Grupo_92761" data-name="Grupo 92761" transform="translate(80.38 7.804)">
          <path id="Trazado_142929" data-name="Trazado 142929" d="M2494.235,1110.035a1.134,1.134,0,0,1-.385-2.2c1.4-.5,2.8-1.049,4.172-1.623a1.134,1.134,0,0,1,.875,2.092c-1.406.587-2.845,1.147-4.279,1.664A1.124,1.124,0,0,1,2494.235,1110.035Z" transform="translate(-2493.101 -1106.125)" fill="#ff6d60"/>
        </g>
        <g id="Grupo_92762" data-name="Grupo 92762" transform="translate(11.664 6.473)">
          <path id="Trazado_142930" data-name="Trazado 142930" d="M2302.392,1112.255c-1.318,0-2.653-.028-3.966-.084a1.133,1.133,0,1,1,.1-2.264c2.885.122,5.828.107,8.707-.046a1.133,1.133,0,1,1,.12,2.263C2305.709,1112.211,2304.041,1112.255,2302.392,1112.255Zm-12.695-.882a1.126,1.126,0,0,1-.159-.011c-2.939-.412-5.889-.973-8.767-1.668a1.133,1.133,0,0,1,.532-2.2c2.807.677,5.684,1.225,8.55,1.626a1.133,1.133,0,0,1-.156,2.256Zm26.358-.141a1.134,1.134,0,0,1-.168-2.254c2.861-.432,5.73-1.01,8.531-1.719a1.133,1.133,0,1,1,.556,2.2c-2.871.726-5.814,1.319-8.748,1.763A1.157,1.157,0,0,1,2316.055,1111.233Zm-43.474-3.992a1.127,1.127,0,0,1-.372-.063c-2.8-.973-5.583-2.1-8.275-3.342a1.134,1.134,0,0,1,.951-2.058c2.626,1.213,5.342,2.31,8.069,3.259a1.134,1.134,0,0,1-.372,2.2Z" transform="translate(-2263.275 -1101.673)" fill="#ff6d60"/>
        </g>
        <g id="Grupo_92763" data-name="Grupo 92763">
          <path id="Trazado_142931" data-name="Trazado 142931" d="M2229.248,1084.679a1.13,1.13,0,0,1-.572-.156c-1.313-.77-2.626-1.584-3.9-2.42a1.133,1.133,0,0,1,1.243-1.9c1.243.815,2.522,1.609,3.8,2.36a1.133,1.133,0,0,1-.574,2.111Z" transform="translate(-2224.263 -1080.022)" fill="#ff6d60"/>
        </g>
      </g>
    </g>
    <g id="Grupo_92770" data-name="Grupo 92770" transform="translate(139.71 18.445)">
      <g id="Grupo_92769" data-name="Grupo 92769">
        <g id="Grupo_92766" data-name="Grupo 92766">
          <path id="Trazado_142932" data-name="Trazado 142932" d="M2599.944,608.4a1.13,1.13,0,0,1-.808-.338c-1.042-1.059-2.125-2.105-3.219-3.112a1.133,1.133,0,0,1,1.534-1.668c1.122,1.032,2.232,2.1,3.3,3.19a1.133,1.133,0,0,1-.808,1.928Z" transform="translate(-2595.552 -602.985)" fill="#ff6d60"/>
        </g>
        <g id="Grupo_92767" data-name="Grupo 92767" transform="translate(9.511 10.196)">
          <path id="Trazado_142933" data-name="Trazado 142933" d="M2647.228,681.994a1.133,1.133,0,0,1-1.119-.961,89.446,89.446,0,0,0-1.892-9.1,1.133,1.133,0,0,1,2.192-.577,91.8,91.8,0,0,1,1.941,9.335,1.134,1.134,0,0,1-1.122,1.306Zm-4.784-18.188a1.133,1.133,0,0,1-1.06-.732,89.385,89.385,0,0,0-3.743-8.513,1.133,1.133,0,0,1,2.025-1.019,91.728,91.728,0,0,1,3.838,8.729,1.134,1.134,0,0,1-1.06,1.535Zm-8.457-16.8a1.133,1.133,0,0,1-.955-.521,90.112,90.112,0,0,0-5.422-7.557,1.134,1.134,0,0,1,1.771-1.415,92.469,92.469,0,0,1,5.558,7.747,1.133,1.133,0,0,1-.953,1.745Z" transform="translate(-2627.362 -637.086)" fill="#ff6d60"/>
        </g>
        <g id="Grupo_92768" data-name="Grupo 92768" transform="translate(29.194 62.216)">
          <path id="Trazado_142934" data-name="Trazado 142934" d="M2694.438,817.873a1.134,1.134,0,0,1-1.134-1.134c0-1.488-.037-2.994-.11-4.477a1.133,1.133,0,1,1,2.264-.112c.075,1.52.113,3.064.113,4.589A1.133,1.133,0,0,1,2694.438,817.873Z" transform="translate(-2693.193 -811.073)" fill="#ff6d60"/>
        </g>
      </g>
    </g>
  </g>
  <g id="Grupo_92800" data-name="Grupo 92800" transform="translate(0 68.975)">
    <g id="Grupo_92799" data-name="Grupo 92799">
      <g id="Grupo_92795" data-name="Grupo 92795">
        <g id="Grupo_92776" data-name="Grupo 92776">
          <g id="Grupo_92772" data-name="Grupo 92772">
            <path id="Trazado_142935" data-name="Trazado 142935" d="M2130.862,719.511v-4.863a2.28,2.28,0,0,0-2-2.485h-46.116a2.28,2.28,0,0,0-2,2.485l.075,4.863v47.119l-.075,33.891v7.4a2.28,2.28,0,0,0,2,2.485h46.116a2.28,2.28,0,0,0,2-2.485V719.511Z" transform="translate(-2079.616 -711.03)" fill="#fff"/>
            <path id="Trazado_142936" data-name="Trazado 142936" d="M2126.207,808.879h-46.115a3.406,3.406,0,0,1-3.132-3.618v-7.4l.075-33.894V716.854l-.075-4.845a3.411,3.411,0,0,1,3.132-3.635h46.115a3.405,3.405,0,0,1,3.132,3.618v93.27A3.406,3.406,0,0,1,2126.207,808.879Zm-46.115-98.24c-.41,0-.866.555-.866,1.351l.075,4.845v47.136l-.075,34.706v6.582c0,.8.456,1.352.866,1.352h46.115c.409,0,.865-.555.865-1.352v-93.27c0-.8-.456-1.351-.865-1.351Z" transform="translate(-2076.959 -708.373)" fill="#ff6d60"/>
          </g>
          <g id="Grupo_92773" data-name="Grupo 92773" transform="translate(0.074 11.418)">
            <line id="Línea_157" data-name="Línea 157" x1="50.038" transform="translate(1.134 1.133)" fill="#fff"/>
            <path id="Trazado_142937" data-name="Trazado 142937" d="M2128.379,748.827h-50.038a1.133,1.133,0,0,1,0-2.267h50.038a1.133,1.133,0,0,1,0,2.267Z" transform="translate(-2077.208 -746.56)" fill="#ff6d60"/>
          </g>
          <g id="Grupo_92774" data-name="Grupo 92774" transform="translate(0.003 87.137)">
            <line id="Línea_158" data-name="Línea 158" x2="50.11" transform="translate(1.133 1.133)" fill="#fff"/>
            <path id="Trazado_142938" data-name="Trazado 142938" d="M2128.211,1002.078H2078.1a1.133,1.133,0,0,1,0-2.267h50.11a1.133,1.133,0,0,1,0,2.267Z" transform="translate(-2076.968 -999.811)" fill="#ff6d60"/>
          </g>
          <g id="Grupo_92775" data-name="Grupo 92775" transform="translate(18 5.596)">
            <line id="Línea_159" data-name="Línea 159" x2="14.09" transform="translate(1.133 1.133)" fill="#fff"/>
            <path id="Trazado_142939" data-name="Trazado 142939" d="M2152.384,729.356h-14.09a1.133,1.133,0,1,1,0-2.267h14.09a1.133,1.133,0,1,1,0,2.267Z" transform="translate(-2137.161 -727.089)" fill="#ff6d60"/>
          </g>
        </g>
        <g id="Grupo_92779" data-name="Grupo 92779" transform="translate(37.93 44.465)">
          <g id="Grupo_92777" data-name="Grupo 92777">
            <rect id="Rectángulo_35311" data-name="Rectángulo 35311" width="6.744" height="30.397" rx="2.649" transform="translate(1.133 1.133)" fill="#fff"/>
            <path id="Trazado_142940" data-name="Trazado 142940" d="M2210.9,889.755h-5.159a1.928,1.928,0,0,1-1.926-1.926V859.016a1.928,1.928,0,0,1,1.926-1.925h5.159a1.928,1.928,0,0,1,1.926,1.925V887.83A1.928,1.928,0,0,1,2210.9,889.755Zm-4.818-2.267h4.478V859.358h-4.478Z" transform="translate(-2203.819 -857.091)" fill="#1a1861"/>
          </g>
          <g id="Grupo_92778" data-name="Grupo 92778">
            <rect id="Rectángulo_35312" data-name="Rectángulo 35312" width="6.744" height="30.397" rx="2.649" transform="translate(1.133 1.133)" fill="#ffc967"/>
            <path id="Trazado_142941" data-name="Trazado 142941" d="M2210.9,889.755h-5.159a1.928,1.928,0,0,1-1.926-1.926V859.016a1.928,1.928,0,0,1,1.926-1.925h5.159a1.928,1.928,0,0,1,1.926,1.925V887.83A1.928,1.928,0,0,1,2210.9,889.755Zm-4.818-2.267h4.478V859.358h-4.478Z" transform="translate(-2203.819 -857.091)" fill="#ff6d60"/>
          </g>
        </g>
        <g id="Grupo_92782" data-name="Grupo 92782" transform="translate(27.336 54.516)">
          <g id="Grupo_92780" data-name="Grupo 92780">
            <rect id="Rectángulo_35313" data-name="Rectángulo 35313" width="6.379" height="20.347" rx="2.649" transform="translate(1.133 1.133)" fill="#fff"/>
            <path id="Trazado_142942" data-name="Trazado 142942" d="M2175.106,913.32h-4.795a1.928,1.928,0,0,1-1.926-1.926V892.632a1.928,1.928,0,0,1,1.926-1.925h4.795a1.927,1.927,0,0,1,1.925,1.925v18.762A1.927,1.927,0,0,1,2175.106,913.32Zm-4.454-2.267h4.112v-18.08h-4.112Z" transform="translate(-2168.386 -890.707)" fill="#1a1861"/>
          </g>
          <g id="Grupo_92781" data-name="Grupo 92781">
            <rect id="Rectángulo_35314" data-name="Rectángulo 35314" width="6.379" height="20.347" rx="2.649" transform="translate(1.133 1.133)" fill="#ffc967"/>
            <path id="Trazado_142943" data-name="Trazado 142943" d="M2175.106,913.32h-4.795a1.928,1.928,0,0,1-1.926-1.926V892.632a1.928,1.928,0,0,1,1.926-1.925h4.795a1.927,1.927,0,0,1,1.925,1.925v18.762A1.927,1.927,0,0,1,2175.106,913.32Zm-4.454-2.267h4.112v-18.08h-4.112Z" transform="translate(-2168.386 -890.707)" fill="#ff6d60"/>
          </g>
        </g>
        <g id="Grupo_92785" data-name="Grupo 92785" transform="translate(5.342 58.283)">
          <g id="Grupo_92783" data-name="Grupo 92783">
            <rect id="Rectángulo_35315" data-name="Rectángulo 35315" width="6.374" height="16.579" rx="2.649" transform="translate(1.133 1.133)" fill="#fff"/>
            <path id="Trazado_142944" data-name="Trazado 142944" d="M2101.541,922.152h-4.789a1.928,1.928,0,0,1-1.926-1.926v-15a1.928,1.928,0,0,1,1.926-1.925h4.789a1.928,1.928,0,0,1,1.926,1.925v15A1.928,1.928,0,0,1,2101.541,922.152Zm-4.448-2.267h4.106V905.573h-4.106Z" transform="translate(-2094.826 -903.306)" fill="#1a1861"/>
          </g>
          <g id="Grupo_92784" data-name="Grupo 92784">
            <rect id="Rectángulo_35316" data-name="Rectángulo 35316" width="6.374" height="16.579" rx="2.649" transform="translate(1.133 1.133)" fill="#ffc967"/>
            <path id="Trazado_142945" data-name="Trazado 142945" d="M2101.541,922.152h-4.789a1.928,1.928,0,0,1-1.926-1.926v-15a1.928,1.928,0,0,1,1.926-1.925h4.789a1.928,1.928,0,0,1,1.926,1.925v15A1.928,1.928,0,0,1,2101.541,922.152Zm-4.448-2.267h4.106V905.573h-4.106Z" transform="translate(-2094.826 -903.306)" fill="#ff6d60"/>
          </g>
        </g>
        <g id="Grupo_92788" data-name="Grupo 92788" transform="translate(15.852 50.241)">
          <g id="Grupo_92786" data-name="Grupo 92786">
            <rect id="Rectángulo_35317" data-name="Rectángulo 35317" width="6.906" height="24.621" rx="2.649" transform="translate(1.133 1.133)" fill="#fff"/>
            <path id="Trazado_142946" data-name="Trazado 142946" d="M2137.225,903.3H2131.9a1.928,1.928,0,0,1-1.925-1.926V878.335a1.928,1.928,0,0,1,1.925-1.925h5.321a1.927,1.927,0,0,1,1.926,1.925v23.037A1.927,1.927,0,0,1,2137.225,903.3Zm-4.979-2.267h4.639V878.677h-4.639Z" transform="translate(-2129.979 -876.41)" fill="#1a1861"/>
          </g>
          <g id="Grupo_92787" data-name="Grupo 92787">
            <rect id="Rectángulo_35318" data-name="Rectángulo 35318" width="6.906" height="24.621" rx="2.649" transform="translate(1.133 1.133)" fill="#ffc967"/>
            <path id="Trazado_142947" data-name="Trazado 142947" d="M2137.225,903.3H2131.9a1.928,1.928,0,0,1-1.925-1.926V878.335a1.928,1.928,0,0,1,1.925-1.925h5.321a1.927,1.927,0,0,1,1.926,1.925v23.037A1.927,1.927,0,0,1,2137.225,903.3Zm-4.979-2.267h4.639V878.677h-4.639Z" transform="translate(-2129.979 -876.41)" fill="#ff6d60"/>
          </g>
        </g>
        <g id="Grupo_92794" data-name="Grupo 92794" transform="translate(38.062 57.215)">
          <g id="Grupo_92790" data-name="Grupo 92790">
            <g id="Grupo_92789" data-name="Grupo 92789">
              <path id="Trazado_142948" data-name="Trazado 142948" d="M2242.192,956.721c-12.934-2.906-27.806-12.88-27.806-12.88a5.137,5.137,0,1,1,4.4-9.286l13.808,6.54h0l-23.351-28.162a5.137,5.137,0,1,1,7.908-6.557l14.167,17.086a5.137,5.137,0,1,1,7.908-6.557l.656.791a5.136,5.136,0,1,1,7.908-6.557l.656.791a5.137,5.137,0,1,1,7.908-6.558l9.77,11.783a24.47,24.47,0,0,1-23.927,39.565" transform="translate(-2206.92 -902.383)" fill="#fff"/>
              <path id="Trazado_142949" data-name="Trazado 142949" d="M2244.638,955.74a25.7,25.7,0,0,1-5.34-.562l-.013,0c-12.681-2.849-26.879-12.172-28.121-13a6.27,6.27,0,0,1,5.443-11.3l9.185,4.35-20.085-24.224a6.27,6.27,0,1,1,9.653-8l11.086,13.369a6.269,6.269,0,0,1,8.456-4.674q0-.257.027-.515a6.268,6.268,0,0,1,6.826-5.66,6.31,6.31,0,0,1,1.711.4c0-.17.011-.34.027-.511a6.27,6.27,0,0,1,11.07-3.418l9.77,11.783a25.609,25.609,0,0,1-16.743,41.788A25.779,25.779,0,0,1,2244.638,955.74Zm-4.863-2.778a23.315,23.315,0,0,0,19.75-4.862,23.345,23.345,0,0,0,3.063-32.872l-9.77-11.783a4,4,0,1,0-6.164,5.109h0A1.133,1.133,0,1,1,2244.91,910l-.656-.791a4,4,0,1,0-6.163,5.11h0a1.133,1.133,0,1,1-1.745,1.447l0-.005-.651-.786a4,4,0,0,0-6.167,5.106l0,0a1.133,1.133,0,1,1-1.745,1.447l0-.005-14.163-17.08a4,4,0,1,0-6.163,5.11l23.327,28.133a1.134,1.134,0,0,1-1.365,1.761l-13.777-6.525a4,4,0,1,0-3.425,7.238,1.075,1.075,0,0,1,.146.083C2212.5,940.347,2227.2,950.136,2239.775,952.963Z" transform="translate(-2204.261 -899.733)" fill="#ff6d60"/>
            </g>
          </g>
          <g id="Grupo_92791" data-name="Grupo 92791" transform="translate(31.168 13.388)">
            <line id="Línea_160" data-name="Línea 160" x1="1.64" y1="1.978" transform="translate(1.133 1.134)" fill="#fff"/>
            <path id="Trazado_142950" data-name="Trazado 142950" d="M2311.278,948.756a1.131,1.131,0,0,1-.873-.41l-1.64-1.978a1.133,1.133,0,0,1,1.745-1.447l1.64,1.978a1.133,1.133,0,0,1-.872,1.856Z" transform="translate(-2308.504 -944.512)" fill="#ff6d60"/>
          </g>
          <g id="Grupo_92792" data-name="Grupo 92792" transform="translate(23.261 19.944)">
            <line id="Línea_161" data-name="Línea 161" x2="1.64" y2="1.978" transform="translate(1.133 1.133)" fill="#fff"/>
            <path id="Trazado_142951" data-name="Trazado 142951" d="M2284.834,970.683a1.131,1.131,0,0,1-.873-.41l-1.639-1.978a1.133,1.133,0,1,1,1.745-1.446l1.64,1.978a1.133,1.133,0,0,1-.872,1.857Z" transform="translate(-2282.061 -966.439)" fill="#ff6d60"/>
          </g>
          <g id="Grupo_92793" data-name="Grupo 92793" transform="translate(39.732 7.623)">
            <line id="Línea_162" data-name="Línea 162" x2="0.984" y2="1.187" transform="translate(1.133 1.133)" fill="#fff"/>
            <path id="Trazado_142952" data-name="Trazado 142952" d="M2339.266,928.68a1.13,1.13,0,0,1-.873-.41l-.984-1.187a1.133,1.133,0,0,1,1.745-1.447l.984,1.187a1.133,1.133,0,0,1-.872,1.857Z" transform="translate(-2337.147 -925.227)" fill="#ff6d60"/>
          </g>
        </g>
      </g>
      <g id="Grupo_92798" data-name="Grupo 92798" transform="translate(14.045 19.728)">
        <g id="Grupo_92796" data-name="Grupo 92796">
          <path id="Trazado_142953" data-name="Trazado 142953" d="M2138.724,778.145a11,11,0,1,0,11,11h-11Z" transform="translate(-2126.592 -777.012)" fill="#ffc967"/>
          <path id="Trazado_142954" data-name="Trazado 142954" d="M2136.067,798.619a12.132,12.132,0,0,1,0-24.264,1.133,1.133,0,0,1,1.133,1.134v9.865h9.866a1.133,1.133,0,0,1,1.133,1.133A12.146,12.146,0,0,1,2136.067,798.619Zm-1.133-21.933a9.866,9.866,0,1,0,10.934,10.934h-9.8a1.133,1.133,0,0,1-1.133-1.133Z" transform="translate(-2123.935 -774.355)" fill="#ff6d60"/>
        </g>
        <g id="Grupo_92797" data-name="Grupo 92797" transform="translate(10.999)">
          <path id="Trazado_142955" data-name="Trazado 142955" d="M2164.512,778.145v11h11A11,11,0,0,0,2164.512,778.145Z" transform="translate(-2163.378 -777.012)" fill="#ffc967"/>
          <path id="Trazado_142956" data-name="Trazado 142956" d="M2172.853,787.62h-11a1.134,1.134,0,0,1-1.134-1.133v-11a1.134,1.134,0,0,1,1.134-1.134,12.146,12.146,0,0,1,12.132,12.132A1.133,1.133,0,0,1,2172.853,787.62Zm-9.865-2.267h8.667a9.885,9.885,0,0,0-8.667-8.667Z" transform="translate(-2160.721 -774.355)" fill="#ff6d60"/>
        </g>
      </g>
    </g>
  </g>
  <g id="Grupo_92815" data-name="Grupo 92815" transform="translate(59.872)">
    <g id="Grupo_92801" data-name="Grupo 92801" transform="translate(35.056 0)">
      <rect id="Rectángulo_35319" data-name="Rectángulo 35319" width="19.305" height="7.275" rx="3.638" transform="translate(1.133 1.133)" fill="#ffc967"/>
      <path id="Trazado_142957" data-name="Trazado 142957" d="M2413.066,487.222h-15.653a2.963,2.963,0,0,1-2.959-2.959v-3.623a2.963,2.963,0,0,1,2.959-2.959h15.653a2.963,2.963,0,0,1,2.959,2.959v3.623A2.963,2.963,0,0,1,2413.066,487.222Zm-15.653-7.275a.693.693,0,0,0-.693.693v3.623a.693.693,0,0,0,.693.693h15.653a.693.693,0,0,0,.692-.693v-3.623a.693.693,0,0,0-.692-.693Z" transform="translate(-2394.454 -477.68)" fill="#ff6d60"/>
    </g>
    <g id="Grupo_92804" data-name="Grupo 92804" transform="translate(13.079 9.316)">
      <g id="Grupo_92802" data-name="Grupo 92802" transform="translate(3.861 4.891)">
        <rect id="Rectángulo_35320" data-name="Rectángulo 35320" width="6.291" height="7.257" transform="translate(1.134 4.185) rotate(-29.02)" fill="#fff"/>
        <path id="Trazado_142958" data-name="Trazado 142958" d="M2338.517,536.86a1.133,1.133,0,0,1-.991-.584l-3.52-6.345a1.133,1.133,0,0,1,.441-1.541l5.5-3.052a1.134,1.134,0,0,1,1.541.441l3.521,6.346a1.134,1.134,0,0,1-.441,1.541l-5.5,3.052A1.135,1.135,0,0,1,2338.517,536.86Zm-1.979-7.038,2.421,4.363,3.519-1.952-2.42-4.364Z" transform="translate(-2333.863 -525.196)" fill="#ff6d60"/>
      </g>
      <g id="Grupo_92803" data-name="Grupo 92803">
        <rect id="Rectángulo_35321" data-name="Rectángulo 35321" width="10.867" height="4.933" rx="2.467" transform="translate(0.601 5.872) rotate(-29.02)" fill="#ffc967"/>
        <path id="Trazado_142959" data-name="Trazado 142959" d="M2324.525,519.625a2.63,2.63,0,0,1-.724-.1,2.6,2.6,0,0,1-1.569-1.247l-.953-1.717A2.618,2.618,0,0,1,2322.3,513l6.906-3.831a2.618,2.618,0,0,1,3.559,1.02l.953,1.717a2.618,2.618,0,0,1-1.019,3.56l-.55-.991.55.991-6.906,3.831A2.605,2.605,0,0,1,2324.525,519.625Zm5.948-8.519a.344.344,0,0,0-.169.045l-6.906,3.831a.351.351,0,0,0-.137.478l.952,1.717a.351.351,0,0,0,.478.137l6.906-3.831a.351.351,0,0,0,.137-.478l-.952-1.717a.345.345,0,0,0-.21-.167A.359.359,0,0,0,2330.473,511.105Z" transform="translate(-2320.95 -508.838)" fill="#ff6d60"/>
      </g>
    </g>
    <g id="Grupo_92805" data-name="Grupo 92805" transform="translate(0 15.512)">
      <path id="Trazado_142960" data-name="Trazado 142960" d="M2371.672,575.537c1.665,25.1-17.2,46.847-42.066,48.494a45.394,45.394,0,1,1,42.066-48.494Z" transform="translate(-2279.863 -532.22)" fill="#ffc967"/>
      <path id="Trazado_142961" data-name="Trazado 142961" d="M2323.85,622.607a46.524,46.524,0,1,1,30.53-81.569,45.891,45.891,0,0,1,15.767,31.763,46.639,46.639,0,0,1-11.36,33.861,45.792,45.792,0,0,1-31.763,15.839Q2325.433,622.607,2323.85,622.607Zm-.037-90.78q-1.6,0-3.21.114a44.261,44.261,0,0,0-41.016,47.284,44.46,44.46,0,0,0,44.317,41.114c.986,0,1.974-.033,2.972-.1a43.542,43.542,0,0,0,30.2-15.062,44.385,44.385,0,0,0,10.81-32.226,44.182,44.182,0,0,0-44.073-41.125Z" transform="translate(-2277.207 -529.56)" fill="#ff6d60"/>
    </g>
    <g id="Grupo_92806" data-name="Grupo 92806" transform="translate(14.326 29.838)">
      <path id="Trazado_142962" data-name="Trazado 142962" d="M2390.971,610.139a31.069,31.069,0,1,1-33.191-28.792A31.1,31.1,0,0,1,2390.971,610.139Z" transform="translate(-2327.777 -580.134)" fill="#fff"/>
      <path id="Trazado_142963" data-name="Trazado 142963" d="M2357.4,641.875a32.2,32.2,0,1,1,21.131-56.455,31.765,31.765,0,0,1,10.914,21.986,32.275,32.275,0,0,1-7.862,23.434A31.7,31.7,0,0,1,2359.6,641.8Q2358.5,641.875,2357.4,641.875Zm-.026-62.133q-1.081,0-2.171.077a29.936,29.936,0,0,0-27.741,31.98,30.071,30.071,0,0,0,29.975,27.807c.667,0,1.336-.022,2.011-.066a29.448,29.448,0,0,0,20.423-10.187,30.021,30.021,0,0,0,7.312-21.8,29.882,29.882,0,0,0-29.808-27.813Z" transform="translate(-2325.121 -577.475)" fill="#ff6d60"/>
    </g>
    <g id="Grupo_92807" data-name="Grupo 92807" transform="translate(28.9 44.413)">
      <circle id="Elipse_4450" data-name="Elipse 4450" cx="15.36" cy="15.36" r="15.36" transform="matrix(0.16, -0.987, 0.987, 0.16, 0, 30.324)" fill="#ffc967"/>
      <path id="Trazado_142964" data-name="Trazado 142964" d="M2394.134,662.986a16.494,16.494,0,1,1,16.494-16.494A16.513,16.513,0,0,1,2394.134,662.986Zm0-30.721a14.227,14.227,0,1,0,14.227,14.227A14.243,14.243,0,0,0,2394.134,632.265Z" transform="translate(-2376.511 -628.869)" fill="#ff6d60"/>
    </g>
    <g id="Grupo_92808" data-name="Grupo 92808" transform="translate(39.798 7.275)">
      <rect id="Rectángulo_35322" data-name="Rectángulo 35322" width="9.82" height="8.238" transform="translate(1.133 1.133)" fill="#fff"/>
      <path id="Trazado_142965" data-name="Trazado 142965" d="M2421.269,512.516h-9.82a1.133,1.133,0,0,1-1.133-1.133v-8.238a1.133,1.133,0,0,1,1.133-1.133h9.82a1.133,1.133,0,0,1,1.133,1.133v8.238A1.133,1.133,0,0,1,2421.269,512.516Zm-8.687-2.267h7.554v-5.971h-7.554Z" transform="translate(-2410.315 -502.012)" fill="#ff6d60"/>
    </g>
    <g id="Grupo_92814" data-name="Grupo 92814" transform="translate(45.389)">
      <g id="Grupo_92809" data-name="Grupo 92809" transform="translate(38.041 9.2)">
        <path id="Trazado_142966" data-name="Trazado 142966" d="M2570.964,512.533l9.494-.293-10.929,11.625-9.493.293Z" transform="translate(-2558.903 -511.106)" fill="#ffc967"/>
        <path id="Trazado_142967" data-name="Trazado 142967" d="M2557.378,522.634a1.133,1.133,0,0,1-.825-1.91l10.928-11.625a1.133,1.133,0,0,1,.791-.357l9.493-.294a1.133,1.133,0,0,1,.861,1.909L2567.7,521.984a1.132,1.132,0,0,1-.791.357l-9.493.294Zm11.433-11.64-8.732,9.29,6.289-.194,8.733-9.29Z" transform="translate(-2556.245 -508.449)" fill="#ff6d60"/>
      </g>
      <g id="Grupo_92810" data-name="Grupo 92810" transform="translate(37.748)">
        <path id="Trazado_142968" data-name="Trazado 142968" d="M2570.276,490.963l-.293-9.493L2559.055,493.1l.293,9.493Z" transform="translate(-2557.921 -480.337)" fill="#ffc967"/>
        <path id="Trazado_142969" data-name="Trazado 142969" d="M2556.691,501.065a1.135,1.135,0,0,1-1.133-1.1l-.293-9.493a1.133,1.133,0,0,1,.307-.811l10.928-11.625a1.133,1.133,0,0,1,1.958.741l.293,9.493a1.131,1.131,0,0,1-.307.811l-10.928,11.625A1.133,1.133,0,0,1,2556.691,501.065Zm.854-10.193.194,6.289,8.733-9.289-.194-6.289Z" transform="translate(-2555.264 -477.679)" fill="#ff6d60"/>
      </g>
      <g id="Grupo_92811" data-name="Grupo 92811" transform="translate(1.476 2.74)">
        <line id="Línea_163" data-name="Línea 163" y1="57.388" x2="53.828" transform="translate(1.133 1.133)" fill="#fff"/>
        <path id="Trazado_142970" data-name="Trazado 142970" d="M2435.083,546.5a1.133,1.133,0,0,1-.826-1.909l53.828-57.389a1.133,1.133,0,1,1,1.653,1.551l-53.827,57.388A1.129,1.129,0,0,1,2435.083,546.5Z" transform="translate(-2433.949 -486.844)" fill="#ff6d60"/>
      </g>
      <g id="Grupo_92812" data-name="Grupo 92812" transform="translate(0 54.307)">
        <line id="Línea_164" data-name="Línea 164" x1="2.055" y2="7.142" transform="translate(1.134 1.134)" fill="#fff"/>
        <path id="Trazado_142971" data-name="Trazado 142971" d="M2430.147,668.722a1.135,1.135,0,0,1-1.09-1.447l2.055-7.142a1.133,1.133,0,1,1,2.178.627l-2.055,7.142A1.134,1.134,0,0,1,2430.147,668.722Z" transform="translate(-2429.013 -659.313)" fill="#ff6d60"/>
      </g>
      <g id="Grupo_92813" data-name="Grupo 92813" transform="translate(0 59.496)">
        <line id="Línea_165" data-name="Línea 165" x1="6.565" y2="1.952" transform="translate(1.134 1.134)" fill="#fff"/>
        <path id="Trazado_142972" data-name="Trazado 142972" d="M2430.146,680.89a1.134,1.134,0,0,1-.322-2.22l6.565-1.952a1.133,1.133,0,1,1,.646,2.172l-6.565,1.952A1.136,1.136,0,0,1,2430.146,680.89Z" transform="translate(-2429.013 -676.671)" fill="#ff6d60"/>
      </g>
    </g>
  </g>
  <g id="Grupo_92824" data-name="Grupo 92824" transform="translate(117.014 115.103)">
    <g id="Grupo_92823" data-name="Grupo 92823">
      <g id="Grupo_92822" data-name="Grupo 92822">
        <g id="Grupo_92816" data-name="Grupo 92816">
          <path id="Trazado_142973" data-name="Trazado 142973" d="M2472.111,929.288h62.847V905.8h4.466a7.857,7.857,0,0,0,7.857-7.857v-.159a7.857,7.857,0,0,0-7.857-7.857h-4.466V866.441h-23.487v5.706a7.857,7.857,0,0,1-7.857,7.857h-.159a7.857,7.857,0,0,1-7.857-7.857v-5.706h-17.567a5.92,5.92,0,0,0-5.92,5.92Z" transform="translate(-2470.978 -865.308)" fill="#fff"/>
          <path id="Trazado_142974" data-name="Trazado 142974" d="M2532.3,927.764h-62.847a1.133,1.133,0,0,1-1.133-1.134V869.7a7.061,7.061,0,0,1,7.053-7.053h17.567a1.134,1.134,0,0,1,1.134,1.133v5.705a6.731,6.731,0,0,0,6.724,6.724h.159a6.732,6.732,0,0,0,6.724-6.724v-5.705a1.133,1.133,0,0,1,1.133-1.133H2532.3a1.133,1.133,0,0,1,1.133,1.133v22.353h3.333a9,9,0,0,1,8.991,8.991v.159a9,9,0,0,1-8.991,8.991h-3.333V926.63A1.133,1.133,0,0,1,2532.3,927.764Zm-61.714-2.267h60.581V903.144a1.133,1.133,0,0,1,1.133-1.133h4.466a6.732,6.732,0,0,0,6.724-6.724v-.159a6.732,6.732,0,0,0-6.724-6.724H2532.3a1.133,1.133,0,0,1-1.133-1.133V864.917h-21.22v4.572a9,9,0,0,1-8.991,8.991h-.159a9,9,0,0,1-8.991-8.991v-4.572h-16.434a4.792,4.792,0,0,0-4.787,4.786Z" transform="translate(-2468.321 -862.65)" fill="#ff6d60"/>
        </g>
        <g id="Grupo_92821" data-name="Grupo 92821" transform="translate(15.531 20.885)">
          <g id="Grupo_92817" data-name="Grupo 92817">
            <ellipse id="Elipse_4451" data-name="Elipse 4451" cx="16.303" cy="16.223" rx="16.303" ry="16.223" transform="matrix(1, -0.009, 0.009, 1, 0.986, 1.283)" fill="#ffc967"/>
            <path id="Trazado_142975" data-name="Trazado 142975" d="M2537.7,967.215a17.357,17.357,0,1,1,12.22-29.742,17.2,17.2,0,0,1,5.22,12.228h0a17.416,17.416,0,0,1-17.279,17.514Zm.009-32.446h-.142a15.089,15.089,0,1,0,.133,30.179h.14a15.146,15.146,0,0,0,15.032-15.226h0a14.95,14.95,0,0,0-4.537-10.627A15.109,15.109,0,0,0,2537.706,934.769Z" transform="translate(-2520.264 -932.503)" fill="#ff6d60"/>
          </g>
          <g id="Grupo_92820" data-name="Grupo 92820" transform="translate(10.94 5.894)">
            <g id="Grupo_92818" data-name="Grupo 92818" transform="translate(0 1.544)">
              <path id="Trazado_142976" data-name="Trazado 142976" d="M2563.531,977.042c-3.66,0-6.647-2.5-6.675-5.6a1.133,1.133,0,0,1,2.267-.02c.017,1.859,1.989,3.357,4.407,3.357h.053c2.442-.022,4.416-1.564,4.4-3.437s-2.016-3.374-4.46-3.357a7.04,7.04,0,0,1-4.373-1.441,4.971,4.971,0,0,1-2-3.817,4.893,4.893,0,0,1,1.876-3.833,6.842,6.842,0,0,1,4.309-1.51h.068c3.406,0,6.187,2.334,6.213,5.23a1.133,1.133,0,0,1-1.123,1.144h-.011a1.133,1.133,0,0,1-1.133-1.123c-.015-1.665-1.8-3-3.994-2.984a4.569,4.569,0,0,0-2.882.988,2.491,2.491,0,0,0,.075,4.125,4.763,4.763,0,0,0,2.948.954h.073c3.66,0,6.646,2.5,6.674,5.6.028,3.123-2.952,5.691-6.645,5.724Z" transform="translate(-2556.856 -957.379)" fill="#ff6d60"/>
            </g>
            <g id="Grupo_92819" data-name="Grupo 92819" transform="translate(5.432)">
              <line id="Línea_166" data-name="Línea 166" x1="0.184" y1="20.329" transform="translate(1.134 1.133)" fill="#fff"/>
              <path id="Trazado_142977" data-name="Trazado 142977" d="M2576.341,974.812a1.133,1.133,0,0,1-1.133-1.123l-.185-20.329a1.134,1.134,0,0,1,1.124-1.144h.01a1.133,1.133,0,0,1,1.133,1.123l.184,20.329a1.134,1.134,0,0,1-1.124,1.144Z" transform="translate(-2575.023 -952.216)" fill="#ff6d60"/>
            </g>
          </g>
        </g>
      </g>
    </g>
  </g>
</svg>
