<svg xmlns="http://www.w3.org/2000/svg" width="189.321" height="196.57" viewBox="0 0 189.321 196.57">
  <g id="Grupo_92755" data-name="Grupo 92755" transform="translate(0)">
    <g id="Grupo_92702" data-name="Grupo 92702" transform="translate(4.3 21.6)">
      <g id="Grupo_92691" data-name="Grupo 92691">
        <g id="Grupo_92690" data-name="Grupo 92690">
          <g id="Grupo_92687" data-name="Grupo 92687" transform="translate(1.481 97.767)">
            <path id="Trazado_142873" data-name="Trazado 142873" d="M1316.018,1596.679a1.143,1.143,0,0,1-1.111-.882c-.35-1.493-.667-3.017-.943-4.529a1.143,1.143,0,1,1,2.248-.409c.269,1.475.578,2.96.919,4.417a1.142,1.142,0,0,1-.851,1.373A1.123,1.123,0,0,1,1316.018,1596.679Z" transform="translate(-1313.945 -1589.921)" fill="#ff6d60"/>
          </g>
          <g id="Grupo_92688" data-name="Grupo 92688" transform="translate(0 6.87)">
            <path id="Trazado_142874" data-name="Trazado 142874" d="M1310.51,1372.967a1.143,1.143,0,0,1-1.137-1.044c-.228-2.652-.344-5.354-.344-8.032q0-.345,0-.691a1.142,1.142,0,0,1,1.142-1.134h.008a1.143,1.143,0,0,1,1.135,1.151q0,.337,0,.674c0,2.612.113,5.249.335,7.835a1.143,1.143,0,0,1-1.041,1.236C1310.577,1372.966,1310.543,1372.967,1310.51,1372.967Zm.13-17.225c-.038,0-.077,0-.116-.006a1.142,1.142,0,0,1-1.022-1.252c.292-2.891.724-5.8,1.287-8.641a1.143,1.143,0,0,1,2.242.443c-.548,2.772-.971,5.608-1.255,8.428A1.143,1.143,0,0,1,1310.64,1355.743Zm3.343-16.908a1.143,1.143,0,0,1-1.095-1.469c.83-2.779,1.8-5.552,2.895-8.241a1.142,1.142,0,1,1,2.117.859c-1.064,2.622-2.013,5.326-2.823,8.036A1.143,1.143,0,0,1,1313.983,1338.834Zm6.475-15.967a1.143,1.143,0,0,1-1.012-1.671c1.339-2.57,2.818-5.109,4.4-7.544a1.142,1.142,0,1,1,1.918,1.242c-1.538,2.375-2.981,4.851-4.287,7.358A1.142,1.142,0,0,1,1320.458,1322.867Zm9.365-14.461a1.143,1.143,0,0,1-.9-1.851c1.8-2.275,3.725-4.491,5.728-6.587a1.142,1.142,0,1,1,1.652,1.578c-1.954,2.045-3.834,4.207-5.588,6.426A1.141,1.141,0,0,1,1329.823,1308.406Zm11.9-12.454a1.143,1.143,0,0,1-.749-2.006c2.191-1.9,4.5-3.717,6.856-5.4a1.142,1.142,0,1,1,1.328,1.859c-2.3,1.643-4.55,3.416-6.687,5.269A1.139,1.139,0,0,1,1341.724,1295.953Z" transform="translate(-1309.03 -1288.332)" fill="#ff6d60"/>
          </g>
          <g id="Grupo_92689" data-name="Grupo 92689" transform="translate(45.564)">
            <path id="Trazado_142875" data-name="Trazado 142875" d="M1461.351,1270.017a1.143,1.143,0,0,1-.575-2.131c1.329-.772,2.694-1.52,4.058-2.223a1.142,1.142,0,0,1,1.047,2.031c-1.329.685-2.661,1.415-3.957,2.168A1.137,1.137,0,0,1,1461.351,1270.017Z" transform="translate(-1460.207 -1265.537)" fill="#ff6d60"/>
          </g>
        </g>
      </g>
      <g id="Grupo_92696" data-name="Grupo 92696" transform="translate(71.34 158.654)">
        <g id="Grupo_92695" data-name="Grupo 92695">
          <g id="Grupo_92692" data-name="Grupo 92692" transform="translate(64.815)">
            <path id="Trazado_142876" data-name="Trazado 142876" d="M1761.928,1796.566a1.143,1.143,0,0,1-.561-2.138c1.3-.731,2.605-1.509,3.876-2.311a1.142,1.142,0,0,1,1.218,1.933c-1.3.822-2.641,1.619-3.974,2.369A1.136,1.136,0,0,1,1761.928,1796.566Z" transform="translate(-1760.785 -1791.941)" fill="#ff6d60"/>
          </g>
          <g id="Grupo_92693" data-name="Grupo 92693" transform="translate(13.339 6.326)">
            <path id="Trazado_142877" data-name="Trazado 142877" d="M1597.85,1822.92c-2.262,0-4.55-.083-6.8-.246a1.143,1.143,0,1,1,.165-2.279c2.912.211,5.891.283,8.8.215a1.143,1.143,0,1,1,.054,2.285C1599.336,1822.911,1598.589,1822.92,1597.85,1822.92Zm11.08-.665a1.143,1.143,0,0,1-.136-2.277c2.906-.351,5.824-.85,8.675-1.482a1.143,1.143,0,0,1,.495,2.231c-2.923.647-5.916,1.159-8.9,1.519A1.21,1.21,0,0,1,1608.93,1822.255Zm17.382-3.853a1.143,1.143,0,0,1-.355-2.229c2.776-.908,5.542-1.967,8.219-3.146a1.142,1.142,0,1,1,.92,2.091c-2.745,1.208-5.581,2.294-8.428,3.226A1.148,1.148,0,0,1,1626.312,1818.4Z" transform="translate(-1589.99 -1812.93)" fill="#ff6d60"/>
          </g>
          <g id="Grupo_92694" data-name="Grupo 92694" transform="translate(0 11.823)">
            <path id="Trazado_142878" data-name="Trazado 142878" d="M1551.358,1834.339a1.167,1.167,0,0,1-.195-.016c-1.516-.261-3.043-.562-4.538-.9a1.143,1.143,0,1,1,.5-2.23c1.458.327,2.947.621,4.425.875a1.143,1.143,0,0,1-.192,2.269Z" transform="translate(-1545.732 -1831.167)" fill="#ff6d60"/>
          </g>
        </g>
      </g>
      <g id="Grupo_92701" data-name="Grupo 92701" transform="translate(162.604 23.983)">
        <g id="Grupo_92700" data-name="Grupo 92700">
          <g id="Grupo_92697" data-name="Grupo 92697">
            <path id="Trazado_142879" data-name="Trazado 142879" d="M1852.459,1351.023a1.14,1.14,0,0,1-.925-.471c-.88-1.211-1.8-2.417-2.743-3.583a1.143,1.143,0,1,1,1.779-1.434c.964,1.2,1.91,2.431,2.812,3.673a1.143,1.143,0,0,1-.923,1.814Z" transform="translate(-1848.537 -1345.11)" fill="#ff6d60"/>
          </g>
          <g id="Grupo_92698" data-name="Grupo 92698" transform="translate(7.708 11.166)">
            <path id="Trazado_142880" data-name="Trazado 142880" d="M1887.679,1427.264a1.142,1.142,0,0,1-1.141-1.1c-.105-2.959-.358-5.94-.751-8.861a1.142,1.142,0,0,1,2.265-.3c.4,2.995.661,6.051.77,9.084a1.143,1.143,0,0,1-1.1,1.182Zm-2.4-17.828a1.143,1.143,0,0,1-1.111-.879c-.681-2.875-1.515-5.749-2.477-8.541a1.143,1.143,0,0,1,2.161-.745c.987,2.863,1.841,5.81,2.539,8.759a1.143,1.143,0,0,1-1.112,1.406Zm-5.86-17.008a1.144,1.144,0,0,1-1.039-.665c-1.234-2.682-2.617-5.334-4.111-7.886a1.142,1.142,0,0,1,1.971-1.155c1.532,2.615,2.951,5.336,4.216,8.086a1.143,1.143,0,0,1-1.037,1.62Z" transform="translate(-1874.112 -1382.158)" fill="#ff6d60"/>
          </g>
          <g id="Grupo_92699" data-name="Grupo 92699" transform="translate(19.623 63.001)">
            <path id="Trazado_142881" data-name="Trazado 142881" d="M1914.79,1560.979a1.171,1.171,0,0,1-.128-.007,1.143,1.143,0,0,1-1.009-1.262c.166-1.485.3-3,.389-4.5a1.142,1.142,0,1,1,2.281.14c-.094,1.536-.228,3.087-.4,4.61A1.143,1.143,0,0,1,1914.79,1560.979Z" transform="translate(-1913.646 -1554.141)" fill="#ff6d60"/>
          </g>
        </g>
      </g>
    </g>
    <g id="Grupo_92723" data-name="Grupo 92723" transform="translate(103.562 90.6)">
      <g id="Grupo_92722" data-name="Grupo 92722">
        <g id="Grupo_92714" data-name="Grupo 92714" transform="translate(37.411)">
          <g id="Grupo_92703" data-name="Grupo 92703" transform="translate(13.623)">
            <ellipse id="Elipse_4444" data-name="Elipse 4444" cx="8.517" cy="8.548" rx="8.517" ry="8.548" transform="translate(1.142 1.142)" fill="#fff"/>
            <path id="Trazado_142882" data-name="Trazado 142882" d="M1817.359,1513.854a9.69,9.69,0,1,1,9.659-9.69A9.685,9.685,0,0,1,1817.359,1513.854Zm0-17.095a7.4,7.4,0,1,0,7.374,7.4A7.4,7.4,0,0,0,1817.359,1496.759Z" transform="translate(-1807.7 -1494.474)" fill="#ff6d60"/>
          </g>
          <g id="Grupo_92709" data-name="Grupo 92709" transform="translate(5.571 20.737)">
            <g id="Grupo_92705" data-name="Grupo 92705">
              <g id="Grupo_92704" data-name="Grupo 92704">
                <path id="Trazado_142883" data-name="Trazado 142883" d="M1784.935,1576.566c.156-5.443,5.289-9.791,11.027-9.442.046,0,.092,0,.137,0l12.182-.056h.078l.144,0c5.979.132,10.8,4.8,10.748,10.41l-.23,24.839a4.007,4.007,0,0,1-4.161,3.794,4.191,4.191,0,0,1-3.482-1.834v34a4.732,4.732,0,0,1-4.853,4.953c-4.026.024-4.691-4.161-4.691-4.161s-.717,3.721-4.353,4.172c-2.948.366-5.515-1.527-5.515-4.286v-33.944a4.257,4.257,0,0,1-3.063,1.271h-.024a3.98,3.98,0,0,1-4.1-3.849Z" transform="translate(-1783.634 -1565.926)" fill="#fff"/>
                <path id="Trazado_142884" data-name="Trazado 142884" d="M1794.108,1641.787a6.227,6.227,0,0,1-4.14-1.5,5.231,5.231,0,0,1-1.793-3.969v-31.876a5.525,5.525,0,0,1-1.921.345,5.419,5.419,0,0,1-3.715-1.446,4.8,4.8,0,0,1-1.553-3.552l.159-25.873c0-.009,0-.017,0-.026a10.5,10.5,0,0,1,3.523-7.466,11.914,11.914,0,0,1,8.715-3.083l.075,0,12.169-.055h.083l.164,0c6.6.146,11.927,5.333,11.87,11.562l-.229,24.839a5.136,5.136,0,0,1-5.268,4.926h-.044a5.5,5.5,0,0,1-2.331-.531v31.558a5.866,5.866,0,0,1-5.989,6.1h-.041a5.476,5.476,0,0,1-4.71-2.48,5.945,5.945,0,0,1-4.159,2.483A7.058,7.058,0,0,1,1794.108,1641.787Zm-4.79-40.561a1.144,1.144,0,0,1,1.142,1.142v33.944a2.942,2.942,0,0,0,1.021,2.257,4.075,4.075,0,0,0,3.212.9,4.156,4.156,0,0,0,3.373-3.261,1.147,1.147,0,0,1,1.12-.917h.025a1.14,1.14,0,0,1,1.1.959c.055.323.628,3.2,3.53,3.2h.026a3.584,3.584,0,0,0,3.717-3.81v-34a1.142,1.142,0,0,1,2.1-.629,3.037,3.037,0,0,0,2.537,1.321,2.862,2.862,0,0,0,3.009-2.662l.23-24.838c.046-4.985-4.274-9.138-9.631-9.257l-.191,0h0l-12.217.056c-.058,0-.117,0-.174,0a9.627,9.627,0,0,0-7.038,2.489,8.235,8.235,0,0,0-2.78,5.832l-.158,25.86a2.534,2.534,0,0,0,.831,1.872,3.2,3.2,0,0,0,4.4-.1A1.141,1.141,0,0,1,1789.317,1601.226Z" transform="translate(-1780.985 -1563.278)" fill="#ff6d60"/>
              </g>
            </g>
            <g id="Grupo_92706" data-name="Grupo 92706" transform="translate(26.571 12.396)">
              <line id="Línea_150" data-name="Línea 150" x2="0.031" y2="24.814" transform="translate(1.142 1.143)" fill="#fff"/>
              <path id="Trazado_142885" data-name="Trazado 142885" d="M1870.319,1631.508a1.142,1.142,0,0,1-1.142-1.141l-.031-24.814a1.143,1.143,0,0,1,1.141-1.144h0a1.143,1.143,0,0,1,1.143,1.141l.031,24.815a1.142,1.142,0,0,1-1.141,1.144Z" transform="translate(-1869.146 -1604.408)" fill="#ff6d60"/>
            </g>
            <g id="Grupo_92707" data-name="Grupo 92707" transform="translate(7.189 12.396)">
              <line id="Línea_151" data-name="Línea 151" y2="25.552" transform="translate(1.143 1.143)" fill="#fff"/>
              <path id="Trazado_142886" data-name="Trazado 142886" d="M1805.981,1632.245a1.143,1.143,0,0,1-1.142-1.143V1605.55a1.142,1.142,0,0,1,2.285,0V1631.1A1.143,1.143,0,0,1,1805.981,1632.245Z" transform="translate(-1804.839 -1604.408)" fill="#ff6d60"/>
            </g>
            <g id="Grupo_92708" data-name="Grupo 92708" transform="translate(17.057 36.818)">
              <line id="Línea_152" data-name="Línea 152" y2="35.188" transform="translate(1.142 1.143)" fill="#fff"/>
              <path id="Trazado_142887" data-name="Trazado 142887" d="M1838.723,1722.911a1.142,1.142,0,0,1-1.142-1.143V1686.58a1.142,1.142,0,1,1,2.285,0v35.188A1.143,1.143,0,0,1,1838.723,1722.911Z" transform="translate(-1837.581 -1685.438)" fill="#ff6d60"/>
            </g>
          </g>
          <g id="Grupo_92713" data-name="Grupo 92713" transform="translate(0 56.444)">
            <g id="Grupo_92710" data-name="Grupo 92710" transform="translate(0 3.694)">
              <rect id="Rectángulo_35308" data-name="Rectángulo 35308" width="18.16" height="13.967" rx="2.59" transform="translate(19.303 15.11) rotate(180)" fill="#ffc967"/>
              <path id="Trazado_142888" data-name="Trazado 142888" d="M1781.023,1710.262h-16.6a1.926,1.926,0,0,1-1.923-1.923v-12.406a1.925,1.925,0,0,1,1.923-1.923h16.6a1.925,1.925,0,0,1,1.923,1.923v12.406A1.925,1.925,0,0,1,1781.023,1710.262Zm-16.237-2.285h15.875v-11.682h-15.875Z" transform="translate(-1762.501 -1694.009)" fill="#ff6d60"/>
            </g>
            <g id="Grupo_92711" data-name="Grupo 92711" transform="translate(0 5.952)">
              <path id="Trazado_142889" data-name="Trazado 142889" d="M1776.552,1710.42h-7.659a4.489,4.489,0,0,1-4.056-2.648l-.364-.792-1.86-3.839a1.143,1.143,0,0,1,2.057-1l1.869,3.86.375.816a2.2,2.2,0,0,0,1.978,1.314h7.659a2.2,2.2,0,0,0,1.971-1.3l.38-.828,1.871-3.864a1.143,1.143,0,0,1,2.057,1l-1.861,3.842-.372.81A4.493,4.493,0,0,1,1776.552,1710.42Z" transform="translate(-1762.5 -1701.5)" fill="#ff6d60"/>
            </g>
            <g id="Grupo_92712" data-name="Grupo 92712" transform="translate(5.571)">
              <path id="Rectángulo_35309" data-name="Rectángulo 35309" d="M0,0H7.212a0,0,0,0,1,0,0V1.2A2.492,2.492,0,0,1,4.72,3.694H2.492A2.492,2.492,0,0,1,0,1.2V0A0,0,0,0,1,0,0Z" transform="translate(8.355 4.837) rotate(180)" fill="#fff"/>
              <path id="Trazado_142890" data-name="Trazado 142890" d="M1789.341,1687.732h-7.212a1.143,1.143,0,0,1-1.143-1.143v-2.943a1.9,1.9,0,0,1,1.894-1.894h5.71a1.9,1.9,0,0,1,1.893,1.894v2.943A1.142,1.142,0,0,1,1789.341,1687.732Zm-6.07-2.285h4.927v-1.409h-4.927Z" transform="translate(-1780.986 -1681.752)" fill="#ff6d60"/>
            </g>
          </g>
        </g>
        <g id="Grupo_92721" data-name="Grupo 92721" transform="translate(0 15.747)">
          <g id="Grupo_92715" data-name="Grupo 92715" transform="translate(22.237 37.381)">
            <line id="Línea_153" data-name="Línea 153" x1="11.556" y1="0.239" transform="translate(1.143 1.143)" fill="#fff"/>
            <path id="Trazado_142891" data-name="Trazado 142891" d="M1724.855,1673.271h-.024l-11.555-.239a1.143,1.143,0,0,1,.023-2.285h.024l11.556.239a1.143,1.143,0,0,1-.023,2.285Z" transform="translate(-1712.156 -1670.747)" fill="#ff6d60"/>
          </g>
          <g id="Grupo_92716" data-name="Grupo 92716" transform="translate(7.697 37.381)">
            <line id="Línea_154" data-name="Línea 154" x1="14.541" transform="translate(1.142 1.143)" fill="#fff"/>
            <path id="Trazado_142892" data-name="Trazado 142892" d="M1679.594,1673.032h-14.541a1.143,1.143,0,0,1,0-2.285h14.541a1.143,1.143,0,1,1,0,2.285Z" transform="translate(-1663.911 -1670.747)" fill="#ff6d60"/>
          </g>
          <g id="Grupo_92717" data-name="Grupo 92717" transform="translate(7.697 4.647)">
            <path id="Trazado_142893" data-name="Trazado 142893" d="M1677.931,1631.531h-12.877a1.143,1.143,0,0,1,0-2.285h12.877a.522.522,0,0,0,.521-.521v-63.779a.522.522,0,0,0-.521-.521h-12.877a1.143,1.143,0,0,1,0-2.285h12.877a2.809,2.809,0,0,1,2.806,2.806v63.779A2.81,2.81,0,0,1,1677.931,1631.531Z" transform="translate(-1663.911 -1562.14)" fill="#ff6d60"/>
          </g>
          <g id="Grupo_92718" data-name="Grupo 92718">
            <circle id="Elipse_4445" data-name="Elipse 4445" cx="4.647" cy="4.647" r="4.647" transform="translate(1.142 1.143)" fill="#ffc967"/>
            <path id="Trazado_142894" data-name="Trazado 142894" d="M1644.163,1558.3a5.789,5.789,0,1,1,5.789-5.789A5.8,5.8,0,0,1,1644.163,1558.3Zm0-9.294a3.5,3.5,0,1,0,3.5,3.5A3.508,3.508,0,0,0,1644.163,1549.006Z" transform="translate(-1638.374 -1546.721)" fill="#ff6d60"/>
          </g>
          <g id="Grupo_92719" data-name="Grupo 92719" transform="translate(0 32.734)">
            <circle id="Elipse_4446" data-name="Elipse 4446" cx="4.647" cy="4.647" r="4.647" transform="translate(1.142 1.143)" fill="#ffc967"/>
            <path id="Trazado_142895" data-name="Trazado 142895" d="M1644.163,1666.908a5.789,5.789,0,1,1,5.789-5.789A5.8,5.8,0,0,1,1644.163,1666.908Zm0-9.294a3.5,3.5,0,1,0,3.5,3.5A3.508,3.508,0,0,0,1644.163,1657.614Z" transform="translate(-1638.374 -1655.329)" fill="#ff6d60"/>
          </g>
          <g id="Grupo_92720" data-name="Grupo 92720" transform="translate(0 67.106)">
            <circle id="Elipse_4447" data-name="Elipse 4447" cx="4.647" cy="4.647" r="4.647" transform="translate(1.142 1.143)" fill="#ffc967"/>
            <path id="Trazado_142896" data-name="Trazado 142896" d="M1644.163,1780.954a5.79,5.79,0,1,1,5.789-5.789A5.8,5.8,0,0,1,1644.163,1780.954Zm0-9.294a3.5,3.5,0,1,0,3.5,3.5A3.508,3.508,0,0,0,1644.163,1771.66Z" transform="translate(-1638.374 -1769.375)" fill="#ff6d60"/>
          </g>
        </g>
      </g>
    </g>
    <g id="Grupo_92744" data-name="Grupo 92744" transform="translate(42.191 0)">
      <g id="Grupo_92730" data-name="Grupo 92730" transform="translate(18.973)">
        <g id="Grupo_92724" data-name="Grupo 92724" transform="translate(4.611)">
          <path id="Trazado_142897" data-name="Trazado 142897" d="M1514.143,1208.551a1.142,1.142,0,0,1-.753-2,51.011,51.011,0,0,1,55.927-7.562,1.142,1.142,0,1,1-1,2.057,48.825,48.825,0,0,0-53.426,7.223A1.137,1.137,0,0,1,1514.143,1208.551Z" transform="translate(-1513 -1193.871)" fill="#ff6d60"/>
        </g>
        <g id="Grupo_92725" data-name="Grupo 92725" transform="translate(11.942 11.132)">
          <path id="Trazado_142898" data-name="Trazado 142898" d="M1538.468,1242.729a1.142,1.142,0,0,1-.753-2,39.936,39.936,0,0,1,43.75-5.93,1.142,1.142,0,1,1-1,2.056,37.753,37.753,0,0,0-41.249,5.592A1.137,1.137,0,0,1,1538.468,1242.729Z" transform="translate(-1537.325 -1230.807)" fill="#ff6d60"/>
        </g>
        <g id="Grupo_92728" data-name="Grupo 92728" transform="translate(0 79.077)">
          <g id="Grupo_92726" data-name="Grupo 92726" transform="translate(18.809)">
            <path id="Trazado_142899" data-name="Trazado 142899" d="M1578.66,1468.166q-1.01,0-2.021-.051a39.6,39.6,0,0,1-15.349-3.939l-.194-.093c-.111-.052-.2-.095-.36-.176a1.143,1.143,0,0,1,1.036-2.037c.134.068.209.1.3.147l.214.1a37.753,37.753,0,0,0,41.249-5.592,1.143,1.143,0,1,1,1.505,1.719,40.182,40.182,0,0,1-26.38,9.92Z" transform="translate(-1560.11 -1456.244)" fill="#ff6d60"/>
          </g>
          <g id="Grupo_92727" data-name="Grupo 92727" transform="translate(0 1.28)">
            <path id="Trazado_142900" data-name="Trazado 142900" d="M1535.093,1482.266q-1.3,0-2.613-.066a50.7,50.7,0,0,1-19.14-4.814l-1.726,3.565a1.143,1.143,0,0,1-1.974.144l-11.742-17.3a1.143,1.143,0,0,1,.863-1.781l20.854-1.518a1.143,1.143,0,0,1,1.111,1.638l-2.045,4.222a1.143,1.143,0,0,1-2.057-1l1.182-2.441-16.907,1.23,9.519,14.026,1.361-2.81a1.142,1.142,0,0,1,1.526-.53l.534.259a48.827,48.827,0,0,0,53.426-7.223,1.142,1.142,0,1,1,1.506,1.718,51.25,51.25,0,0,1-33.68,12.678Z" transform="translate(-1497.702 -1460.492)" fill="#ff6d60"/>
          </g>
        </g>
        <g id="Grupo_92729" data-name="Grupo 92729" transform="translate(51.977 1.279)">
          <path id="Trazado_142901" data-name="Trazado 142901" d="M1671.3,1219.218a1.143,1.143,0,0,1-1.028-1.64l2.464-5.089a1.142,1.142,0,1,1,2.056,1l-1.6,3.308,16.907-1.23-9.519-14.026-.94,1.942a1.143,1.143,0,0,1-2.057-1l1.8-3.724a1.143,1.143,0,0,1,1.974-.143l11.742,17.3a1.143,1.143,0,0,1-.863,1.781l-20.854,1.518C1671.357,1219.217,1671.329,1219.218,1671.3,1219.218Z" transform="translate(-1670.159 -1198.114)" fill="#ff6d60"/>
        </g>
      </g>
      <g id="Grupo_92736" data-name="Grupo 92736" transform="translate(0 28.207)">
        <g id="Grupo_92732" data-name="Grupo 92732" transform="translate(0 0)">
          <g id="Grupo_92731" data-name="Grupo 92731">
            <circle id="Elipse_4448" data-name="Elipse 4448" cx="19.31" cy="19.31" r="19.31" transform="matrix(0.993, -0.122, 0.122, 0.993, 0, 4.719)" fill="#ffc967"/>
            <path id="Trazado_142902" data-name="Trazado 142902" d="M1458.759,1331.92a20.452,20.452,0,1,1,20.452-20.452A20.476,20.476,0,0,1,1458.759,1331.92Zm0-38.62a18.167,18.167,0,1,0,18.167,18.167A18.188,18.188,0,0,0,1458.759,1293.3Z" transform="translate(-1437.235 -1289.944)" fill="#ff6d60"/>
          </g>
        </g>
        <g id="Grupo_92735" data-name="Grupo 92735" transform="translate(14.663 9.882)">
          <g id="Grupo_92733" data-name="Grupo 92733" transform="translate(0 1.594)">
            <path id="Trazado_142903" data-name="Trazado 142903" d="M1490.263,1345.79c-3.783,0-6.861-2.612-6.861-5.823a1.142,1.142,0,1,1,2.285,0c0,1.95,2.053,3.537,4.576,3.537s4.576-1.587,4.576-3.537-2.053-3.538-4.576-3.538c-3.57,0-6.474-2.451-6.474-5.463,0-3,2.864-5.433,6.385-5.433s6.385,2.438,6.385,5.433a1.143,1.143,0,1,1-2.285,0c0-1.736-1.839-3.148-4.1-3.148s-4.1,1.412-4.1,3.148,1.918,3.178,4.189,3.178c3.783,0,6.861,2.612,6.861,5.823S1494.046,1345.79,1490.263,1345.79Z" transform="translate(-1483.402 -1325.534)" fill="#ff6d60"/>
          </g>
          <g id="Grupo_92734" data-name="Grupo 92734" transform="translate(5.718)">
            <line id="Línea_155" data-name="Línea 155" y1="21.001" transform="translate(1.143 1.142)" fill="#fff"/>
            <path id="Trazado_142904" data-name="Trazado 142904" d="M1503.517,1343.53a1.142,1.142,0,0,1-1.142-1.142v-21a1.143,1.143,0,1,1,2.285,0v21A1.142,1.142,0,0,1,1503.517,1343.53Z" transform="translate(-1502.375 -1320.245)" fill="#ff6d60"/>
          </g>
        </g>
      </g>
      <g id="Grupo_92740" data-name="Grupo 92740" transform="translate(75.058 25.263)">
        <g id="Grupo_92737" data-name="Grupo 92737">
          <path id="Trazado_142905" data-name="Trazado 142905" d="M1710.444,1326.745s2.182-1,2.864-6.076a19.41,19.41,0,0,1,2.517-7.383c.133-.224.263-.437.386-.639a36.489,36.489,0,0,1,2.334-3.274,17.291,17.291,0,0,0-14.36-27.878,17.2,17.2,0,0,0-12.851,27.926,26.334,26.334,0,0,1,1.722,2.45c.066.1.136.218.209.338a25.08,25.08,0,0,1,3.258,9.007c.759,4.6,2.782,5.529,2.782,5.529" transform="translate(-1686.435 -1280.339)" fill="#fff"/>
          <path id="Trazado_142906" data-name="Trazado 142906" d="M1708.273,1325.134l-.954-2.076-.036.017c.016-.009,1.674-.968,2.244-5.207a20.47,20.47,0,0,1,2.668-7.816c.136-.228.268-.446.394-.651a37.9,37.9,0,0,1,2.405-3.378,16.3,16.3,0,0,0,3.379-10.5,15.854,15.854,0,0,0-5.114-11.162,16.1,16.1,0,0,0-23.682,21.7,27.377,27.377,0,0,1,1.8,2.556c.068.109.141.226.217.351a26.139,26.139,0,0,1,3.41,9.416c.628,3.806,2.153,4.686,2.168,4.694l-.036-.017-.954,2.076c-.264-.121-2.6-1.328-3.433-6.381a23.873,23.873,0,0,0-3.106-8.6q-.106-.174-.2-.326a25.157,25.157,0,0,0-1.647-2.344,18.387,18.387,0,0,1,27.025-24.8,18.124,18.124,0,0,1,5.84,12.763,18.6,18.6,0,0,1-3.859,11.973,35.667,35.667,0,0,0-2.262,3.171c-.122.2-.249.408-.379.627a18.19,18.19,0,0,0-2.365,6.949C1711.049,1323.71,1708.555,1325,1708.273,1325.134Z" transform="translate(-1683.787 -1277.691)" fill="#ff6d60"/>
        </g>
        <g id="Grupo_92738" data-name="Grupo 92738" transform="translate(11.159 45.263)">
          <path id="Rectángulo_35310" data-name="Rectángulo 35310" d="M0,0H12.278a0,0,0,0,1,0,0V3.864A4.705,4.705,0,0,1,7.572,8.569H6.342A6.342,6.342,0,0,1,0,2.227V0A0,0,0,0,1,0,0Z" transform="translate(1.142 1.142)" fill="#fff"/>
          <path id="Trazado_142907" data-name="Trazado 142907" d="M1732.813,1438.724h-8.948a3.057,3.057,0,0,1-3.054-3.054v-6.658a1.143,1.143,0,0,1,1.143-1.142h12.277a1.142,1.142,0,0,1,1.142,1.142v7.151A2.563,2.563,0,0,1,1732.813,1438.724Zm-9.717-8.569v5.515a.77.77,0,0,0,.769.769h8.948a.276.276,0,0,0,.276-.276v-6.009Z" transform="translate(-1720.811 -1427.871)" fill="#ff6d60"/>
        </g>
        <g id="Grupo_92739" data-name="Grupo 92739" transform="translate(11.159 49.531)">
          <line id="Línea_156" data-name="Línea 156" x2="12.278" transform="translate(1.142 1.142)" fill="#fff"/>
          <path id="Trazado_142908" data-name="Trazado 142908" d="M1734.231,1444.315h-12.277a1.142,1.142,0,1,1,0-2.285h12.277a1.142,1.142,0,1,1,0,2.285Z" transform="translate(-1720.811 -1442.03)" fill="#ff6d60"/>
        </g>
      </g>
      <g id="Grupo_92743" data-name="Grupo 92743" transform="translate(90.833 20.22)">
        <g id="Grupo_92741" data-name="Grupo 92741" transform="translate(8.597 8.733)">
          <ellipse id="Elipse_4449" data-name="Elipse 4449" cx="5.604" cy="5.629" rx="5.604" ry="5.629" transform="translate(0.116 11.081) rotate(-78.194)" fill="#fff"/>
          <path id="Trazado_142909" data-name="Trazado 142909" d="M1771.433,1303.433a6.789,6.789,0,0,1-6.664-5.522,6.737,6.737,0,0,1,5.42-7.861,6.789,6.789,0,0,1,7.892,5.41,6.737,6.737,0,0,1-5.42,7.861A6.794,6.794,0,0,1,1771.433,1303.433Zm-.016-11.211a4.528,4.528,0,0,0-.816.074,4.453,4.453,0,0,0-3.586,5.194,4.5,4.5,0,0,0,5.234,3.583,4.452,4.452,0,0,0,3.586-5.194h0A4.5,4.5,0,0,0,1771.417,1292.223Z" transform="translate(-1764.652 -1289.937)" fill="#1a1861"/>
        </g>
        <g id="Grupo_92742" data-name="Grupo 92742">
          <path id="Trazado_142910" data-name="Trazado 142910" d="M1764.38,1289.106l2.677-3.926a.576.576,0,0,0-.148-.8l-2.071-1.441a.548.548,0,0,1-.206-.608,10.925,10.925,0,0,0,.381-1.827.536.536,0,0,1,.432-.469l2.037-.372a1,1,0,0,0,.8-1.176l-.793-4.269a.572.572,0,0,0-.662-.461l-2.467.451a.54.54,0,0,1-.571-.286,11.105,11.105,0,0,0-1.013-1.572.545.545,0,0,1-.026-.641l1.417-2.078a.576.576,0,0,0-.148-.8l-3.913-2.723a.563.563,0,0,0-.788.144l-1.417,2.078a.533.533,0,0,1-.6.2,10.863,10.863,0,0,0-1.815-.4.544.544,0,0,1-.468-.438l-.462-2.489a.572.572,0,0,0-.662-.461l-4.66.851a.568.568,0,0,0-.453.664l.463,2.488a.539.539,0,0,1-.28.575,10.758,10.758,0,0,0-1.554,1.01.533.533,0,0,1-.636.022l-2.071-1.441a.563.563,0,0,0-.788.144l-2.677,3.926a.576.576,0,0,0,.148.8l2.071,1.441a.546.546,0,0,1,.206.608,10.99,10.99,0,0,0-.381,1.826.535.535,0,0,1-.431.469l-2.466.45a.567.567,0,0,0-.453.664l.874,4.7a.571.571,0,0,0,.662.461l2.466-.45a.539.539,0,0,1,.571.286,11.07,11.07,0,0,0,1.013,1.572.545.545,0,0,1,.026.641l-1.416,2.078a.575.575,0,0,0,.147.795l3.913,2.723a.562.562,0,0,0,.788-.144l1.417-2.078a.533.533,0,0,1,.6-.2,10.872,10.872,0,0,0,1.815.4.543.543,0,0,1,.468.438l.463,2.489a.572.572,0,0,0,.662.46l4.66-.851a.566.566,0,0,0,.453-.664l-.462-2.489a.539.539,0,0,1,.28-.574,10.7,10.7,0,0,0,1.553-1.011.534.534,0,0,1,.636-.022l2.071,1.441A.563.563,0,0,0,1764.38,1289.106ZM1751,1283.7a5.658,5.658,0,0,1-1.452-7.813,5.527,5.527,0,0,1,7.743-1.413,5.658,5.658,0,0,1,1.453,7.813A5.528,5.528,0,0,1,1751,1283.7Z" transform="translate(-1738.777 -1263.608)" fill="#ffc967"/>
          <path id="Trazado_142911" data-name="Trazado 142911" d="M1751.651,1291.923a1.718,1.718,0,0,1-1.684-1.4l-.384-2.066c-.385-.065-.769-.148-1.147-.25l-1.166,1.709a1.705,1.705,0,0,1-2.385.438l-3.913-2.723a1.723,1.723,0,0,1-.439-2.377l1.174-1.722c-.233-.324-.45-.662-.651-1.009l-2.035.371a1.717,1.717,0,0,1-1.991-1.376l-.874-4.7a1.71,1.71,0,0,1,1.371-2l2.03-.37c.063-.392.144-.782.244-1.166l-1.72-1.2a1.723,1.723,0,0,1-.439-2.376l2.677-3.926a1.705,1.705,0,0,1,2.385-.438l1.708,1.189c.315-.228.642-.44.977-.636l-.383-2.061a1.71,1.71,0,0,1,1.371-2l4.66-.851a1.717,1.717,0,0,1,1.99,1.376l.384,2.066c.386.064.77.148,1.148.25l1.166-1.71a1.7,1.7,0,0,1,2.385-.438l3.913,2.724a1.722,1.722,0,0,1,.439,2.377l-1.174,1.722c.233.325.451.662.651,1.008l2.035-.371a1.716,1.716,0,0,1,1.99,1.376l.793,4.268a2.147,2.147,0,0,1-1.72,2.509l-1.6.292c-.063.392-.144.782-.245,1.166l1.72,1.2a1.722,1.722,0,0,1,.439,2.377l-2.677,3.926h0a1.706,1.706,0,0,1-2.385.437l-1.708-1.188c-.315.227-.641.44-.977.635l.383,2.061a1.71,1.71,0,0,1-1.371,2l-4.66.85A1.678,1.678,0,0,1,1751.651,1291.923Zm-3.474-6.1a1.7,1.7,0,0,1,.507.078,9.761,9.761,0,0,0,1.623.354,1.683,1.683,0,0,1,1.444,1.362l.359,1.932,3.527-.643-.358-1.924a1.677,1.677,0,0,1,.865-1.791,9.66,9.66,0,0,0,1.388-.9,1.672,1.672,0,0,1,1.992-.059l1.592,1.108,2.03-2.977-1.61-1.12a1.687,1.687,0,0,1-.649-1.873,9.846,9.846,0,0,0,.342-1.637,1.673,1.673,0,0,1,1.361-1.455l1.9-.346-.666-3.58-1.9.347a1.677,1.677,0,0,1-1.786-.874,9.989,9.989,0,0,0-.908-1.41,1.685,1.685,0,0,1-.065-1.983l1.1-1.612-2.973-2.07-1.087,1.594a1.669,1.669,0,0,1-1.885.651,9.754,9.754,0,0,0-1.623-.354,1.682,1.682,0,0,1-1.444-1.362l-.359-1.931-3.526.644.358,1.924a1.678,1.678,0,0,1-.865,1.791,9.682,9.682,0,0,0-1.388.9,1.669,1.669,0,0,1-1.991.059l-1.593-1.108-2.03,2.977,1.61,1.12a1.687,1.687,0,0,1,.647,1.874,9.909,9.909,0,0,0-.341,1.636,1.672,1.672,0,0,1-1.36,1.455l-1.9.346.666,3.58,1.9-.347a1.679,1.679,0,0,1,1.786.874,9.93,9.93,0,0,0,.908,1.41,1.685,1.685,0,0,1,.065,1.982l-1.1,1.613,2.973,2.069,1.087-1.594A1.661,1.661,0,0,1,1748.176,1285.819Zm3.343-2.619a6.662,6.662,0,0,1-3.82-1.208h0a6.81,6.81,0,0,1-1.743-9.395,6.67,6.67,0,0,1,9.34-1.708,6.81,6.81,0,0,1,1.743,9.395,6.62,6.62,0,0,1-4.3,2.8A6.767,6.767,0,0,1,1751.519,1283.2Zm-2.514-3.083a4.386,4.386,0,0,0,6.147-1.119,4.519,4.519,0,0,0-1.161-6.232,4.386,4.386,0,0,0-6.147,1.119,4.518,4.518,0,0,0,1.161,6.232Z" transform="translate(-1736.128 -1260.96)" fill="#ff6d60"/>
        </g>
      </g>
    </g>
    <g id="Grupo_92754" data-name="Grupo 92754" transform="translate(0 89.942)">
      <g id="Grupo_92745" data-name="Grupo 92745" transform="translate(53.529 17.443)">
        <path id="Trazado_142912" data-name="Trazado 142912" d="M1488.524,1620.418l-.149-53.194h5.144l-8.679-13.265-8.679,13.265h5.144v53.194Z" transform="translate(-1475.017 -1552.817)" fill="#ffc967"/>
        <path id="Trazado_142913" data-name="Trazado 142913" d="M1485.876,1618.911h-7.22a1.142,1.142,0,0,1-1.142-1.142v-52.051h-4a1.142,1.142,0,0,1-.956-1.768l8.68-13.265a1.142,1.142,0,0,1,.956-.517h0a1.142,1.142,0,0,1,.956.517l8.68,13.265a1.143,1.143,0,0,1-.956,1.768h-4l.146,52.048a1.142,1.142,0,0,1-1.142,1.146Zm-6.078-2.285h4.932l-.146-52.048a1.143,1.143,0,0,1,1.143-1.146h3.031l-6.567-10.036-6.567,10.036h3.031a1.142,1.142,0,0,1,1.142,1.142Z" transform="translate(-1472.369 -1550.168)" fill="#ff6d60"/>
      </g>
      <g id="Grupo_92748" data-name="Grupo 92748" transform="translate(0 22.069)">
        <g id="Grupo_92747" data-name="Grupo 92747">
          <g id="Grupo_92746" data-name="Grupo 92746">
            <path id="Trazado_142914" data-name="Trazado 142914" d="M1364.289,1624.913a10.905,10.905,0,0,0-4.054-5.713,8.306,8.306,0,0,0-2.188-.815c-3.86-.978-11.092-1.726-14.555-2.721a4.289,4.289,0,0,1-3.107-4.121v-3.262a1.382,1.382,0,0,1,.5-1.08,16.565,16.565,0,0,0,4.709-6.9,8.456,8.456,0,0,0,.472-1.69,1.934,1.934,0,0,0,1.94-1.545c.757-4.769,1.3-4.975,1.3-7.07s-.766-2.591-1.687-2.05a12.59,12.59,0,0,0,.469-3.212c.21-9.635-7-15.428-15.579-15.428s-15.639,5.995-15.579,15.428a11.553,11.553,0,0,0,.469,3.212c-.922-.541-1.687-.043-1.687,2.05s.547,2.3,1.3,7.07a1.934,1.934,0,0,0,1.94,1.545q.046.318.108.633a13.827,13.827,0,0,0,4.539,7.953,1.391,1.391,0,0,1,.521,1.094v3.251a4.274,4.274,0,0,1-3.082,4.114c-3.463,1-9.818,2.033-13.688,3.013a7.652,7.652,0,0,0-1.826.75,8.274,8.274,0,0,0-3.874,5.447l-3.086,18.478a.954.954,0,0,0,.938,1.131h66.69a.954.954,0,0,0,.94-1.118Z" transform="translate(-1297.411 -1568.164)" fill="#fff"/>
            <path id="Trazado_142915" data-name="Trazado 142915" d="M1363.55,1642.97H1296.86a2.1,2.1,0,0,1-2.06-2.485l3.082-18.454c.005-.034.013-.068.021-.1a9.362,9.362,0,0,1,4.371-6.125,8.681,8.681,0,0,1,2.154-.891c1.769-.448,4.073-.912,6.3-1.362,2.7-.544,5.492-1.106,7.352-1.642a3.147,3.147,0,0,0,2.256-3.017v-3.251a.251.251,0,0,0-.087-.2,14.974,14.974,0,0,1-4.926-8.494,2.85,2.85,0,0,1-2.082-2.354,42.613,42.613,0,0,0-.888-4.329,10.13,10.13,0,0,1-.431-2.921c0-1.635.411-2.665,1.256-3.148.041-.023.086-.047.136-.071a12.9,12.9,0,0,1-.173-2.036,16.111,16.111,0,0,1,4.568-11.758,17.894,17.894,0,0,1,24.516.075,15.8,15.8,0,0,1,4.358,11.7,14.514,14.514,0,0,1-.182,2.014c.054.025.1.05.145.074.845.484,1.255,1.513,1.255,3.148a10.122,10.122,0,0,1-.431,2.921,42.578,42.578,0,0,0-.888,4.329,2.856,2.856,0,0,1-2.114,2.363c-.092.341-.211.707-.357,1.095a17.671,17.671,0,0,1-5.061,7.385.253.253,0,0,0-.073.191v3.261a3.161,3.161,0,0,0,2.28,3.024,74.564,74.564,0,0,0,7.4,1.4c2.574.41,5.237.833,7.121,1.311a8.368,8.368,0,0,1,2.551.979,12.017,12.017,0,0,1,4.489,6.281,1.137,1.137,0,0,1,.05.2l2.849,18.444a2.1,2.1,0,0,1-2.069,2.435Zm-.186-2.07v0Zm-66.314-.017v0Zm.033-.2h66.247l-2.8-18.141a9.643,9.643,0,0,0-3.585-5.048,6.3,6.3,0,0,0-1.824-.651c-1.784-.452-4.395-.867-6.919-1.269a75.527,75.527,0,0,1-7.672-1.461,5.457,5.457,0,0,1-3.934-5.22v-3.261a2.511,2.511,0,0,1,.921-1.968,15.344,15.344,0,0,0,4.359-6.413,7.329,7.329,0,0,0,.411-1.453,1.142,1.142,0,0,1,1.13-.977h.01a.758.758,0,0,0,.8-.582,44.654,44.654,0,0,1,.931-4.535,8.019,8.019,0,0,0,.36-2.356,3.975,3.975,0,0,0-.1-1,1.143,1.143,0,0,1-1.544-1.366,11.552,11.552,0,0,0,.426-2.923,13.566,13.566,0,0,0-3.707-10.052,15.617,15.617,0,0,0-21.262-.063,13.878,13.878,0,0,0-3.9,10.133,10.365,10.365,0,0,0,.425,2.905,1.143,1.143,0,0,1-1.544,1.366,4.006,4.006,0,0,0-.1,1,8.016,8.016,0,0,0,.36,2.356,44.714,44.714,0,0,1,.931,4.535.764.764,0,0,0,.817.582h.01a1.126,1.126,0,0,1,1.114.977c.029.194.061.387.1.58a12.628,12.628,0,0,0,4.126,7.274,2.517,2.517,0,0,1,.956,1.991v3.251a5.442,5.442,0,0,1-3.908,5.212c-1.949.561-4.787,1.133-7.533,1.686-2.2.444-4.476.9-6.191,1.337a6.552,6.552,0,0,0-1.5.609,7.168,7.168,0,0,0-3.365,4.72Zm48.571-54.449Zm-31.582,0Z" transform="translate(-1294.764 -1565.516)" fill="#ff6d60"/>
          </g>
        </g>
      </g>
      <g id="Grupo_92749" data-name="Grupo 92749" transform="translate(37.504)">
        <path id="Trazado_142916" data-name="Trazado 142916" d="M1422.989,1509.348l8.68-13.265,8.679,13.265H1435.2V1528.1l-7.071-1.582v-17.166Z" transform="translate(-1421.847 -1494.941)" fill="#ffc967"/>
        <path id="Trazado_142917" data-name="Trazado 142917" d="M1432.556,1526.59a1.112,1.112,0,0,1-.25-.028l-7.071-1.581a1.143,1.143,0,0,1-.893-1.115v-16.023h-4a1.143,1.143,0,0,1-.956-1.768l8.68-13.265a1.143,1.143,0,0,1,1.912,0l8.679,13.265a1.142,1.142,0,0,1-.956,1.768h-4v17.605a1.143,1.143,0,0,1-1.142,1.142Zm-5.928-3.639,4.785,1.07V1506.7a1.143,1.143,0,0,1,1.143-1.143h3.031l-6.566-10.035-6.567,10.035h3.031a1.143,1.143,0,0,1,1.143,1.143Z" transform="translate(-1419.199 -1492.293)" fill="#ff6d60"/>
      </g>
      <g id="Grupo_92750" data-name="Grupo 92750" transform="translate(71.942 34.005)">
        <path id="Trazado_142918" data-name="Trazado 142918" d="M1537.253,1622.175l8.679-13.265,8.68,13.265h-5.144v36.673H1542.4v-36.673Z" transform="translate(-1536.111 -1607.768)" fill="#ffc967"/>
        <path id="Trazado_142919" data-name="Trazado 142919" d="M1546.82,1657.342h-7.071a1.143,1.143,0,0,1-1.143-1.142v-35.53h-4a1.142,1.142,0,0,1-.956-1.768l8.679-13.265a1.142,1.142,0,0,1,1.912,0l8.679,13.265a1.142,1.142,0,0,1-.956,1.768h-4v35.53A1.142,1.142,0,0,1,1546.82,1657.342Zm-5.929-2.285h4.786v-35.53a1.142,1.142,0,0,1,1.143-1.142h3.031l-6.567-10.036-6.567,10.036h3.031a1.142,1.142,0,0,1,1.142,1.142Z" transform="translate(-1533.463 -1605.119)" fill="#ff6d60"/>
      </g>
      <g id="Grupo_92751" data-name="Grupo 92751" transform="translate(23.54 58.479)">
        <path id="Trazado_142920" data-name="Trazado 142920" d="M1376.658,1690.113a14.559,14.559,0,0,0,19.842.48" transform="translate(-1375.515 -1688.97)" fill="#fff"/>
        <path id="Trazado_142921" data-name="Trazado 142921" d="M1384.264,1692.745a15.636,15.636,0,0,1-11.062-4.473,1.142,1.142,0,0,1,1.615-1.616,13.408,13.408,0,0,0,18.254.454,1.143,1.143,0,0,1,1.562,1.669A15.128,15.128,0,0,1,1384.264,1692.745Z" transform="translate(-1372.867 -1686.321)" fill="#ff6d60"/>
      </g>
      <g id="Grupo_92752" data-name="Grupo 92752" transform="translate(17.669 18.617)">
        <path id="Trazado_142922" data-name="Trazado 142922" d="M1389.218,1580.523l.659-6.935a13.567,13.567,0,0,0-6.211-12.792,12.659,12.659,0,0,0-1.16-.637c-6.189-3.071-13.513-2.17-13.513-2.17a6.869,6.869,0,0,0-5.273,2.963l-1.237,1.827h0a6.3,6.3,0,0,0-5.3,6.437l1.171,10.739,2.745-5.974a3.083,3.083,0,0,1,.557-.585,13.492,13.492,0,0,0,3.463-4.316l.62-1.258,1.021.457a29.577,29.577,0,0,0,15.088,2.215c.845-.085,1.488.072,1.642.673C1386.175,1581.632,1389.218,1580.523,1389.218,1580.523Z" transform="translate(-1356.036 -1556.719)" fill="#ffc967"/>
        <path id="Trazado_142923" data-name="Trazado 142923" d="M1386.3,1579.043a2.93,2.93,0,0,1-1.371-.367c-2.021-1.066-3.754-4.331-5.151-9.708a2.145,2.145,0,0,0-.467.006,30.836,30.836,0,0,1-15.669-2.309l-.017-.008-.133.27a14.571,14.571,0,0,1-3.751,4.685,2.412,2.412,0,0,0-.3.3l-2.7,5.866a1.142,1.142,0,0,1-2.174-.353l-1.17-10.738c0-.023,0-.045-.006-.067a7.448,7.448,0,0,1,5.751-7.515l.979-1.447a8.048,8.048,0,0,1,6.115-3.46c.64-.074,7.859-.823,14.124,2.285a13.591,13.591,0,0,1,1.27.7,14.667,14.667,0,0,1,6.73,13.869l-.659,6.928a1.141,1.141,0,0,1-.746.966A1.955,1.955,0,0,1,1386.3,1579.043Zm.265-1.177h0Zm-6.984-11.192a2.15,2.15,0,0,1,2.364,1.552c1.389,5.415,2.79,7.395,3.616,8.117l.525-5.52a12.4,12.4,0,0,0-5.691-11.723,11.613,11.613,0,0,0-1.051-.574c-5.8-2.875-12.8-2.067-12.866-2.06l-.068.006a5.751,5.751,0,0,0-4.4,2.464l-1.237,1.827a1.142,1.142,0,0,1-.745.484,5.179,5.179,0,0,0-4.358,5.223l.719,6.595,1.019-2.218a1.155,1.155,0,0,1,.093-.165,4.1,4.1,0,0,1,.766-.817,12.317,12.317,0,0,0,3.173-3.948l.62-1.257a1.143,1.143,0,0,1,1.491-.538l1.021.457a28.553,28.553,0,0,0,14.507,2.122A4.9,4.9,0,0,1,1379.586,1566.674Z" transform="translate(-1353.387 -1554.062)" fill="#ff6d60"/>
      </g>
      <g id="Grupo_92753" data-name="Grupo 92753" transform="translate(22.491 68.418)">
        <path id="Trazado_142924" data-name="Trazado 142924" d="M1373.179,1723.091l9.173,3.415a6.645,6.645,0,0,0,4.759-.047l8.514-3.361" transform="translate(-1372.036 -1721.948)" fill="#fff"/>
        <path id="Trazado_142925" data-name="Trazado 142925" d="M1382.023,1725.419a7.792,7.792,0,0,1-2.718-.49l-9.173-3.414a1.143,1.143,0,1,1,.8-2.142l9.173,3.414a5.5,5.5,0,0,0,3.942-.038l8.514-3.361a1.142,1.142,0,1,1,.839,2.125l-8.514,3.361A7.779,7.779,0,0,1,1382.023,1725.419Z" transform="translate(-1369.387 -1719.301)" fill="#ff6d60"/>
      </g>
    </g>
  </g>
</svg>
