<svg xmlns="http://www.w3.org/2000/svg" width="295" height="51" viewBox="0 0 295 51">
  <g id="Grupo_95353" data-name="Grupo 95353" transform="translate(-9972 9919)">
    <path id="Rectángulo_35210" data-name="Rectángulo 35210" d="M0,0H295a0,0,0,0,1,0,0V41a10,10,0,0,1-10,10H10A10,10,0,0,1,0,41V0A0,0,0,0,1,0,0Z" transform="translate(9972 -9919)" fill="#ffa648"/>
    <path id="Trazado_147290" data-name="Trazado 147290" d="M-37.78-5.432h-4.852v3.059h5.73V0h-8.815V-12.8h8.833v2.382h-5.748v2.7h4.852Zm5.854-1.459,1.38-2.619h3.076l-2.5,4.632L-27.347,0h-3.094l-1.494-2.812L-33.4,0h-3.111l2.637-4.878-2.5-4.632h3.111Zm14.238,2.206a5.735,5.735,0,0,1-1,3.538A3.2,3.2,0,0,1-21.379.176a2.742,2.742,0,0,1-2.153-.958V3.656h-2.962V-9.51h2.769l.088.879A2.742,2.742,0,0,1-21.4-9.686a3.224,3.224,0,0,1,2.733,1.3,5.805,5.805,0,0,1,.976,3.564Zm-2.962-.185q0-2.531-1.477-2.531a1.394,1.394,0,0,0-1.406.756V-2.9a1.439,1.439,0,0,0,1.424.791q1.415,0,1.459-2.443Zm3.894.026A5.613,5.613,0,0,1-16.2-7.378a3.96,3.96,0,0,1,1.591-1.709,4.791,4.791,0,0,1,2.435-.6A4.373,4.373,0,0,1-8.811-8.363a5.076,5.076,0,0,1,1.23,3.6v.105A4.925,4.925,0,0,1-8.815-1.129,4.384,4.384,0,0,1-12.16.176,4.434,4.434,0,0,1-15.42-1.042a4.761,4.761,0,0,1-1.327-3.3Zm2.962.185a3.538,3.538,0,0,0,.413,1.934,1.376,1.376,0,0,0,1.222.615q1.582,0,1.617-2.435v-.3q0-2.558-1.635-2.558-1.485,0-1.608,2.206ZM-1.3-2.672a.684.684,0,0,0-.4-.606,6.016,6.016,0,0,0-1.5-.475A6.853,6.853,0,0,1-5.023-4.4a3.062,3.062,0,0,1-1.1-.971A2.319,2.319,0,0,1-6.5-6.68,2.628,2.628,0,0,1-5.418-8.837a4.453,4.453,0,0,1,2.83-.848,4.934,4.934,0,0,1,3.023.853A2.666,2.666,0,0,1,1.578-6.592H-1.393q0-1.143-1.2-1.143a1.194,1.194,0,0,0-.782.259.8.8,0,0,0-.316.646.737.737,0,0,0,.387.642,3.654,3.654,0,0,0,1.235.4,10.671,10.671,0,0,1,1.49.378A2.706,2.706,0,0,1,1.56-2.76,2.491,2.491,0,0,1,.4-.642,5.068,5.068,0,0,1-2.588.176a5.172,5.172,0,0,1-2.18-.439,3.645,3.645,0,0,1-1.494-1.2A2.707,2.707,0,0,1-6.8-3.05H-4.03a1.145,1.145,0,0,0,.439.962,1.808,1.808,0,0,0,1.081.3A1.422,1.422,0,0,0-1.6-2.03.787.787,0,0,0-1.3-2.672ZM6.069,0H3.1V-9.51H6.069ZM2.922-11.962A1.322,1.322,0,0,1,3.379-13a1.724,1.724,0,0,1,1.187-.4,1.724,1.724,0,0,1,1.187.4,1.322,1.322,0,0,1,.457,1.037,1.322,1.322,0,0,1-.457,1.037,1.724,1.724,0,0,1-1.187.4,1.724,1.724,0,0,1-1.187-.4A1.322,1.322,0,0,1,2.922-11.962Zm8.42.088V-9.51h1.564v2.057H11.342V-3.1a1.111,1.111,0,0,0,.193.747,1.037,1.037,0,0,0,.765.211,4.345,4.345,0,0,0,.738-.053V-.079a5.466,5.466,0,0,1-1.67.255A3.1,3.1,0,0,1,9.11-.545,2.954,2.954,0,0,1,8.38-2.733v-4.72H7.167V-9.51H8.38v-2.364ZM17.2,0H14.225V-9.51H17.2ZM14.049-11.962A1.322,1.322,0,0,1,14.506-13a1.724,1.724,0,0,1,1.187-.4,1.724,1.724,0,0,1,1.187.4,1.322,1.322,0,0,1,.457,1.037,1.322,1.322,0,0,1-.457,1.037,1.724,1.724,0,0,1-1.187.4,1.724,1.724,0,0,1-1.187-.4A1.322,1.322,0,0,1,14.049-11.962Zm8.763,8.438,1.5-5.985h3.12L24.333,0H21.309l-3.1-9.51h3.129Zm5-1.318a5.613,5.613,0,0,1,.554-2.536,3.96,3.96,0,0,1,1.591-1.709,4.791,4.791,0,0,1,2.435-.6,4.373,4.373,0,0,1,3.366,1.323,5.076,5.076,0,0,1,1.23,3.6v.105a4.925,4.925,0,0,1-1.235,3.529A4.384,4.384,0,0,1,32.41.176a4.434,4.434,0,0,1-3.261-1.217,4.761,4.761,0,0,1-1.327-3.3Zm2.962.185a3.538,3.538,0,0,0,.413,1.934,1.376,1.376,0,0,0,1.222.615q1.582,0,1.617-2.435v-.3q0-2.558-1.635-2.558-1.485,0-1.608,2.206Zm12.5,1.986a.684.684,0,0,0-.4-.606,6.016,6.016,0,0,0-1.5-.475A6.853,6.853,0,0,1,39.546-4.4a3.062,3.062,0,0,1-1.1-.971,2.319,2.319,0,0,1-.378-1.31,2.628,2.628,0,0,1,1.081-2.158,4.453,4.453,0,0,1,2.83-.848A4.934,4.934,0,0,1,45-8.833a2.666,2.666,0,0,1,1.143,2.241H43.176q0-1.143-1.2-1.143a1.194,1.194,0,0,0-.782.259.8.8,0,0,0-.316.646.737.737,0,0,0,.387.642,3.654,3.654,0,0,0,1.235.4,10.671,10.671,0,0,1,1.49.378A2.706,2.706,0,0,1,46.129-2.76,2.491,2.491,0,0,1,44.974-.642a5.068,5.068,0,0,1-2.993.817A5.172,5.172,0,0,1,39.8-.264a3.645,3.645,0,0,1-1.494-1.2,2.707,2.707,0,0,1-.536-1.591H40.54a1.145,1.145,0,0,0,.439.962,1.808,1.808,0,0,0,1.081.3,1.422,1.422,0,0,0,.91-.246A.787.787,0,0,0,43.273-2.672Z" transform="translate(10120 -9887)" fill="#12263f"/>
  </g>
</svg>
