<svg xmlns="http://www.w3.org/2000/svg" xmlns:xlink="http://www.w3.org/1999/xlink" width="94.777" height="105.374" viewBox="0 0 94.777 105.374">
  <defs>
    <radialGradient id="radial-gradient" cx="0.697" cy="0.171" r="0.8" gradientTransform="translate(0)" gradientUnits="objectBoundingBox">
      <stop offset="0.204" stop-color="#ffd640"/>
      <stop offset="0.866" stop-color="#e07612"/>
      <stop offset="1" stop-color="#ffa322"/>
    </radialGradient>
    <filter id="Trazado_147258" x="12.759" y="18.355" width="82.019" height="87.019" filterUnits="userSpaceOnUse">
      <feOffset dx="10" dy="20" input="SourceAlpha"/>
      <feGaussianBlur stdDeviation="5" result="blur"/>
      <feFlood flood-opacity="0.161"/>
      <feComposite operator="in" in2="blur"/>
      <feComposite in="SourceGraphic"/>
    </filter>
    <linearGradient id="linear-gradient" y1="0.5" x2="1" y2="0.5" gradientUnits="objectBoundingBox">
      <stop offset="0.204" stop-color="#ff4f5a"/>
      <stop offset="0.982" stop-color="#ad071d"/>
    </linearGradient>
  </defs>
  <g id="Grupo_95344" data-name="Grupo 95344" transform="translate(17.759 18.355)">
    <g transform="matrix(1, 0, 0, 1, -17.76, -18.36)" filter="url(#Trazado_147258)">
      <path id="Trazado_147258-2" data-name="Trazado 147258" d="M-1070.029,112.317a26.009,26.009,0,0,1-26.01,26.008,26.008,26.008,0,0,1-26.009-26.008,26.009,26.009,0,0,1,26.009-26.01A26.01,26.01,0,0,1-1070.029,112.317Z" transform="translate(1139.81 -67.95)" fill="url(#radial-gradient)"/>
    </g>
    <g id="Grupo_95343" data-name="Grupo 95343" transform="translate(3.845 19.539)">
      <path id="Trazado_147259" data-name="Trazado 147259" d="M-1064.375,280.027c-5.759,5.588-16.5,5.7-23.805-3.867,1.567-1.489,4.87-1.891,10.1-1.233a45.748,45.748,0,0,1,14.269,4.433c-.167.2-.378.479-.561.667" transform="translate(1091.475 -254.459)" fill="url(#linear-gradient)"/>
      <path id="Trazado_147260" data-name="Trazado 147260" d="M-1087.553,185.063c-.3.875-.315.91-4.818,2.191-1.093.25-1.482-1.71-.773-2.677.2-.273.2-.273,2.5-.95-.316-.641-.731-1.5-1-2.159-.365-1.337.735-2.777,1.557-2.428a.682.682,0,0,1,.278.323,20.409,20.409,0,0,0,2.107,4,2.037,2.037,0,0,1,.158,1.7" transform="translate(1095.675 -178.987)" fill="#331911"/>
      <path id="Trazado_147261" data-name="Trazado 147261" d="M-1002.249,193.384c-.039.709-.043.8-2.643,2.8.786.342,1.835.8,2.63,1.122a1.588,1.588,0,0,1-.145,2.967c-.347.1-.928.27-6.121-2.467a1.647,1.647,0,0,1-.492-2.324c.178-.255.178-.255,1.918-1.463.839-.579,1.884-1.452,2.668-2.1a1.153,1.153,0,0,1,.593-.281,1.578,1.578,0,0,1,1.592,1.743" transform="translate(1029.227 -188.97)" fill="#331911"/>
      <path id="Trazado_147262" data-name="Trazado 147262" d="M-1073.05,240.587a12.5,12.5,0,0,1-3.093,7.068,47.273,47.273,0,0,0-14.273-4.431c-5.538-.626-8.269-.3-10.077,1.218-3.653-5.413-3.877-10.3-2.63-9.978a1.873,1.873,0,0,1,.411.2c5.288,3.472,14.3,5.247,23.918,4.225q2.019-.213,3.921-.572c2.064-.288,1.963.784,1.822,2.267" transform="translate(1103.808 -222.757)" fill="#331911"/>
    </g>
    <path id="Trazado_147263" data-name="Trazado 147263" d="M-964.505,114.739c2.557,1.768,3.673,4.583,2.491,6.29s-4.208,1.66-6.766-.109-3.67-4.585-2.491-6.292S-967.062,112.969-964.505,114.739Z" transform="translate(1003.43 -107.671)" fill="#fff" opacity="0.6" style="mix-blend-mode: overlay;isolation: isolate"/>
    <path id="Trazado_147264" data-name="Trazado 147264" d="M-951.96,238.718c-3.274,4.182-9.34,7.25-10.8,6.455s4.952-6.894,6.979-9.6c4.133-5.5,6.257-10.419,7.721-9.624S-946.824,232.155-951.96,238.718Z" transform="translate(996.514 -196.447)" fill="#fff" opacity="0.3" style="mix-blend-mode: overlay;isolation: isolate"/>
    <path id="Trazado_147265" data-name="Trazado 147265" d="M-1091.139,248.661c3.47,3.262,10.006,7.953,9.241,8.5-2.162,1.549-9.271,1.25-14.891-5.018-3.181-3.548-5.289-9.714-4.421-10.517C-1099.975,240.488-1095.4,244.663-1091.139,248.661Z" transform="translate(1105.758 -208.733)" fill="#aec1e3" opacity="0.4" style="mix-blend-mode: overlay;isolation: isolate"/>
  </g>
</svg>
