<svg xmlns="http://www.w3.org/2000/svg" width="233.825" height="66.185" viewBox="0 0 233.825 66.185">
  <g id="Grupo_95363" data-name="Grupo 95363" transform="translate(10984.412 11877.218)">
    <g id="Grupo_95342" data-name="Grupo 95342" transform="translate(-11411.932 -11916.572)">
      <rect id="Rect치ngulo_35161" data-name="Rect치ngulo 35161" width="233.825" height="66.185" rx="20.257" transform="translate(661.344 105.539) rotate(-180)" fill="#373660"/>
      <g id="Grupo_91091" data-name="Grupo 91091" transform="translate(440.913 53.496)">
        <g id="Grupo_91078" data-name="Grupo 91078">
          <path id="Trazado_138644" data-name="Trazado 138644" d="M455.259,66.681l5.859-11.872,5.859,11.872,13.1,1.9L470.6,77.826l2.238,13.049-11.719-6.161L449.4,90.875l2.238-13.049-9.481-9.241Z" transform="translate(-442.157 -54.809)" fill="#ffc91f"/>
          <g id="Grupo_91076" data-name="Grupo 91076" transform="translate(0.365 0.125)">
            <path id="Trazado_138645" data-name="Trazado 138645" d="M472.645,90.318l-11.493-6.043-11.495,6.043,2.2-12.8-9.3-9.063,12.851-1.868,5.746-11.644L466.9,66.589l12.85,1.868-9.3,9.063ZM446.98,69.894l7.086,6.908-1.674,9.752,8.76-4.6,8.759,4.6L468.237,76.8l7.086-6.908-9.792-1.423L461.152,59.6l-4.379,8.874Z" transform="translate(-442.555 -54.945)" fill="#ffe578"/>
          </g>
          <g id="Grupo_91077" data-name="Grupo 91077" transform="translate(5.886 7.104)">
            <path id="Trazado_138646" data-name="Trazado 138646" d="M470.367,77.809l1.346,7.849L454.6,68.543l2.513-.365,2.767-5.606,12.893,12.893Z" transform="translate(-449.1 -62.572)" fill="#ffe578"/>
            <path id="Trazado_138647" data-name="Trazado 138647" d="M448.589,69.957l1.049-.152L467.03,87.2,464.5,85.864Z" transform="translate(-448.589 -63.187)" fill="#ffe578"/>
          </g>
        </g>
        <g id="Grupo_91081" data-name="Grupo 91081" transform="translate(42.279)">
          <path id="Trazado_138648" data-name="Trazado 138648" d="M501.463,66.681l5.859-11.872,5.859,11.872,13.1,1.9L516.8,77.826l2.238,13.049-11.719-6.161L495.6,90.875l2.238-13.049-9.481-9.241Z" transform="translate(-488.361 -54.809)" fill="#fff"/>
          <g id="Grupo_91079" data-name="Grupo 91079" transform="translate(0.364 0.125)">
            <path id="Trazado_138649" data-name="Trazado 138649" d="M518.85,90.318l-11.494-6.043-11.494,6.043,2.2-12.8-9.3-9.063,12.851-1.868,5.746-11.644L513.1,66.589l12.851,1.868-9.3,9.063ZM507.356,81.95l8.759,4.6L514.442,76.8l7.086-6.907-9.793-1.423L507.356,59.6l-4.379,8.874-9.793,1.423L500.27,76.8,498.6,86.554Z" transform="translate(-488.759 -54.945)" fill="#fff"/>
          </g>
          <g id="Grupo_91080" data-name="Grupo 91080" transform="translate(5.886 7.104)">
            <path id="Trazado_138650" data-name="Trazado 138650" d="M516.572,77.809l1.346,7.849L500.8,68.543l2.513-.365,2.767-5.606,12.893,12.893Z" transform="translate(-495.304 -62.572)" fill="#fff"/>
            <path id="Trazado_138651" data-name="Trazado 138651" d="M494.794,69.957l1.049-.152L513.235,87.2,510.7,85.864Z" transform="translate(-494.794 -63.187)" fill="#fff"/>
          </g>
        </g>
        <g id="Grupo_91084" data-name="Grupo 91084" transform="translate(84.558)">
          <path id="Trazado_138652" data-name="Trazado 138652" d="M547.667,66.681l5.859-11.872,5.859,11.872,13.1,1.9-9.481,9.241,2.238,13.049-11.719-6.161-11.719,6.161,2.238-13.049-9.481-9.241Z" transform="translate(-534.566 -54.809)" fill="#fff"/>
          <g id="Grupo_91082" data-name="Grupo 91082" transform="translate(0.365 0.125)">
            <path id="Trazado_138653" data-name="Trazado 138653" d="M542.067,90.318l2.2-12.8-9.3-9.063,12.85-1.868,5.746-11.644,5.746,11.644,12.851,1.868-9.3,9.063,2.2,12.8L553.56,84.276ZM553.56,81.95l8.759,4.6L560.646,76.8l7.086-6.907-9.793-1.423L553.56,59.6l-4.379,8.874-9.792,1.423,7.086,6.908L544.8,86.554Z" transform="translate(-534.964 -54.945)" fill="#fff"/>
          </g>
          <g id="Grupo_91083" data-name="Grupo 91083" transform="translate(5.886 7.104)">
            <path id="Trazado_138654" data-name="Trazado 138654" d="M562.776,77.809l1.346,7.849L547.008,68.543l2.513-.365,2.767-5.606L565.18,75.465Z" transform="translate(-541.509 -62.572)" fill="#fff"/>
            <path id="Trazado_138655" data-name="Trazado 138655" d="M541,69.957l1.049-.152L559.439,87.2l-2.533-1.332Z" transform="translate(-540.998 -63.187)" fill="#fff"/>
          </g>
        </g>
        <g id="Grupo_91087" data-name="Grupo 91087" transform="translate(126.836)">
          <path id="Trazado_138656" data-name="Trazado 138656" d="M593.872,66.681l5.859-11.872,5.859,11.872,13.1,1.9-9.481,9.241,2.238,13.049-11.719-6.161-11.719,6.161,2.238-13.049-9.481-9.241Z" transform="translate(-580.77 -54.809)" fill="#fff"/>
          <g id="Grupo_91085" data-name="Grupo 91085" transform="translate(0.364 0.125)">
            <path id="Trazado_138657" data-name="Trazado 138657" d="M611.259,90.318l-11.494-6.043-11.493,6.043,2.194-12.8-9.3-9.063,12.851-1.868,5.746-11.644,5.746,11.644,12.85,1.868-9.3,9.063ZM585.593,69.894l7.086,6.907-1.673,9.753,8.759-4.6,8.759,4.6L606.851,76.8l7.085-6.908-9.792-1.423L599.765,59.6l-4.379,8.874Z" transform="translate(-581.168 -54.945)" fill="#fff"/>
          </g>
          <g id="Grupo_91086" data-name="Grupo 91086" transform="translate(5.886 7.104)">
            <path id="Trazado_138658" data-name="Trazado 138658" d="M608.981,77.809l1.346,7.849L593.213,68.543l2.513-.365,2.766-5.606,12.893,12.893Z" transform="translate(-587.713 -62.572)" fill="#fff"/>
            <path id="Trazado_138659" data-name="Trazado 138659" d="M587.2,69.957l1.049-.152L605.644,87.2l-2.533-1.332Z" transform="translate(-587.203 -63.187)" fill="#fff"/>
          </g>
        </g>
        <g id="Grupo_91090" data-name="Grupo 91090" transform="translate(169.115)">
          <path id="Trazado_138660" data-name="Trazado 138660" d="M640.076,66.681l5.859-11.872L651.8,66.681l13.1,1.9-9.481,9.241,2.238,13.049-11.719-6.161-11.719,6.161,2.238-13.049-9.481-9.241Z" transform="translate(-626.975 -54.809)" fill="#fff"/>
          <g id="Grupo_91088" data-name="Grupo 91088" transform="translate(0.365 0.125)">
            <path id="Trazado_138661" data-name="Trazado 138661" d="M657.463,90.318l-11.494-6.043-11.493,6.043,2.194-12.8-9.3-9.063,12.85-1.868,5.746-11.644,5.747,11.644,12.85,1.868-9.3,9.063ZM645.969,81.95l8.76,4.6L653.055,76.8l7.087-6.907-9.794-1.423L645.969,59.6l-4.379,8.874L631.8,69.894l7.085,6.908-1.673,9.752Z" transform="translate(-627.373 -54.945)" fill="#fff"/>
          </g>
          <g id="Grupo_91089" data-name="Grupo 91089" transform="translate(5.886 7.104)">
            <path id="Trazado_138662" data-name="Trazado 138662" d="M655.185,77.809l1.346,7.849L639.417,68.543l2.513-.365,2.767-5.606,12.893,12.893Z" transform="translate(-633.918 -62.572)" fill="#fff"/>
            <path id="Trazado_138663" data-name="Trazado 138663" d="M633.407,69.957l1.049-.152L651.848,87.2l-2.533-1.332Z" transform="translate(-633.407 -63.187)" fill="#fff"/>
          </g>
        </g>
      </g>
    </g>
    <g id="Grupo_95353" data-name="Grupo 95353" transform="translate(-11411.932 -11916.572)">
      <rect id="Rect치ngulo_35161-2" data-name="Rect치ngulo 35161" width="233.825" height="66.185" rx="20.257" transform="translate(661.344 105.539) rotate(-180)" fill="#373660"/>
      <g id="Grupo_91091-2" data-name="Grupo 91091" transform="translate(440.913 53.496)">
        <g id="Grupo_91078-2" data-name="Grupo 91078">
          <path id="Trazado_138644-2" data-name="Trazado 138644" d="M455.259,66.681l5.859-11.872,5.859,11.872,13.1,1.9L470.6,77.826l2.238,13.049-11.719-6.161L449.4,90.875l2.238-13.049-9.481-9.241Z" transform="translate(-442.157 -54.809)" fill="#ffc91f"/>
          <g id="Grupo_91076-2" data-name="Grupo 91076" transform="translate(0.365 0.125)">
            <path id="Trazado_138645-2" data-name="Trazado 138645" d="M472.645,90.318l-11.493-6.043-11.495,6.043,2.2-12.8-9.3-9.063,12.851-1.868,5.746-11.644L466.9,66.589l12.85,1.868-9.3,9.063ZM446.98,69.894l7.086,6.908-1.674,9.752,8.76-4.6,8.759,4.6L468.237,76.8l7.086-6.908-9.792-1.423L461.152,59.6l-4.379,8.874Z" transform="translate(-442.555 -54.945)" fill="#ffe578"/>
          </g>
          <g id="Grupo_91077-2" data-name="Grupo 91077" transform="translate(5.886 7.104)">
            <path id="Trazado_138646-2" data-name="Trazado 138646" d="M470.367,77.809l1.346,7.849L454.6,68.543l2.513-.365,2.767-5.606,12.893,12.893Z" transform="translate(-449.1 -62.572)" fill="#ffe578"/>
            <path id="Trazado_138647-2" data-name="Trazado 138647" d="M448.589,69.957l1.049-.152L467.03,87.2,464.5,85.864Z" transform="translate(-448.589 -63.187)" fill="#ffe578"/>
          </g>
        </g>
        <g id="Grupo_91081-2" data-name="Grupo 91081" transform="translate(42.279)">
          <path id="Trazado_138648-2" data-name="Trazado 138648" d="M501.463,66.681l5.859-11.872,5.859,11.872,13.1,1.9L516.8,77.826l2.238,13.049-11.719-6.161L495.6,90.875l2.238-13.049-9.481-9.241Z" transform="translate(-488.361 -54.809)" fill="#fff"/>
          <g id="Grupo_91079-2" data-name="Grupo 91079" transform="translate(0.364 0.125)">
            <path id="Trazado_138649-2" data-name="Trazado 138649" d="M518.85,90.318l-11.494-6.043-11.494,6.043,2.2-12.8-9.3-9.063,12.851-1.868,5.746-11.644L513.1,66.589l12.851,1.868-9.3,9.063ZM507.356,81.95l8.759,4.6L514.442,76.8l7.086-6.907-9.793-1.423L507.356,59.6l-4.379,8.874-9.793,1.423L500.27,76.8,498.6,86.554Z" transform="translate(-488.759 -54.945)" fill="#fff"/>
          </g>
          <g id="Grupo_91080-2" data-name="Grupo 91080" transform="translate(5.886 7.104)">
            <path id="Trazado_138650-2" data-name="Trazado 138650" d="M516.572,77.809l1.346,7.849L500.8,68.543l2.513-.365,2.767-5.606,12.893,12.893Z" transform="translate(-495.304 -62.572)" fill="#fff"/>
            <path id="Trazado_138651-2" data-name="Trazado 138651" d="M494.794,69.957l1.049-.152L513.235,87.2,510.7,85.864Z" transform="translate(-494.794 -63.187)" fill="#fff"/>
          </g>
        </g>
        <g id="Grupo_91084-2" data-name="Grupo 91084" transform="translate(84.558)">
          <path id="Trazado_138652-2" data-name="Trazado 138652" d="M547.667,66.681l5.859-11.872,5.859,11.872,13.1,1.9-9.481,9.241,2.238,13.049-11.719-6.161-11.719,6.161,2.238-13.049-9.481-9.241Z" transform="translate(-534.566 -54.809)" fill="#fff"/>
          <g id="Grupo_91082-2" data-name="Grupo 91082" transform="translate(0.365 0.125)">
            <path id="Trazado_138653-2" data-name="Trazado 138653" d="M542.067,90.318l2.2-12.8-9.3-9.063,12.85-1.868,5.746-11.644,5.746,11.644,12.851,1.868-9.3,9.063,2.2,12.8L553.56,84.276ZM553.56,81.95l8.759,4.6L560.646,76.8l7.086-6.907-9.793-1.423L553.56,59.6l-4.379,8.874-9.792,1.423,7.086,6.908L544.8,86.554Z" transform="translate(-534.964 -54.945)" fill="#fff"/>
          </g>
          <g id="Grupo_91083-2" data-name="Grupo 91083" transform="translate(5.886 7.104)">
            <path id="Trazado_138654-2" data-name="Trazado 138654" d="M562.776,77.809l1.346,7.849L547.008,68.543l2.513-.365,2.767-5.606L565.18,75.465Z" transform="translate(-541.509 -62.572)" fill="#fff"/>
            <path id="Trazado_138655-2" data-name="Trazado 138655" d="M541,69.957l1.049-.152L559.439,87.2l-2.533-1.332Z" transform="translate(-540.998 -63.187)" fill="#fff"/>
          </g>
        </g>
        <g id="Grupo_91087-2" data-name="Grupo 91087" transform="translate(126.836)">
          <path id="Trazado_138656-2" data-name="Trazado 138656" d="M593.872,66.681l5.859-11.872,5.859,11.872,13.1,1.9-9.481,9.241,2.238,13.049-11.719-6.161-11.719,6.161,2.238-13.049-9.481-9.241Z" transform="translate(-580.77 -54.809)" fill="#fff"/>
          <g id="Grupo_91085-2" data-name="Grupo 91085" transform="translate(0.364 0.125)">
            <path id="Trazado_138657-2" data-name="Trazado 138657" d="M611.259,90.318l-11.494-6.043-11.493,6.043,2.194-12.8-9.3-9.063,12.851-1.868,5.746-11.644,5.746,11.644,12.85,1.868-9.3,9.063ZM585.593,69.894l7.086,6.907-1.673,9.753,8.759-4.6,8.759,4.6L606.851,76.8l7.085-6.908-9.792-1.423L599.765,59.6l-4.379,8.874Z" transform="translate(-581.168 -54.945)" fill="#fff"/>
          </g>
          <g id="Grupo_91086-2" data-name="Grupo 91086" transform="translate(5.886 7.104)">
            <path id="Trazado_138658-2" data-name="Trazado 138658" d="M608.981,77.809l1.346,7.849L593.213,68.543l2.513-.365,2.766-5.606,12.893,12.893Z" transform="translate(-587.713 -62.572)" fill="#fff"/>
            <path id="Trazado_138659-2" data-name="Trazado 138659" d="M587.2,69.957l1.049-.152L605.644,87.2l-2.533-1.332Z" transform="translate(-587.203 -63.187)" fill="#fff"/>
          </g>
        </g>
        <g id="Grupo_91090-2" data-name="Grupo 91090" transform="translate(169.115)">
          <path id="Trazado_138660-2" data-name="Trazado 138660" d="M640.076,66.681l5.859-11.872L651.8,66.681l13.1,1.9-9.481,9.241,2.238,13.049-11.719-6.161-11.719,6.161,2.238-13.049-9.481-9.241Z" transform="translate(-626.975 -54.809)" fill="#fff"/>
          <g id="Grupo_91088-2" data-name="Grupo 91088" transform="translate(0.365 0.125)">
            <path id="Trazado_138661-2" data-name="Trazado 138661" d="M657.463,90.318l-11.494-6.043-11.493,6.043,2.194-12.8-9.3-9.063,12.85-1.868,5.746-11.644,5.747,11.644,12.85,1.868-9.3,9.063ZM645.969,81.95l8.76,4.6L653.055,76.8l7.087-6.907-9.794-1.423L645.969,59.6l-4.379,8.874L631.8,69.894l7.085,6.908-1.673,9.752Z" transform="translate(-627.373 -54.945)" fill="#fff"/>
          </g>
          <g id="Grupo_91089-2" data-name="Grupo 91089" transform="translate(5.886 7.104)">
            <path id="Trazado_138662-2" data-name="Trazado 138662" d="M655.185,77.809l1.346,7.849L639.417,68.543l2.513-.365,2.767-5.606,12.893,12.893Z" transform="translate(-633.918 -62.572)" fill="#fff"/>
            <path id="Trazado_138663-2" data-name="Trazado 138663" d="M633.407,69.957l1.049-.152L651.848,87.2l-2.533-1.332Z" transform="translate(-633.407 -63.187)" fill="#fff"/>
          </g>
        </g>
        <g id="Grupo_95364" data-name="Grupo 95364" transform="translate(42.279)">
          <path id="Trazado_138644-3" data-name="Trazado 138644" d="M455.259,66.681l5.859-11.872,5.859,11.872,13.1,1.9L470.6,77.826l2.238,13.049-11.719-6.161L449.4,90.875l2.238-13.049-9.481-9.241Z" transform="translate(-442.157 -54.809)" fill="#ffc91f"/>
          <g id="Grupo_91076-3" data-name="Grupo 91076" transform="translate(0.365 0.125)">
            <path id="Trazado_138645-3" data-name="Trazado 138645" d="M472.645,90.318l-11.493-6.043-11.495,6.043,2.2-12.8-9.3-9.063,12.851-1.868,5.746-11.644L466.9,66.589l12.85,1.868-9.3,9.063ZM446.98,69.894l7.086,6.908-1.674,9.752,8.76-4.6,8.759,4.6L468.237,76.8l7.086-6.908-9.792-1.423L461.152,59.6l-4.379,8.874Z" transform="translate(-442.555 -54.945)" fill="#ffe578"/>
          </g>
          <g id="Grupo_91077-3" data-name="Grupo 91077" transform="translate(5.886 7.104)">
            <path id="Trazado_138646-3" data-name="Trazado 138646" d="M470.367,77.809l1.346,7.849L454.6,68.543l2.513-.365,2.767-5.606,12.893,12.893Z" transform="translate(-449.1 -62.572)" fill="#ffe578"/>
            <path id="Trazado_138647-3" data-name="Trazado 138647" d="M448.589,69.957l1.049-.152L467.03,87.2,464.5,85.864Z" transform="translate(-448.589 -63.187)" fill="#ffe578"/>
          </g>
        </g>
        <g id="Grupo_95365" data-name="Grupo 95365" transform="translate(84.558)">
          <path id="Trazado_138644-4" data-name="Trazado 138644" d="M455.259,66.681l5.859-11.872,5.859,11.872,13.1,1.9L470.6,77.826l2.238,13.049-11.719-6.161L449.4,90.875l2.238-13.049-9.481-9.241Z" transform="translate(-442.157 -54.809)" fill="#ffc91f"/>
          <g id="Grupo_91076-4" data-name="Grupo 91076" transform="translate(0.365 0.125)">
            <path id="Trazado_138645-4" data-name="Trazado 138645" d="M472.645,90.318l-11.493-6.043-11.495,6.043,2.2-12.8-9.3-9.063,12.851-1.868,5.746-11.644L466.9,66.589l12.85,1.868-9.3,9.063ZM446.98,69.894l7.086,6.908-1.674,9.752,8.76-4.6,8.759,4.6L468.237,76.8l7.086-6.908-9.792-1.423L461.152,59.6l-4.379,8.874Z" transform="translate(-442.555 -54.945)" fill="#ffe578"/>
          </g>
          <g id="Grupo_91077-4" data-name="Grupo 91077" transform="translate(5.886 7.104)">
            <path id="Trazado_138646-4" data-name="Trazado 138646" d="M470.367,77.809l1.346,7.849L454.6,68.543l2.513-.365,2.767-5.606,12.893,12.893Z" transform="translate(-449.1 -62.572)" fill="#ffe578"/>
            <path id="Trazado_138647-4" data-name="Trazado 138647" d="M448.589,69.957l1.049-.152L467.03,87.2,464.5,85.864Z" transform="translate(-448.589 -63.187)" fill="#ffe578"/>
          </g>
        </g>
      </g>
    </g>
  </g>
</svg>
