<svg xmlns="http://www.w3.org/2000/svg" width="295" height="483" viewBox="0 0 295 483">
  <g id="Grupo_95358" data-name="Grupo 95358" transform="translate(9621 9821)">
    <rect id="Rectángulo_35206" data-name="Rectángulo 35206" width="295" height="483" rx="10" transform="translate(-9621 -9821)" fill="#ffc967"/>
    <path id="Trazado_147291" data-name="Trazado 147291" d="M8.9-5.432H4.052v3.059h5.73V0H.967V-12.8H9.8v2.382H4.052v2.7H8.9Zm6.979,2.76a.684.684,0,0,0-.4-.606,6.016,6.016,0,0,0-1.5-.475A6.853,6.853,0,0,1,12.155-4.4a3.062,3.062,0,0,1-1.1-.971,2.319,2.319,0,0,1-.378-1.31A2.628,2.628,0,0,1,11.76-8.837a4.453,4.453,0,0,1,2.83-.848,4.934,4.934,0,0,1,3.023.853,2.666,2.666,0,0,1,1.143,2.241H15.785q0-1.143-1.2-1.143a1.194,1.194,0,0,0-.782.259.8.8,0,0,0-.316.646.737.737,0,0,0,.387.642,3.654,3.654,0,0,0,1.235.4,10.671,10.671,0,0,1,1.49.378A2.706,2.706,0,0,1,18.738-2.76,2.491,2.491,0,0,1,17.583-.642,5.068,5.068,0,0,1,14.59.176a5.172,5.172,0,0,1-2.18-.439,3.645,3.645,0,0,1-1.494-1.2A2.707,2.707,0,0,1,10.38-3.05h2.769a1.145,1.145,0,0,0,.439.962,1.808,1.808,0,0,0,1.081.3,1.422,1.422,0,0,0,.91-.246A.787.787,0,0,0,15.882-2.672Zm7.69-9.2V-9.51h1.564v2.057H23.572V-3.1a1.111,1.111,0,0,0,.193.747,1.037,1.037,0,0,0,.765.211,4.345,4.345,0,0,0,.738-.053V-.079A5.466,5.466,0,0,1,23.6.176,3.1,3.1,0,0,1,21.34-.545a2.954,2.954,0,0,1-.729-2.188v-4.72H19.4V-9.51H20.61v-2.364Zm8.481,5.045-.976-.07a1.752,1.752,0,0,0-1.793.879V0H26.323V-9.51H29.1l.1,1.222a2.294,2.294,0,0,1,2.083-1.4,2.888,2.888,0,0,1,.826.105Zm6.732,5.8a3.054,3.054,0,0,1-2.54,1.2,3,3,0,0,1-2.369-.91,3.826,3.826,0,0,1-.8-2.615V-9.51h2.962v6.179a1.065,1.065,0,0,0,1.187,1.222,1.548,1.548,0,0,0,1.45-.729V-9.51h2.979V0H38.874Zm8.508-1.081a1.317,1.317,0,0,0,.967-.338,1.241,1.241,0,0,0,.334-.945h2.777A3.288,3.288,0,0,1,50.251-.826a4.168,4.168,0,0,1-2.887,1,4.22,4.22,0,0,1-3.27-1.3,5.125,5.125,0,0,1-1.2-3.6v-.123A5.792,5.792,0,0,1,43.431-7.4a3.872,3.872,0,0,1,1.534-1.7,4.573,4.573,0,0,1,2.373-.593,4.116,4.116,0,0,1,2.944,1.028,3.647,3.647,0,0,1,1.09,2.786H48.595A1.626,1.626,0,0,0,48.234-7a1.244,1.244,0,0,0-.967-.4q-1.151,0-1.345,1.468a10.357,10.357,0,0,0-.062,1.283A4.068,4.068,0,0,0,46.2-2.663,1.187,1.187,0,0,0,47.294-2.109Zm8.78-9.765V-9.51h1.564v2.057H56.074V-3.1a1.111,1.111,0,0,0,.193.747,1.037,1.037,0,0,0,.765.211,4.345,4.345,0,0,0,.738-.053V-.079A5.466,5.466,0,0,1,56.1.176a3.1,3.1,0,0,1-2.259-.721,2.954,2.954,0,0,1-.729-2.188v-4.72H51.9V-9.51h1.213v-2.364ZM64.468-1.028a3.054,3.054,0,0,1-2.54,1.2,3,3,0,0,1-2.369-.91,3.826,3.826,0,0,1-.8-2.615V-9.51h2.962v6.179A1.065,1.065,0,0,0,62.9-2.109a1.548,1.548,0,0,0,1.45-.729V-9.51h2.979V0H64.556Zm10.239-5.8-.976-.07a1.752,1.752,0,0,0-1.793.879V0H68.977V-9.51h2.777l.1,1.222a2.294,2.294,0,0,1,2.083-1.4,2.888,2.888,0,0,1,.826.105ZM80.868,0a3.344,3.344,0,0,1-.281-.853A2.754,2.754,0,0,1,78.3.176a3.374,3.374,0,0,1-2.285-.813,2.588,2.588,0,0,1-.94-2.043,2.66,2.66,0,0,1,1.143-2.338,5.821,5.821,0,0,1,3.322-.791h.914v-.5q0-1.316-1.134-1.316a.927.927,0,0,0-1.055,1.042H75.3a2.655,2.655,0,0,1,1.173-2.239,4.931,4.931,0,0,1,2.993-.86,4.323,4.323,0,0,1,2.874.888,3.086,3.086,0,0,1,1.081,2.435v4.21a4.311,4.311,0,0,0,.4,2V0ZM79.014-1.934a1.652,1.652,0,0,0,.918-.237,1.487,1.487,0,0,0,.523-.536V-4.228h-.861q-1.547,0-1.547,1.389a.848.848,0,0,0,.272.655A.986.986,0,0,0,79.014-1.934ZM93.34-3.524l1.5-5.985h3.12L94.86,0H91.837l-3.1-9.51h3.129Zm10.107,3.7a4.889,4.889,0,0,1-3.542-1.305,4.507,4.507,0,0,1-1.354-3.4v-.246a5.84,5.84,0,0,1,.541-2.575,3.955,3.955,0,0,1,1.578-1.727,4.763,4.763,0,0,1,2.461-.611,4.117,4.117,0,0,1,3.164,1.244,4.887,4.887,0,0,1,1.16,3.467v1.151h-5.889a2.135,2.135,0,0,0,.694,1.257,2.066,2.066,0,0,0,1.389.457,2.662,2.662,0,0,0,2.2-.984l1.354,1.6a3.784,3.784,0,0,1-1.569,1.217A5.3,5.3,0,0,1,103.447.176ZM103.113-7.4q-1.3,0-1.547,1.723h2.988v-.229a1.467,1.467,0,0,0-.36-1.1A1.434,1.434,0,0,0,103.113-7.4Zm11.285.571-.976-.07a1.752,1.752,0,0,0-1.793.879V0h-2.962V-9.51h2.777l.1,1.222a2.294,2.294,0,0,1,2.083-1.4,2.888,2.888,0,0,1,.826.105Zm4.957-5.045V-9.51h1.564v2.057h-1.564V-3.1a1.111,1.111,0,0,0,.193.747,1.037,1.037,0,0,0,.765.211,4.345,4.345,0,0,0,.738-.053V-.079a5.466,5.466,0,0,1-1.67.255,3.1,3.1,0,0,1-2.259-.721,2.954,2.954,0,0,1-.729-2.188v-4.72h-1.213V-9.51h1.213v-2.364ZM125.209,0h-2.971V-9.51h2.971Zm-3.146-11.962A1.322,1.322,0,0,1,122.52-13a1.724,1.724,0,0,1,1.187-.4,1.724,1.724,0,0,1,1.187.4,1.322,1.322,0,0,1,.457,1.037,1.322,1.322,0,0,1-.457,1.037,1.724,1.724,0,0,1-1.187.4,1.724,1.724,0,0,1-1.187-.4A1.322,1.322,0,0,1,122.063-11.962Zm8.991,9.853a1.317,1.317,0,0,0,.967-.338,1.241,1.241,0,0,0,.334-.945h2.777a3.288,3.288,0,0,1-1.121,2.566,4.168,4.168,0,0,1-2.887,1,4.22,4.22,0,0,1-3.27-1.3,5.125,5.125,0,0,1-1.2-3.6v-.123a5.792,5.792,0,0,1,.532-2.544,3.872,3.872,0,0,1,1.534-1.7,4.573,4.573,0,0,1,2.373-.593,4.116,4.116,0,0,1,2.944,1.028,3.647,3.647,0,0,1,1.09,2.786h-2.777A1.626,1.626,0,0,0,131.994-7a1.244,1.244,0,0,0-.967-.4q-1.151,0-1.345,1.468a10.357,10.357,0,0,0-.062,1.283,4.068,4.068,0,0,0,.343,1.986A1.187,1.187,0,0,0,131.054-2.109ZM141.741,0a3.344,3.344,0,0,1-.281-.853A2.754,2.754,0,0,1,139.175.176a3.374,3.374,0,0,1-2.285-.813,2.588,2.588,0,0,1-.94-2.043,2.66,2.66,0,0,1,1.143-2.338,5.821,5.821,0,0,1,3.322-.791h.914v-.5q0-1.316-1.134-1.316a.927.927,0,0,0-1.055,1.042h-2.962a2.655,2.655,0,0,1,1.173-2.239,4.931,4.931,0,0,1,2.993-.86,4.323,4.323,0,0,1,2.874.888A3.086,3.086,0,0,1,144.3-6.363v4.21a4.311,4.311,0,0,0,.4,2V0Zm-1.854-1.934a1.652,1.652,0,0,0,.918-.237,1.487,1.487,0,0,0,.523-.536V-4.228h-.861q-1.547,0-1.547,1.389a.848.848,0,0,0,.272.655A.986.986,0,0,0,139.887-1.934ZM149.063,0h-2.971V-13.5h2.971Z" transform="translate(-9557 -9369)" fill="#12263f"/>
    <g id="Grupo_95354" data-name="Grupo 95354">
      <rect id="Rectángulo_35509" data-name="Rectángulo 35509" width="272" height="383" rx="20" transform="translate(-9609 -9787)" fill="#fff"/>
      <g id="Grupo_93934" data-name="Grupo 93934" transform="translate(-9809.652 -9945.426)">
        <g id="Grupo_93933" data-name="Grupo 93933" transform="translate(277.859 228.759)">
          <g id="Grupo_93927" data-name="Grupo 93927" transform="translate(17.952)">
            <path id="Trazado_144185" data-name="Trazado 144185" d="M335.5,310.265a40.753,40.753,0,1,1,40.753-40.753A40.8,40.8,0,0,1,335.5,310.265Zm0-79.38a38.627,38.627,0,1,0,38.627,38.627A38.671,38.671,0,0,0,335.5,230.884Z" transform="translate(-294.751 -228.759)" fill="#01cc9b"/>
            <path id="Trazado_144186" data-name="Trazado 144186" d="M367.619,268.423a32.754,32.754,0,1,1-32.754-32.754A32.753,32.753,0,0,1,367.619,268.423Z" transform="translate(-294.289 -228.325)" fill="#01cc9b"/>
            <g id="Grupo_93926" data-name="Grupo 93926" transform="translate(12.261 17.987)">
              <path id="Trazado_144187" data-name="Trazado 144187" d="M333.826,285.36c3.945,0,6.9-2.522,9.029-6.188a25.679,25.679,0,0,0,3.124-9.946,52.786,52.786,0,0,1-3.906-10.982c-.186-.169-.372-.338-.569-.5a34.577,34.577,0,0,0-19.728,7.247,12.357,12.357,0,0,0-.225,2.321,25.422,25.422,0,0,0,3.237,11.855C326.922,282.838,329.876,285.36,333.826,285.36Z" transform="translate(-305.331 -244.927)" fill="#fff"/>
              <path id="Trazado_144188" data-name="Trazado 144188" d="M359.7,294.63c-1.014-3.076-3.59-4.533-6.756-5.522-3.452-1.079-7.189-1.23-9.7-2.182a3.7,3.7,0,0,1-1.989-1.995c-.022-.05-.044-.1-.065-.151h0a11.676,11.676,0,0,1-13.145.053c-.032.071-.065.14-.1.209a3.908,3.908,0,0,1-2.035,1.884c-2.51.952-6.247,1.1-9.7,2.182-3.164.988-5.741,2.447-6.758,5.523C323.42,306.569,345.741,306.569,359.7,294.63Z" transform="translate(-306.09 -243.231)" fill="#ccc"/>
              <path id="Trazado_144189" data-name="Trazado 144189" d="M363.235,297.287c-.893-4.157-3.86-6.572-7.084-7.982,1.285-13.651,1.723-25.645-5.058-34.772-6.861-9.236-16.228-8.84-16.228-8.84s-14.248-.923-19.394,15.172c-4.882,15.273-2.4,27.287-2.134,28.477a12.136,12.136,0,0,0-6.018,5.207,5.561,5.561,0,0,0-1.029,3,1.581,1.581,0,0,0,.519,1.25c9.766,8.83,23.411,12.06,36.023,9.707.539-.1,1.077-.208,1.611-.329a40.554,40.554,0,0,0,18.326-9.394A1.575,1.575,0,0,0,363.235,297.287Zm-40.5-31.536a34.577,34.577,0,0,1,19.728-7.247c.2.157.383.326.569.5a52.786,52.786,0,0,0,3.906,10.982,25.679,25.679,0,0,1-3.124,9.946c-2.133,3.666-5.084,6.188-9.029,6.188s-6.9-2.522-9.036-6.189a25.422,25.422,0,0,1-3.237-11.855A12.357,12.357,0,0,1,322.735,265.752Zm21.7,20.511a6.3,6.3,0,0,0,.978.392,6.836,6.836,0,0,1-.842-.236C344.551,286.411,344.514,286.408,344.432,286.263Zm-28.018,5.3c3.451-1.079,7.187-1.23,9.7-2.182a3.908,3.908,0,0,0,2.035-1.884c.036-.069.069-.138.1-.209a11.676,11.676,0,0,0,13.145-.053h0c.021.051.042.1.065.151a3.7,3.7,0,0,0,1.989,1.995c2.511.952,6.249,1.1,9.7,2.182,3.166.989,5.742,2.446,6.756,5.522-13.963,11.94-36.284,11.94-50.247,0C310.673,294.008,313.25,292.549,316.414,291.56Z" transform="translate(-306.288 -245.684)" fill="#5059ab"/>
            </g>
          </g>
          <g id="Grupo_93928" data-name="Grupo 93928" transform="translate(24.615 81.506)">
            <path id="Trazado_144190" data-name="Trazado 144190" d="M368.377,336.883h-1.063v-10a6.71,6.71,0,0,0-6.7-6.7H308.785a6.71,6.71,0,0,0-6.7,6.7v10h-1.063v-10a7.774,7.774,0,0,1,7.764-7.766h51.828a7.775,7.775,0,0,1,7.764,7.766Z" transform="translate(-301.021 -304.596)" fill="#01cc9b"/>
            <rect id="Rectángulo_35512" data-name="Rectángulo 35512" width="1.063" height="85.127" transform="translate(33.557)" fill="#01cc9b"/>
          </g>
          <g id="Grupo_93930" data-name="Grupo 93930" transform="translate(23.419 156.357)">
            <circle id="Elipse_4482" data-name="Elipse 4482" cx="24.807" cy="24.807" r="24.807" transform="translate(0 35.083) rotate(-45)" fill="#34d6af"/>
            <g id="Grupo_93929" data-name="Grupo 93929" transform="translate(16.385 19.216)">
              <path id="Trazado_144191" data-name="Trazado 144191" d="M333.61,420.331c2.621,0,4.583-1.675,6-4.112a17.068,17.068,0,0,0,2.077-6.609,34.972,34.972,0,0,1-2.6-7.3c-.124-.113-.248-.225-.377-.329A22.973,22.973,0,0,0,325.6,406.8a8.176,8.176,0,0,0-.15,1.542,16.9,16.9,0,0,0,2.151,7.878C329.024,418.655,330.987,420.331,333.61,420.331Z" transform="translate(-314.677 -393.465)" fill="#fff"/>
              <path id="Trazado_144192" data-name="Trazado 144192" d="M317.419,426.49c9.278,7.933,24.109,7.932,33.387,0-.674-2.043-2.386-3.012-4.489-3.67-2.293-.716-4.777-.816-6.447-1.45a2.451,2.451,0,0,1-1.321-1.325c-.015-.033-.03-.067-.044-.1h0a7.76,7.76,0,0,1-8.734.036c-.021.046-.044.092-.067.138a2.6,2.6,0,0,1-1.352,1.252c-1.669.633-4.151.733-6.443,1.449C319.807,423.479,318.094,424.448,317.419,426.49Z" transform="translate(-315.182 -392.338)" fill="#e6e6e6"/>
              <path id="Trazado_144193" data-name="Trazado 144193" d="M353.152,428.256a7.511,7.511,0,0,0-4.708-5.3c.854-9.07,1.145-17.04-3.36-23.1a13.7,13.7,0,0,0-10.783-5.873s-9.468-.613-12.886,10.081A38.581,38.581,0,0,0,320,422.978a10.108,10.108,0,0,0-1.785,1.034c-.034.024-.068.046-.1.071A7.087,7.087,0,0,0,316,426.438a3.687,3.687,0,0,0-.683,1.991,1.045,1.045,0,0,0,.344.83,28.143,28.143,0,0,0,23.874,6.456c.34-.064.675-.15,1.012-.224a26.928,26.928,0,0,0,12.3-6.244A1.042,1.042,0,0,0,353.152,428.256ZM326.241,407.3a22.973,22.973,0,0,1,13.109-4.815c.13.1.253.217.377.329a34.972,34.972,0,0,0,2.6,7.3,17.068,17.068,0,0,1-2.077,6.609c-1.417,2.437-3.378,4.112-6,4.112s-4.587-1.676-6-4.112a16.9,16.9,0,0,1-2.151-7.878A8.176,8.176,0,0,1,326.241,407.3Zm14.417,13.629a4.434,4.434,0,0,0,.649.261,4.746,4.746,0,0,1-.559-.158C340.736,421.03,340.711,421.027,340.658,420.931Zm-10.821.818c.023-.046.046-.092.067-.138a7.76,7.76,0,0,0,8.734-.036h0c.014.034.029.068.044.1A2.451,2.451,0,0,0,340,423c1.67.633,4.153.733,6.447,1.45,2.1.658,3.815,1.627,4.489,3.67-9.278,7.932-24.109,7.933-33.387,0,.675-2.043,2.388-3.012,4.491-3.671,2.292-.715,4.775-.815,6.443-1.449A2.6,2.6,0,0,0,329.837,421.749Z" transform="translate(-315.314 -393.968)" fill="#5059ab"/>
            </g>
          </g>
          <g id="Grupo_93931" data-name="Grupo 93931" transform="translate(66.295 112.693)">
            <path id="Trazado_144194" data-name="Trazado 144194" d="M390.532,359.944A25.146,25.146,0,1,1,365.385,334.8,25.146,25.146,0,0,1,390.532,359.944Z" transform="translate(-340.24 -334.799)" fill="#34d6af"/>
            <path id="Trazado_144195" data-name="Trazado 144195" d="M358.3,366.073c1.439,2.471,3.429,4.171,6.092,4.171s4.649-1.7,6.087-4.171a17.157,17.157,0,0,0,2.181-7.994,8.24,8.24,0,0,0-3.983-7.067,16.79,16.79,0,0,1-12.21,4.694,8.289,8.289,0,0,0-.348,2.373A17.157,17.157,0,0,0,358.3,366.073Z" transform="translate(-339.244 -333.782)" fill="#fff"/>
            <path id="Trazado_144196" data-name="Trazado 144196" d="M347.965,376.457c9.413,8.048,24.459,8.048,33.872,0-.682-2.074-2.42-3.055-4.554-3.724-2.326-.727-4.846-.829-6.539-1.47a2.492,2.492,0,0,1-1.341-1.345c-.015-.033-.03-.067-.044-.1h0a7.876,7.876,0,0,1-8.861.036c-.021.048-.044.095-.068.14a2.636,2.636,0,0,1-1.372,1.271c-1.693.641-4.212.743-6.537,1.47C350.388,373.4,348.65,374.383,347.965,376.457Z" transform="translate(-339.755 -332.602)" fill="#e6e6e6"/>
            <path id="Trazado_144197" data-name="Trazado 144197" d="M384.217,378.248c-.728-3.394-3.508-5.068-6.164-5.9s-5.466-1.068-6.42-1.429c-.015-.006-.051,0-.148-.219a3.248,3.248,0,0,1-.2-.784,13.065,13.065,0,0,0,1.682-2.3,17.8,17.8,0,0,0,1.427-3.161l.01.088a3.958,3.958,0,0,0,2.648-3.48c.468-2.96-1.195-3.686-1.195-3.686s1.142-3.793-.052-6.7a4.976,4.976,0,0,0-3.375-3.271,7.884,7.884,0,0,0-6.959-3.947c-5.038-.052-12.361,4.466-11.841,13.659,0,0-2.13.674-1.713,3.945a4.085,4.085,0,0,0,3.78,3.48c.087.25.179.5.277.749l.941,2a13.2,13.2,0,0,0,1.95,2.713,2.593,2.593,0,0,1-.2.664c-.1.192-.143.217-.23.249h0c-.954.361-3.762.6-6.417,1.429a11.7,11.7,0,0,0-3.072,1.435l0,0a7.386,7.386,0,0,0-2.419,2.614,3.749,3.749,0,0,0-.694,2.02,1.066,1.066,0,0,0,.35.842,28.583,28.583,0,0,0,24.849,6.413l.157-.036a27.341,27.341,0,0,0,12.717-6.387A1.059,1.059,0,0,0,384.217,378.248Zm-14.9-26.762a8.24,8.24,0,0,1,3.983,7.067,17.157,17.157,0,0,1-2.181,7.994c-1.438,2.472-3.427,4.171-6.087,4.171s-4.653-1.7-6.092-4.171a17.157,17.157,0,0,1-2.181-7.994,8.289,8.289,0,0,1,.348-2.373A16.79,16.79,0,0,0,369.322,351.486Zm-8.758,20.16c.024-.046.047-.092.068-.14a7.876,7.876,0,0,0,8.861-.036h0c.014.035.029.069.044.1a2.492,2.492,0,0,0,1.341,1.345c1.693.641,4.213.743,6.539,1.47,2.134.668,3.872,1.649,4.554,3.724-9.413,8.048-24.459,8.048-33.872,0,.685-2.074,2.423-3.056,4.556-3.724,2.325-.727,4.844-.829,6.537-1.47A2.636,2.636,0,0,0,360.564,371.646Z" transform="translate(-339.889 -334.256)" fill="#5059ab"/>
          </g>
          <g id="Grupo_93932" data-name="Grupo 93932" transform="translate(0 112.693)">
            <path id="Trazado_144198" data-name="Trazado 144198" d="M328.151,359.944A25.146,25.146,0,1,1,303.005,334.8,25.146,25.146,0,0,1,328.151,359.944Z" transform="translate(-277.859 -334.799)" fill="#34d6af"/>
            <path id="Trazado_144199" data-name="Trazado 144199" d="M295.92,366.073c1.438,2.471,3.429,4.17,6.092,4.17s4.649-1.7,6.086-4.17a17.146,17.146,0,0,0,2.182-7.994,8.241,8.241,0,0,0-3.984-7.067,16.794,16.794,0,0,1-12.21,4.694,8.323,8.323,0,0,0-.348,2.373A17.146,17.146,0,0,0,295.92,366.073Z" transform="translate(-276.863 -333.782)" fill="#fff"/>
            <path id="Trazado_144200" data-name="Trazado 144200" d="M285.584,376.457c9.413,8.048,24.46,8.048,33.873,0-.683-2.074-2.421-3.055-4.555-3.724-2.326-.727-4.846-.829-6.539-1.47a2.492,2.492,0,0,1-1.341-1.345c-.015-.033-.029-.067-.044-.1h0a7.875,7.875,0,0,1-8.861.036c-.021.048-.044.095-.068.14a2.638,2.638,0,0,1-1.371,1.271c-1.693.641-4.212.743-6.538,1.47C288.007,373.4,286.271,374.383,285.584,376.457Z" transform="translate(-277.374 -332.602)" fill="#e6e6e6"/>
            <path id="Trazado_144201" data-name="Trazado 144201" d="M315.672,372.35c-2.656-.831-5.466-1.068-6.419-1.429-.016-.006-.052,0-.149-.219a3.245,3.245,0,0,1-.2-.784,13.065,13.065,0,0,0,1.682-2.3,17.878,17.878,0,0,0,1.428-3.161l.009.088a3.957,3.957,0,0,0,2.648-3.48c.468-2.96-1.195-3.686-1.195-3.686s1.142-3.793-.052-6.7a4.976,4.976,0,0,0-3.375-3.271,7.884,7.884,0,0,0-6.959-3.947c-5.038-.052-12.361,4.466-11.841,13.659,0,0-2.13.674-1.714,3.945a4.087,4.087,0,0,0,3.781,3.48c.087.25.179.5.277.749l.94,2a13.16,13.16,0,0,0,1.95,2.713,2.593,2.593,0,0,1-.2.664c-.1.192-.143.217-.23.249h0c-.953.361-3.761.6-6.418,1.429a11.707,11.707,0,0,0-3.071,1.435l0,0a7.368,7.368,0,0,0-2.419,2.614,3.748,3.748,0,0,0-.694,2.02,1.069,1.069,0,0,0,.35.842,28.583,28.583,0,0,0,24.849,6.413l.157-.036a27.341,27.341,0,0,0,12.717-6.387,1.059,1.059,0,0,0,.315-1.005C321.108,374.853,318.328,373.179,315.672,372.35Zm-8.731-20.865a8.241,8.241,0,0,1,3.984,7.067,17.146,17.146,0,0,1-2.182,7.994c-1.437,2.472-3.427,4.17-6.086,4.17s-4.654-1.7-6.092-4.17a17.146,17.146,0,0,1-2.182-7.994,8.323,8.323,0,0,1,.348-2.373A16.794,16.794,0,0,0,306.941,351.486Zm-8.758,20.16c.024-.046.047-.092.068-.14a7.875,7.875,0,0,0,8.861-.036h0c.015.035.029.069.044.1a2.492,2.492,0,0,0,1.341,1.345c1.693.641,4.213.743,6.539,1.47,2.134.668,3.872,1.649,4.555,3.724-9.413,8.048-24.46,8.048-33.873,0,.687-2.074,2.423-3.056,4.556-3.724,2.326-.727,4.845-.829,6.538-1.47A2.638,2.638,0,0,0,298.183,371.646Z" transform="translate(-277.508 -334.256)" fill="#5059ab"/>
          </g>
        </g>
      </g>
    </g>
  </g>
</svg>
