<svg xmlns="http://www.w3.org/2000/svg" width="120" height="122" viewBox="0 0 120 122">
  <g id="Grupo_95363" data-name="Grupo 95363" transform="translate(-740 -3307)">
    <circle id="Elipse_4497" data-name="Elipse 4497" cx="60" cy="60" r="60" transform="translate(740 3307)" fill="#fff"/>
    <g id="Grupo_94127" data-name="Grupo 94127" transform="translate(-2926.432 2460.943)">
      <g id="Grupo_94112" data-name="Grupo 94112" transform="translate(3690.251 942.005)">
        <path id="Trazado_144366" data-name="Trazado 144366" d="M3713.893,986.3v17.535c.075,6.872-10.95,6.992-11.025.12V986.223Z" transform="translate(-3701.273 -984.629)" fill="#fff"/>
        <path id="Trazado_144367" data-name="Trazado 144367" d="M3707.666,1009.947a7.492,7.492,0,0,1-4.736-1.6,6.476,6.476,0,0,1-2.354-5.066V985.527a1.594,1.594,0,0,1,3.189,0v17.732a3.248,3.248,0,0,0,1.176,2.61,4.369,4.369,0,0,0,2.727.89h.054c1.456-.016,3.91-.793,3.88-3.6V985.6a1.594,1.594,0,0,1,3.188,0v17.535a6.465,6.465,0,0,1-2.243,5.1,7.512,7.512,0,0,1-4.791,1.709Z" transform="translate(-3700.577 -983.933)" fill="#12263f"/>
      </g>
      <g id="Grupo_94113" data-name="Grupo 94113" transform="translate(3701.276 942.081)">
        <path id="Trazado_144368" data-name="Trazado 144368" d="M3718.711,1003.868V986.333h11.025v17.656C3729.661,1010.86,3718.636,1010.74,3718.711,1003.868Z" transform="translate(-3717.116 -984.739)" fill="#fff"/>
        <path id="Trazado_144369" data-name="Trazado 144369" d="M3723.543,1009.977a7.79,7.79,0,0,1-3.951-1.046,6.442,6.442,0,0,1-3.172-5.769V985.636a1.594,1.594,0,0,1,1.594-1.594h11.025a1.594,1.594,0,0,1,1.594,1.594v17.656a6.45,6.45,0,0,1-3.3,5.724A7.775,7.775,0,0,1,3723.543,1009.977Zm-3.935-22.747v15.958a3.236,3.236,0,0,0,1.607,3,4.757,4.757,0,0,0,4.557.05,3.236,3.236,0,0,0,1.672-2.963V987.231Zm-1.594,15.941h0Z" transform="translate(-3716.419 -984.042)" fill="#12263f"/>
      </g>
      <g id="Grupo_94114" data-name="Grupo 94114" transform="translate(3739.313 942.042)">
        <path id="Trazado_144370" data-name="Trazado 144370" d="M3784.394,986.355v17.535c.075,6.873-10.95,6.993-11.025.12V986.278Z" transform="translate(-3771.774 -984.684)" fill="#fff"/>
        <path id="Trazado_144371" data-name="Trazado 144371" d="M3778.167,1010a7.493,7.493,0,0,1-4.735-1.6,6.476,6.476,0,0,1-2.354-5.067V985.581a1.594,1.594,0,1,1,3.188,0v17.732a3.249,3.249,0,0,0,1.176,2.61,4.319,4.319,0,0,0,2.781.89c1.456-.016,3.911-.792,3.88-3.6V985.658a1.594,1.594,0,0,1,3.189,0v17.535a6.467,6.467,0,0,1-2.242,5.1,7.51,7.51,0,0,1-4.791,1.709Z" transform="translate(-3771.078 -983.987)" fill="#12263f"/>
      </g>
      <g id="Grupo_94115" data-name="Grupo 94115" transform="translate(3750.337 942.119)">
        <path id="Trazado_144372" data-name="Trazado 144372" d="M3789.212,1003.922V986.388h11.025v17.655C3800.162,1010.915,3789.137,1010.795,3789.212,1003.922Z" transform="translate(-3787.617 -984.794)" fill="#fff"/>
        <path id="Trazado_144373" data-name="Trazado 144373" d="M3794.044,1010.032a7.794,7.794,0,0,1-3.951-1.046,6.445,6.445,0,0,1-3.172-5.769V985.691a1.594,1.594,0,0,1,1.594-1.594h11.025a1.6,1.6,0,0,1,1.594,1.594v17.655a6.452,6.452,0,0,1-3.3,5.724A7.765,7.765,0,0,1,3794.044,1010.032Zm-3.934-22.747v15.958a3.236,3.236,0,0,0,1.608,3,4.757,4.757,0,0,0,4.556.05,3.236,3.236,0,0,0,1.672-2.963V987.286Z" transform="translate(-3786.92 -984.097)" fill="#12263f"/>
      </g>
      <g id="Grupo_94116" data-name="Grupo 94116" transform="translate(3692.524 847.16)">
        <circle id="Elipse_4502" data-name="Elipse 4502" cx="9.371" cy="9.371" r="9.371" transform="translate(1.594 1.594)" fill="#fff"/>
        <path id="Trazado_144374" data-name="Trazado 144374" d="M3714.809,869.573a10.966,10.966,0,1,1,10.966-10.966A10.978,10.978,0,0,1,3714.809,869.573Zm0-18.743a7.777,7.777,0,1,0,7.777,7.777A7.786,7.786,0,0,0,3714.809,850.831Z" transform="translate(-3703.843 -847.642)" fill="#12263f"/>
      </g>
      <g id="Grupo_94117" data-name="Grupo 94117" transform="translate(3740.967 847.16)">
        <circle id="Elipse_4503" data-name="Elipse 4503" cx="9.371" cy="9.371" r="9.371" transform="translate(1.594 1.594)" fill="#fff"/>
        <path id="Trazado_144375" data-name="Trazado 144375" d="M3784.42,869.573a10.966,10.966,0,1,1,10.965-10.966A10.978,10.978,0,0,1,3784.42,869.573Zm0-18.743a7.777,7.777,0,1,0,7.777,7.777A7.785,7.785,0,0,0,3784.42,850.831Z" transform="translate(-3773.455 -847.642)" fill="#12263f"/>
      </g>
      <g id="Grupo_94118" data-name="Grupo 94118" transform="translate(3690.265 894.568)">
        <path id="Trazado_144376" data-name="Trazado 144376" d="M3742.968,918.955h-40.776a1.594,1.594,0,1,1,0-3.189h40.776a1.594,1.594,0,0,1,0,3.189Z" transform="translate(-3700.597 -915.766)" fill="#512156"/>
      </g>
      <g id="Grupo_94119" data-name="Grupo 94119" transform="translate(3666.621 894.568)">
        <path id="Trazado_144377" data-name="Trazado 144377" d="M3742.152,918.057h43v47.408H3668.912V918.057h73.24Z" transform="translate(-3667.318 -916.463)" fill="#faa182"/>
        <path id="Trazado_144378" data-name="Trazado 144378" d="M3784.456,966.363h-116.24a1.594,1.594,0,0,1-1.594-1.594V917.36a1.594,1.594,0,0,1,1.594-1.594h116.24a1.6,1.6,0,0,1,1.594,1.594v47.408A1.6,1.6,0,0,1,3784.456,966.363Zm-114.647-3.189h113.052V918.955H3669.809Z" transform="translate(-3666.621 -915.766)" fill="#12263f"/>
      </g>
      <g id="Grupo_94120" data-name="Grupo 94120" transform="translate(3731.044 846.057)">
        <path id="Trazado_144379" data-name="Trazado 144379" d="M3770.307,888.039V913.4a4.41,4.41,0,0,1-4.41,4.41h0a4.41,4.41,0,0,1-4.41-4.41V885.3a12.694,12.694,0,0,1,12.7-12.695h17.073l14.141-22.223a4.388,4.388,0,0,1,3.7-2.032h0a4.388,4.388,0,0,1,3.823,6.544l-20.564,34.8v7.169h-20.993Z" transform="translate(-3759.892 -846.754)" fill="#fff"/>
        <path id="Trazado_144380" data-name="Trazado 144380" d="M3765.2,918.7a6.01,6.01,0,0,1-6-6V884.6a14.3,14.3,0,0,1,14.289-14.289h16.2l13.672-21.484a5.982,5.982,0,0,1,10.257,6.151l-20.357,34.45v6.734a1.594,1.594,0,0,1-1.594,1.594H3771.2V912.7A6.011,6.011,0,0,1,3765.2,918.7Zm8.285-45.2a11.113,11.113,0,0,0-11.1,11.1v28.1a2.816,2.816,0,1,0,5.631,0V887.342a1.594,1.594,0,0,1,3.189,0v7.227h18.862v-5.575a1.59,1.59,0,0,1,.222-.811l20.563-34.8a2.794,2.794,0,0,0-4.806-2.845L3791.9,872.763a1.594,1.594,0,0,1-1.345.738Z" transform="translate(-3759.196 -846.057)" fill="#12263f"/>
      </g>
      <g id="Grupo_94121" data-name="Grupo 94121" transform="translate(3731.042 888.542)">
        <path id="Trazado_144381" data-name="Trazado 144381" d="M3760.789,911.593a1.594,1.594,0,0,1-.96-2.868,10.067,10.067,0,0,1,10.506-.317,1.594,1.594,0,0,1-1.451,2.839c-4.179-2.136-7.11,0-7.138.027A1.588,1.588,0,0,1,3760.789,911.593Z" transform="translate(-3759.193 -907.108)" fill="#12263f"/>
      </g>
      <g id="Grupo_94122" data-name="Grupo 94122" transform="translate(3763.739 865.902)">
        <path id="Trazado_144382" data-name="Trazado 144382" d="M3815.505,883.089a1.607,1.607,0,0,1-.182-.01c-.277-.031-6.814-.833-9.029-6.312a1.595,1.595,0,0,1,2.957-1.194c1.51,3.739,6.383,4.333,6.432,4.338a1.594,1.594,0,0,1-.178,3.178Z" transform="translate(-3806.178 -874.574)" fill="#12263f"/>
      </g>
      <g id="Grupo_94123" data-name="Grupo 94123" transform="translate(3681.43 870.313)">
        <path id="Trazado_144383" data-name="Trazado 144383" d="M3699.013,898.839V924a4.41,4.41,0,0,1-4.41,4.41h0a4.41,4.41,0,0,1-4.411-4.41V896.709A13.506,13.506,0,0,1,3703.7,883.2h13.781a12.4,12.4,0,0,1,12.4,12.4v11.843h-29.711Z" transform="translate(-3688.599 -881.609)" fill="#fff"/>
        <path id="Trazado_144384" data-name="Trazado 144384" d="M3693.906,929.3a6.011,6.011,0,0,1-6-6V896.012a15.118,15.118,0,0,1,15.1-15.1h13.782a14.013,14.013,0,0,1,14,14v11.843a1.6,1.6,0,0,1-1.594,1.594h-29.276V923.3A6.011,6.011,0,0,1,3693.906,929.3Zm9.1-45.2a11.926,11.926,0,0,0-11.912,11.912V923.3a2.816,2.816,0,0,0,5.632,0V898.142a1.594,1.594,0,1,1,3.189,0v7.016h27.682V894.909a10.821,10.821,0,0,0-10.809-10.809Z" transform="translate(-3687.902 -880.912)" fill="#12263f"/>
      </g>
      <g id="Grupo_94124" data-name="Grupo 94124" transform="translate(3712.299 888.496)">
        <path id="Trazado_144385" data-name="Trazado 144385" d="M3733.858,911.439a1.593,1.593,0,0,1-.817-2.963c.215-.128,5.326-3.078,10.427-.126a1.595,1.595,0,0,1-1.6,2.76c-3.463-2.006-7.062.028-7.214.115A1.59,1.59,0,0,1,3733.858,911.439Z" transform="translate(-3732.26 -907.042)" fill="#12263f"/>
      </g>
      <g id="Grupo_94125" data-name="Grupo 94125" transform="translate(3681.429 888.531)">
        <path id="Trazado_144386" data-name="Trazado 144386" d="M3689.5,911.432a1.593,1.593,0,0,1-.8-2.975c.215-.123,5.331-2.985,10.418-.039a1.594,1.594,0,1,1-1.6,2.759c-3.475-2.012-7.091-.035-7.244.051A1.588,1.588,0,0,1,3689.5,911.432Z" transform="translate(-3687.899 -907.092)" fill="#12263f"/>
      </g>
      <g id="Grupo_94126" data-name="Grupo 94126" transform="translate(3712.301 885.963)">
        <path id="Trazado_144387" data-name="Trazado 144387" d="M3733.857,915.2a1.6,1.6,0,0,1-1.594-1.594V905a1.594,1.594,0,1,1,3.188,0V913.6A1.594,1.594,0,0,1,3733.857,915.2Z" transform="translate(-3732.263 -903.402)" fill="#12263f"/>
      </g>
    </g>
  </g>
</svg>
