<svg xmlns="http://www.w3.org/2000/svg" width="295" height="483" viewBox="0 0 295 483">
  <g id="Grupo_95360" data-name="Grupo 95360" transform="translate(8991 9821)">
    <rect id="Rectángulo_35209" data-name="Rectángulo 35209" width="295" height="483" rx="10" transform="translate(-8991 -9821)" fill="#ffc967"/>
    <path id="Trazado_147293" data-name="Trazado 147293" d="M8.9-5.432H4.052v3.059h5.73V0H.967V-12.8H9.8v2.382H4.052v2.7H8.9Zm6.979,2.76a.684.684,0,0,0-.4-.606,6.016,6.016,0,0,0-1.5-.475A6.853,6.853,0,0,1,12.155-4.4a3.062,3.062,0,0,1-1.1-.971,2.319,2.319,0,0,1-.378-1.31A2.628,2.628,0,0,1,11.76-8.837a4.453,4.453,0,0,1,2.83-.848,4.934,4.934,0,0,1,3.023.853,2.666,2.666,0,0,1,1.143,2.241H15.785q0-1.143-1.2-1.143a1.194,1.194,0,0,0-.782.259.8.8,0,0,0-.316.646.737.737,0,0,0,.387.642,3.654,3.654,0,0,0,1.235.4,10.671,10.671,0,0,1,1.49.378A2.706,2.706,0,0,1,18.738-2.76,2.491,2.491,0,0,1,17.583-.642,5.068,5.068,0,0,1,14.59.176a5.172,5.172,0,0,1-2.18-.439,3.645,3.645,0,0,1-1.494-1.2A2.707,2.707,0,0,1,10.38-3.05h2.769a1.145,1.145,0,0,0,.439.962,1.808,1.808,0,0,0,1.081.3,1.422,1.422,0,0,0,.91-.246A.787.787,0,0,0,15.882-2.672Zm7.69-9.2V-9.51h1.564v2.057H23.572V-3.1a1.111,1.111,0,0,0,.193.747,1.037,1.037,0,0,0,.765.211,4.345,4.345,0,0,0,.738-.053V-.079A5.466,5.466,0,0,1,23.6.176,3.1,3.1,0,0,1,21.34-.545a2.954,2.954,0,0,1-.729-2.188v-4.72H19.4V-9.51H20.61v-2.364Zm8.481,5.045-.976-.07a1.752,1.752,0,0,0-1.793.879V0H26.323V-9.51H29.1l.1,1.222a2.294,2.294,0,0,1,2.083-1.4,2.888,2.888,0,0,1,.826.105Zm6.732,5.8a3.054,3.054,0,0,1-2.54,1.2,3,3,0,0,1-2.369-.91,3.826,3.826,0,0,1-.8-2.615V-9.51h2.962v6.179a1.065,1.065,0,0,0,1.187,1.222,1.548,1.548,0,0,0,1.45-.729V-9.51h2.979V0H38.874Zm8.508-1.081a1.317,1.317,0,0,0,.967-.338,1.241,1.241,0,0,0,.334-.945h2.777A3.288,3.288,0,0,1,50.251-.826a4.168,4.168,0,0,1-2.887,1,4.22,4.22,0,0,1-3.27-1.3,5.125,5.125,0,0,1-1.2-3.6v-.123A5.792,5.792,0,0,1,43.431-7.4a3.872,3.872,0,0,1,1.534-1.7,4.573,4.573,0,0,1,2.373-.593,4.116,4.116,0,0,1,2.944,1.028,3.647,3.647,0,0,1,1.09,2.786H48.595A1.626,1.626,0,0,0,48.234-7a1.244,1.244,0,0,0-.967-.4q-1.151,0-1.345,1.468a10.357,10.357,0,0,0-.062,1.283A4.068,4.068,0,0,0,46.2-2.663,1.187,1.187,0,0,0,47.294-2.109Zm8.78-9.765V-9.51h1.564v2.057H56.074V-3.1a1.111,1.111,0,0,0,.193.747,1.037,1.037,0,0,0,.765.211,4.345,4.345,0,0,0,.738-.053V-.079A5.466,5.466,0,0,1,56.1.176a3.1,3.1,0,0,1-2.259-.721,2.954,2.954,0,0,1-.729-2.188v-4.72H51.9V-9.51h1.213v-2.364ZM64.468-1.028a3.054,3.054,0,0,1-2.54,1.2,3,3,0,0,1-2.369-.91,3.826,3.826,0,0,1-.8-2.615V-9.51h2.962v6.179A1.065,1.065,0,0,0,62.9-2.109a1.548,1.548,0,0,0,1.45-.729V-9.51h2.979V0H64.556Zm10.239-5.8-.976-.07a1.752,1.752,0,0,0-1.793.879V0H68.977V-9.51h2.777l.1,1.222a2.294,2.294,0,0,1,2.083-1.4,2.888,2.888,0,0,1,.826.105ZM80.868,0a3.344,3.344,0,0,1-.281-.853A2.754,2.754,0,0,1,78.3.176a3.374,3.374,0,0,1-2.285-.813,2.588,2.588,0,0,1-.94-2.043,2.66,2.66,0,0,1,1.143-2.338,5.821,5.821,0,0,1,3.322-.791h.914v-.5q0-1.316-1.134-1.316a.927.927,0,0,0-1.055,1.042H75.3a2.655,2.655,0,0,1,1.173-2.239,4.931,4.931,0,0,1,2.993-.86,4.323,4.323,0,0,1,2.874.888,3.086,3.086,0,0,1,1.081,2.435v4.21a4.311,4.311,0,0,0,.4,2V0ZM79.014-1.934a1.652,1.652,0,0,0,.918-.237,1.487,1.487,0,0,0,.523-.536V-4.228h-.861q-1.547,0-1.547,1.389a.848.848,0,0,0,.272.655A.986.986,0,0,0,79.014-1.934ZM92.347-9.51l.1,1.116a3.27,3.27,0,0,1,2.716-1.292,2.407,2.407,0,0,1,2.435,1.433,3.165,3.165,0,0,1,2.795-1.433q2.892,0,2.971,3.5V0h-2.971V-6a1.813,1.813,0,0,0-.246-1.063,1.048,1.048,0,0,0-.9-.334,1.4,1.4,0,0,0-1.31.782l.009.123V0H94.975V-5.985a1.906,1.906,0,0,0-.237-1.081,1.045,1.045,0,0,0-.905-.334,1.42,1.42,0,0,0-1.3.782V0H89.569V-9.51ZM108.176,0h-2.971V-9.51h2.971Zm-3.146-11.962A1.322,1.322,0,0,1,105.486-13a1.724,1.724,0,0,1,1.187-.4,1.724,1.724,0,0,1,1.187.4,1.322,1.322,0,0,1,.457,1.037,1.322,1.322,0,0,1-.457,1.037,1.724,1.724,0,0,1-1.187.4,1.724,1.724,0,0,1-1.187-.4A1.322,1.322,0,0,1,105.029-11.962Zm8.824,5.071,1.38-2.619h3.076l-2.5,4.632L118.433,0h-3.094l-1.494-2.812L112.377,0h-3.111L111.9-4.878l-2.5-4.632h3.111Zm8.859-4.983V-9.51h1.564v2.057h-1.564V-3.1a1.111,1.111,0,0,0,.193.747,1.037,1.037,0,0,0,.765.211,4.345,4.345,0,0,0,.738-.053V-.079a5.466,5.466,0,0,1-1.67.255,3.1,3.1,0,0,1-2.259-.721,2.954,2.954,0,0,1-.729-2.188v-4.72h-1.213V-9.51h1.213v-2.364ZM130.8,0a3.344,3.344,0,0,1-.281-.853A2.754,2.754,0,0,1,128.232.176a3.374,3.374,0,0,1-2.285-.813,2.588,2.588,0,0,1-.94-2.043,2.66,2.66,0,0,1,1.143-2.338,5.821,5.821,0,0,1,3.322-.791h.914v-.5q0-1.316-1.134-1.316A.927.927,0,0,0,128.2-6.587h-2.962a2.655,2.655,0,0,1,1.173-2.239,4.931,4.931,0,0,1,2.993-.86,4.323,4.323,0,0,1,2.874.888,3.086,3.086,0,0,1,1.081,2.435v4.21a4.311,4.311,0,0,0,.4,2V0Zm-1.854-1.934a1.652,1.652,0,0,0,.918-.237,1.487,1.487,0,0,0,.523-.536V-4.228h-.861q-1.547,0-1.547,1.389a.848.848,0,0,0,.272.655A.986.986,0,0,0,128.944-1.934Z" transform="translate(-8923 -9369)" fill="#12263f"/>
    <g id="Grupo_95356" data-name="Grupo 95356" transform="translate(0 -6)">
      <rect id="Rectángulo_35511" data-name="Rectángulo 35511" width="272" height="383" rx="20" transform="translate(-8979 -9787)" fill="#fff"/>
      <g id="Grupo_94071" data-name="Grupo 94071" transform="translate(-8980.605 -9714.699)">
        <g id="Grupo_93985" data-name="Grupo 93985" transform="translate(152.739 121.44)">
          <rect id="Rectángulo_35514" data-name="Rectángulo 35514" width="1.024" height="21.068" transform="matrix(0.68, -0.733, 0.733, 0.68, 0, 0.75)" fill="#b6b5b3"/>
        </g>
        <g id="Grupo_93986" data-name="Grupo 93986" transform="translate(160.688 53.124)">
          <rect id="Rectángulo_35515" data-name="Rectángulo 35515" width="1.024" height="13.834" transform="translate(0 0.794) rotate(-50.833)" fill="#b6b5b3"/>
        </g>
        <g id="Grupo_93991" data-name="Grupo 93991" transform="translate(196.006 19.711)">
          <g id="Grupo_93987" data-name="Grupo 93987" transform="translate(12.112 6.849)">
            <path id="Trazado_144266" data-name="Trazado 144266" d="M409.964,84.013a8.179,8.179,0,0,0,8.179-8.179h-8.179Z" transform="translate(-398.614 -64.465)" fill="#ef5666"/>
            <path id="Trazado_144267" data-name="Trazado 144267" d="M397.7,53.618a9.918,9.918,0,1,0,0,19.836h.289v-9.63h9.63v-.288A9.93,9.93,0,0,0,397.7,53.618Zm0,.576a9.4,9.4,0,0,1,9.337,9.053h-9.626v9.626a9.342,9.342,0,0,1,.288-18.679Z" transform="translate(-387.785 -53.618)" fill="#ef5666"/>
          </g>
          <g id="Grupo_93990" data-name="Grupo 93990">
            <g id="Grupo_93988" data-name="Grupo 93988" transform="translate(0 28.868)">
              <rect id="Rectángulo_35516" data-name="Rectángulo 35516" width="21.37" height="1.023" transform="matrix(0.602, -0.799, 0.799, 0.602, 0, 17.071)" fill="#b6b5b3"/>
            </g>
            <g id="Grupo_93989" data-name="Grupo 93989" transform="translate(5.411)">
              <path id="Trazado_144268" data-name="Trazado 144268" d="M391.3,73.445a16.605,16.605,0,1,1,16.6-16.605A16.624,16.624,0,0,1,391.3,73.445Zm0-31.675a15.07,15.07,0,1,0,15.07,15.07A15.087,15.087,0,0,0,391.3,41.769Z" transform="translate(-374.691 -40.234)" fill="#ef5666"/>
            </g>
          </g>
        </g>
        <g id="Grupo_93996" data-name="Grupo 93996" transform="translate(207.016 59.297)">
          <g id="Grupo_93994" data-name="Grupo 93994">
            <g id="Grupo_93992" data-name="Grupo 93992" transform="translate(0 18)">
              <rect id="Rectángulo_35517" data-name="Rectángulo 35517" width="15.355" height="1.024" fill="#b6b5b3"/>
            </g>
            <g id="Grupo_93993" data-name="Grupo 93993" transform="translate(15.183)">
              <path id="Trazado_144269" data-name="Trazado 144269" d="M431.906,150.8a16.605,16.605,0,1,1,16.6-16.605A16.624,16.624,0,0,1,431.906,150.8Zm0-31.675a15.07,15.07,0,1,0,15.07,15.07A15.087,15.087,0,0,0,431.906,119.123Z" transform="translate(-415.301 -117.588)" fill="#ef5666"/>
            </g>
          </g>
          <g id="Grupo_93995" data-name="Grupo 93995" transform="translate(22.589 11.014)">
            <path id="Trazado_144270" data-name="Trazado 144270" d="M432.987,139.111v2.026h-3.214v9.13h9.058l1.735,3.006,1.735-3.006h3.3v-1.645h2.573v-9.511Zm11.831,2.807v7.569h-2.742a.37.37,0,0,0-.138.026l-.077-.045-1.3,2.244-1.177-2.038-.14-.206-.061.042a.384.384,0,0,0-.132-.024h-8.5v-7.569Z" transform="translate(-429.773 -139.111)" fill="#ef5666"/>
          </g>
        </g>
        <g id="Grupo_93999" data-name="Grupo 93999" transform="translate(40.586 19.711)">
          <g id="Grupo_93997" data-name="Grupo 93997" transform="translate(25.835 28.862)">
            <rect id="Rectángulo_35518" data-name="Rectángulo 35518" width="1.024" height="14.13" transform="translate(0 0.626) rotate(-37.708)" fill="#b6b5b3"/>
          </g>
          <g id="Grupo_93998" data-name="Grupo 93998" transform="translate(0)">
            <path id="Trazado_144271" data-name="Trazado 144271" d="M77.019,73.445a16.605,16.605,0,1,1,16.6-16.605A16.624,16.624,0,0,1,77.019,73.445Zm0-31.675a15.07,15.07,0,1,0,15.07,15.07A15.087,15.087,0,0,0,77.019,41.769Z" transform="translate(-60.414 -40.234)" fill="#5182bc"/>
          </g>
        </g>
        <g id="Grupo_94001" data-name="Grupo 94001" transform="translate(49.209 28.496)">
          <g id="Grupo_94000" data-name="Grupo 94000">
            <path id="Trazado_144272" data-name="Trazado 144272" d="M86.171,72.321a1.482,1.482,0,0,0,1.48-1.48,1.467,1.467,0,0,0-.471-1.075l1.456-2.292a1.467,1.467,0,0,0,1.636-.381l1.35.824a1.448,1.448,0,0,0-.1.521,1.481,1.481,0,1,0,2.65-.9l1.006-1.131a1.509,1.509,0,1,0-.411-.371l-1.006,1.131a1.464,1.464,0,0,0-1.85.278l-1.35-.825a1.444,1.444,0,0,0,.1-.52,1.481,1.481,0,1,0-2.491,1.075l-1.456,2.292a1.443,1.443,0,0,0-.543-.108,1.48,1.48,0,1,0,0,2.961Z" transform="translate(-80.89 -60.456)" fill="#5182bc"/>
            <path id="Trazado_144273" data-name="Trazado 144273" d="M92.887,72.684H77.946V70.031h1.169a.341.341,0,1,0,0-.681H77.946v-2.2h1.169a.341.341,0,0,0,0-.682H77.946V64.294h1.169a.341.341,0,1,0,0-.681H77.946V61.347h1.169a.341.341,0,0,0,0-.682H77.946V57.743a.341.341,0,1,0-.681,0V73.025a.34.34,0,0,0,.34.34H92.887a.341.341,0,1,0,0-.681Z" transform="translate(-77.265 -57.402)" fill="#5182bc"/>
          </g>
        </g>
        <g id="Grupo_94002" data-name="Grupo 94002" transform="translate(83.414 165.289)">
          <line id="Línea_174" data-name="Línea 174" x2="1.254" y2="0.886" fill="#b6b5b3"/>
        </g>
        <g id="Grupo_94003" data-name="Grupo 94003" transform="translate(107.191 121.443)">
          <rect id="Rectángulo_35519" data-name="Rectángulo 35519" width="21.068" height="1.024" transform="translate(0 14.326) rotate(-42.845)" fill="#b6b5b3"/>
        </g>
        <g id="Grupo_94007" data-name="Grupo 94007" transform="translate(21.612 152.125)">
          <g id="Grupo_94006" data-name="Grupo 94006">
            <g id="Grupo_94004" data-name="Grupo 94004" transform="translate(31.183 1.269)">
              <rect id="Rectángulo_35520" data-name="Rectángulo 35520" width="22.331" height="1.024" transform="matrix(0.911, -0.412, 0.412, 0.911, 0, 9.211)" fill="#b6b5b3"/>
            </g>
            <g id="Grupo_94005" data-name="Grupo 94005">
              <path id="Trazado_144274" data-name="Trazado 144274" d="M39.932,332.2a16.638,16.638,0,1,1,3.936-.474A16.558,16.558,0,0,1,39.932,332.2Zm.025-31.682a15.149,15.149,0,0,0-3.574.43,15.053,15.053,0,1,0,3.574-.43Z" transform="translate(-23.337 -298.982)" fill="#ffaf26"/>
            </g>
          </g>
          <path id="Trazado_144275" data-name="Trazado 144275" d="M55.062,329.828c.075-3.654-1.5-4.679-2.655-5.43-.718-.466-1.09-.737-1.029-1.335s.477-.828,1.056-1.164c1.13-.656,2.669-1.553,2.625-5.648a1.007,1.007,0,0,0,0-2.014H45.25a1.007,1.007,0,0,0,0,2.014h.088c-.045,4.1,1.5,4.992,2.625,5.648.578.336,1,.578,1.056,1.164s-.311.869-1.029,1.335c-1.156.751-2.73,1.775-2.655,5.429H45.25a1.007,1.007,0,0,0,0,2.014h9.809a1.007,1.007,0,0,0,0-2.013ZM44.632,315.245a.618.618,0,0,1,.617-.617h9.809a.617.617,0,1,1,0,1.234H45.25A.618.618,0,0,1,44.632,315.245Zm10.037,1.007a12.251,12.251,0,0,1-.081,1.64H45.807a12.251,12.251,0,0,1-.081-1.64ZM48.2,324.725c.685-.445,1.276-.831,1.206-1.67A1.911,1.911,0,0,0,50.994,323c0,.008,0,.015,0,.023-.088.862.512,1.251,1.2,1.7,1.069.693,2.52,1.637,2.48,4.994a8.982,8.982,0,0,0-4.4-1.517,6.861,6.861,0,0,0-4.551,1.617C45.654,326.382,47.123,325.425,48.2,324.725Zm6.857,6.726H45.25a.617.617,0,0,1,0-1.234h9.809a.617.617,0,0,1,0,1.234Z" transform="translate(-33.544 -306.431)" fill="#ffaf26"/>
        </g>
        <g id="Grupo_94018" data-name="Grupo 94018" transform="translate(116.497 65.958)">
          <g id="Grupo_94008" data-name="Grupo 94008" transform="translate(20.726)">
            <rect id="Rectángulo_35521" data-name="Rectángulo 35521" width="1.024" height="21.202" fill="#b6b5b3"/>
          </g>
          <g id="Grupo_94017" data-name="Grupo 94017" transform="translate(0 20.435)">
            <g id="Grupo_94009" data-name="Grupo 94009">
              <path id="Trazado_144276" data-name="Trazado 144276" d="M229.989,213.011a21.238,21.238,0,1,1,21.238-21.238A21.262,21.262,0,0,1,229.989,213.011Zm0-40.941a19.7,19.7,0,1,0,19.7,19.7A19.725,19.725,0,0,0,229.989,172.07Z" transform="translate(-208.751 -170.535)" fill="#33ccbd"/>
            </g>
            <g id="Grupo_94015" data-name="Grupo 94015" transform="translate(8.316 10.715)">
              <g id="Grupo_94011" data-name="Grupo 94011" transform="translate(24.427 1.658)" opacity="0.5">
                <g id="Grupo_94010" data-name="Grupo 94010">
                  <path id="Trazado_144277" data-name="Trazado 144277" d="M272.733,194.712a.32.32,0,0,1,.023.053A.32.32,0,0,0,272.733,194.712Z" transform="translate(-272.733 -194.712)" fill="#4d4a84"/>
                </g>
              </g>
              <g id="Grupo_94013" data-name="Grupo 94013" transform="translate(24.169 1.504)" opacity="0.5">
                <g id="Grupo_94012" data-name="Grupo 94012">
                  <path id="Trazado_144278" data-name="Trazado 144278" d="M272.487,194.566a.294.294,0,0,0-.258-.154A.294.294,0,0,1,272.487,194.566Z" transform="translate(-272.229 -194.412)" fill="#4d4a84"/>
                </g>
              </g>
              <g id="Grupo_94014" data-name="Grupo 94014">
                <path id="Trazado_144279" data-name="Trazado 144279" d="M249.793,193.082l-.051-.122a.65.65,0,0,0-.572-.34h-1.747v-.308a.347.347,0,0,0-.294-.383h-.2a.347.347,0,0,0-.293.383v.308h-1.593v-.308a.347.347,0,0,0-.294-.383h-.2a.347.347,0,0,0-.293.383v.308h-1.593v-.308a.347.347,0,0,0-.294-.383h-.2a.347.347,0,0,0-.293.383v.308h-1.653a.356.356,0,0,0-.112-.018h-1.4a1.394,1.394,0,0,0-2.736,0h-1.474a.356.356,0,0,0-.112.018h-1.572v-.308a.347.347,0,0,0-.294-.383h-.2a.347.347,0,0,0-.294.383v.308h-1.509v-.308a.347.347,0,0,0-.293-.383h-.2a.347.347,0,0,0-.294.383v.308h-1.509v-.308a.347.347,0,0,0-.293-.383h-.2a.347.347,0,0,0-.293.383v.308h-1.817a.652.652,0,0,0-.651.651v5.178h24.82v-5.178A.655.655,0,0,0,249.793,193.082Zm-13.79.1h.425c0-.1,0-.264,0-.316a.988.988,0,0,1,.008-.118.929.929,0,0,1,1.85.118c0,.083,0,.208,0,.316h1.093a2.363,2.363,0,0,1-3.882,0Zm13.1,4.551h-23.39v-4.4h1.753v1.2a.347.347,0,0,0,.293.383h.2a.347.347,0,0,0,.293-.383v-1.2h1.509v1.2a.347.347,0,0,0,.294.383h.2a.347.347,0,0,0,.293-.383v-1.2h1.509v1.2a.347.347,0,0,0,.294.383h.2a.347.347,0,0,0,.294-.383v-1.2h1.931a3.065,3.065,0,0,0,5.361,0h1.763v1.2a.347.347,0,0,0,.293.383h.2a.347.347,0,0,0,.294-.383v-1.2h1.593v1.2a.347.347,0,0,0,.293.383h.2a.347.347,0,0,0,.294-.383v-1.2h1.593v1.2a.347.347,0,0,0,.293.383h.2a.347.347,0,0,0,.294-.383v-1.2h1.683Z" transform="translate(-225.001 -191.473)" fill="#33ccbd"/>
              </g>
            </g>
            <g id="Grupo_94016" data-name="Grupo 94016" transform="translate(8.316 17.334)">
              <rect id="Rectángulo_35522" data-name="Rectángulo 35522" width="24.82" height="14.427" fill="#33ccbd"/>
            </g>
          </g>
        </g>
        <g id="Grupo_94021" data-name="Grupo 94021" transform="translate(85.326 166.074)">
          <g id="Grupo_94019" data-name="Grupo 94019" transform="translate(9.432)">
            <rect id="Rectángulo_35523" data-name="Rectángulo 35523" width="1.024" height="22.183" transform="translate(0 0.2) rotate(-11.267)" fill="#b6b5b3"/>
          </g>
          <g id="Grupo_94020" data-name="Grupo 94020" transform="translate(0 20.881)">
            <path id="Trazado_144280" data-name="Trazado 144280" d="M164.45,400.261h0a16.625,16.625,0,1,1,6.012-1.133A16.507,16.507,0,0,1,164.449,400.261Zm-.008-31.684a15.074,15.074,0,0,0,.007,30.149h0a15.074,15.074,0,0,0-.008-30.149Z" transform="translate(-147.839 -367.042)" fill="#ffaf26"/>
          </g>
          <path id="Trazado_144281" data-name="Trazado 144281" d="M180.4,391.226a8.672,8.672,0,0,0-2.429-6.035l.031-.031-.136-.136a8.771,8.771,0,1,0,0,12.4l.136-.136-.031-.031A8.67,8.67,0,0,0,180.4,391.226Zm-5.479-3.528a4.8,4.8,0,1,0,0,7.056l2.537,2.536a8.387,8.387,0,1,1,0-12.129Zm.02,6.534-.017-.017-.136.135a4.417,4.417,0,1,1,0-6.246l.136.136.018-.018A4.45,4.45,0,0,1,174.943,394.231Z" transform="translate(-155.19 -353.687)" fill="#ffaf26"/>
        </g>
        <g id="Grupo_94026" data-name="Grupo 94026" transform="translate(201.93 152.125)">
          <g id="Grupo_94024" data-name="Grupo 94024">
            <g id="Grupo_94022" data-name="Grupo 94022" transform="translate(0 1.27)">
              <rect id="Rectángulo_35524" data-name="Rectángulo 35524" width="1.023" height="22.331" transform="translate(0 0.932) rotate(-65.644)" fill="#b6b5b3"/>
            </g>
            <g id="Grupo_94023" data-name="Grupo 94023" transform="translate(19.356)">
              <path id="Trazado_144282" data-name="Trazado 144282" d="M430.136,332.2h0a16.607,16.607,0,1,1,16.122-12.685A16.709,16.709,0,0,1,430.135,332.2Zm-.026-31.682a15.1,15.1,0,1,0,3.574.43A15.026,15.026,0,0,0,430.11,300.517Z" transform="translate(-413.516 -298.982)" fill="#ff8353"/>
            </g>
          </g>
          <g id="Grupo_94025" data-name="Grupo 94025" transform="translate(29.469 8.961)">
            <path id="Trazado_144283" data-name="Trazado 144283" d="M439.814,316.492a6.494,6.494,0,0,0-6.536,6.451c-.024,3.586,6.429,9.869,6.429,9.869s6.535-6.2,6.558-9.784A6.494,6.494,0,0,0,439.814,316.492Zm-.066,10.062a3.91,3.91,0,1,1,3.935-3.884A3.91,3.91,0,0,1,439.748,326.554Z" transform="translate(-433.278 -316.492)" fill="#ff8353"/>
          </g>
        </g>
        <g id="Grupo_94030" data-name="Grupo 94030" transform="translate(156.96 166.074)">
          <g id="Grupo_94027" data-name="Grupo 94027" transform="translate(18.435)">
            <rect id="Rectángulo_35525" data-name="Rectángulo 35525" width="22.183" height="1.023" transform="translate(0 21.756) rotate(-78.735)" fill="#b6b5b3"/>
          </g>
          <g id="Grupo_94028" data-name="Grupo 94028" transform="translate(0 20.487)">
            <path id="Trazado_144284" data-name="Trazado 144284" d="M304.428,399.492A16.608,16.608,0,1,1,319.909,388.9,16.532,16.532,0,0,1,304.428,399.492Zm.007-31.684a15.092,15.092,0,1,0,5.456,1.029A14.98,14.98,0,0,0,304.436,367.808Z" transform="translate(-287.818 -366.273)" fill="#ff8353"/>
          </g>
          <g id="Grupo_94029" data-name="Grupo 94029" transform="translate(6.784 26.564)">
            <path id="Trazado_144285" data-name="Trazado 144285" d="M319.666,381.605a.384.384,0,0,0,.384-.384v-2.69a.384.384,0,0,0-.768,0v2.69A.384.384,0,0,0,319.666,381.605Z" transform="translate(-309.964 -378.148)" fill="#ff8353"/>
            <path id="Trazado_144286" data-name="Trazado 144286" d="M311.574,383.493a.384.384,0,0,0,.665-.384l-1.344-2.329a.384.384,0,0,0-.665.384Z" transform="translate(-305.519 -379.339)" fill="#ff8353"/>
            <path id="Trazado_144287" data-name="Trazado 144287" d="M303.706,387.969l2.329,1.344a.378.378,0,0,0,.191.052.384.384,0,0,0,.192-.716l-2.329-1.344a.384.384,0,1,0-.384.665Z" transform="translate(-302.265 -382.593)" fill="#ff8353"/>
            <path id="Trazado_144288" data-name="Trazado 144288" d="M304.531,396.74a.384.384,0,0,0-.384-.384h-2.69a.384.384,0,1,0,0,.768h2.69A.384.384,0,0,0,304.531,396.74Z" transform="translate(-301.074 -387.038)" fill="#ff8353"/>
            <path id="Trazado_144289" data-name="Trazado 144289" d="M306.035,402.884l-2.329,1.344a.384.384,0,0,0,.384.665l2.329-1.345a.384.384,0,1,0-.384-.664Z" transform="translate(-302.265 -390.2)" fill="#ff8353"/>
            <path id="Trazado_144290" data-name="Trazado 144290" d="M333.4,404.228l-2.329-1.344a.384.384,0,1,0-.384.664l2.329,1.345a.384.384,0,0,0,.384-.665Z" transform="translate(-315.441 -390.2)" fill="#ff8353"/>
            <path id="Trazado_144291" data-name="Trazado 144291" d="M335.308,396.356h-2.689a.384.384,0,1,0,0,.768h2.689a.384.384,0,1,0,0-.768Z" transform="translate(-316.288 -387.038)" fill="#ff8353"/>
            <path id="Trazado_144292" data-name="Trazado 144292" d="M330.884,389.365a.378.378,0,0,0,.191-.052l2.329-1.344a.384.384,0,0,0-.384-.665l-2.329,1.344a.384.384,0,0,0,.192.716Z" transform="translate(-315.441 -382.593)" fill="#ff8353"/>
            <path id="Trazado_144293" data-name="Trazado 144293" d="M325.95,383.633a.383.383,0,0,0,.524-.14l1.345-2.329a.384.384,0,0,0-.665-.384l-1.344,2.329A.384.384,0,0,0,325.95,383.633Z" transform="translate(-313.126 -379.339)" fill="#ff8353"/>
            <path id="Trazado_144294" data-name="Trazado 144294" d="M320.284,392.46a5.469,5.469,0,1,0-10.938,0,6.771,6.771,0,0,0,1.081,3.3,38.017,38.017,0,0,1,1.472,3.763v2.988h5.767v-2.985a39.752,39.752,0,0,1,1.523-3.749A6.746,6.746,0,0,0,320.284,392.46Zm-5.909,4.024h.816a16.145,16.145,0,0,0-.027,2.592H314.4A16.137,16.137,0,0,0,314.375,396.484Zm2.639,2.592h-1.337a15.951,15.951,0,0,1,.025-2.572,1.229,1.229,0,0,0,1.244-.474,1.217,1.217,0,0,0,.207-1.071.789.789,0,0,0-.517-.487.806.806,0,0,0-.776.14,2.314,2.314,0,0,0-.6,1.361H314.3a2.314,2.314,0,0,0-.6-1.361.808.808,0,0,0-.776-.14.787.787,0,0,0-.517.488,1.215,1.215,0,0,0,.206,1.071,1.229,1.229,0,0,0,1.245.474,15.954,15.954,0,0,1,.025,2.572h-1.333a34.817,34.817,0,0,0-1.459-3.688,6.029,6.029,0,0,1-.984-2.928,4.7,4.7,0,1,1,9.4,0,6,6,0,0,1-.994,2.939A36.33,36.33,0,0,0,317.014,399.076ZM315.773,396a1.742,1.742,0,0,1,.409-.99.3.3,0,0,1,.3-.047.273.273,0,0,1,.184.172.738.738,0,0,1-.9.864Zm-1.98,0a.738.738,0,0,1-.9-.863.274.274,0,0,1,.185-.172.4.4,0,0,1,.123-.021.274.274,0,0,1,.18.068A1.737,1.737,0,0,1,313.793,396Z" transform="translate(-305.113 -382.431)" fill="#ff8353"/>
          </g>
        </g>
        <g id="Grupo_94039" data-name="Grupo 94039" transform="translate(19.803 59.297)">
          <g id="Grupo_94033" data-name="Grupo 94033">
            <g id="Grupo_94031" data-name="Grupo 94031" transform="translate(32.896 18)">
              <rect id="Rectángulo_35526" data-name="Rectángulo 35526" width="15.356" height="1.024" fill="#b6b5b3"/>
            </g>
            <g id="Grupo_94032" data-name="Grupo 94032">
              <path id="Trazado_144295" data-name="Trazado 144295" d="M36.408,150.8a16.605,16.605,0,1,1,16.605-16.605A16.624,16.624,0,0,1,36.408,150.8Zm0-31.675a15.07,15.07,0,1,0,15.07,15.07A15.087,15.087,0,0,0,36.408,119.123Z" transform="translate(-19.803 -117.588)" fill="#5182bc"/>
            </g>
          </g>
          <g id="Grupo_94038" data-name="Grupo 94038" transform="translate(8.375 10.041)">
            <path id="Trazado_144296" data-name="Trazado 144296" d="M51.845,142.679v-5.47H36.954v5.47h-.785v8.413h16.46v-8.413Zm.235,7.493-6.9-3.365,6.9-3.412Zm-15.363-6.878,7.215,3.517-7.215,3.566Zm7.838,3.821,7.035,3.429H37.618Z" transform="translate(-36.169 -137.209)" fill="#5182bc"/>
            <g id="Grupo_94034" data-name="Grupo 94034" transform="translate(3.247 1.812)">
              <path id="Trazado_144297" data-name="Trazado 144297" d="M51.955,141.077H42.677a.164.164,0,1,1,0-.327h9.278a.164.164,0,0,1,0,.327Z" transform="translate(-42.513 -140.75)" fill="#f0f0f0"/>
            </g>
            <g id="Grupo_94035" data-name="Grupo 94035" transform="translate(3.206 2.875)">
              <path id="Trazado_144298" data-name="Trazado 144298" d="M51.875,143.154H42.6a.164.164,0,1,1,0-.327h9.278a.164.164,0,0,1,0,.327Z" transform="translate(-42.433 -142.827)" fill="#f0f0f0"/>
            </g>
            <g id="Grupo_94036" data-name="Grupo 94036" transform="translate(3.165 3.937)">
              <path id="Trazado_144299" data-name="Trazado 144299" d="M51.795,145.23H42.517a.164.164,0,1,1,0-.327h9.278a.164.164,0,1,1,0,.327Z" transform="translate(-42.353 -144.903)" fill="#f0f0f0"/>
            </g>
            <g id="Grupo_94037" data-name="Grupo 94037" transform="translate(3.124 5)">
              <path id="Trazado_144300" data-name="Trazado 144300" d="M51.715,147.307H42.437a.164.164,0,1,1,0-.327h9.278a.164.164,0,1,1,0,.327Z" transform="translate(-42.273 -146.98)" fill="#f0f0f0"/>
            </g>
          </g>
        </g>
        <g id="Grupo_94045" data-name="Grupo 94045" transform="translate(40.586 90.839)">
          <g id="Grupo_94042" data-name="Grupo 94042" transform="translate(0)">
            <g id="Grupo_94040" data-name="Grupo 94040" transform="translate(25.931)">
              <rect id="Rectángulo_35527" data-name="Rectángulo 35527" width="13.073" height="1.023" transform="matrix(0.698, -0.716, 0.716, 0.698, 0, 9.358)" fill="#b6b5b3"/>
            </g>
            <g id="Grupo_94041" data-name="Grupo 94041" transform="translate(0 5.635)">
              <path id="Trazado_144301" data-name="Trazado 144301" d="M77.019,223.445a16.6,16.6,0,1,1,16.6-16.6A16.624,16.624,0,0,1,77.019,223.445Zm0-31.674a15.07,15.07,0,1,0,15.07,15.07A15.086,15.086,0,0,0,77.019,191.77Z" transform="translate(-60.414 -190.235)" fill="#5182bc"/>
            </g>
          </g>
          <g id="Grupo_94044" data-name="Grupo 94044" transform="translate(8.871 15.343)">
            <g id="Grupo_94043" data-name="Grupo 94043" transform="translate(1.372 1.372)">
              <circle id="Elipse_4490" data-name="Elipse 4490" cx="3.714" cy="3.714" r="3.714" fill="#5182bc"/>
            </g>
            <path id="Trazado_144302" data-name="Trazado 144302" d="M92.863,222.61l-4.019-3.8a1.126,1.126,0,0,0-1.287-.18l-.947-.946a5.064,5.064,0,1,0-.466.459l.942.942a1.126,1.126,0,0,0,.208,1.366l4.019,3.8a1.128,1.128,0,0,0,1.549-1.641Zm-14.624-8.317a4.6,4.6,0,1,1,4.6,4.6A4.6,4.6,0,0,1,78.239,214.293Z" transform="translate(-77.748 -209.206)" fill="#5182bc"/>
          </g>
        </g>
        <g id="Grupo_94054" data-name="Grupo 94054" transform="translate(29.45 162.789)">
          <g id="Grupo_94046" data-name="Grupo 94046" transform="translate(22.179)">
            <rect id="Rectángulo_35528" data-name="Rectángulo 35528" width="55.566" height="1.023" transform="translate(0 46.622) rotate(-57.039)" fill="#b6b5b3"/>
          </g>
          <g id="Grupo_94047" data-name="Grupo 94047" transform="translate(0 44.191)">
            <path id="Trazado_144303" data-name="Trazado 144303" d="M55.255,439.391h0a16.618,16.618,0,1,1,4.756-.7A16.708,16.708,0,0,1,55.255,439.391Zm.012-31.684a15.074,15.074,0,0,0-.012,30.148h0a15.074,15.074,0,0,0,.012-30.148Z" transform="translate(-38.654 -406.172)" fill="#ffaf26"/>
          </g>
          <g id="Grupo_94053" data-name="Grupo 94053" transform="translate(7.142 54.736)">
            <path id="Trazado_144304" data-name="Trazado 144304" d="M65,431.739,57.16,431.7a3.516,3.516,0,0,0-3.534,3.5l-.015,2.794a3.515,3.515,0,0,0,3.5,3.534l1.383.007,1.041,1.826,1.061-1.815,4.357.024a3.515,3.515,0,0,0,3.534-3.5l.015-2.794A3.515,3.515,0,0,0,65,431.739Z" transform="translate(-53.099 -429.18)" fill="#fff"/>
            <g id="Grupo_94048" data-name="Grupo 94048">
              <path id="Trazado_144305" data-name="Trazado 144305" d="M71.013,430.275a3.515,3.515,0,0,0-3.534-3.5l-7.842.042a3.511,3.511,0,0,0-3.135,1.971,4.032,4.032,0,0,0-3.876,4l-.015,2.794a4.027,4.027,0,0,0,4.005,4.048l1.086.005,1.335,2.34,1.359-2.324,4.083.021a4.038,4.038,0,0,0,3.938-3.193,3.513,3.513,0,0,0,2.609-3.411Zm-6.532,8.887-4.377-.023-1.061,1.815L58,439.127l-1.382-.007a3.515,3.515,0,0,1-3.5-3.534l.015-2.794a3.524,3.524,0,0,1,3.155-3.478c.118-.012.237-.018.358-.018l7.862.041a3.52,3.52,0,0,1,3.5,3.534l-.015,2.794a3.474,3.474,0,0,1-.132.919A3.522,3.522,0,0,1,64.481,439.162Z" transform="translate(-52.611 -426.779)" fill="#ffaf26"/>
            </g>
            <g id="Grupo_94049" data-name="Grupo 94049" transform="translate(3.196 5.829)">
              <path id="Trazado_144306" data-name="Trazado 144306" d="M68,438.681H59.112a.256.256,0,1,1,0-.512H68a.256.256,0,1,1,0,.512Z" transform="translate(-58.856 -438.169)" fill="#ffaf26"/>
            </g>
            <g id="Grupo_94050" data-name="Grupo 94050" transform="translate(3.196 5.829)">
              <path id="Trazado_144307" data-name="Trazado 144307" d="M68,438.681H59.112a.256.256,0,1,1,0-.512H68a.256.256,0,1,1,0,.512Z" transform="translate(-58.856 -438.169)" fill="#ffaf26"/>
            </g>
            <g id="Grupo_94051" data-name="Grupo 94051" transform="translate(3.196 7.314)">
              <path id="Trazado_144308" data-name="Trazado 144308" d="M68,441.584H59.112a.256.256,0,1,1,0-.512H68a.256.256,0,1,1,0,.512Z" transform="translate(-58.856 -441.072)" fill="#ffaf26"/>
            </g>
            <g id="Grupo_94052" data-name="Grupo 94052" transform="translate(3.196 8.801)">
              <path id="Trazado_144309" data-name="Trazado 144309" d="M68,444.488H59.112a.256.256,0,1,1,0-.512H68a.256.256,0,1,1,0,.512Z" transform="translate(-58.856 -443.976)" fill="#ffaf26"/>
            </g>
          </g>
        </g>
        <g id="Grupo_94058" data-name="Grupo 94058" transform="translate(192.766 162.792)">
          <g id="Grupo_94057" data-name="Grupo 94057">
            <g id="Grupo_94055" data-name="Grupo 94055">
              <rect id="Rectángulo_35529" data-name="Rectángulo 35529" width="1.023" height="55.566" transform="translate(0 0.557) rotate(-32.975)" fill="#b6b5b3"/>
            </g>
            <g id="Grupo_94056" data-name="Grupo 94056" transform="translate(22.413 43.26)">
              <path id="Trazado_144310" data-name="Trazado 144310" d="M418.2,437.578a16.608,16.608,0,1,1,15.905-11.86A16.631,16.631,0,0,1,418.2,437.578Zm-.012-31.683a15.162,15.162,0,0,0-14.434,10.763A15.081,15.081,0,0,0,418.2,436.043a15.074,15.074,0,0,0-.012-30.148Z" transform="translate(-401.582 -404.36)" fill="#ff8353"/>
            </g>
          </g>
          <path id="Trazado_144311" data-name="Trazado 144311" d="M433.3,436.854H418.363V434.2h1.169a.341.341,0,0,0,0-.681h-1.169v-2.2h1.169a.341.341,0,0,0,0-.682h-1.169v-2.171h1.169a.341.341,0,0,0,0-.681h-1.169v-2.266h1.169a.341.341,0,0,0,0-.682h-1.169v-2.922a.341.341,0,0,0-.682,0v15.282a.341.341,0,0,0,.341.341H433.3a.341.341,0,1,0,0-.681Z" transform="translate(-387.029 -369.504)" fill="#ff8353"/>
          <path id="Trazado_144312" data-name="Trazado 144312" d="M436.406,432.089l-.374-1.533a.339.339,0,0,0-.022-.046.381.381,0,0,0-.035-.075.407.407,0,0,0-.041-.047.377.377,0,0,0-.062-.056.444.444,0,0,0-.056-.028.358.358,0,0,0-.076-.028.339.339,0,0,0-.072-.006.355.355,0,0,0-.057,0l-1.663.213a.384.384,0,0,0,.049.765.417.417,0,0,0,.05,0l.861-.11-2.329,2.624-3.305-2.441-4.106,5.194a.384.384,0,1,0,.6.476l3.646-4.611,3.272,2.417,2.816-3.172.16.654a.384.384,0,0,0,.372.293.374.374,0,0,0,.092-.011A.383.383,0,0,0,436.406,432.089Z" transform="translate(-390.643 -373.748)" fill="#ff8353"/>
        </g>
        <g id="Grupo_94059" data-name="Grupo 94059" transform="translate(98.043 -1.8)">
          <circle id="Elipse_4491" data-name="Elipse 4491" cx="28.066" cy="28.066" r="28.066" transform="translate(0 39.692) rotate(-45)" fill="#33ccbd"/>
          <text id="TEXT_HERE" data-name="TEXT HERE" transform="translate(21.392 32.016)" fill="#fff" font-size="13" font-family="Roboto-Regular, Roboto"><tspan x="0" y="14">TEXT </tspan></text>
        </g>
        <g id="Grupo_94060" data-name="Grupo 94060" transform="translate(65.484 121.196)">
          <circle id="Elipse_4492" data-name="Elipse 4492" cx="19.907" cy="19.907" r="19.907" transform="translate(0 36.629) rotate(-66.926)" fill="#ffaf26"/>
          <text id="_3" data-name="3" transform="translate(19.924 34.687)" fill="#fff" font-size="22" font-family="Roboto-Regular, Roboto"><tspan x="0" y="0">3</tspan></text>
        </g>
        <g id="Grupo_94061" data-name="Grupo 94061" transform="translate(155.907 119.159)">
          <circle id="Elipse_4493" data-name="Elipse 4493" cx="19.907" cy="19.907" r="19.907" transform="translate(0 28.153) rotate(-45)" fill="#ff8353"/>
          <text id="_4" data-name="4" transform="translate(21.556 36.723)" fill="#fff" font-size="22" font-family="Roboto-Regular, Roboto"><tspan x="0" y="0">4</tspan></text>
        </g>
        <g id="Grupo_94064" data-name="Grupo 94064" transform="translate(67.448 52.484)">
          <g id="Grupo_94062" data-name="Grupo 94062" transform="translate(33.967)">
            <path id="Trazado_144313" data-name="Trazado 144313" d="M180.07,115.655l-.793-.948,13.154-10.431.793.948Z" transform="translate(-179.278 -104.276)" fill="#b6b5b3"/>
          </g>
          <g id="Grupo_94063" data-name="Grupo 94063" transform="translate(0 2.947)">
            <circle id="Elipse_4494" data-name="Elipse 4494" cx="20.47" cy="20.47" r="20.47" fill="#5182bc"/>
            <text id="_1" data-name="1" transform="translate(13.873 28.294)" fill="#fff" font-size="22" font-family="Roboto-Regular, Roboto"><tspan x="0" y="0">1</tspan></text>
          </g>
        </g>
        <g id="Grupo_94069" data-name="Grupo 94069" transform="translate(199.717 90.839)">
          <g id="Grupo_94067" data-name="Grupo 94067">
            <g id="Grupo_94065" data-name="Grupo 94065">
              <rect id="Rectángulo_35530" data-name="Rectángulo 35530" width="1.023" height="13.073" transform="translate(0 0.715) rotate(-44.29)" fill="#b6b5b3"/>
            </g>
            <g id="Grupo_94066" data-name="Grupo 94066" transform="translate(1.7 5.635)">
              <path id="Trazado_144314" data-name="Trazado 144314" d="M391.3,223.445a16.6,16.6,0,1,1,16.6-16.6A16.624,16.624,0,0,1,391.3,223.445Zm0-31.674a15.07,15.07,0,1,0,15.07,15.07A15.086,15.086,0,0,0,391.3,191.77Z" transform="translate(-374.691 -190.235)" fill="#ef5666"/>
            </g>
          </g>
          <g id="Grupo_94068" data-name="Grupo 94068" transform="translate(10.898 12.765)">
            <rect id="Rectángulo_35531" data-name="Rectángulo 35531" width="1.206" height="1.206" transform="translate(1.916 4.037)" fill="#ef5666"/>
            <rect id="Rectángulo_35532" data-name="Rectángulo 35532" width="1.206" height="1.206" transform="translate(1.916 6.727)" fill="#ef5666"/>
            <rect id="Rectángulo_35533" data-name="Rectángulo 35533" width="1.206" height="1.206" transform="translate(1.916 9.417)" fill="#ef5666"/>
            <rect id="Rectángulo_35534" data-name="Rectángulo 35534" width="1.206" height="1.206" transform="translate(1.916 12.107)" fill="#ef5666"/>
            <path id="Trazado_144315" data-name="Trazado 144315" d="M400.747,213.242h6.929a.157.157,0,0,0,0-.314h-6.929a.157.157,0,0,0,0,.314Z" transform="translate(-396.539 -208.445)" fill="#ef5666"/>
            <path id="Trazado_144316" data-name="Trazado 144316" d="M400.747,218.5h6.929a.157.157,0,0,0,0-.314h-6.929a.157.157,0,0,0,0,.314Z" transform="translate(-396.539 -211.011)" fill="#ef5666"/>
            <path id="Trazado_144317" data-name="Trazado 144317" d="M400.747,223.754h6.929a.157.157,0,0,0,0-.313h-6.929a.157.157,0,0,0,0,.313Z" transform="translate(-396.539 -213.578)" fill="#ef5666"/>
            <path id="Trazado_144318" data-name="Trazado 144318" d="M400.747,229.01h6.929a.157.157,0,0,0,0-.313h-6.929a.157.157,0,0,0,0,.313Z" transform="translate(-396.539 -216.144)" fill="#ef5666"/>
            <path id="Trazado_144319" data-name="Trazado 144319" d="M400.747,234.267h6.929a.157.157,0,0,0,0-.314h-6.929a.157.157,0,0,0,0,.314Z" transform="translate(-396.539 -218.71)" fill="#ef5666"/>
            <rect id="Rectángulo_35535" data-name="Rectángulo 35535" width="1.206" height="1.206" transform="translate(1.916 14.797)" fill="#ef5666"/>
            <path id="Trazado_144320" data-name="Trazado 144320" d="M407.975,204.167H396.29v1.31h-3.626v17.234H405.8v-1.06h2.173Zm-2.743,17.975h-.983l.983-1.184Zm0-2.075-1.723,2.075H393.233v-16.1h12Z" transform="translate(-392.664 -204.167)" fill="#ef5666"/>
          </g>
        </g>
        <g id="Grupo_94070" data-name="Grupo 94070" transform="translate(166.513 55.432)">
          <circle id="Elipse_4495" data-name="Elipse 4495" cx="20.47" cy="20.47" r="20.47" fill="#ef5666"/>
          <text id="_2" data-name="2" transform="translate(13.873 28.806)" fill="#fff" font-size="22" font-family="Roboto-Regular, Roboto"><tspan x="0" y="0">2</tspan></text>
        </g>
      </g>
    </g>
  </g>
</svg>
