<svg xmlns="http://www.w3.org/2000/svg" width="295" height="483" viewBox="0 0 295 483">
  <g id="Grupo_95357" data-name="Grupo 95357" transform="translate(9936 9821)">
    <rect id="Rectángulo_35207" data-name="Rectángulo 35207" width="295" height="483" rx="10" transform="translate(-9936 -9821)" fill="#ffc967"/>
    <path id="Trazado_147290" data-name="Trazado 147290" d="M8.9-5.432H4.052v3.059h5.73V0H.967V-12.8H9.8v2.382H4.052v2.7H8.9Zm6.979,2.76a.684.684,0,0,0-.4-.606,6.016,6.016,0,0,0-1.5-.475A6.853,6.853,0,0,1,12.155-4.4a3.062,3.062,0,0,1-1.1-.971,2.319,2.319,0,0,1-.378-1.31A2.628,2.628,0,0,1,11.76-8.837a4.453,4.453,0,0,1,2.83-.848,4.934,4.934,0,0,1,3.023.853,2.666,2.666,0,0,1,1.143,2.241H15.785q0-1.143-1.2-1.143a1.194,1.194,0,0,0-.782.259.8.8,0,0,0-.316.646.737.737,0,0,0,.387.642,3.654,3.654,0,0,0,1.235.4,10.671,10.671,0,0,1,1.49.378A2.706,2.706,0,0,1,18.738-2.76,2.491,2.491,0,0,1,17.583-.642,5.068,5.068,0,0,1,14.59.176a5.172,5.172,0,0,1-2.18-.439,3.645,3.645,0,0,1-1.494-1.2A2.707,2.707,0,0,1,10.38-3.05h2.769a1.145,1.145,0,0,0,.439.962,1.808,1.808,0,0,0,1.081.3,1.422,1.422,0,0,0,.91-.246A.787.787,0,0,0,15.882-2.672Zm7.69-9.2V-9.51h1.564v2.057H23.572V-3.1a1.111,1.111,0,0,0,.193.747,1.037,1.037,0,0,0,.765.211,4.345,4.345,0,0,0,.738-.053V-.079A5.466,5.466,0,0,1,23.6.176,3.1,3.1,0,0,1,21.34-.545a2.954,2.954,0,0,1-.729-2.188v-4.72H19.4V-9.51H20.61v-2.364Zm8.481,5.045-.976-.07a1.752,1.752,0,0,0-1.793.879V0H26.323V-9.51H29.1l.1,1.222a2.294,2.294,0,0,1,2.083-1.4,2.888,2.888,0,0,1,.826.105Zm6.732,5.8a3.054,3.054,0,0,1-2.54,1.2,3,3,0,0,1-2.369-.91,3.826,3.826,0,0,1-.8-2.615V-9.51h2.962v6.179a1.065,1.065,0,0,0,1.187,1.222,1.548,1.548,0,0,0,1.45-.729V-9.51h2.979V0H38.874Zm8.508-1.081a1.317,1.317,0,0,0,.967-.338,1.241,1.241,0,0,0,.334-.945h2.777A3.288,3.288,0,0,1,50.251-.826a4.168,4.168,0,0,1-2.887,1,4.22,4.22,0,0,1-3.27-1.3,5.125,5.125,0,0,1-1.2-3.6v-.123A5.792,5.792,0,0,1,43.431-7.4a3.872,3.872,0,0,1,1.534-1.7,4.573,4.573,0,0,1,2.373-.593,4.116,4.116,0,0,1,2.944,1.028,3.647,3.647,0,0,1,1.09,2.786H48.595A1.626,1.626,0,0,0,48.234-7a1.244,1.244,0,0,0-.967-.4q-1.151,0-1.345,1.468a10.357,10.357,0,0,0-.062,1.283A4.068,4.068,0,0,0,46.2-2.663,1.187,1.187,0,0,0,47.294-2.109Zm8.78-9.765V-9.51h1.564v2.057H56.074V-3.1a1.111,1.111,0,0,0,.193.747,1.037,1.037,0,0,0,.765.211,4.345,4.345,0,0,0,.738-.053V-.079A5.466,5.466,0,0,1,56.1.176a3.1,3.1,0,0,1-2.259-.721,2.954,2.954,0,0,1-.729-2.188v-4.72H51.9V-9.51h1.213v-2.364ZM64.468-1.028a3.054,3.054,0,0,1-2.54,1.2,3,3,0,0,1-2.369-.91,3.826,3.826,0,0,1-.8-2.615V-9.51h2.962v6.179A1.065,1.065,0,0,0,62.9-2.109a1.548,1.548,0,0,0,1.45-.729V-9.51h2.979V0H64.556Zm10.239-5.8-.976-.07a1.752,1.752,0,0,0-1.793.879V0H68.977V-9.51h2.777l.1,1.222a2.294,2.294,0,0,1,2.083-1.4,2.888,2.888,0,0,1,.826.105ZM80.868,0a3.344,3.344,0,0,1-.281-.853A2.754,2.754,0,0,1,78.3.176a3.374,3.374,0,0,1-2.285-.813,2.588,2.588,0,0,1-.94-2.043,2.66,2.66,0,0,1,1.143-2.338,5.821,5.821,0,0,1,3.322-.791h.914v-.5q0-1.316-1.134-1.316a.927.927,0,0,0-1.055,1.042H75.3a2.655,2.655,0,0,1,1.173-2.239,4.931,4.931,0,0,1,2.993-.86,4.323,4.323,0,0,1,2.874.888,3.086,3.086,0,0,1,1.081,2.435v4.21a4.311,4.311,0,0,0,.4,2V0ZM79.014-1.934a1.652,1.652,0,0,0,.918-.237,1.487,1.487,0,0,0,.523-.536V-4.228h-.861q-1.547,0-1.547,1.389a.848.848,0,0,0,.272.655A.986.986,0,0,0,79.014-1.934ZM92.443-8.49a2.964,2.964,0,0,1,2.426-1.2,2.956,2.956,0,0,1,2.373.932A4.186,4.186,0,0,1,98.06-6V0H95.089V-5.933a1.674,1.674,0,0,0-.308-1.112A1.322,1.322,0,0,0,93.735-7.4a1.424,1.424,0,0,0-1.292.58V0H89.481V-13.5h2.962Zm6.891,3.647a5.613,5.613,0,0,1,.554-2.536,3.96,3.96,0,0,1,1.591-1.709,4.791,4.791,0,0,1,2.435-.6,4.373,4.373,0,0,1,3.366,1.323,5.076,5.076,0,0,1,1.23,3.6v.105a4.925,4.925,0,0,1-1.235,3.529A4.384,4.384,0,0,1,103.931.176a4.434,4.434,0,0,1-3.261-1.217,4.761,4.761,0,0,1-1.327-3.3Zm2.962.185a3.538,3.538,0,0,0,.413,1.934,1.376,1.376,0,0,0,1.222.615q1.582,0,1.617-2.435v-.3q0-2.558-1.635-2.558-1.485,0-1.608,2.206Zm13.271-2.171-.976-.07a1.752,1.752,0,0,0-1.793.879V0h-2.962V-9.51h2.777l.1,1.222a2.294,2.294,0,0,1,2.083-1.4,2.888,2.888,0,0,1,.826.105ZM119.76,0h-2.971V-9.51h2.971Zm-3.146-11.962A1.322,1.322,0,0,1,117.07-13a1.724,1.724,0,0,1,1.187-.4,1.724,1.724,0,0,1,1.187.4,1.322,1.322,0,0,1,.457,1.037,1.322,1.322,0,0,1-.457,1.037,1.724,1.724,0,0,1-1.187.4,1.724,1.724,0,0,1-1.187-.4A1.322,1.322,0,0,1,116.613-11.962Zm8.464,9.677h4.333V0h-8.077V-1.652l4.219-5.572h-4.034V-9.51h7.8v1.6Zm5.256-2.558a5.613,5.613,0,0,1,.554-2.536,3.96,3.96,0,0,1,1.591-1.709,4.791,4.791,0,0,1,2.435-.6,4.373,4.373,0,0,1,3.366,1.323,5.076,5.076,0,0,1,1.23,3.6v.105a4.925,4.925,0,0,1-1.235,3.529A4.384,4.384,0,0,1,134.93.176a4.434,4.434,0,0,1-3.261-1.217,4.761,4.761,0,0,1-1.327-3.3Zm2.962.185a3.538,3.538,0,0,0,.413,1.934,1.376,1.376,0,0,0,1.222.615q1.582,0,1.617-2.435v-.3q0-2.558-1.635-2.558-1.485,0-1.608,2.206ZM143.534-9.51l.1,1.116a3.225,3.225,0,0,1,2.716-1.292,2.713,2.713,0,0,1,2.219.888,4.226,4.226,0,0,1,.76,2.672V0h-2.971V-6a1.6,1.6,0,0,0-.29-1.059,1.342,1.342,0,0,0-1.055-.338,1.413,1.413,0,0,0-1.292.686V0h-2.962V-9.51Zm10.881-2.364V-9.51h1.564v2.057h-1.564V-3.1a1.111,1.111,0,0,0,.193.747,1.037,1.037,0,0,0,.765.211,4.345,4.345,0,0,0,.738-.053V-.079a5.466,5.466,0,0,1-1.67.255,3.1,3.1,0,0,1-2.259-.721,2.954,2.954,0,0,1-.729-2.188v-4.72H150.24V-9.51h1.213v-2.364ZM162.5,0a3.344,3.344,0,0,1-.281-.853A2.754,2.754,0,0,1,159.935.176a3.374,3.374,0,0,1-2.285-.813,2.588,2.588,0,0,1-.94-2.043,2.66,2.66,0,0,1,1.143-2.338,5.821,5.821,0,0,1,3.322-.791h.914v-.5q0-1.316-1.134-1.316A.927.927,0,0,0,159.9-6.587h-2.962a2.655,2.655,0,0,1,1.173-2.239,4.931,4.931,0,0,1,2.993-.86,4.323,4.323,0,0,1,2.874.888,3.086,3.086,0,0,1,1.081,2.435v4.21a4.311,4.311,0,0,0,.4,2V0Zm-1.854-1.934a1.652,1.652,0,0,0,.918-.237,1.487,1.487,0,0,0,.523-.536V-4.228h-.861q-1.547,0-1.547,1.389a.848.848,0,0,0,.272.655A.986.986,0,0,0,160.646-1.934ZM169.822,0h-2.971V-13.5h2.971Z" transform="translate(-9873 -9369)" fill="#12263f"/>
    <g id="Grupo_95353" data-name="Grupo 95353">
      <rect id="Rectángulo_35508" data-name="Rectángulo 35508" width="272" height="383" rx="20" transform="translate(-9924 -9787)" fill="#fff"/>
      <g id="Grupo_93912" data-name="Grupo 93912" transform="translate(-10031.021 -9847.74)">
        <g id="Grupo_93742" data-name="Grupo 93742" transform="translate(126.791 166.688)">
          <rect id="Rectángulo_35467" data-name="Rectángulo 35467" width="45.547" height="151.824" fill="#0097a7"/>
        </g>
        <g id="Grupo_93748" data-name="Grupo 93748" transform="translate(144.013 228.022)">
          <g id="Grupo_93747" data-name="Grupo 93747" transform="translate(0)">
            <g id="Grupo_93743" data-name="Grupo 93743" transform="translate(0 21.083)">
              <path id="Trazado_144006" data-name="Trazado 144006" d="M180.678,447.846H184.2v1.946h-9.176v-2.674a4.575,4.575,0,0,1,.681-2.768,2.715,2.715,0,0,1,3.509-.452,2.948,2.948,0,0,1,.988,1.262q3.095-2.071,4-2.7v2.159l-3.521,2.19Zm-1.581,0v-.628a2.4,2.4,0,0,0-.308-1.362,1.1,1.1,0,0,0-.967-.44,1,1,0,0,0-.929.448,2.723,2.723,0,0,0-.276,1.391v.59Z" transform="translate(-175.023 -442.461)" fill="#fff"/>
            </g>
            <g id="Grupo_93744" data-name="Grupo 93744" transform="translate(2.027 13.702)">
              <path id="Trazado_144007" data-name="Trazado 144007" d="M184.328,421.789a3.771,3.771,0,0,1,2.68.9,3.277,3.277,0,0,1,.967,2.517,3.52,3.52,0,0,1-.442,1.782,2.944,2.944,0,0,1-1.271,1.187,4.272,4.272,0,0,1-1.933.414,3.749,3.749,0,0,1-2.674-.9,3.3,3.3,0,0,1-.954-2.523,3.54,3.54,0,0,1,.44-1.783A2.933,2.933,0,0,1,182.4,422.2,4.233,4.233,0,0,1,184.328,421.789Zm0,4.852a2.945,2.945,0,0,0,1.576-.342,1.223,1.223,0,0,0,.533-1.114,1.2,1.2,0,0,0-.531-1.1,2.988,2.988,0,0,0-1.579-.336,2.9,2.9,0,0,0-1.563.339,1.441,1.441,0,0,0,0,2.216A2.9,2.9,0,0,0,184.328,426.641Z" transform="translate(-180.7 -421.789)" fill="#fff"/>
            </g>
            <g id="Grupo_93745" data-name="Grupo 93745" transform="translate(2.027 5.743)">
              <path id="Trazado_144008" data-name="Trazado 144008" d="M184.328,399.5a3.771,3.771,0,0,1,2.68.9,3.277,3.277,0,0,1,.967,2.517,3.52,3.52,0,0,1-.442,1.782,2.942,2.942,0,0,1-1.271,1.186,4.268,4.268,0,0,1-1.933.415,3.749,3.749,0,0,1-2.674-.9,3.3,3.3,0,0,1-.954-2.523,3.54,3.54,0,0,1,.44-1.783,2.931,2.931,0,0,1,1.262-1.186A4.233,4.233,0,0,1,184.328,399.5Zm0,4.852a2.945,2.945,0,0,0,1.576-.342,1.223,1.223,0,0,0,.533-1.114,1.2,1.2,0,0,0-.531-1.1,2.987,2.987,0,0,0-1.579-.336,2.9,2.9,0,0,0-1.563.339,1.441,1.441,0,0,0,0,2.216A2.9,2.9,0,0,0,184.328,404.352Z" transform="translate(-180.7 -399.5)" fill="#fff"/>
            </g>
            <g id="Grupo_93746" data-name="Grupo 93746" transform="translate(0.665)">
              <path id="Trazado_144009" data-name="Trazado 144009" d="M184,384.62a4.144,4.144,0,0,0-.22-1.205H185.2a4.3,4.3,0,0,1,.32,1.758,2.151,2.151,0,0,1-.581,1.673,2.528,2.528,0,0,1-1.742.524h-3.383v.916h-.81l-.64-1.054-1.481-.552v-1.224h1.494V383.49h1.438v1.965H183.2a.748.748,0,0,0,.6-.229A.9.9,0,0,0,184,384.62Z" transform="translate(-176.886 -383.415)" fill="#fff"/>
            </g>
          </g>
        </g>
        <g id="Grupo_93749" data-name="Grupo 93749" transform="translate(172.338 242.064)">
          <rect id="Rectángulo_35468" data-name="Rectángulo 35468" width="39.697" height="1.071" fill="#6d6e71"/>
        </g>
        <g id="Grupo_93759" data-name="Grupo 93759" transform="translate(307.644 332.395)">
          <rect id="Rectángulo_35470" data-name="Rectángulo 35470" width="50.608" height="30.365" transform="translate(0 0)" fill="#afb42b"/>
        </g>
        <g id="Grupo_93767" data-name="Grupo 93767" transform="translate(315.426 342.459)">
          <g id="Grupo_93766" data-name="Grupo 93766">
            <g id="Grupo_93760" data-name="Grupo 93760" transform="translate(0 0.492)">
              <path id="Trazado_144016" data-name="Trazado 144016" d="M655.081,712.932v-7.647H656.7v6.308h3.1v1.339Z" transform="translate(-655.081 -705.285)" fill="#fff"/>
            </g>
            <g id="Grupo_93761" data-name="Grupo 93761" transform="translate(5.571 2.182)">
              <path id="Trazado_144017" data-name="Trazado 144017" d="M673.684,716.078a3.018,3.018,0,0,1-2.207-.779,2.951,2.951,0,0,1-.795-2.207,3.249,3.249,0,0,1,.734-2.273,2.619,2.619,0,0,1,2.032-.8,2.575,2.575,0,0,1,1.93.706,2.672,2.672,0,0,1,.691,1.951v.774H672.3a1.537,1.537,0,0,0,.4,1.062,1.418,1.418,0,0,0,1.056.382,4.394,4.394,0,0,0,1-.11,4.955,4.955,0,0,0,.983-.35v1.234a3.755,3.755,0,0,1-.894.311A5.624,5.624,0,0,1,673.684,716.078Zm-.225-4.927a1.011,1.011,0,0,0-.8.323,2.81,2.81,0,0,0-.33.912h2.239a1.328,1.328,0,0,0-.308-.912A1.044,1.044,0,0,0,673.459,711.15Z" transform="translate(-670.682 -710.016)" fill="#fff"/>
            </g>
            <g id="Grupo_93762" data-name="Grupo 93762" transform="translate(11.418 2.291)">
              <path id="Trazado_144018" data-name="Trazado 144018" d="M689.287,716.17l-2.228-5.848h1.668l1.13,3.332a5.935,5.935,0,0,1,.236,1.2h.031a5.186,5.186,0,0,1,.235-1.2l1.124-3.332h1.669l-2.228,5.848Z" transform="translate(-687.059 -710.322)" fill="#fff"/>
            </g>
            <g id="Grupo_93763" data-name="Grupo 93763" transform="translate(17.993 2.182)">
              <path id="Trazado_144019" data-name="Trazado 144019" d="M708.474,716.078a3.018,3.018,0,0,1-2.207-.779,2.951,2.951,0,0,1-.795-2.207,3.247,3.247,0,0,1,.735-2.273,2.618,2.618,0,0,1,2.032-.8,2.576,2.576,0,0,1,1.93.706,2.672,2.672,0,0,1,.691,1.951v.774h-3.771a1.536,1.536,0,0,0,.4,1.062,1.418,1.418,0,0,0,1.057.382,4.392,4.392,0,0,0,1-.11,4.957,4.957,0,0,0,.983-.35v1.234a3.757,3.757,0,0,1-.894.311A5.627,5.627,0,0,1,708.474,716.078Zm-.225-4.927a1.01,1.01,0,0,0-.8.323,1.485,1.485,0,0,0-.329.912h2.238a1.325,1.325,0,0,0-.308-.912A1.044,1.044,0,0,0,708.249,711.15Z" transform="translate(-705.472 -710.016)" fill="#fff"/>
            </g>
            <g id="Grupo_93764" data-name="Grupo 93764" transform="translate(24.677)">
              <path id="Trazado_144020" data-name="Trazado 144020" d="M725.787,712.045h-1.6v-8.139h1.6Z" transform="translate(-724.192 -703.906)" fill="#fff"/>
            </g>
            <g id="Grupo_93765" data-name="Grupo 93765" transform="translate(30.3 0.382)">
              <path id="Trazado_144021" data-name="Trazado 144021" d="M745.306,712.733h-5.346v-1.125l1.92-1.941q.853-.874,1.114-1.21a2.663,2.663,0,0,0,.377-.625,1.593,1.593,0,0,0,.115-.6.868.868,0,0,0-.254-.686.981.981,0,0,0-.677-.225,1.957,1.957,0,0,0-.863.2,4.46,4.46,0,0,0-.874.581l-.878-1.041a5.69,5.69,0,0,1,.936-.68,3.43,3.43,0,0,1,.811-.306,4.14,4.14,0,0,1,.983-.107,2.914,2.914,0,0,1,1.266.262,2.021,2.021,0,0,1,.853.732,1.945,1.945,0,0,1,.3,1.077,2.641,2.641,0,0,1-.186.991,3.786,3.786,0,0,1-.576.949,13.988,13.988,0,0,1-1.373,1.386l-.983.925v.074h3.332Z" transform="translate(-739.94 -704.976)" fill="#fff"/>
            </g>
          </g>
        </g>
        <g id="Grupo_93768" data-name="Grupo 93768" transform="translate(307.644 293.832)">
          <rect id="Rectángulo_35471" data-name="Rectángulo 35471" width="50.608" height="30.365" transform="translate(0)" fill="#afb42b"/>
        </g>
        <g id="Grupo_93776" data-name="Grupo 93776" transform="translate(315.426 303.896)">
          <g id="Grupo_93775" data-name="Grupo 93775">
            <g id="Grupo_93769" data-name="Grupo 93769" transform="translate(0 0.492)">
              <path id="Trazado_144022" data-name="Trazado 144022" d="M655.081,604.932v-7.647H656.7v6.308h3.1v1.339Z" transform="translate(-655.081 -597.285)" fill="#fff"/>
            </g>
            <g id="Grupo_93770" data-name="Grupo 93770" transform="translate(5.571 2.182)">
              <path id="Trazado_144023" data-name="Trazado 144023" d="M673.684,608.078a3.018,3.018,0,0,1-2.207-.779,2.951,2.951,0,0,1-.795-2.207,3.249,3.249,0,0,1,.734-2.273,2.619,2.619,0,0,1,2.032-.8,2.579,2.579,0,0,1,1.93.706,2.672,2.672,0,0,1,.691,1.951v.774H672.3a1.537,1.537,0,0,0,.4,1.062,1.418,1.418,0,0,0,1.056.382,4.394,4.394,0,0,0,1-.11,4.955,4.955,0,0,0,.983-.35v1.234a3.755,3.755,0,0,1-.894.311A5.625,5.625,0,0,1,673.684,608.078Zm-.225-4.927a1.011,1.011,0,0,0-.8.323,1.487,1.487,0,0,0-.33.912h2.239a1.327,1.327,0,0,0-.308-.912A1.044,1.044,0,0,0,673.459,603.15Z" transform="translate(-670.682 -602.016)" fill="#fff"/>
            </g>
            <g id="Grupo_93771" data-name="Grupo 93771" transform="translate(11.418 2.291)">
              <path id="Trazado_144024" data-name="Trazado 144024" d="M689.287,608.17l-2.228-5.848h1.668l1.13,3.332a5.946,5.946,0,0,1,.236,1.2h.031a5.186,5.186,0,0,1,.235-1.2l1.124-3.332h1.669l-2.228,5.848Z" transform="translate(-687.059 -602.322)" fill="#fff"/>
            </g>
            <g id="Grupo_93772" data-name="Grupo 93772" transform="translate(17.993 2.182)">
              <path id="Trazado_144025" data-name="Trazado 144025" d="M708.474,608.078a3.018,3.018,0,0,1-2.207-.779,2.951,2.951,0,0,1-.795-2.207,3.247,3.247,0,0,1,.735-2.273,2.618,2.618,0,0,1,2.032-.8,2.579,2.579,0,0,1,1.93.706,2.672,2.672,0,0,1,.691,1.951v.774h-3.771a1.536,1.536,0,0,0,.4,1.062,1.418,1.418,0,0,0,1.057.382,4.392,4.392,0,0,0,1-.11,4.957,4.957,0,0,0,.983-.35v1.234a3.757,3.757,0,0,1-.894.311A5.627,5.627,0,0,1,708.474,608.078Zm-.225-4.927a1.01,1.01,0,0,0-.8.323,1.484,1.484,0,0,0-.329.912h2.238a1.325,1.325,0,0,0-.308-.912A1.044,1.044,0,0,0,708.249,603.15Z" transform="translate(-705.472 -602.016)" fill="#fff"/>
            </g>
            <g id="Grupo_93773" data-name="Grupo 93773" transform="translate(24.677)">
              <path id="Trazado_144026" data-name="Trazado 144026" d="M725.787,604.045h-1.6v-8.139h1.6Z" transform="translate(-724.192 -595.906)" fill="#fff"/>
            </g>
            <g id="Grupo_93774" data-name="Grupo 93774" transform="translate(30.3 0.382)">
              <path id="Trazado_144027" data-name="Trazado 144027" d="M745.306,604.733h-5.346v-1.125l1.92-1.94q.853-.875,1.114-1.211a2.664,2.664,0,0,0,.377-.625,1.593,1.593,0,0,0,.115-.6.868.868,0,0,0-.254-.686.981.981,0,0,0-.677-.225,1.957,1.957,0,0,0-.863.2,4.485,4.485,0,0,0-.874.581l-.878-1.041a5.7,5.7,0,0,1,.936-.68,3.427,3.427,0,0,1,.811-.306,4.137,4.137,0,0,1,.983-.107,2.914,2.914,0,0,1,1.266.262,2.021,2.021,0,0,1,.853.732,1.945,1.945,0,0,1,.3,1.077,2.642,2.642,0,0,1-.186.991,3.787,3.787,0,0,1-.576.949,14,14,0,0,1-1.373,1.386l-.983.925v.074h3.332Z" transform="translate(-739.94 -596.976)" fill="#fff"/>
            </g>
          </g>
        </g>
        <g id="Grupo_93777" data-name="Grupo 93777" transform="translate(307.644 141.721)">
          <rect id="Rectángulo_35472" data-name="Rectángulo 35472" width="50.608" height="30.365" transform="translate(0)" fill="#afb42b"/>
        </g>
        <g id="Grupo_93785" data-name="Grupo 93785" transform="translate(315.426 151.785)">
          <g id="Grupo_93784" data-name="Grupo 93784" transform="translate(0 0)">
            <g id="Grupo_93778" data-name="Grupo 93778" transform="translate(0 0.492)">
              <path id="Trazado_144028" data-name="Trazado 144028" d="M655.081,178.931v-7.647H656.7v6.308h3.1v1.339Z" transform="translate(-655.081 -171.284)" fill="#fff"/>
            </g>
            <g id="Grupo_93779" data-name="Grupo 93779" transform="translate(5.571 2.181)">
              <path id="Trazado_144029" data-name="Trazado 144029" d="M673.684,182.078a3.018,3.018,0,0,1-2.207-.779,2.951,2.951,0,0,1-.795-2.207,3.248,3.248,0,0,1,.734-2.273,2.618,2.618,0,0,1,2.032-.8,2.576,2.576,0,0,1,1.93.706,2.671,2.671,0,0,1,.691,1.951v.774H672.3a1.537,1.537,0,0,0,.4,1.062,1.418,1.418,0,0,0,1.056.382,4.39,4.39,0,0,0,1-.11,5,5,0,0,0,.983-.35v1.234a3.754,3.754,0,0,1-.894.311A5.624,5.624,0,0,1,673.684,182.078Zm-.225-4.927a1.013,1.013,0,0,0-.8.322,1.492,1.492,0,0,0-.33.913h2.239a1.331,1.331,0,0,0-.308-.913A1.046,1.046,0,0,0,673.459,177.151Z" transform="translate(-670.682 -176.016)" fill="#fff"/>
            </g>
            <g id="Grupo_93780" data-name="Grupo 93780" transform="translate(11.418 2.291)">
              <path id="Trazado_144030" data-name="Trazado 144030" d="M689.287,182.171l-2.228-5.848h1.668l1.13,3.332a5.942,5.942,0,0,1,.236,1.2h.031a5.184,5.184,0,0,1,.235-1.2l1.124-3.332h1.669l-2.228,5.848Z" transform="translate(-687.059 -176.323)" fill="#fff"/>
            </g>
            <g id="Grupo_93781" data-name="Grupo 93781" transform="translate(17.993 2.181)">
              <path id="Trazado_144031" data-name="Trazado 144031" d="M708.474,182.078a3.017,3.017,0,0,1-2.207-.779,2.951,2.951,0,0,1-.795-2.207,3.246,3.246,0,0,1,.735-2.273,2.616,2.616,0,0,1,2.032-.8,2.576,2.576,0,0,1,1.93.706,2.672,2.672,0,0,1,.691,1.951v.774h-3.771a1.536,1.536,0,0,0,.4,1.062,1.418,1.418,0,0,0,1.057.382,4.388,4.388,0,0,0,1-.11,5,5,0,0,0,.983-.35v1.234a3.756,3.756,0,0,1-.894.311A5.626,5.626,0,0,1,708.474,182.078Zm-.225-4.927a1.013,1.013,0,0,0-.8.322,1.489,1.489,0,0,0-.329.913h2.238a1.329,1.329,0,0,0-.308-.913A1.046,1.046,0,0,0,708.249,177.151Z" transform="translate(-705.472 -176.016)" fill="#fff"/>
            </g>
            <g id="Grupo_93782" data-name="Grupo 93782" transform="translate(24.677)">
              <path id="Trazado_144032" data-name="Trazado 144032" d="M725.787,178.046h-1.6v-8.139h1.6Z" transform="translate(-724.192 -169.907)" fill="#fff"/>
            </g>
            <g id="Grupo_93783" data-name="Grupo 93783" transform="translate(30.3 0.382)">
              <path id="Trazado_144033" data-name="Trazado 144033" d="M745.306,178.733h-5.346v-1.124l1.92-1.941q.853-.874,1.114-1.211a2.669,2.669,0,0,0,.377-.625,1.593,1.593,0,0,0,.115-.6.867.867,0,0,0-.254-.685.982.982,0,0,0-.677-.225,1.947,1.947,0,0,0-.863.2,4.458,4.458,0,0,0-.874.581l-.878-1.041a5.735,5.735,0,0,1,.936-.68,3.442,3.442,0,0,1,.811-.306,4.157,4.157,0,0,1,.983-.107,2.914,2.914,0,0,1,1.266.262,2.021,2.021,0,0,1,.853.732,1.946,1.946,0,0,1,.3,1.077,2.641,2.641,0,0,1-.186.991,3.808,3.808,0,0,1-.576.949,14.008,14.008,0,0,1-1.373,1.386l-.983.926v.074h3.332Z" transform="translate(-739.94 -170.976)" fill="#fff"/>
            </g>
          </g>
        </g>
        <g id="Grupo_93786" data-name="Grupo 93786" transform="translate(307.644 179.663)">
          <rect id="Rectángulo_35473" data-name="Rectángulo 35473" width="50.608" height="30.365" transform="translate(0)" fill="#afb42b"/>
        </g>
        <g id="Grupo_93794" data-name="Grupo 93794" transform="translate(315.426 189.727)">
          <g id="Grupo_93793" data-name="Grupo 93793" transform="translate(0 0)">
            <g id="Grupo_93787" data-name="Grupo 93787" transform="translate(0 0.492)">
              <path id="Trazado_144034" data-name="Trazado 144034" d="M655.081,285.191v-7.647H656.7v6.308h3.1v1.339Z" transform="translate(-655.081 -277.544)" fill="#fff"/>
            </g>
            <g id="Grupo_93788" data-name="Grupo 93788" transform="translate(5.571 2.181)">
              <path id="Trazado_144035" data-name="Trazado 144035" d="M673.684,288.337a3.019,3.019,0,0,1-2.207-.779,2.951,2.951,0,0,1-.795-2.207,3.247,3.247,0,0,1,.734-2.273,2.618,2.618,0,0,1,2.032-.8,2.575,2.575,0,0,1,1.93.706,2.671,2.671,0,0,1,.691,1.951v.774H672.3a1.536,1.536,0,0,0,.4,1.062,1.416,1.416,0,0,0,1.056.382,4.387,4.387,0,0,0,1-.11,5,5,0,0,0,.983-.35v1.234a3.755,3.755,0,0,1-.894.311A5.621,5.621,0,0,1,673.684,288.337Zm-.225-4.927a1.012,1.012,0,0,0-.8.322,1.491,1.491,0,0,0-.33.913h2.239a1.331,1.331,0,0,0-.308-.913A1.045,1.045,0,0,0,673.459,283.41Z" transform="translate(-670.682 -282.275)" fill="#fff"/>
            </g>
            <g id="Grupo_93789" data-name="Grupo 93789" transform="translate(11.418 2.291)">
              <path id="Trazado_144036" data-name="Trazado 144036" d="M689.287,288.431l-2.228-5.848h1.668l1.13,3.332a5.944,5.944,0,0,1,.236,1.2h.031a5.185,5.185,0,0,1,.235-1.2l1.124-3.332h1.669l-2.228,5.848Z" transform="translate(-687.059 -282.583)" fill="#fff"/>
            </g>
            <g id="Grupo_93790" data-name="Grupo 93790" transform="translate(17.993 2.181)">
              <path id="Trazado_144037" data-name="Trazado 144037" d="M708.474,288.337a3.019,3.019,0,0,1-2.207-.779,2.951,2.951,0,0,1-.795-2.207,3.245,3.245,0,0,1,.735-2.273,2.617,2.617,0,0,1,2.032-.8,2.575,2.575,0,0,1,1.93.706,2.671,2.671,0,0,1,.691,1.951v.774h-3.771a1.535,1.535,0,0,0,.4,1.062,1.416,1.416,0,0,0,1.057.382,4.386,4.386,0,0,0,1-.11,5,5,0,0,0,.983-.35v1.234a3.756,3.756,0,0,1-.894.311A5.624,5.624,0,0,1,708.474,288.337Zm-.225-4.927a1.012,1.012,0,0,0-.8.322,1.488,1.488,0,0,0-.329.913h2.238a1.328,1.328,0,0,0-.308-.913A1.045,1.045,0,0,0,708.249,283.41Z" transform="translate(-705.472 -282.275)" fill="#fff"/>
            </g>
            <g id="Grupo_93791" data-name="Grupo 93791" transform="translate(24.677)">
              <path id="Trazado_144038" data-name="Trazado 144038" d="M725.787,284.306h-1.6v-8.139h1.6Z" transform="translate(-724.192 -276.167)" fill="#fff"/>
            </g>
            <g id="Grupo_93792" data-name="Grupo 93792" transform="translate(30.3 0.382)">
              <path id="Trazado_144039" data-name="Trazado 144039" d="M745.306,284.993h-5.346v-1.125l1.92-1.94q.853-.874,1.114-1.211a2.671,2.671,0,0,0,.377-.625,1.59,1.59,0,0,0,.115-.6.868.868,0,0,0-.254-.685.982.982,0,0,0-.677-.225,1.947,1.947,0,0,0-.863.2,4.454,4.454,0,0,0-.874.581l-.878-1.041a5.737,5.737,0,0,1,.936-.68,3.439,3.439,0,0,1,.811-.306,4.139,4.139,0,0,1,.983-.107,2.909,2.909,0,0,1,1.266.262,2.023,2.023,0,0,1,.853.732,1.947,1.947,0,0,1,.3,1.078,2.642,2.642,0,0,1-.186.991,3.814,3.814,0,0,1-.576.949,13.98,13.98,0,0,1-1.373,1.386l-.983.926v.073h3.332Z" transform="translate(-739.94 -277.236)" fill="#fff"/>
            </g>
          </g>
        </g>
        <g id="Grupo_93795" data-name="Grupo 93795" transform="translate(307.644 218.041)">
          <rect id="Rectángulo_35474" data-name="Rectángulo 35474" width="50.608" height="30.364" transform="translate(0 0)" fill="#afb42b"/>
        </g>
        <g id="Grupo_93803" data-name="Grupo 93803" transform="translate(315.426 228.105)">
          <g id="Grupo_93802" data-name="Grupo 93802" transform="translate(0 0)">
            <g id="Grupo_93796" data-name="Grupo 93796" transform="translate(0 0.492)">
              <path id="Trazado_144040" data-name="Trazado 144040" d="M655.081,392.671v-7.647H656.7v6.308h3.1v1.339Z" transform="translate(-655.081 -385.024)" fill="#fff"/>
            </g>
            <g id="Grupo_93797" data-name="Grupo 93797" transform="translate(5.571 2.181)">
              <path id="Trazado_144041" data-name="Trazado 144041" d="M673.684,395.818a3.019,3.019,0,0,1-2.207-.779,2.952,2.952,0,0,1-.795-2.207,3.248,3.248,0,0,1,.734-2.273,2.618,2.618,0,0,1,2.032-.8,2.576,2.576,0,0,1,1.93.706,2.672,2.672,0,0,1,.691,1.951v.774H672.3a1.537,1.537,0,0,0,.4,1.062,1.416,1.416,0,0,0,1.056.382,4.372,4.372,0,0,0,1-.11,5,5,0,0,0,.983-.35V395.4a3.726,3.726,0,0,1-.894.311A5.6,5.6,0,0,1,673.684,395.818Zm-.225-4.927a1.013,1.013,0,0,0-.8.322,1.492,1.492,0,0,0-.33.913h2.239a1.332,1.332,0,0,0-.308-.913A1.046,1.046,0,0,0,673.459,390.891Z" transform="translate(-670.682 -389.756)" fill="#fff"/>
            </g>
            <g id="Grupo_93798" data-name="Grupo 93798" transform="translate(11.418 2.291)">
              <path id="Trazado_144042" data-name="Trazado 144042" d="M689.287,395.911l-2.228-5.848h1.668l1.13,3.332a5.943,5.943,0,0,1,.236,1.2h.031a5.184,5.184,0,0,1,.235-1.2l1.124-3.332h1.669l-2.228,5.848Z" transform="translate(-687.059 -390.063)" fill="#fff"/>
            </g>
            <g id="Grupo_93799" data-name="Grupo 93799" transform="translate(17.993 2.181)">
              <path id="Trazado_144043" data-name="Trazado 144043" d="M708.474,395.818a3.019,3.019,0,0,1-2.207-.779,2.951,2.951,0,0,1-.795-2.207,3.246,3.246,0,0,1,.735-2.273,2.616,2.616,0,0,1,2.032-.8,2.576,2.576,0,0,1,1.93.706,2.672,2.672,0,0,1,.691,1.951v.774h-3.771a1.536,1.536,0,0,0,.4,1.062,1.416,1.416,0,0,0,1.057.382,4.37,4.37,0,0,0,1-.11,5,5,0,0,0,.983-.35V395.4a3.727,3.727,0,0,1-.894.311A5.6,5.6,0,0,1,708.474,395.818Zm-.225-4.927a1.013,1.013,0,0,0-.8.322,1.489,1.489,0,0,0-.329.913h2.238a1.329,1.329,0,0,0-.308-.913A1.046,1.046,0,0,0,708.249,390.891Z" transform="translate(-705.472 -389.756)" fill="#fff"/>
            </g>
            <g id="Grupo_93800" data-name="Grupo 93800" transform="translate(24.677)">
              <path id="Trazado_144044" data-name="Trazado 144044" d="M725.787,391.786h-1.6v-8.139h1.6Z" transform="translate(-724.192 -383.647)" fill="#fff"/>
            </g>
            <g id="Grupo_93801" data-name="Grupo 93801" transform="translate(30.3 0.382)">
              <path id="Trazado_144045" data-name="Trazado 144045" d="M745.306,392.474h-5.346v-1.124l1.92-1.941q.853-.874,1.114-1.211a2.669,2.669,0,0,0,.377-.625,1.591,1.591,0,0,0,.115-.6.867.867,0,0,0-.254-.685.982.982,0,0,0-.677-.225,1.947,1.947,0,0,0-.863.2,4.46,4.46,0,0,0-.874.581l-.878-1.041a5.73,5.73,0,0,1,.936-.68,3.441,3.441,0,0,1,.811-.306,4.157,4.157,0,0,1,.983-.107,2.914,2.914,0,0,1,1.266.261,2.022,2.022,0,0,1,.853.732,1.946,1.946,0,0,1,.3,1.077,2.641,2.641,0,0,1-.186.991,3.8,3.8,0,0,1-.576.949,14.018,14.018,0,0,1-1.373,1.386l-.983.926v.073h3.332Z" transform="translate(-739.94 -384.717)" fill="#fff"/>
            </g>
          </g>
        </g>
        <g id="Grupo_93804" data-name="Grupo 93804" transform="translate(307.644 255.982)">
          <rect id="Rectángulo_35475" data-name="Rectángulo 35475" width="50.608" height="30.365" transform="translate(0)" fill="#afb42b"/>
        </g>
        <g id="Grupo_93812" data-name="Grupo 93812" transform="translate(315.426 266.046)">
          <g id="Grupo_93811" data-name="Grupo 93811">
            <g id="Grupo_93805" data-name="Grupo 93805" transform="translate(0 0.492)">
              <path id="Trazado_144046" data-name="Trazado 144046" d="M655.081,498.932v-7.647H656.7v6.308h3.1v1.339Z" transform="translate(-655.081 -491.285)" fill="#fff"/>
            </g>
            <g id="Grupo_93806" data-name="Grupo 93806" transform="translate(5.571 2.182)">
              <path id="Trazado_144047" data-name="Trazado 144047" d="M673.684,502.078a3.018,3.018,0,0,1-2.207-.779,2.951,2.951,0,0,1-.795-2.207,3.248,3.248,0,0,1,.734-2.273,2.619,2.619,0,0,1,2.032-.8,2.578,2.578,0,0,1,1.93.706,2.672,2.672,0,0,1,.691,1.951v.774H672.3a1.536,1.536,0,0,0,.4,1.061,1.418,1.418,0,0,0,1.056.382,4.387,4.387,0,0,0,1-.11,4.95,4.95,0,0,0,.983-.35v1.234a3.755,3.755,0,0,1-.894.311A5.62,5.62,0,0,1,673.684,502.078Zm-.225-4.927a1.011,1.011,0,0,0-.8.322,1.488,1.488,0,0,0-.33.912h2.239a1.328,1.328,0,0,0-.308-.912A1.045,1.045,0,0,0,673.459,497.15Z" transform="translate(-670.682 -496.016)" fill="#fff"/>
            </g>
            <g id="Grupo_93807" data-name="Grupo 93807" transform="translate(11.418 2.291)">
              <path id="Trazado_144048" data-name="Trazado 144048" d="M689.287,502.17l-2.228-5.848h1.668l1.13,3.332a5.945,5.945,0,0,1,.236,1.2h.031a5.187,5.187,0,0,1,.235-1.2l1.124-3.332h1.669l-2.228,5.848Z" transform="translate(-687.059 -496.322)" fill="#fff"/>
            </g>
            <g id="Grupo_93808" data-name="Grupo 93808" transform="translate(17.993 2.182)">
              <path id="Trazado_144049" data-name="Trazado 144049" d="M708.474,502.078a3.017,3.017,0,0,1-2.207-.779,2.951,2.951,0,0,1-.795-2.207,3.246,3.246,0,0,1,.735-2.273,2.618,2.618,0,0,1,2.032-.8,2.579,2.579,0,0,1,1.93.706,2.673,2.673,0,0,1,.691,1.951v.774h-3.771a1.535,1.535,0,0,0,.4,1.061,1.417,1.417,0,0,0,1.057.382,4.386,4.386,0,0,0,1-.11,4.953,4.953,0,0,0,.983-.35v1.234a3.757,3.757,0,0,1-.894.311A5.623,5.623,0,0,1,708.474,502.078Zm-.225-4.927a1.011,1.011,0,0,0-.8.322,1.485,1.485,0,0,0-.329.912h2.238a1.325,1.325,0,0,0-.308-.912A1.044,1.044,0,0,0,708.249,497.15Z" transform="translate(-705.472 -496.016)" fill="#fff"/>
            </g>
            <g id="Grupo_93809" data-name="Grupo 93809" transform="translate(24.677)">
              <path id="Trazado_144050" data-name="Trazado 144050" d="M725.787,498.045h-1.6v-8.139h1.6Z" transform="translate(-724.192 -489.906)" fill="#fff"/>
            </g>
            <g id="Grupo_93810" data-name="Grupo 93810" transform="translate(30.3 0.382)">
              <path id="Trazado_144051" data-name="Trazado 144051" d="M745.306,498.733h-5.346v-1.125l1.92-1.94q.853-.875,1.114-1.211a2.661,2.661,0,0,0,.377-.625,1.592,1.592,0,0,0,.115-.6.868.868,0,0,0-.254-.686.981.981,0,0,0-.677-.225,1.957,1.957,0,0,0-.863.2,4.493,4.493,0,0,0-.874.581l-.878-1.04a5.69,5.69,0,0,1,.936-.68,3.427,3.427,0,0,1,.811-.306,4.137,4.137,0,0,1,.983-.107,2.914,2.914,0,0,1,1.266.262,2.021,2.021,0,0,1,.853.732,1.946,1.946,0,0,1,.3,1.077,2.642,2.642,0,0,1-.186.991,3.8,3.8,0,0,1-.576.95,14.013,14.013,0,0,1-1.373,1.386l-.983.925v.074h3.332Z" transform="translate(-739.94 -490.976)" fill="#fff"/>
            </g>
          </g>
        </g>
        <g id="Grupo_93813" data-name="Grupo 93813" transform="translate(226.673 313.113)">
          <rect id="Rectángulo_35476" data-name="Rectángulo 35476" width="50.608" height="30.365" fill="#43a047"/>
        </g>
        <g id="Grupo_93821" data-name="Grupo 93821" transform="translate(234.455 323.177)">
          <g id="Grupo_93820" data-name="Grupo 93820" transform="translate(0 0)">
            <g id="Grupo_93814" data-name="Grupo 93814" transform="translate(0 0.492)">
              <path id="Trazado_144052" data-name="Trazado 144052" d="M428.314,658.932v-7.647h1.622v6.308h3.1v1.339Z" transform="translate(-428.314 -651.285)" fill="#fff"/>
            </g>
            <g id="Grupo_93815" data-name="Grupo 93815" transform="translate(5.57 2.182)">
              <path id="Trazado_144053" data-name="Trazado 144053" d="M446.916,662.078a3.016,3.016,0,0,1-2.207-.779,2.95,2.95,0,0,1-.8-2.207,3.247,3.247,0,0,1,.735-2.273,2.618,2.618,0,0,1,2.032-.8,2.579,2.579,0,0,1,1.93.706,2.672,2.672,0,0,1,.691,1.951v.774H445.53a1.536,1.536,0,0,0,.4,1.062,1.419,1.419,0,0,0,1.057.382,4.39,4.39,0,0,0,1-.11,4.948,4.948,0,0,0,.983-.35v1.234a3.746,3.746,0,0,1-.894.311A5.623,5.623,0,0,1,446.916,662.078Zm-.225-4.927a1.01,1.01,0,0,0-.795.323,1.485,1.485,0,0,0-.33.912h2.239a1.327,1.327,0,0,0-.309-.912A1.043,1.043,0,0,0,446.691,657.15Z" transform="translate(-443.914 -656.016)" fill="#fff"/>
            </g>
            <g id="Grupo_93816" data-name="Grupo 93816" transform="translate(11.418 2.291)">
              <path id="Trazado_144054" data-name="Trazado 144054" d="M462.519,662.17l-2.228-5.848h1.669l1.13,3.332a5.943,5.943,0,0,1,.235,1.2h.031a5.232,5.232,0,0,1,.235-1.2l1.125-3.332h1.668l-2.228,5.848Z" transform="translate(-460.291 -656.322)" fill="#fff"/>
            </g>
            <g id="Grupo_93817" data-name="Grupo 93817" transform="translate(17.993 2.182)">
              <path id="Trazado_144055" data-name="Trazado 144055" d="M481.706,662.078a3.016,3.016,0,0,1-2.207-.779,2.95,2.95,0,0,1-.8-2.207,3.247,3.247,0,0,1,.735-2.273,2.618,2.618,0,0,1,2.032-.8,2.578,2.578,0,0,1,1.93.706,2.671,2.671,0,0,1,.691,1.951v.774H480.32a1.536,1.536,0,0,0,.4,1.062,1.419,1.419,0,0,0,1.057.382,4.391,4.391,0,0,0,1-.11,4.95,4.95,0,0,0,.983-.35v1.234a3.746,3.746,0,0,1-.895.311A5.62,5.62,0,0,1,481.706,662.078Zm-.225-4.927a1.01,1.01,0,0,0-.795.323,1.485,1.485,0,0,0-.33.912H482.6a1.325,1.325,0,0,0-.309-.912A1.043,1.043,0,0,0,481.481,657.15Z" transform="translate(-478.704 -656.016)" fill="#fff"/>
            </g>
            <g id="Grupo_93818" data-name="Grupo 93818" transform="translate(24.677)">
              <path id="Trazado_144056" data-name="Trazado 144056" d="M499.02,658.045h-1.6v-8.139h1.6Z" transform="translate(-497.425 -649.906)" fill="#fff"/>
            </g>
            <g id="Grupo_93819" data-name="Grupo 93819" transform="translate(30.525 0.492)">
              <path id="Trazado_144057" data-name="Trazado 144057" d="M517.594,658.932h-1.616v-4.426l.016-.727.026-.795q-.4.4-.56.528l-.879.707-.779-.973,2.463-1.961h1.329Z" transform="translate(-513.802 -651.285)" fill="#fff"/>
            </g>
          </g>
        </g>
        <g id="Grupo_93822" data-name="Grupo 93822" transform="translate(226.673 255.982)">
          <rect id="Rectángulo_35477" data-name="Rectángulo 35477" width="50.608" height="30.365" fill="#43a047"/>
        </g>
        <g id="Grupo_93830" data-name="Grupo 93830" transform="translate(234.455 266.046)">
          <g id="Grupo_93829" data-name="Grupo 93829">
            <g id="Grupo_93823" data-name="Grupo 93823" transform="translate(0 0.492)">
              <path id="Trazado_144058" data-name="Trazado 144058" d="M428.314,498.932v-7.647h1.622v6.308h3.1v1.339Z" transform="translate(-428.314 -491.285)" fill="#fff"/>
            </g>
            <g id="Grupo_93824" data-name="Grupo 93824" transform="translate(5.57 2.182)">
              <path id="Trazado_144059" data-name="Trazado 144059" d="M446.916,502.078a3.016,3.016,0,0,1-2.207-.779,2.95,2.95,0,0,1-.8-2.207,3.247,3.247,0,0,1,.735-2.273,2.618,2.618,0,0,1,2.032-.8,2.579,2.579,0,0,1,1.93.706,2.672,2.672,0,0,1,.691,1.951v.774H445.53a1.535,1.535,0,0,0,.4,1.061,1.418,1.418,0,0,0,1.057.382,4.384,4.384,0,0,0,1-.11,4.951,4.951,0,0,0,.983-.35v1.234a3.746,3.746,0,0,1-.894.311A5.62,5.62,0,0,1,446.916,502.078Zm-.225-4.927a1.011,1.011,0,0,0-.795.322,1.485,1.485,0,0,0-.33.912h2.239a1.327,1.327,0,0,0-.309-.912A1.043,1.043,0,0,0,446.691,497.15Z" transform="translate(-443.914 -496.016)" fill="#fff"/>
            </g>
            <g id="Grupo_93825" data-name="Grupo 93825" transform="translate(11.418 2.291)">
              <path id="Trazado_144060" data-name="Trazado 144060" d="M462.519,502.17l-2.228-5.848h1.669l1.13,3.332a5.944,5.944,0,0,1,.235,1.2h.031a5.233,5.233,0,0,1,.235-1.2l1.125-3.332h1.668l-2.228,5.848Z" transform="translate(-460.291 -496.322)" fill="#fff"/>
            </g>
            <g id="Grupo_93826" data-name="Grupo 93826" transform="translate(17.993 2.182)">
              <path id="Trazado_144061" data-name="Trazado 144061" d="M481.706,502.078a3.017,3.017,0,0,1-2.207-.779,2.95,2.95,0,0,1-.8-2.207,3.247,3.247,0,0,1,.735-2.273,2.618,2.618,0,0,1,2.032-.8,2.578,2.578,0,0,1,1.93.706,2.671,2.671,0,0,1,.691,1.951v.774H480.32a1.536,1.536,0,0,0,.4,1.061,1.418,1.418,0,0,0,1.057.382,4.384,4.384,0,0,0,1-.11,4.954,4.954,0,0,0,.983-.35v1.234a3.746,3.746,0,0,1-.895.311A5.616,5.616,0,0,1,481.706,502.078Zm-.225-4.927a1.01,1.01,0,0,0-.795.322,1.485,1.485,0,0,0-.33.912H482.6a1.325,1.325,0,0,0-.309-.912A1.043,1.043,0,0,0,481.481,497.15Z" transform="translate(-478.704 -496.016)" fill="#fff"/>
            </g>
            <g id="Grupo_93827" data-name="Grupo 93827" transform="translate(24.677)">
              <path id="Trazado_144062" data-name="Trazado 144062" d="M499.02,498.045h-1.6v-8.139h1.6Z" transform="translate(-497.425 -489.906)" fill="#fff"/>
            </g>
            <g id="Grupo_93828" data-name="Grupo 93828" transform="translate(30.525 0.492)">
              <path id="Trazado_144063" data-name="Trazado 144063" d="M517.594,498.932h-1.616v-4.425l.016-.728.026-.795q-.4.4-.56.528l-.879.706-.779-.973,2.463-1.961h1.329Z" transform="translate(-513.802 -491.285)" fill="#fff"/>
            </g>
          </g>
        </g>
        <g id="Grupo_93831" data-name="Grupo 93831" transform="translate(226.673 198.852)">
          <rect id="Rectángulo_35478" data-name="Rectángulo 35478" width="50.608" height="30.365" transform="translate(0 0)" fill="#43a047"/>
        </g>
        <g id="Grupo_93839" data-name="Grupo 93839" transform="translate(234.455 208.916)">
          <g id="Grupo_93838" data-name="Grupo 93838" transform="translate(0 0)">
            <g id="Grupo_93832" data-name="Grupo 93832" transform="translate(0 0.492)">
              <path id="Trazado_144064" data-name="Trazado 144064" d="M428.314,338.931v-7.647h1.622v6.308h3.1v1.339Z" transform="translate(-428.314 -331.284)" fill="#fff"/>
            </g>
            <g id="Grupo_93833" data-name="Grupo 93833" transform="translate(5.57 2.181)">
              <path id="Trazado_144065" data-name="Trazado 144065" d="M446.916,342.078a3.016,3.016,0,0,1-2.207-.779,2.95,2.95,0,0,1-.8-2.207,3.246,3.246,0,0,1,.735-2.273,2.617,2.617,0,0,1,2.032-.8,2.576,2.576,0,0,1,1.93.706,2.672,2.672,0,0,1,.691,1.951v.774H445.53a1.537,1.537,0,0,0,.4,1.062,1.418,1.418,0,0,0,1.057.382,4.387,4.387,0,0,0,1-.11,5,5,0,0,0,.983-.35v1.234a3.75,3.75,0,0,1-.894.311A5.621,5.621,0,0,1,446.916,342.078Zm-.225-4.927a1.012,1.012,0,0,0-.795.322,1.489,1.489,0,0,0-.33.913h2.239a1.331,1.331,0,0,0-.309-.913A1.045,1.045,0,0,0,446.691,337.151Z" transform="translate(-443.914 -336.016)" fill="#fff"/>
            </g>
            <g id="Grupo_93834" data-name="Grupo 93834" transform="translate(11.418 2.291)">
              <path id="Trazado_144066" data-name="Trazado 144066" d="M462.519,342.171l-2.228-5.848h1.669l1.13,3.332a5.942,5.942,0,0,1,.235,1.2h.031a5.232,5.232,0,0,1,.235-1.2l1.125-3.332h1.668l-2.228,5.848Z" transform="translate(-460.291 -336.323)" fill="#fff"/>
            </g>
            <g id="Grupo_93835" data-name="Grupo 93835" transform="translate(17.993 2.181)">
              <path id="Trazado_144067" data-name="Trazado 144067" d="M481.706,342.078a3.017,3.017,0,0,1-2.207-.779,2.95,2.95,0,0,1-.8-2.207,3.246,3.246,0,0,1,.735-2.273,2.617,2.617,0,0,1,2.032-.8,2.575,2.575,0,0,1,1.93.706,2.67,2.67,0,0,1,.691,1.951v.774H480.32a1.537,1.537,0,0,0,.4,1.062,1.418,1.418,0,0,0,1.057.382,4.387,4.387,0,0,0,1-.11,5,5,0,0,0,.983-.35v1.234a3.75,3.75,0,0,1-.895.311A5.618,5.618,0,0,1,481.706,342.078Zm-.225-4.927a1.012,1.012,0,0,0-.795.322,1.489,1.489,0,0,0-.33.913H482.6a1.329,1.329,0,0,0-.309-.913A1.045,1.045,0,0,0,481.481,337.151Z" transform="translate(-478.704 -336.016)" fill="#fff"/>
            </g>
            <g id="Grupo_93836" data-name="Grupo 93836" transform="translate(24.677)">
              <path id="Trazado_144068" data-name="Trazado 144068" d="M499.02,338.046h-1.6v-8.139h1.6Z" transform="translate(-497.425 -329.907)" fill="#fff"/>
            </g>
            <g id="Grupo_93837" data-name="Grupo 93837" transform="translate(30.525 0.492)">
              <path id="Trazado_144069" data-name="Trazado 144069" d="M517.594,338.931h-1.616v-4.425l.016-.727.026-.795q-.4.4-.56.528l-.879.706-.779-.973,2.463-1.961h1.329Z" transform="translate(-513.802 -331.284)" fill="#fff"/>
            </g>
          </g>
        </g>
        <g id="Grupo_93840" data-name="Grupo 93840" transform="translate(226.673 141.721)">
          <rect id="Rectángulo_35479" data-name="Rectángulo 35479" width="50.608" height="30.365" fill="#43a047"/>
        </g>
        <g id="Grupo_93848" data-name="Grupo 93848" transform="translate(234.455 151.785)">
          <g id="Grupo_93847" data-name="Grupo 93847" transform="translate(0 0)">
            <g id="Grupo_93841" data-name="Grupo 93841" transform="translate(0 0.492)">
              <path id="Trazado_144070" data-name="Trazado 144070" d="M428.314,178.931v-7.647h1.622v6.308h3.1v1.339Z" transform="translate(-428.314 -171.284)" fill="#fff"/>
            </g>
            <g id="Grupo_93842" data-name="Grupo 93842" transform="translate(5.57 2.181)">
              <path id="Trazado_144071" data-name="Trazado 144071" d="M446.916,182.078a3.016,3.016,0,0,1-2.207-.779,2.95,2.95,0,0,1-.8-2.207,3.246,3.246,0,0,1,.735-2.273,2.617,2.617,0,0,1,2.032-.8,2.576,2.576,0,0,1,1.93.706,2.671,2.671,0,0,1,.691,1.951v.774H445.53a1.537,1.537,0,0,0,.4,1.062,1.418,1.418,0,0,0,1.057.382,4.386,4.386,0,0,0,1-.11,5,5,0,0,0,.983-.35v1.234a3.745,3.745,0,0,1-.894.311A5.623,5.623,0,0,1,446.916,182.078Zm-.225-4.927a1.012,1.012,0,0,0-.795.322,1.49,1.49,0,0,0-.33.913h2.239a1.331,1.331,0,0,0-.309-.913A1.045,1.045,0,0,0,446.691,177.151Z" transform="translate(-443.914 -176.016)" fill="#fff"/>
            </g>
            <g id="Grupo_93843" data-name="Grupo 93843" transform="translate(11.418 2.291)">
              <path id="Trazado_144072" data-name="Trazado 144072" d="M462.519,182.171l-2.228-5.848h1.669l1.13,3.332a5.94,5.94,0,0,1,.235,1.2h.031a5.23,5.23,0,0,1,.235-1.2l1.125-3.332h1.668l-2.228,5.848Z" transform="translate(-460.291 -176.323)" fill="#fff"/>
            </g>
            <g id="Grupo_93844" data-name="Grupo 93844" transform="translate(17.993 2.181)">
              <path id="Trazado_144073" data-name="Trazado 144073" d="M481.706,182.078a3.017,3.017,0,0,1-2.207-.779,2.95,2.95,0,0,1-.8-2.207,3.246,3.246,0,0,1,.735-2.273,2.617,2.617,0,0,1,2.032-.8,2.575,2.575,0,0,1,1.93.706,2.67,2.67,0,0,1,.691,1.951v.774H480.32a1.537,1.537,0,0,0,.4,1.062,1.418,1.418,0,0,0,1.057.382,4.387,4.387,0,0,0,1-.11,5,5,0,0,0,.983-.35v1.234a3.746,3.746,0,0,1-.895.311A5.62,5.62,0,0,1,481.706,182.078Zm-.225-4.927a1.012,1.012,0,0,0-.795.322,1.489,1.489,0,0,0-.33.913H482.6a1.329,1.329,0,0,0-.309-.913A1.045,1.045,0,0,0,481.481,177.151Z" transform="translate(-478.704 -176.016)" fill="#fff"/>
            </g>
            <g id="Grupo_93845" data-name="Grupo 93845" transform="translate(24.677)">
              <path id="Trazado_144074" data-name="Trazado 144074" d="M499.02,178.046h-1.6v-8.139h1.6Z" transform="translate(-497.425 -169.907)" fill="#fff"/>
            </g>
            <g id="Grupo_93846" data-name="Grupo 93846" transform="translate(30.525 0.492)">
              <path id="Trazado_144075" data-name="Trazado 144075" d="M517.594,178.931h-1.616v-4.425l.016-.727.026-.795q-.4.4-.56.528l-.879.706-.779-.973,2.463-1.961h1.329Z" transform="translate(-513.802 -171.284)" fill="#fff"/>
            </g>
          </g>
        </g>
        <g id="Grupo_93867" data-name="Grupo 93867" transform="translate(277.281 213.499)">
          <rect id="Rectángulo_35482" data-name="Rectángulo 35482" width="15.182" height="1.071" transform="translate(0)" fill="#6d6e71"/>
        </g>
        <g id="Grupo_93868" data-name="Grupo 93868" transform="translate(292.463 194.31)">
          <rect id="Rectángulo_35483" data-name="Rectángulo 35483" width="15.182" height="1.071" fill="#6d6e71"/>
        </g>
        <g id="Grupo_93869" data-name="Grupo 93869" transform="translate(292.463 232.687)">
          <rect id="Rectángulo_35484" data-name="Rectángulo 35484" width="15.182" height="1.071" transform="translate(0 0)" fill="#6d6e71"/>
        </g>
        <g id="Grupo_93870" data-name="Grupo 93870" transform="translate(291.928 194.312)">
          <rect id="Rectángulo_35485" data-name="Rectángulo 35485" width="1.071" height="39.456" transform="translate(0 0)" fill="#6d6e71"/>
        </g>
        <g id="Grupo_93875" data-name="Grupo 93875" transform="translate(277.281 308.565)">
          <g id="Grupo_93871" data-name="Grupo 93871" transform="translate(0 19.189)">
            <rect id="Rectángulo_35486" data-name="Rectángulo 35486" width="15.182" height="1.071" fill="#6d6e71"/>
          </g>
          <g id="Grupo_93872" data-name="Grupo 93872" transform="translate(15.182 0)">
            <rect id="Rectángulo_35487" data-name="Rectángulo 35487" width="15.182" height="1.071" fill="#6d6e71"/>
          </g>
          <g id="Grupo_93873" data-name="Grupo 93873" transform="translate(15.182 38.378)">
            <rect id="Rectángulo_35488" data-name="Rectángulo 35488" width="15.182" height="1.071" fill="#6d6e71"/>
          </g>
          <g id="Grupo_93874" data-name="Grupo 93874" transform="translate(14.647 0.002)">
            <rect id="Rectángulo_35489" data-name="Rectángulo 35489" width="1.071" height="39.456" fill="#6d6e71"/>
          </g>
        </g>
        <g id="Grupo_93904" data-name="Grupo 93904" transform="translate(211.491 213.499)">
          <rect id="Rectángulo_35500" data-name="Rectángulo 35500" width="15.182" height="1.071" fill="#6d6e71"/>
        </g>
        <g id="Grupo_93905" data-name="Grupo 93905" transform="translate(211.491 270.629)">
          <rect id="Rectángulo_35501" data-name="Rectángulo 35501" width="15.182" height="1.071" fill="#6d6e71"/>
        </g>
        <g id="Grupo_93906" data-name="Grupo 93906" transform="translate(211.491 327.76)">
          <rect id="Rectángulo_35502" data-name="Rectángulo 35502" width="15.182" height="1.071" transform="translate(0 0)" fill="#6d6e71"/>
        </g>
        <g id="Grupo_93907" data-name="Grupo 93907" transform="translate(211.491 156.368)">
          <rect id="Rectángulo_35503" data-name="Rectángulo 35503" width="15.182" height="1.071" transform="translate(0 0)" fill="#6d6e71"/>
        </g>
        <g id="Grupo_93908" data-name="Grupo 93908" transform="translate(277.281 270.629)">
          <rect id="Rectángulo_35504" data-name="Rectángulo 35504" width="30.363" height="1.071" transform="translate(0)" fill="#6d6e71"/>
        </g>
        <g id="Grupo_93909" data-name="Grupo 93909" transform="translate(277.281 156.368)">
          <rect id="Rectángulo_35505" data-name="Rectángulo 35505" width="30.363" height="1.071" transform="translate(0 0)" fill="#6d6e71"/>
        </g>
        <g id="Grupo_93911" data-name="Grupo 93911" transform="translate(211.372 156.368)">
          <rect id="Rectángulo_35507" data-name="Rectángulo 35507" width="1.071" height="172.452" transform="translate(0 0)" fill="#6d6e71"/>
        </g>
      </g>
    </g>
  </g>
</svg>
