<svg xmlns="http://www.w3.org/2000/svg" width="224.066" height="199.029" viewBox="0 0 224.066 199.029">
  <g id="Grupo_92686" data-name="Grupo 92686" transform="translate(-8.53)">
    <g id="Grupo_92626" data-name="Grupo 92626" transform="translate(30.241 27.253)">
      <g id="Grupo_92615" data-name="Grupo 92615" transform="translate(51.298 159.387)">
        <g id="Grupo_92614" data-name="Grupo 92614">
          <g id="Grupo_92611" data-name="Grupo 92611" transform="translate(75.945)">
            <path id="Trazado_142809" data-name="Trazado 142809" d="M959.567,1085.971a1.134,1.134,0,0,1-.472-2.165c1.352-.618,2.705-1.278,4.023-1.962a1.133,1.133,0,1,1,1.045,2.012c-1.351.7-2.74,1.379-4.125,2.012A1.133,1.133,0,0,1,959.567,1085.971Z" transform="translate(-958.432 -1081.716)" fill="#ff6d60"/>
          </g>
          <g id="Grupo_92612" data-name="Grupo 92612" transform="translate(11.888 5.053)">
            <path id="Trazado_142810" data-name="Trazado 142810" d="M769.547,1105.953h-.027c-2.762-.065-5.549-.256-8.281-.567a1.133,1.133,0,0,1,.256-2.252c2.666.3,5.384.49,8.079.553a1.133,1.133,0,0,1-.026,2.266Zm8.2-.17a1.133,1.133,0,0,1-.073-2.264c2.688-.176,5.4-.476,8.047-.892a1.133,1.133,0,1,1,.351,2.239c-2.718.426-5.493.734-8.25.914Zm-24.472-1.685a1.15,1.15,0,0,1-.231-.024c-2.7-.559-5.408-1.249-8.045-2.05a1.133,1.133,0,0,1,.659-2.169c2.572.782,5.211,1.454,7.845,2a1.133,1.133,0,0,1-.228,2.243Zm40.653-.855a1.134,1.134,0,0,1-.276-2.233c2.607-.656,5.215-1.44,7.752-2.33a1.133,1.133,0,1,1,.751,2.139c-2.6.913-5.277,1.717-7.95,2.39A1.143,1.143,0,0,1,793.924,1103.243Z" transform="translate(-744.191 -1098.616)" fill="#ff6d60"/>
          </g>
          <g id="Grupo_92613" data-name="Grupo 92613" transform="translate(0 1.688)">
            <path id="Trazado_142811" data-name="Trazado 142811" d="M709.717,1091.443a1.134,1.134,0,0,1-.427-.084c-1.41-.573-2.826-1.191-4.207-1.836a1.133,1.133,0,0,1,.959-2.054c1.347.629,2.727,1.231,4.1,1.79a1.133,1.133,0,0,1-.428,2.183Z" transform="translate(-704.429 -1087.363)" fill="#ff6d60"/>
          </g>
        </g>
      </g>
      <g id="Grupo_92620" data-name="Grupo 92620" transform="translate(150.907 12.07)">
        <g id="Grupo_92619" data-name="Grupo 92619">
          <g id="Grupo_92616" data-name="Grupo 92616">
            <path id="Trazado_142812" data-name="Trazado 142812" d="M1041.974,594.417a1.13,1.13,0,0,1-.807-.338c-1.042-1.057-2.126-2.1-3.221-3.109a1.133,1.133,0,1,1,1.533-1.67c1.122,1.031,2.233,2.1,3.3,3.188a1.134,1.134,0,0,1-.807,1.929Z" transform="translate(-1037.579 -589.001)" fill="#ff6d60"/>
          </g>
          <g id="Grupo_92617" data-name="Grupo 92617" transform="translate(8.919 9.446)">
            <path id="Trazado_142813" data-name="Trazado 142813" d="M1088.936,677.38a1.133,1.133,0,0,1-1.132-1.1c-.085-2.781-.3-5.585-.642-8.333a1.133,1.133,0,1,1,2.25-.279c.349,2.817.571,5.692.658,8.542a1.134,1.134,0,0,1-1.1,1.168Zm-2.084-16.778a1.133,1.133,0,0,1-1.106-.89c-.6-2.711-1.332-5.425-2.181-8.066a1.133,1.133,0,1,1,2.158-.694c.871,2.708,1.623,5.492,2.236,8.272a1.133,1.133,0,0,1-.862,1.351A1.153,1.153,0,0,1,1086.852,660.6Zm-5.173-16.1a1.133,1.133,0,0,1-1.042-.687c-1.093-2.549-2.322-5.078-3.651-7.518a1.133,1.133,0,1,1,1.99-1.085c1.363,2.5,2.623,5.1,3.744,7.709a1.134,1.134,0,0,1-1.041,1.58Zm-8.089-14.848a1.132,1.132,0,0,1-.941-.5c-1.548-2.3-3.226-4.559-4.984-6.71a1.133,1.133,0,0,1,1.755-1.435c1.8,2.205,3.522,4.52,5.11,6.88a1.133,1.133,0,0,1-.939,1.766Z" transform="translate(-1067.408 -620.596)" fill="#ff6d60"/>
          </g>
          <g id="Grupo_92618" data-name="Grupo 92618" transform="translate(28.793 72.448)">
            <path id="Trazado_142814" data-name="Trazado 142814" d="M1135.015,838.093a1.148,1.148,0,0,1-.127-.007,1.133,1.133,0,0,1-1-1.252c.165-1.475.294-2.976.386-4.46a1.133,1.133,0,1,1,2.262.139c-.094,1.521-.227,3.06-.4,4.573A1.133,1.133,0,0,1,1135.015,838.093Z" transform="translate(-1133.88 -831.31)" fill="#ff6d60"/>
          </g>
        </g>
      </g>
      <g id="Grupo_92625" data-name="Grupo 92625">
        <g id="Grupo_92624" data-name="Grupo 92624">
          <g id="Grupo_92621" data-name="Grupo 92621" transform="translate(0 60.399)">
            <path id="Trazado_142815" data-name="Trazado 142815" d="M533.994,757.371a1.167,1.167,0,0,1-.175-.013,1.134,1.134,0,0,1-.946-1.294c.234-1.5.508-3.025.817-4.517a1.133,1.133,0,1,1,2.22.459c-.3,1.456-.569,2.938-.8,4.406A1.134,1.134,0,0,1,533.994,757.371Z" transform="translate(-532.859 -750.643)" fill="#ff6d60"/>
          </g>
          <g id="Grupo_92622" data-name="Grupo 92622" transform="translate(2.79 6.967)">
            <path id="Trazado_142816" data-name="Trazado 142816" d="M543.323,619.828a1.134,1.134,0,0,1-1.085-1.461c.783-2.591,1.693-5.179,2.705-7.691a1.133,1.133,0,1,1,2.1.847c-.987,2.45-1.875,4.973-2.639,7.5A1.134,1.134,0,0,1,543.323,619.828Zm6.01-14.922a1.134,1.134,0,0,1-1.008-1.649c1.231-2.41,2.587-4.8,4.029-7.088a1.133,1.133,0,1,1,1.919,1.207c-1.406,2.236-2.728,4.562-3.929,6.912A1.134,1.134,0,0,1,549.333,604.906Zm8.562-13.62a1.134,1.134,0,0,1-.9-1.819c1.638-2.155,3.392-4.263,5.214-6.266a1.134,1.134,0,0,1,1.677,1.526c-1.777,1.953-3.489,4.009-5.086,6.112A1.132,1.132,0,0,1,557.9,591.287Zm10.828-11.9a1.133,1.133,0,0,1-.768-1.967c1.992-1.834,4.089-3.6,6.234-5.251a1.133,1.133,0,1,1,1.383,1.8c-2.093,1.61-4.138,3.334-6.081,5.123A1.129,1.129,0,0,1,568.723,579.388Z" transform="translate(-542.189 -571.934)" fill="#ff6d60"/>
          </g>
          <g id="Grupo_92623" data-name="Grupo 92623" transform="translate(40.947)">
            <path id="Trazado_142817" data-name="Trazado 142817" d="M670.943,553.24a1.134,1.134,0,0,1-.61-2.09c1.285-.819,2.608-1.616,3.932-2.369a1.133,1.133,0,0,1,1.121,1.97c-1.291.735-2.581,1.512-3.835,2.31A1.13,1.13,0,0,1,670.943,553.24Z" transform="translate(-669.808 -548.633)" fill="#ff6d60"/>
          </g>
        </g>
      </g>
    </g>
    <g id="Grupo_92641" data-name="Grupo 92641" transform="translate(0 93.26)">
      <g id="Grupo_92640" data-name="Grupo 92640">
        <g id="Grupo_92633" data-name="Grupo 92633" transform="translate(28.862)">
          <g id="Grupo_92628" data-name="Grupo 92628">
            <g id="Grupo_92627" data-name="Grupo 92627">
              <path id="Trazado_142818" data-name="Trazado 142818" d="M572.56,775.723v3.934a1.917,1.917,0,0,1-1.917,1.917H536.378a4.339,4.339,0,0,0-4.339,4.339v33.7a4.339,4.339,0,0,0,4.339,4.339h55.716a4.339,4.339,0,0,0,4.339-4.339v-43.89a2.532,2.532,0,0,0-2.532-2.532H575.092A2.532,2.532,0,0,0,572.56,775.723Z" transform="translate(-530.906 -772.058)" fill="#fff"/>
              <path id="Trazado_142819" data-name="Trazado 142819" d="M589.438,822.429H533.721a5.479,5.479,0,0,1-5.472-5.472v-33.7a5.479,5.479,0,0,1,5.472-5.473h34.265a.785.785,0,0,0,.784-.784v-3.934a3.669,3.669,0,0,1,3.665-3.665h18.81a3.669,3.669,0,0,1,3.666,3.665v43.89A5.479,5.479,0,0,1,589.438,822.429Zm-55.716-42.378a3.209,3.209,0,0,0-3.206,3.206v33.7a3.209,3.209,0,0,0,3.206,3.206h55.716a3.209,3.209,0,0,0,3.206-3.206v-43.89a1.4,1.4,0,0,0-1.4-1.4h-18.81a1.4,1.4,0,0,0-1.4,1.4V777a3.054,3.054,0,0,1-3.051,3.051Z" transform="translate(-528.249 -769.401)" fill="#ff6d60"/>
            </g>
          </g>
          <g id="Grupo_92630" data-name="Grupo 92630" transform="translate(9.546 9.546)">
            <g id="Grupo_92629" data-name="Grupo 92629">
              <path id="Trazado_142820" data-name="Trazado 142820" d="M604.487,807.65v3.934a1.917,1.917,0,0,1-1.917,1.917H568.305a4.339,4.339,0,0,0-4.339,4.339v33.7a4.339,4.339,0,0,0,4.339,4.339h55.716a4.339,4.339,0,0,0,4.339-4.339V807.65a2.532,2.532,0,0,0-2.532-2.532H607.019A2.532,2.532,0,0,0,604.487,807.65Z" transform="translate(-562.833 -803.985)" fill="#ffa648"/>
              <path id="Trazado_142821" data-name="Trazado 142821" d="M621.365,854.356H565.648a5.479,5.479,0,0,1-5.472-5.473v-33.7a5.479,5.479,0,0,1,5.472-5.473h34.265a.785.785,0,0,0,.784-.784v-3.934a3.669,3.669,0,0,1,3.665-3.665h18.81a3.67,3.67,0,0,1,3.666,3.665v43.89A5.479,5.479,0,0,1,621.365,854.356Zm-55.716-42.379a3.21,3.21,0,0,0-3.206,3.206v33.7a3.21,3.21,0,0,0,3.206,3.206h55.716a3.21,3.21,0,0,0,3.206-3.206v-43.89a1.4,1.4,0,0,0-1.4-1.4h-18.81a1.4,1.4,0,0,0-1.4,1.4v3.934a3.054,3.054,0,0,1-3.05,3.05Z" transform="translate(-560.176 -801.328)" fill="#ff6d60"/>
            </g>
          </g>
          <g id="Grupo_92632" data-name="Grupo 92632" transform="translate(18.84 18.84)">
            <g id="Grupo_92631" data-name="Grupo 92631">
              <path id="Trazado_142822" data-name="Trazado 142822" d="M635.572,838.735v3.933a1.917,1.917,0,0,1-1.917,1.917H599.391a4.339,4.339,0,0,0-4.339,4.339v33.7a4.339,4.339,0,0,0,4.339,4.339h55.716a4.339,4.339,0,0,0,4.339-4.339v-43.89a2.532,2.532,0,0,0-2.533-2.532H638.1A2.532,2.532,0,0,0,635.572,838.735Z" transform="translate(-593.918 -835.07)" fill="#ffc967"/>
              <path id="Trazado_142823" data-name="Trazado 142823" d="M652.45,885.441H596.733a5.479,5.479,0,0,1-5.472-5.473v-33.7a5.479,5.479,0,0,1,5.472-5.472H631a.785.785,0,0,0,.784-.784v-3.934a3.67,3.67,0,0,1,3.666-3.665h18.809a3.669,3.669,0,0,1,3.665,3.665v43.89A5.479,5.479,0,0,1,652.45,885.441Zm-55.717-42.378a3.209,3.209,0,0,0-3.206,3.206v33.7a3.209,3.209,0,0,0,3.206,3.206H652.45a3.209,3.209,0,0,0,3.206-3.206v-43.89a1.4,1.4,0,0,0-1.4-1.4H635.448a1.4,1.4,0,0,0-1.4,1.4v3.934a3.054,3.054,0,0,1-3.05,3.05Z" transform="translate(-591.261 -832.413)" fill="#ff6d60"/>
            </g>
          </g>
        </g>
        <g id="Grupo_92636" data-name="Grupo 92636" transform="translate(59.687 69.601)">
          <g id="Grupo_92634" data-name="Grupo 92634">
            <path id="Trazado_142824" data-name="Trazado 142824" d="M668.294,1019.516H632.479a1.133,1.133,0,0,1-1.133-1.133v-15.061a1.133,1.133,0,1,1,2.267,0v13.928h34.681a1.133,1.133,0,0,1,0,2.267Z" transform="translate(-631.346 -1002.188)" fill="#ff6d60"/>
          </g>
          <g id="Grupo_92635" data-name="Grupo 92635" transform="translate(35.815 10.933)">
            <path id="Trazado_142825" data-name="Trazado 142825" d="M763.826,1046.52l-8.9-3.976v7.952Z" transform="translate(-753.788 -1041.411)" fill="#fff"/>
            <path id="Trazado_142826" data-name="Trazado 142826" d="M752.264,1048.973a1.133,1.133,0,0,1-1.133-1.133v-7.952a1.133,1.133,0,0,1,1.6-1.035l8.9,3.976a1.134,1.134,0,0,1,0,2.07l-8.9,3.976A1.131,1.131,0,0,1,752.264,1048.973Zm1.133-7.338v4.457l4.991-2.229Z" transform="translate(-751.131 -1038.754)" fill="#ff6d60"/>
          </g>
        </g>
        <g id="Grupo_92637" data-name="Grupo 92637" transform="translate(0 30.628)">
          <circle id="Elipse_4434" data-name="Elipse 4434" cx="23.328" cy="23.328" r="23.328" transform="matrix(1, -0.017, 0.017, 1, 9.259, 10.073)" fill="#ffc967"/>
          <path id="Trazado_142827" data-name="Trazado 142827" d="M484.705,949.288a24.461,24.461,0,1,1,24.461-24.461A24.489,24.489,0,0,1,484.705,949.288Zm0-46.656A22.195,22.195,0,1,0,506.9,924.826,22.22,22.22,0,0,0,484.705,902.632Z" transform="translate(-451.714 -891.836)" fill="#ff6d60"/>
        </g>
        <g id="Grupo_92639" data-name="Grupo 92639" transform="translate(17.455 48.096)">
          <g id="Grupo_92638" data-name="Grupo 92638">
            <path id="Trazado_142828" data-name="Trazado 142828" d="M523,950.618V946.6a1.042,1.042,0,0,0-1.042-1.042h-2.152a.558.558,0,0,1-.53-.395,11.307,11.307,0,0,0-.737-1.779.559.559,0,0,1,.1-.655l1.522-1.522a1.042,1.042,0,0,0,0-1.474l-2.84-2.84a1.042,1.042,0,0,0-1.474,0l-1.522,1.522a.558.558,0,0,1-.654.1,11.326,11.326,0,0,0-1.779-.737.558.558,0,0,1-.4-.53v-2.152a1.043,1.043,0,0,0-1.042-1.043h-4.016a1.042,1.042,0,0,0-1.042,1.043v2.152a.558.558,0,0,1-.4.53,11.325,11.325,0,0,0-1.779.737.558.558,0,0,1-.654-.1l-1.522-1.522a1.042,1.042,0,0,0-1.474,0l-2.84,2.84a1.042,1.042,0,0,0,0,1.474l1.522,1.522a.558.558,0,0,1,.1.655,11.278,11.278,0,0,0-.737,1.779.558.558,0,0,1-.529.395h-2.152a1.042,1.042,0,0,0-1.042,1.042v4.016a1.042,1.042,0,0,0,1.042,1.043h2.152a.558.558,0,0,1,.529.395,11.291,11.291,0,0,0,.737,1.779.558.558,0,0,1-.1.654l-1.522,1.522a1.042,1.042,0,0,0,0,1.474l2.84,2.84a1.042,1.042,0,0,0,1.474,0l1.522-1.522a.558.558,0,0,1,.654-.1,11.291,11.291,0,0,0,1.779.737.558.558,0,0,1,.4.53v2.152a1.042,1.042,0,0,0,1.042,1.042h4.016a1.042,1.042,0,0,0,1.042-1.042v-2.152a.558.558,0,0,1,.4-.53,11.293,11.293,0,0,0,1.779-.737.558.558,0,0,1,.654.1l1.522,1.522a1.042,1.042,0,0,0,1.474,0l2.84-2.84a1.042,1.042,0,0,0,0-1.474l-1.522-1.522a.558.558,0,0,1-.1-.654,11.32,11.32,0,0,0,.737-1.779.557.557,0,0,1,.53-.395h2.152A1.042,1.042,0,0,0,523,950.618Zm-14.559,3.677a5.685,5.685,0,1,1,5.685-5.685A5.685,5.685,0,0,1,508.445,954.295Z" transform="translate(-492.753 -932.918)" fill="#fff"/>
            <path id="Trazado_142829" data-name="Trazado 142829" d="M507.8,961.645H503.78a2.178,2.178,0,0,1-2.176-2.176v-1.734a12.47,12.47,0,0,1-1.189-.493l-1.227,1.226a2.175,2.175,0,0,1-3.077,0l-2.84-2.84a2.175,2.175,0,0,1,0-3.077l1.226-1.227a12.525,12.525,0,0,1-.493-1.189h-1.734a2.178,2.178,0,0,1-2.176-2.176v-4.016a2.178,2.178,0,0,1,2.176-2.176h1.734a12.511,12.511,0,0,1,.493-1.189l-1.227-1.227a2.178,2.178,0,0,1,0-3.077l2.84-2.84a2.175,2.175,0,0,1,3.077,0l1.227,1.226a12.493,12.493,0,0,1,1.189-.493v-1.734a2.178,2.178,0,0,1,2.176-2.176H507.8a2.178,2.178,0,0,1,2.176,2.176v1.734a12.566,12.566,0,0,1,1.189.493l1.226-1.226a2.178,2.178,0,0,1,3.077,0l2.84,2.84a2.178,2.178,0,0,1,0,3.077l-1.227,1.227a12.488,12.488,0,0,1,.493,1.189H519.3a2.178,2.178,0,0,1,2.175,2.176v4.016a2.178,2.178,0,0,1-2.175,2.176H517.57a12.435,12.435,0,0,1-.493,1.189l1.227,1.227a2.175,2.175,0,0,1,0,3.077l-2.84,2.84a2.178,2.178,0,0,1-3.077,0l-1.227-1.227a12.5,12.5,0,0,1-1.189.493v1.734A2.178,2.178,0,0,1,507.8,961.645Zm-3.925-2.267h3.834v-2.061a1.687,1.687,0,0,1,1.185-1.61,10.207,10.207,0,0,0,1.6-.663,1.685,1.685,0,0,1,1.977.3l1.457,1.457,2.711-2.711-1.458-1.458a1.687,1.687,0,0,1-.3-1.977,10.172,10.172,0,0,0,.664-1.6,1.687,1.687,0,0,1,1.61-1.185h2.061v-3.834h-2.061a1.687,1.687,0,0,1-1.61-1.186,10.176,10.176,0,0,0-.664-1.6,1.687,1.687,0,0,1,.3-1.977l1.458-1.458-2.711-2.711-1.458,1.458a1.686,1.686,0,0,1-1.977.3,10.208,10.208,0,0,0-1.6-.663,1.686,1.686,0,0,1-1.185-1.61v-2.061h-3.834v2.061a1.686,1.686,0,0,1-1.186,1.61,10.188,10.188,0,0,0-1.6.663,1.688,1.688,0,0,1-1.977-.3L497.65,935.1l-2.711,2.711,1.458,1.458a1.686,1.686,0,0,1,.3,1.978,10.183,10.183,0,0,0-.663,1.6,1.687,1.687,0,0,1-1.61,1.186h-2.061v3.834h2.061a1.687,1.687,0,0,1,1.61,1.185,10.2,10.2,0,0,0,.663,1.6,1.686,1.686,0,0,1-.3,1.977l-1.457,1.457,2.711,2.711,1.458-1.458a1.687,1.687,0,0,1,1.978-.3,10.17,10.17,0,0,0,1.6.663,1.687,1.687,0,0,1,1.185,1.61Zm1.917-6.607a6.818,6.818,0,1,1,6.818-6.818A6.826,6.826,0,0,1,505.788,952.771Zm0-11.37a4.552,4.552,0,1,0,4.552,4.552A4.557,4.557,0,0,0,505.788,941.4Z" transform="translate(-490.096 -930.261)" fill="#ff6d60"/>
          </g>
        </g>
      </g>
    </g>
    <g id="Grupo_92674" data-name="Grupo 92674" transform="translate(125.959 90.314)">
      <g id="Grupo_92668" data-name="Grupo 92668">
        <g id="Grupo_92667" data-name="Grupo 92667">
          <g id="Grupo_92650" data-name="Grupo 92650" transform="translate(5.089)">
            <g id="Grupo_92642" data-name="Grupo 92642" transform="translate(7.065 7.105)">
              <path id="Trazado_142830" data-name="Trazado 142830" d="M951.3,831.73H894.778a1.133,1.133,0,0,1-.967-1.725l28.261-46.152a1.133,1.133,0,0,1,1.933,0L952.266,830a1.133,1.133,0,0,1-.967,1.725Zm-54.5-2.267h52.475l-26.238-42.849Z" transform="translate(-893.645 -783.311)" fill="#ff6d60"/>
            </g>
            <g id="Grupo_92643" data-name="Grupo 92643" transform="translate(28.261)">
              <ellipse id="Elipse_4435" data-name="Elipse 4435" cx="7.065" cy="7.105" rx="7.065" ry="7.105" transform="translate(1.133 1.133)" fill="#ffc967"/>
              <path id="Trazado_142831" data-name="Trazado 142831" d="M972.734,776.024a8.239,8.239,0,1,1,8.2-8.238A8.228,8.228,0,0,1,972.734,776.024Zm0-14.21a5.972,5.972,0,1,0,5.932,5.972A5.959,5.959,0,0,0,972.734,761.814Z" transform="translate(-964.535 -759.547)" fill="#ff6d60"/>
            </g>
            <g id="Grupo_92644" data-name="Grupo 92644" transform="translate(21.195 30.181)">
              <path id="Trazado_142832" data-name="Trazado 142832" d="M956.168,885.834a1.133,1.133,0,0,1-.967-.541l-14.131-23.076A1.133,1.133,0,0,1,943,861.033l13.164,21.5,13.164-21.5a1.133,1.133,0,1,1,1.933,1.184l-14.13,23.076A1.133,1.133,0,0,1,956.168,885.834Z" transform="translate(-940.904 -860.491)" fill="#ff6d60"/>
            </g>
            <g id="Grupo_92645" data-name="Grupo 92645" transform="translate(42.391 23.076)">
              <ellipse id="Elipse_4436" data-name="Elipse 4436" cx="7.065" cy="7.105" rx="7.065" ry="7.105" transform="translate(1.133 1.133)" fill="#ffc967"/>
              <path id="Trazado_142833" data-name="Trazado 142833" d="M1019.994,853.205a8.239,8.239,0,1,1,8.2-8.239A8.228,8.228,0,0,1,1019.994,853.205Zm0-14.21a5.972,5.972,0,1,0,5.932,5.972A5.959,5.959,0,0,0,1019.994,838.995Z" transform="translate(-1011.795 -836.728)" fill="#ff6d60"/>
            </g>
            <g id="Grupo_92646" data-name="Grupo 92646" transform="translate(14.13 23.076)">
              <ellipse id="Elipse_4437" data-name="Elipse 4437" cx="7.065" cy="7.105" rx="7.065" ry="7.105" transform="translate(1.133 1.133)" fill="#ffc967"/>
              <path id="Trazado_142834" data-name="Trazado 142834" d="M925.473,853.205a8.239,8.239,0,1,1,8.2-8.239A8.228,8.228,0,0,1,925.473,853.205Zm0-14.21a5.972,5.972,0,1,0,5.932,5.972A5.959,5.959,0,0,0,925.473,838.995Z" transform="translate(-917.275 -836.728)" fill="#ff6d60"/>
            </g>
            <g id="Grupo_92647" data-name="Grupo 92647" transform="translate(28.261 46.152)">
              <ellipse id="Elipse_4438" data-name="Elipse 4438" cx="7.065" cy="7.105" rx="7.065" ry="7.105" transform="translate(1.133 1.133)" fill="#ffc967"/>
              <path id="Trazado_142835" data-name="Trazado 142835" d="M972.734,930.385a8.239,8.239,0,1,1,8.2-8.239A8.228,8.228,0,0,1,972.734,930.385Zm0-14.211a5.972,5.972,0,1,0,5.932,5.972A5.959,5.959,0,0,0,972.734,916.175Z" transform="translate(-964.535 -913.908)" fill="#ff6d60"/>
            </g>
            <g id="Grupo_92648" data-name="Grupo 92648" transform="translate(0 46.152)">
              <ellipse id="Elipse_4439" data-name="Elipse 4439" cx="7.065" cy="7.105" rx="7.065" ry="7.105" transform="translate(1.133 1.133)" fill="#ffc967"/>
              <path id="Trazado_142836" data-name="Trazado 142836" d="M878.213,930.385a8.239,8.239,0,1,1,8.2-8.239A8.228,8.228,0,0,1,878.213,930.385Zm0-14.211a5.972,5.972,0,1,0,5.932,5.972A5.959,5.959,0,0,0,878.213,916.175Z" transform="translate(-870.015 -913.908)" fill="#ff6d60"/>
            </g>
            <g id="Grupo_92649" data-name="Grupo 92649" transform="translate(56.521 46.152)">
              <ellipse id="Elipse_4440" data-name="Elipse 4440" cx="7.065" cy="7.105" rx="7.065" ry="7.105" transform="translate(1.133 1.133)" fill="#fff"/>
              <path id="Trazado_142837" data-name="Trazado 142837" d="M1067.254,930.385a8.239,8.239,0,1,1,8.2-8.239A8.228,8.228,0,0,1,1067.254,930.385Zm0-14.211a5.972,5.972,0,1,0,5.932,5.972A5.959,5.959,0,0,0,1067.254,916.175Z" transform="translate(-1059.056 -913.908)" fill="#1a1861"/>
            </g>
          </g>
          <g id="Grupo_92666" data-name="Grupo 92666" transform="translate(0 32.355)">
            <g id="Grupo_92665" data-name="Grupo 92665">
              <g id="Grupo_92664" data-name="Grupo 92664">
                <g id="Grupo_92658" data-name="Grupo 92658" transform="translate(42.422)">
                  <g id="Grupo_92651" data-name="Grupo 92651" transform="translate(0.015 42.531)">
                    <path id="Trazado_142838" data-name="Trazado 142838" d="M998.719,1013.8c0,4.949,9.5,8.962,21.223,8.962s21.222-4.012,21.222-8.962v6.955c0,4.95-9.5,8.962-21.222,8.962s-21.223-4.013-21.223-8.962V1013.8Z" transform="translate(-997.586 -1012.668)" fill="#fff"/>
                    <path id="Trazado_142839" data-name="Trazado 142839" d="M1017.285,1028.194a40.939,40.939,0,0,1-15.448-2.715c-4.455-1.881-6.908-4.5-6.908-7.381v-6.955a1.133,1.133,0,0,1,2.267,0c0,3.7,8.25,7.829,20.089,7.829s20.089-4.126,20.089-7.829a1.133,1.133,0,0,1,2.267,0v6.955c0,2.879-2.453,5.5-6.908,7.381A40.942,40.942,0,0,1,1017.285,1028.194ZM997.2,1015.688v2.411c0,3.7,8.25,7.829,20.089,7.829s20.089-4.126,20.089-7.829v-2.411a15.93,15.93,0,0,1-4.642,2.837,45.316,45.316,0,0,1-30.9,0A15.929,15.929,0,0,1,997.2,1015.688Z" transform="translate(-994.929 -1010.01)" fill="#ff6d60"/>
                  </g>
                  <g id="Grupo_92652" data-name="Grupo 92652" transform="translate(0 35.599)">
                    <path id="Trazado_142840" data-name="Trazado 142840" d="M998.67,990.616c0,4.95,9.5,8.962,21.222,8.962s21.223-4.013,21.223-8.962v6.955c0,4.95-9.5,8.962-21.223,8.962s-21.222-4.012-21.222-8.962v-6.955Z" transform="translate(-997.537 -989.482)" fill="#fff"/>
                    <path id="Trazado_142841" data-name="Trazado 142841" d="M1017.235,1005.009a40.943,40.943,0,0,1-15.447-2.714c-4.455-1.882-6.908-4.5-6.908-7.382v-6.955a1.133,1.133,0,1,1,2.267,0c0,3.7,8.25,7.829,20.089,7.829s20.089-4.126,20.089-7.829a1.133,1.133,0,1,1,2.267,0v6.955c0,2.879-2.454,5.5-6.909,7.382A40.942,40.942,0,0,1,1017.235,1005.009ZM997.146,992.5v2.411c0,3.7,8.25,7.829,20.089,7.829s20.089-4.126,20.089-7.829V992.5a15.931,15.931,0,0,1-4.642,2.837,45.315,45.315,0,0,1-30.895,0A15.936,15.936,0,0,1,997.146,992.5Z" transform="translate(-994.879 -986.825)" fill="#ff6d60"/>
                  </g>
                  <g id="Grupo_92653" data-name="Grupo 92653" transform="translate(0 8.962)">
                    <path id="Trazado_142842" data-name="Trazado 142842" d="M1041.115,901.525v5.636c0,4.949-9.5,8.962-21.223,8.962s-21.222-4.013-21.222-8.962v-5.636" transform="translate(-997.537 -900.392)" fill="#fff"/>
                    <path id="Trazado_142843" data-name="Trazado 142843" d="M1017.235,914.6a40.939,40.939,0,0,1-15.447-2.714c-4.455-1.881-6.908-4.5-6.908-7.381v-5.636a1.133,1.133,0,1,1,2.267,0V904.5c0,3.7,8.25,7.829,20.089,7.829s20.089-4.126,20.089-7.829v-5.636a1.133,1.133,0,1,1,2.267,0V904.5c0,2.878-2.454,5.5-6.909,7.381A40.937,40.937,0,0,1,1017.235,914.6Z" transform="translate(-994.879 -897.734)" fill="#ff6d60"/>
                  </g>
                  <g id="Grupo_92654" data-name="Grupo 92654" transform="translate(0 14.662)">
                    <path id="Trazado_142844" data-name="Trazado 142844" d="M998.67,920.589c0,4.95,9.5,8.962,21.222,8.962s21.223-4.013,21.223-8.962v6.955c0,4.95-9.5,8.962-21.223,8.962s-21.222-4.012-21.222-8.962v-6.955Z" transform="translate(-997.537 -919.456)" fill="#fff"/>
                    <path id="Trazado_142845" data-name="Trazado 142845" d="M1017.235,934.983a40.943,40.943,0,0,1-15.447-2.714c-4.455-1.882-6.908-4.5-6.908-7.381v-6.955a1.133,1.133,0,0,1,2.267,0c0,3.7,8.25,7.829,20.089,7.829s20.089-4.126,20.089-7.829a1.133,1.133,0,0,1,2.267,0v6.955c0,2.879-2.454,5.5-6.909,7.381A40.942,40.942,0,0,1,1017.235,934.983Zm-20.089-12.506v2.411c0,3.7,8.25,7.829,20.089,7.829s20.089-4.126,20.089-7.829v-2.411a15.931,15.931,0,0,1-4.642,2.837,45.319,45.319,0,0,1-30.895,0A15.936,15.936,0,0,1,997.146,922.477Z" transform="translate(-994.879 -916.799)" fill="#ff6d60"/>
                  </g>
                  <g id="Grupo_92655" data-name="Grupo 92655" transform="translate(0 21.682)">
                    <path id="Trazado_142846" data-name="Trazado 142846" d="M998.67,944.067c0,4.95,9.5,8.962,21.222,8.962s21.223-4.012,21.223-8.962v6.955c0,4.95-9.5,8.962-21.223,8.962s-21.222-4.012-21.222-8.962v-6.955Z" transform="translate(-997.537 -942.934)" fill="#fff"/>
                    <path id="Trazado_142847" data-name="Trazado 142847" d="M1017.235,958.46a40.941,40.941,0,0,1-15.447-2.714c-4.455-1.881-6.908-4.5-6.908-7.381v-6.955a1.133,1.133,0,1,1,2.267,0c0,3.7,8.25,7.829,20.089,7.829s20.089-4.126,20.089-7.829a1.133,1.133,0,1,1,2.267,0v6.955c0,2.879-2.454,5.5-6.909,7.381A40.94,40.94,0,0,1,1017.235,958.46Zm-20.089-12.506v2.411c0,3.7,8.25,7.829,20.089,7.829s20.089-4.126,20.089-7.829v-2.411a15.934,15.934,0,0,1-4.642,2.837,45.313,45.313,0,0,1-30.895,0A15.939,15.939,0,0,1,997.146,945.954Z" transform="translate(-994.879 -940.276)" fill="#ff6d60"/>
                  </g>
                  <g id="Grupo_92656" data-name="Grupo 92656" transform="translate(0 28.701)">
                    <path id="Trazado_142848" data-name="Trazado 142848" d="M998.67,967.545c0,4.95,9.5,8.962,21.222,8.962s21.223-4.012,21.223-8.962V974.5c0,4.949-9.5,8.962-21.223,8.962S998.67,979.45,998.67,974.5v-6.955Z" transform="translate(-997.537 -966.412)" fill="#fff"/>
                    <path id="Trazado_142849" data-name="Trazado 142849" d="M1017.235,981.938a40.943,40.943,0,0,1-15.447-2.714c-4.455-1.881-6.908-4.5-6.908-7.381v-6.955a1.133,1.133,0,1,1,2.267,0c0,3.7,8.25,7.829,20.089,7.829s20.089-4.126,20.089-7.829a1.133,1.133,0,1,1,2.267,0v6.955c0,2.879-2.454,5.5-6.909,7.381A40.942,40.942,0,0,1,1017.235,981.938Zm-20.089-12.506v2.411c0,3.7,8.25,7.829,20.089,7.829s20.089-4.126,20.089-7.829v-2.411a15.931,15.931,0,0,1-4.642,2.837,45.311,45.311,0,0,1-30.895,0A15.936,15.936,0,0,1,997.146,969.432Z" transform="translate(-994.879 -963.754)" fill="#ff6d60"/>
                  </g>
                  <g id="Grupo_92657" data-name="Grupo 92657">
                    <ellipse id="Elipse_4441" data-name="Elipse 4441" cx="21.223" cy="8.523" rx="21.223" ry="8.523" transform="translate(1.133 1.133)" fill="#ffc967"/>
                    <path id="Trazado_142850" data-name="Trazado 142850" d="M1017.235,887.073a42.771,42.771,0,0,1-15.429-2.578c-4.467-1.794-6.927-4.308-6.927-7.079s2.46-5.285,6.927-7.079a47.461,47.461,0,0,1,30.858,0c4.467,1.794,6.927,4.308,6.927,7.079s-2.46,5.285-6.927,7.079A42.774,42.774,0,0,1,1017.235,887.073Zm0-17.047c-11.839,0-20.089,3.895-20.089,7.39s8.25,7.39,20.089,7.39,20.089-3.895,20.089-7.39S1029.074,870.027,1017.235,870.027Z" transform="translate(-994.879 -867.76)" fill="#ff6d60"/>
                  </g>
                </g>
                <g id="Grupo_92663" data-name="Grupo 92663" transform="translate(0 20.535)">
                  <g id="Grupo_92659" data-name="Grupo 92659" transform="translate(0 8.963)">
                    <path id="Trazado_142851" data-name="Trazado 142851" d="M899.231,970.206v5.636c0,4.95-9.5,8.962-21.223,8.962s-21.223-4.012-21.223-8.962v-5.636" transform="translate(-855.653 -969.073)" fill="#fff"/>
                    <path id="Trazado_142852" data-name="Trazado 142852" d="M875.352,983.281a40.941,40.941,0,0,1-15.447-2.714c-4.455-1.881-6.908-4.5-6.908-7.381v-5.636a1.133,1.133,0,0,1,2.267,0v5.636c0,3.7,8.25,7.829,20.089,7.829s20.089-4.126,20.089-7.829v-5.636a1.133,1.133,0,0,1,2.267,0v5.636c0,2.879-2.453,5.5-6.908,7.381A40.943,40.943,0,0,1,875.352,983.281Z" transform="translate(-852.996 -966.416)" fill="#ff6d60"/>
                  </g>
                  <g id="Grupo_92660" data-name="Grupo 92660" transform="translate(0 14.662)">
                    <path id="Trazado_142853" data-name="Trazado 142853" d="M856.786,989.27c0,4.95,9.5,8.962,21.223,8.962s21.223-4.013,21.223-8.962v6.955c0,4.95-9.5,8.962-21.223,8.962s-21.223-4.012-21.223-8.962V989.27Z" transform="translate(-855.653 -988.137)" fill="#fff"/>
                    <path id="Trazado_142854" data-name="Trazado 142854" d="M875.352,1003.663a40.941,40.941,0,0,1-15.447-2.714c-4.455-1.881-6.908-4.5-6.908-7.381v-6.955a1.133,1.133,0,1,1,2.267,0c0,3.7,8.25,7.829,20.089,7.829s20.089-4.126,20.089-7.829a1.133,1.133,0,1,1,2.267,0v6.955c0,2.879-2.453,5.5-6.908,7.381A40.944,40.944,0,0,1,875.352,1003.663Zm-20.089-12.506v2.411c0,3.7,8.25,7.829,20.089,7.829s20.089-4.126,20.089-7.829v-2.411a15.934,15.934,0,0,1-4.641,2.837,45.317,45.317,0,0,1-30.9,0A15.931,15.931,0,0,1,855.263,991.157Z" transform="translate(-852.996 -985.479)" fill="#ff6d60"/>
                  </g>
                  <g id="Grupo_92661" data-name="Grupo 92661" transform="translate(0 21.682)">
                    <path id="Trazado_142855" data-name="Trazado 142855" d="M856.786,1012.748c0,4.95,9.5,8.962,21.223,8.962s21.223-4.012,21.223-8.962v6.955c0,4.949-9.5,8.962-21.223,8.962s-21.223-4.013-21.223-8.962v-6.955Z" transform="translate(-855.653 -1011.615)" fill="#fff"/>
                    <path id="Trazado_142856" data-name="Trazado 142856" d="M875.352,1027.142a40.939,40.939,0,0,1-15.447-2.714c-4.455-1.881-6.908-4.5-6.908-7.381v-6.955a1.133,1.133,0,0,1,2.267,0c0,3.7,8.25,7.829,20.089,7.829s20.089-4.126,20.089-7.829a1.133,1.133,0,0,1,2.267,0v6.955c0,2.879-2.453,5.5-6.908,7.381A40.941,40.941,0,0,1,875.352,1027.142Zm-20.089-12.506v2.411c0,3.7,8.25,7.829,20.089,7.829s20.089-4.126,20.089-7.829v-2.411a15.945,15.945,0,0,1-4.641,2.837,45.319,45.319,0,0,1-30.9,0A15.941,15.941,0,0,1,855.263,1014.636Z" transform="translate(-852.996 -1008.958)" fill="#ff6d60"/>
                  </g>
                  <g id="Grupo_92662" data-name="Grupo 92662">
                    <ellipse id="Elipse_4442" data-name="Elipse 4442" cx="21.223" cy="8.523" rx="21.223" ry="8.523" transform="translate(1.133 1.134)" fill="#ffc967"/>
                    <path id="Trazado_142857" data-name="Trazado 142857" d="M875.352,955.754a42.763,42.763,0,0,1-15.429-2.578c-4.467-1.794-6.927-4.308-6.927-7.079s2.46-5.285,6.927-7.079a47.455,47.455,0,0,1,30.858,0c4.467,1.794,6.927,4.308,6.927,7.079s-2.46,5.285-6.927,7.079A42.766,42.766,0,0,1,875.352,955.754Zm0-17.047c-11.839,0-20.089,3.895-20.089,7.39s8.25,7.39,20.089,7.39,20.089-3.9,20.089-7.39S887.191,938.707,875.352,938.707Z" transform="translate(-852.996 -936.44)" fill="#ff6d60"/>
                  </g>
                </g>
              </g>
            </g>
          </g>
        </g>
      </g>
      <g id="Grupo_92673" data-name="Grupo 92673" transform="translate(65.44 54.502)">
        <g id="Grupo_92669" data-name="Grupo 92669" transform="translate(0)">
          <circle id="Elipse_4443" data-name="Elipse 4443" cx="17.955" cy="17.955" r="17.955" transform="translate(0 35.446) rotate(-80.783)" fill="#ffc967"/>
          <path id="Trazado_142858" data-name="Trazado 142858" d="M1096.005,985.063a19.088,19.088,0,1,1,19.088-19.088A19.11,19.11,0,0,1,1096.005,985.063Zm0-35.909a16.821,16.821,0,1,0,16.822,16.821A16.84,16.84,0,0,0,1096.005,949.154Z" transform="translate(-1075.406 -945.376)" fill="#ff6d60"/>
        </g>
        <g id="Grupo_92672" data-name="Grupo 92672" transform="translate(6.174 7.391)">
          <g id="Grupo_92671" data-name="Grupo 92671">
            <g id="Grupo_92670" data-name="Grupo 92670">
              <path id="Trazado_142859" data-name="Trazado 142859" d="M1122.661,994.534a3.45,3.45,0,0,0-2.1-1.555c-1.775-.451-4.615-.8-6.208-1.255a1.977,1.977,0,0,1-1.428-1.9v-1.508a.666.666,0,0,1,.253-.514,7.663,7.663,0,0,0,2.141-3.161,3.927,3.927,0,0,0,.217-.779.889.889,0,0,0,.892-.713,28.151,28.151,0,0,0,.6-3.261c0-.966-.352-1.2-.776-.945a5.824,5.824,0,0,0,.216-1.482c.1-4.444-3.22-7.116-7.163-7.116a6.876,6.876,0,0,0-7.163,7.116,5.347,5.347,0,0,0,.216,1.482c-.424-.25-.776-.02-.776.945a28.151,28.151,0,0,0,.6,3.261.889.889,0,0,0,.892.713c.014.1.031.195.05.292a6.4,6.4,0,0,0,2.063,3.648.676.676,0,0,1,.264.524v1.5a1.971,1.971,0,0,1-1.417,1.9c-1.592.46-4.029.937-5.809,1.39a3.452,3.452,0,0,0-1.918,1.28s4.9,6.225,12.457,5.983C1119.2,1000.038,1122.661,994.534,1122.661,994.534Z" transform="translate(-1095.17 -969.211)" fill="#fff"/>
              <path id="Trazado_142860" data-name="Trazado 142860" d="M1105.667,998.857c-7.764,0-12.7-6.155-12.911-6.422a1.133,1.133,0,0,1-.018-1.379,4.6,4.6,0,0,1,2.547-1.7c.754-.192,1.632-.39,2.48-.581,1.177-.265,2.395-.54,3.293-.8a.841.841,0,0,0,.6-.808v-1.273a7.476,7.476,0,0,1-2.22-3.8,1.919,1.919,0,0,1-1.034-1.43,19.271,19.271,0,0,0-.4-1.942,5.3,5.3,0,0,1-.217-1.5,2.328,2.328,0,0,1,.6-1.766c-.021-.2-.035-.417-.036-.653a8.037,8.037,0,0,1,2.284-5.861,8.819,8.819,0,0,1,12.124.038,7.888,7.888,0,0,1,2.184,5.841c0,.214-.018.425-.04.632a2.326,2.326,0,0,1,.6,1.77,5.308,5.308,0,0,1-.217,1.5,19.179,19.179,0,0,0-.4,1.942,1.922,1.922,0,0,1-1.074,1.45c-.028.085-.059.172-.092.262a8.95,8.95,0,0,1-2.322,3.5v1.284a.847.847,0,0,0,.609.811c.79.228,1.982.438,3.135.642,1.065.188,2.166.383,3.038.6a4.557,4.557,0,0,1,2.794,2.067,1.133,1.133,0,0,1-.01,1.191c-.155.245-3.911,6.017-14.824,6.368C1105.98,998.854,1105.823,998.857,1105.667,998.857Zm-10.429-7.056c1.54,1.564,5.509,4.951,10.829,4.783,7.627-.245,11.255-3.343,12.48-4.69a2.318,2.318,0,0,0-.925-.473c-.79-.2-1.849-.388-2.874-.569-1.211-.214-2.464-.435-3.368-.7a3.125,3.125,0,0,1-2.248-2.99v-1.508a1.8,1.8,0,0,1,.667-1.39,6.483,6.483,0,0,0,1.8-2.684,2.765,2.765,0,0,0,.156-.544,1.044,1.044,0,0,1,.935-.977c.158-.951.3-1.492.4-1.9a3.371,3.371,0,0,0,.145-.808,1.134,1.134,0,0,1-.73-1.386,4.743,4.743,0,0,0,.173-1.2,5.674,5.674,0,0,0-1.538-4.206,6.559,6.559,0,0,0-8.9-.026,5.819,5.819,0,0,0-1.626,4.249,4.24,4.24,0,0,0,.172,1.178,1.134,1.134,0,0,1-.73,1.385,3.36,3.36,0,0,0,.145.808c.1.4.24.945.4,1.9a1.044,1.044,0,0,1,.935.977q.018.119.041.238a5.3,5.3,0,0,0,1.66,2.981,1.8,1.8,0,0,1,.688,1.407v1.5a3.118,3.118,0,0,1-2.236,2.986c-.963.278-2.214.56-3.424.833-.834.188-1.7.382-2.421.567A2.324,2.324,0,0,0,1095.238,991.8Z" transform="translate(-1092.513 -966.554)" fill="#ff6d60"/>
            </g>
          </g>
        </g>
      </g>
    </g>
    <g id="Grupo_92685" data-name="Grupo 92685" transform="translate(80.383 0)">
      <g id="Grupo_92677" data-name="Grupo 92677">
        <g id="Grupo_92676" data-name="Grupo 92676">
          <g id="Grupo_92675" data-name="Grupo 92675">
            <path id="Trazado_142861" data-name="Trazado 142861" d="M788.968,536.1l7.326-14a1.818,1.818,0,0,0-.78-2.46l-7.442-3.823a1.736,1.736,0,0,1-.93-1.834,35.718,35.718,0,0,0,.548-6.159,1.783,1.783,0,0,1,1.238-1.71l8-2.534a1.831,1.831,0,0,0,1.2-2.295l-4.764-15.006a1.834,1.834,0,0,0-2.306-1.185l-8,2.534a1.768,1.768,0,0,1-1.978-.656,35.776,35.776,0,0,0-4.014-4.74,1.74,1.74,0,0,1-.307-2.042l3.875-7.4a1.819,1.819,0,0,0-.78-2.462l-14.064-7.225a1.847,1.847,0,0,0-2.481.787l-3.873,7.4a1.763,1.763,0,0,1-1.848.934,36.367,36.367,0,0,0-6.2-.521,1.776,1.776,0,0,1-1.717-1.223l-2.521-7.94a1.835,1.835,0,0,0-2.306-1.185l-15.125,4.789a1.831,1.831,0,0,0-1.2,2.3l2.521,7.94a1.743,1.743,0,0,1-.654,1.957,36.3,36.3,0,0,0-4.8,4.017,1.768,1.768,0,0,1-2.054.31l-7.442-3.823a1.846,1.846,0,0,0-2.479.786l-7.326,14a1.817,1.817,0,0,0,.78,2.46l7.442,3.823a1.735,1.735,0,0,1,.93,1.834,35.706,35.706,0,0,0-.548,6.159,1.783,1.783,0,0,1-1.238,1.71l-8,2.534a1.831,1.831,0,0,0-1.2,2.3l4.764,15.006a1.834,1.834,0,0,0,2.306,1.185l8-2.534a1.768,1.768,0,0,1,1.978.656,35.789,35.789,0,0,0,4.014,4.74,1.74,1.74,0,0,1,.307,2.042l-3.875,7.4a1.819,1.819,0,0,0,.78,2.462l14.064,7.224a1.847,1.847,0,0,0,2.481-.787l3.873-7.4a1.763,1.763,0,0,1,1.848-.934,36.365,36.365,0,0,0,6.2.521,1.776,1.776,0,0,1,1.717,1.224l2.044,5.178c.259.6.622,1.439.946,2.192a1.944,1.944,0,0,0,2.506,1.037l13.574-4.814c2.791-.883,1.922-2.057,1.043-4.825l-1.482-4.667a1.743,1.743,0,0,1,.654-1.957,36.285,36.285,0,0,0,4.8-4.017,1.767,1.767,0,0,1,2.054-.309l7.442,3.823A1.846,1.846,0,0,0,788.968,536.1Z" transform="translate(-703.223 -460.14)" fill="#ffc967"/>
            <path id="Trazado_142862" data-name="Trazado 142862" d="M755.008,552.277a3.059,3.059,0,0,1-2.815-1.865c-.323-.751-.686-1.593-.944-2.186-.005-.012-.01-.024-.015-.037l-2.044-5.178c-.01-.024-.018-.049-.026-.073a.649.649,0,0,0-.633-.433c-.024,0-.045,0-.067,0a37.6,37.6,0,0,1-6.33-.538.632.632,0,0,0-.653.343l-3.874,7.4a2.989,2.989,0,0,1-4,1.269l-14.063-7.225a2.952,2.952,0,0,1-1.267-4l3.875-7.4a.61.61,0,0,0-.1-.712,37.031,37.031,0,0,1-4.141-4.89.632.632,0,0,0-.71-.23l-8,2.534a2.972,2.972,0,0,1-3.729-1.922L700.7,512.129a2.964,2.964,0,0,1,1.94-3.719l8-2.534a.653.653,0,0,0,.447-.631,37,37,0,0,1,.565-6.355.6.6,0,0,0-.331-.628l-7.442-3.823a2.95,2.95,0,0,1-1.266-3.993l7.326-14a2.987,2.987,0,0,1,4-1.269L721.387,479a.632.632,0,0,0,.737-.1,37.556,37.556,0,0,1,4.954-4.143.614.614,0,0,0,.223-.685l-2.521-7.94a2.931,2.931,0,0,1,.2-2.262,2.961,2.961,0,0,1,1.74-1.457l15.125-4.789a2.971,2.971,0,0,1,3.728,1.922l2.521,7.94a.649.649,0,0,0,.633.433h.067a37.59,37.59,0,0,1,6.33.538.632.632,0,0,0,.653-.343l3.873-7.4a2.989,2.989,0,0,1,4-1.269l14.064,7.224a2.953,2.953,0,0,1,1.267,4l-3.876,7.4a.61.61,0,0,0,.1.712,37.027,37.027,0,0,1,4.141,4.89.632.632,0,0,0,.71.23l8-2.534a2.971,2.971,0,0,1,3.728,1.923l4.764,15.005a2.93,2.93,0,0,1-.2,2.262,2.961,2.961,0,0,1-1.74,1.457l-8,2.534a.653.653,0,0,0-.447.631,37,37,0,0,1-.565,6.355.6.6,0,0,0,.332.628l7.441,3.823a2.951,2.951,0,0,1,1.266,3.994l-7.326,14h0a2.988,2.988,0,0,1-4,1.268l-7.442-3.823a.632.632,0,0,0-.737.1,37.5,37.5,0,0,1-4.954,4.143.614.614,0,0,0-.223.685l1.482,4.667c.112.354.225.681.329.984.479,1.4.858,2.5.319,3.571a3.821,3.821,0,0,1-2.41,1.687l-13.538,4.8A3.106,3.106,0,0,1,755.008,552.277Zm-1.673-4.939c.259.6.619,1.431.941,2.178a.806.806,0,0,0,1.045.432l.041-.015,13.574-4.814.037-.012c.937-.3,1.076-.527,1.089-.553a4.9,4.9,0,0,0-.439-1.816c-.109-.318-.227-.662-.345-1.034l-1.481-4.667a2.862,2.862,0,0,1,1.084-3.229,35.316,35.316,0,0,0,4.654-3.892,2.893,2.893,0,0,1,3.371-.515l7.442,3.823a.715.715,0,0,0,.957-.3l7.326-14a.684.684,0,0,0-.294-.926l-7.442-3.823a2.851,2.851,0,0,1-1.528-3.04,34.715,34.715,0,0,0,.53-5.964,2.912,2.912,0,0,1,2.029-2.788l8-2.534a.708.708,0,0,0,.416-.347.679.679,0,0,0,.047-.524l-4.764-15.005a.7.7,0,0,0-.884-.447l-8,2.534a2.891,2.891,0,0,1-3.245-1.082,34.76,34.76,0,0,0-3.886-4.59,2.858,2.858,0,0,1-.513-3.372l3.875-7.4a.686.686,0,0,0-.294-.928l-14.063-7.225a.717.717,0,0,0-.959.3l-3.873,7.4a2.884,2.884,0,0,1-3.044,1.526,36.211,36.211,0,0,0-6.008-.505,2.9,2.9,0,0,1-2.8-2.014l-2.521-7.94a.7.7,0,0,0-.884-.447L727.4,464.573a.708.708,0,0,0-.416.347.679.679,0,0,0-.047.524l2.521,7.94a2.862,2.862,0,0,1-1.084,3.229,35.282,35.282,0,0,0-4.654,3.892,2.893,2.893,0,0,1-3.371.515l-7.442-3.823a.714.714,0,0,0-.957.3l-7.326,14a.684.684,0,0,0,.294.926l7.442,3.823a2.85,2.85,0,0,1,1.527,3.04,34.715,34.715,0,0,0-.53,5.964,2.911,2.911,0,0,1-2.03,2.788l-8,2.534a.706.706,0,0,0-.416.347.681.681,0,0,0-.047.525l4.764,15.005a.7.7,0,0,0,.884.447l8-2.534a2.89,2.89,0,0,1,3.245,1.082,34.741,34.741,0,0,0,3.887,4.59,2.858,2.858,0,0,1,.513,3.372l-3.875,7.4a.685.685,0,0,0,.294.928l14.063,7.225a.716.716,0,0,0,.959-.3l3.873-7.4a2.886,2.886,0,0,1,3.044-1.526,35.215,35.215,0,0,0,6.009.505,2.906,2.906,0,0,1,2.785,1.972Z" transform="translate(-700.564 -457.484)" fill="#ff6d60"/>
          </g>
        </g>
      </g>
      <g id="Grupo_92684" data-name="Grupo 92684" transform="translate(16.587 16.212)">
        <g id="Grupo_92680" data-name="Grupo 92680">
          <g id="Grupo_92678" data-name="Grupo 92678" transform="translate(8.216 39.475)">
            <path id="Trazado_142863" data-name="Trazado 142863" d="M826.827,655.839c-2.8-.764-7.289-1.389-9.8-2.16a3.134,3.134,0,0,1-2.211-3.051l.051-2.9-11.841-.206-.051,2.9a3.133,3.133,0,0,1-2.315,2.971c-2.535.683-6.4,1.371-9.222,2.036a7.735,7.735,0,0,0-4.129,3.242,29.981,29.981,0,0,0,43.992-.456A10.4,10.4,0,0,0,826.827,655.839Z" transform="translate(-786.178 -646.393)" fill="#fff"/>
            <path id="Trazado_142864" data-name="Trazado 142864" d="M806.438,666.53c-.181,0-.36,0-.541,0a30.9,30.9,0,0,1-22.066-9.732,1.133,1.133,0,0,1-.138-1.38,8.744,8.744,0,0,1,4.83-3.745c1.192-.281,2.584-.569,3.93-.848,1.873-.388,3.81-.79,5.257-1.179a2.008,2.008,0,0,0,1.477-1.9l.05-2.9a1.135,1.135,0,0,1,.346-.8,1.119,1.119,0,0,1,.807-.318l11.841.206a1.133,1.133,0,0,1,1.113,1.153l-.05,2.9a2.008,2.008,0,0,0,1.41,1.947c1.278.393,3.178.763,5.016,1.121,1.67.325,3.4.661,4.748,1.029a11.364,11.364,0,0,1,5.011,2.7,1.133,1.133,0,0,1,0,1.529A31.154,31.154,0,0,1,806.438,666.53Zm-20.3-10.622A28.846,28.846,0,0,0,827,655.65a11.361,11.361,0,0,0-3.127-1.375h0c-1.27-.347-2.955-.674-4.584-.992-1.9-.369-3.857-.75-5.249-1.178a4.285,4.285,0,0,1-3.011-4.154l.031-1.762-9.575-.167-.031,1.762a4.287,4.287,0,0,1-3.154,4.046c-1.511.407-3.481.815-5.387,1.21-1.331.276-2.708.561-3.87.835A6.272,6.272,0,0,0,786.134,655.908Z" transform="translate(-783.521 -643.736)" fill="#ff6d60"/>
          </g>
          <g id="Grupo_92679" data-name="Grupo 92679">
            <path id="Trazado_142865" data-name="Trazado 142865" d="M790.357,515.5a30,30,0,0,0-22.309,50.615,7.736,7.736,0,0,1,4.129-3.242c2.824-.666,6.687-1.353,9.222-2.036a3.132,3.132,0,0,0,2.315-2.971l.051-2.9,11.841.206-.05,2.9a3.133,3.133,0,0,0,2.21,3.051c2.51.771,7,1.4,9.8,2.16a10.4,10.4,0,0,1,4.475,2.377,29.993,29.993,0,0,0-21.683-50.16Z" transform="translate(-758.699 -514.365)" fill="#ffc967"/>
            <path id="Trazado_142866" data-name="Trazado 142866" d="M765.391,564.595a1.132,1.132,0,0,1-.823-.354,31.131,31.131,0,0,1,23.152-52.528h0a31.126,31.126,0,0,1,22.5,52.055,1.133,1.133,0,0,1-.835.371h0a1.134,1.134,0,0,1-.835-.366,9.3,9.3,0,0,0-3.939-2.051c-1.27-.346-2.955-.674-4.584-.991-1.9-.369-3.857-.751-5.249-1.178a4.285,4.285,0,0,1-3.011-4.154l.031-1.762-9.575-.167-.031,1.762a4.287,4.287,0,0,1-3.154,4.047c-1.511.407-3.482.815-5.387,1.21-1.331.276-2.708.561-3.87.835a6.62,6.62,0,0,0-3.428,2.74,1.134,1.134,0,0,1-.849.527C765.466,564.593,765.429,564.595,765.391,564.595Zm21.772-50.62a28.863,28.863,0,0,0-21.848,47.713,8.281,8.281,0,0,1,3.946-2.571c1.192-.281,2.584-.569,3.93-.848,1.873-.388,3.81-.79,5.257-1.179a2.008,2.008,0,0,0,1.477-1.9l.051-2.9a1.133,1.133,0,0,1,1.153-1.114l11.841.206a1.133,1.133,0,0,1,1.114,1.153l-.051,2.9a2.007,2.007,0,0,0,1.41,1.947c1.278.393,3.178.763,5.016,1.12,1.67.325,3.4.661,4.748,1.03a13.161,13.161,0,0,1,4.067,1.874,28.862,28.862,0,0,0-21.593-47.43h0C787.508,513.976,787.335,513.974,787.163,513.974Z" transform="translate(-756.042 -511.708)" fill="#ff6d60"/>
          </g>
        </g>
        <g id="Grupo_92681" data-name="Grupo 92681" transform="translate(18.027 9.261)">
          <path id="Trazado_142867" data-name="Trazado 142867" d="M822.452,570.534q-.041-.231-.07-.464a1.41,1.41,0,0,1-1.393-1.153c-.491-3.494-.887-3.651-.86-5.182s.591-1.883,1.255-1.476a9.56,9.56,0,0,1-.3-2.352c-.085-8.236,5.338-13.541,11.585-13.432s11.482,5.6,11.109,13.828a9.557,9.557,0,0,1-.382,2.34c.678-.384,1.229-.01,1.2,1.519s-.428,1.674-1.04,5.149a1.409,1.409,0,0,1-1.433,1.1,6.188,6.188,0,0,1-.365,1.229,10.805,10.805,0,0,1-4.74,5.389c-1.04.59-1.98,1.109-1.98,1.109a6.147,6.147,0,0,1-3.716.761,6.552,6.552,0,0,1-2.818-1.043l-2.374-1.669A8.86,8.86,0,0,1,822.452,570.534Z" transform="translate(-818.993 -545.34)" fill="#fff"/>
          <path id="Trazado_142868" data-name="Trazado 142868" d="M829.351,577.416a7.711,7.711,0,0,1-.806-.042,7.626,7.626,0,0,1-3.309-1.216l-.041-.028-2.374-1.669a10.077,10.077,0,0,1-4.088-6.107,2.383,2.383,0,0,1-1.524-1.935,31.016,31.016,0,0,0-.587-3.147,7.747,7.747,0,0,1-.284-2.212,2.78,2.78,0,0,1,1.039-2.5,11.752,11.752,0,0,1-.085-1.3,15.168,15.168,0,0,1,4.166-11.094,11.786,11.786,0,0,1,17.016.3,15.17,15.17,0,0,1,3.777,11.233,11.689,11.689,0,0,1-.13,1.295,2.78,2.78,0,0,1,.951,2.534,7.745,7.745,0,0,1-.361,2.2,30.942,30.942,0,0,0-.7,3.125,2.385,2.385,0,0,1-1.625,1.893c-.065.208-.143.427-.235.66a11.969,11.969,0,0,1-5.234,5.958c-1.047.594-1.993,1.116-1.993,1.116a7.635,7.635,0,0,1-2.838.9C829.845,577.4,829.6,577.416,829.351,577.416Zm-2.874-3.155a5.046,5.046,0,0,0,5.372.224h0s.927-.511,1.952-1.093a9.693,9.693,0,0,0,4.245-4.82,5.072,5.072,0,0,0,.3-.994,1.09,1.09,0,0,1,1.148-.95c.258-.006.28-.128.287-.168a32.989,32.989,0,0,1,.742-3.328,5.58,5.58,0,0,0,.282-1.644c0-.151,0-.275-.01-.375a1.142,1.142,0,0,1-.758-.245,1.131,1.131,0,0,1-.385-1.209,8.452,8.452,0,0,0,.335-2.062,12.933,12.933,0,0,0-3.165-9.578,9.519,9.519,0,0,0-13.767-.24,12.93,12.93,0,0,0-3.5,9.462,8.453,8.453,0,0,0,.263,2.073,1.133,1.133,0,0,1-1.195,1.42c-.011.1-.019.22-.022.367a5.583,5.583,0,0,0,.224,1.653,33.009,33.009,0,0,1,.625,3.352c.024.173.27.177.28.177a1.133,1.133,0,0,1,1.115.99c.018.137.038.274.063.41h0a7.765,7.765,0,0,0,3.213,4.926Z" transform="translate(-816.336 -542.684)" fill="#ff6d60"/>
        </g>
        <g id="Grupo_92682" data-name="Grupo 92682" transform="translate(22.724 45.239)">
          <path id="Trazado_142869" data-name="Trazado 142869" d="M851.045,667.193s-8.037,6.507-15.209-.388" transform="translate(-834.703 -665.672)" fill="#fff"/>
          <path id="Trazado_142870" data-name="Trazado 142870" d="M840.519,668.437a11.449,11.449,0,0,1-8.125-3.472,1.133,1.133,0,0,1,1.571-1.634c6.377,6.131,13.414.565,13.711.324a1.133,1.133,0,0,1,1.427,1.762A15.27,15.27,0,0,1,840.519,668.437Z" transform="translate(-832.045 -663.014)" fill="#ff6d60"/>
        </g>
        <g id="Grupo_92683" data-name="Grupo 92683" transform="translate(17.595 6.743)">
          <path id="Trazado_142871" data-name="Trazado 142871" d="M842.259,557.794a14.93,14.93,0,0,0,.249-14.3l1.3.611a7.9,7.9,0,0,0-7.355-5.277s-5.029-2.225-11.61.929a10.8,10.8,0,0,0-6.119,10.7,34.915,34.915,0,0,0,1.837,8.074s.83-6.388,3.126-6.935h0c.019-3.109,2.711-4.708,5.8-4.367l9.491,1.2Z" transform="translate(-817.545 -536.926)" fill="#ffc967"/>
          <path id="Trazado_142872" data-name="Trazado 142872" d="M817.9,556.992a1.133,1.133,0,0,1-1.072-.768,36.321,36.321,0,0,1-1.893-8.338,12,12,0,0,1,6.757-11.82c6.274-3.007,11.244-1.447,12.34-1.032a9.015,9.015,0,0,1,8.2,6.073,1.135,1.135,0,0,1-.469,1.28,15.907,15.907,0,0,1-1.21,13.356,1.134,1.134,0,0,1-2.021-.241l-3.051-8.712-8.8-1.109a4.576,4.576,0,0,0-3.541.917,3.007,3.007,0,0,0-.984,2.333,1.134,1.134,0,0,1-.87,1.1c-.876.209-1.918,3.329-2.265,5.979a1.134,1.134,0,0,1-1.012.981C817.977,556.99,817.94,556.992,817.9,556.992Zm8.125-13.614a8.487,8.487,0,0,1,.926.051l9.509,1.2a1.134,1.134,0,0,1,.928.75l2.349,6.707a13.737,13.737,0,0,0-.895-10.744,1.134,1.134,0,0,1,.194-1.3c.02-.021.04-.04.061-.059a6.647,6.647,0,0,0-5.34-2.687,1.132,1.132,0,0,1-.424-.1c-.184-.079-4.675-1.955-10.661.915a9.72,9.72,0,0,0-5.48,9.574,27.91,27.91,0,0,0,.6,3.694,6.4,6.4,0,0,1,2.147-3.2,5.144,5.144,0,0,1,1.7-3.275A6.559,6.559,0,0,1,826.027,543.378Z" transform="translate(-814.89 -534.259)" fill="#ff6d60"/>
        </g>
      </g>
    </g>
  </g>
</svg>
