<svg xmlns="http://www.w3.org/2000/svg" width="190.643" height="186.311" viewBox="0 0 190.643 186.311">
  <g id="Grupo_92610" data-name="Grupo 92610" transform="translate(0)">
    <g id="Grupo_92558" data-name="Grupo 92558" transform="translate(34.913 5.366)">
      <g id="Grupo_92547" data-name="Grupo 92547" transform="translate(0 158.522)">
        <g id="Grupo_92546" data-name="Grupo 92546">
          <g id="Grupo_92543" data-name="Grupo 92543" transform="translate(33.9 18.955)">
            <path id="Trazado_142757" data-name="Trazado 142757" d="M3838.98,1119.315a1.132,1.132,0,0,1-.273-.033c-1.481-.367-2.971-.776-4.427-1.215a1.133,1.133,0,0,1,.654-2.17c1.42.429,2.874.827,4.318,1.185a1.134,1.134,0,0,1-.271,2.234Z" transform="translate(-3833.473 -1115.848)" fill="#ff6d60"/>
          </g>
          <g id="Grupo_92544" data-name="Grupo 92544" transform="translate(12.899 9.549)">
            <path id="Trazado_142758" data-name="Trazado 142758" d="M3774.565,1092.03a1.125,1.125,0,0,1-.463-.1,91.872,91.872,0,0,1-10.327-5.443,1.133,1.133,0,0,1,1.183-1.934,89.579,89.579,0,0,0,10.071,5.308,1.134,1.134,0,0,1-.464,2.168Z" transform="translate(-3763.233 -1084.388)" fill="#ff6d60"/>
          </g>
          <g id="Grupo_92545" data-name="Grupo 92545">
            <path id="Trazado_142759" data-name="Trazado 142759" d="M3724.688,1057.639a1.128,1.128,0,0,1-.708-.249c-1.188-.953-2.369-1.948-3.508-2.959a1.133,1.133,0,0,1,1.5-1.7c1.111.986,2.263,1.957,3.422,2.886a1.133,1.133,0,0,1-.709,2.018Z" transform="translate(-3720.09 -1052.45)" fill="#ff6d60"/>
          </g>
        </g>
      </g>
      <g id="Grupo_92552" data-name="Grupo 92552" transform="translate(146.726 63.739)">
        <g id="Grupo_92551" data-name="Grupo 92551">
          <g id="Grupo_92548" data-name="Grupo 92548" transform="translate(0.013)">
            <path id="Trazado_142760" data-name="Trazado 142760" d="M4213.237,742.072a1.132,1.132,0,0,1-1.1-.852c-.37-1.443-.78-2.893-1.22-4.307a1.133,1.133,0,1,1,2.164-.672c.451,1.45.871,2.937,1.251,4.417a1.134,1.134,0,0,1-1.1,1.415Z" transform="translate(-4210.869 -735.443)" fill="#ff6d60"/>
          </g>
          <g id="Grupo_92549" data-name="Grupo 92549" transform="translate(3.054 13.303)">
            <path id="Trazado_142761" data-name="Trazado 142761" d="M4222.177,809.481a1.134,1.134,0,0,1-1.122-1.3c.446-2.951.748-5.967.9-8.964a1.133,1.133,0,1,1,2.264.113c-.153,3.072-.462,6.164-.919,9.19A1.133,1.133,0,0,1,4222.177,809.481Zm.908-18.2a1.133,1.133,0,0,1-1.131-1.078c-.147-3-.448-6.013-.893-8.964a1.134,1.134,0,1,1,2.242-.338c.456,3.026.764,6.118.916,9.191a1.134,1.134,0,0,1-1.076,1.188Z" transform="translate(-4221.042 -779.937)" fill="#ff6d60"/>
          </g>
          <g id="Grupo_92550" data-name="Grupo 92550" transform="translate(0 49.522)">
            <path id="Trazado_142762" data-name="Trazado 142762" d="M4211.961,907.7a1.134,1.134,0,0,1-1.082-1.47c.44-1.416.852-2.865,1.221-4.307a1.133,1.133,0,1,1,2.2.564c-.379,1.478-.8,2.964-1.252,4.416A1.135,1.135,0,0,1,4211.961,907.7Z" transform="translate(-4210.827 -901.073)" fill="#ff6d60"/>
          </g>
        </g>
      </g>
      <g id="Grupo_92557" data-name="Grupo 92557" transform="translate(22.267)">
        <g id="Grupo_92556" data-name="Grupo 92556">
          <g id="Grupo_92553" data-name="Grupo 92553" transform="translate(0 6.461)">
            <path id="Trazado_142763" data-name="Trazado 142763" d="M3795.7,547.928a1.134,1.134,0,0,1-.475-2.163c1.385-.637,2.8-1.248,4.217-1.814a1.133,1.133,0,1,1,.843,2.1c-1.378.552-2.761,1.147-4.112,1.769A1.126,1.126,0,0,1,3795.7,547.928Z" transform="translate(-3794.565 -543.87)" fill="#ff6d60"/>
          </g>
          <g id="Grupo_92554" data-name="Grupo 92554" transform="translate(10.908 0.179)">
            <path id="Trazado_142764" data-name="Trazado 142764" d="M3832.181,529.015a1.133,1.133,0,0,1-.336-2.216c2.3-.714,4.651-1.345,7-1.875a1.133,1.133,0,0,1,.5,2.211c-2.289.517-4.585,1.132-6.825,1.828A1.133,1.133,0,0,1,3832.181,529.015Zm13.947-3.149a1.133,1.133,0,0,1-.16-2.255c2.377-.341,4.8-.593,7.206-.747a1.133,1.133,0,1,1,.145,2.262c-2.345.15-4.71.4-7.029.729A1.156,1.156,0,0,1,3846.128,525.866Z" transform="translate(-3831.047 -522.861)" fill="#ff6d60"/>
          </g>
          <g id="Grupo_92555" data-name="Grupo 92555" transform="translate(39.133)">
            <path id="Trazado_142765" data-name="Trazado 142765" d="M3931.114,524.7l-.073,0c-1.479-.093-2.984-.151-4.474-.172a1.133,1.133,0,0,1,.015-2.267h.016c1.527.021,3.07.08,4.586.176a1.133,1.133,0,0,1-.07,2.265Z" transform="translate(-3925.449 -522.261)" fill="#ff6d60"/>
          </g>
        </g>
      </g>
    </g>
    <g id="Grupo_92586" data-name="Grupo 92586" transform="translate(62.27 0)">
      <g id="Grupo_92560" data-name="Grupo 92560" transform="translate(0 54.791)">
        <g id="Grupo_92559" data-name="Grupo 92559">
          <path id="Trazado_142766" data-name="Trazado 142766" d="M3885.284,691.355h-59.83a10.076,10.076,0,0,0-10.075,10.075v30.053a10.075,10.075,0,0,0,10.075,10.075h.2v10.86l16.665-10.86h42.968a10.075,10.075,0,0,0,10.075-10.075V701.43A10.076,10.076,0,0,0,3885.284,691.355Z" transform="translate(-3814.246 -690.222)" fill="#fff"/>
          <path id="Trazado_142767" data-name="Trazado 142767" d="M3822.994,750.895a1.134,1.134,0,0,1-1.133-1.133V740a11.223,11.223,0,0,1-10.272-11.17V698.774a11.221,11.221,0,0,1,11.208-11.208h59.83a11.221,11.221,0,0,1,11.208,11.208v30.053a11.221,11.221,0,0,1-11.208,11.208H3840l-16.383,10.676A1.133,1.133,0,0,1,3822.994,750.895Zm-.2-61.063a8.952,8.952,0,0,0-8.942,8.942v30.053a8.952,8.952,0,0,0,8.942,8.942h.2a1.133,1.133,0,0,1,1.133,1.133v8.768l14.913-9.718a1.133,1.133,0,0,1,.619-.184h42.968a8.952,8.952,0,0,0,8.941-8.942V698.774a8.952,8.952,0,0,0-8.941-8.942Z" transform="translate(-3811.589 -687.565)" fill="#ff6d60"/>
        </g>
      </g>
      <g id="Grupo_92562" data-name="Grupo 92562" transform="translate(47.699)">
        <g id="Grupo_92561" data-name="Grupo 92561">
          <path id="Trazado_142768" data-name="Trazado 142768" d="M3984.791,508.1h58.652a9.877,9.877,0,0,1,9.877,9.877v29.462a9.877,9.877,0,0,1-9.877,9.877h-.193v10.646l-16.336-10.646h-42.123a9.877,9.877,0,0,1-9.877-9.877V517.98A9.877,9.877,0,0,1,3984.791,508.1Z" transform="translate(-3973.781 -506.97)" fill="#fff"/>
          <path id="Trazado_142769" data-name="Trazado 142769" d="M4040.593,566.442a1.133,1.133,0,0,1-.619-.184L4023.919,555.8h-41.786a11.023,11.023,0,0,1-11.01-11.01V515.323a11.022,11.022,0,0,1,11.01-11.01h58.652a11.022,11.022,0,0,1,11.01,11.01v29.462a11.025,11.025,0,0,1-10.069,10.971v9.552a1.133,1.133,0,0,1-1.133,1.133Zm-58.46-59.862a8.754,8.754,0,0,0-8.744,8.744v29.462a8.753,8.753,0,0,0,8.744,8.744h42.123a1.135,1.135,0,0,1,.619.184l14.585,9.5v-8.555a1.133,1.133,0,0,1,1.133-1.134h.192a8.753,8.753,0,0,0,8.743-8.744V515.323a8.753,8.753,0,0,0-8.743-8.744Z" transform="translate(-3971.123 -504.313)" fill="#ff6d60"/>
        </g>
      </g>
      <g id="Grupo_92567" data-name="Grupo 92567" transform="translate(53.379 14.37)">
        <g id="Grupo_92563" data-name="Grupo 92563">
          <line id="Línea_140" data-name="Línea 140" x1="28.81" transform="translate(1.134 1.133)" fill="#fff"/>
          <path id="Trazado_142770" data-name="Trazado 142770" d="M4020.063,554.642h-28.81a1.133,1.133,0,0,1,0-2.267h28.81a1.133,1.133,0,1,1,0,2.267Z" transform="translate(-3990.12 -552.375)" fill="#ff6d60"/>
        </g>
        <g id="Grupo_92564" data-name="Grupo 92564" transform="translate(0 13.864)">
          <line id="Línea_141" data-name="Línea 141" x1="28.81" transform="translate(1.134 1.133)" fill="#fff"/>
          <path id="Trazado_142771" data-name="Trazado 142771" d="M4020.063,601.012h-28.81a1.133,1.133,0,1,1,0-2.267h28.81a1.133,1.133,0,1,1,0,2.267Z" transform="translate(-3990.12 -598.745)" fill="#ff6d60"/>
        </g>
        <g id="Grupo_92565" data-name="Grupo 92565" transform="translate(0 6.932)">
          <line id="Línea_142" data-name="Línea 142" x1="28.81" transform="translate(1.134 1.133)" fill="#fff"/>
          <path id="Trazado_142772" data-name="Trazado 142772" d="M4020.063,577.827h-28.81a1.133,1.133,0,0,1,0-2.267h28.81a1.133,1.133,0,1,1,0,2.267Z" transform="translate(-3990.12 -575.56)" fill="#ff6d60"/>
        </g>
        <g id="Grupo_92566" data-name="Grupo 92566" transform="translate(13.543 20.796)">
          <line id="Línea_143" data-name="Línea 143" x1="15.267" transform="translate(1.133 1.133)" fill="#fff"/>
          <path id="Trazado_142773" data-name="Trazado 142773" d="M4051.816,624.2h-15.267a1.133,1.133,0,0,1,0-2.267h15.267a1.133,1.133,0,0,1,0,2.267Z" transform="translate(-4035.416 -621.929)" fill="#ff6d60"/>
        </g>
      </g>
      <g id="Grupo_92572" data-name="Grupo 92572" transform="translate(87.311 7.477)">
        <g id="Grupo_92568" data-name="Grupo 92568">
          <circle id="Elipse_4430" data-name="Elipse 4430" cx="16.902" cy="16.902" r="16.902" transform="translate(1.134 1.133)" fill="#ffc967"/>
          <path id="Trazado_142774" data-name="Trazado 142774" d="M4121.646,565.392a18.036,18.036,0,1,1,18.035-18.035A18.056,18.056,0,0,1,4121.646,565.392Zm0-33.8a15.769,15.769,0,1,0,15.769,15.769A15.788,15.788,0,0,0,4121.646,531.588Z" transform="translate(-4103.61 -529.321)" fill="#ff6d60"/>
        </g>
        <g id="Grupo_92571" data-name="Grupo 92571" transform="translate(4.602 5.536)">
          <g id="Grupo_92570" data-name="Grupo 92570">
            <g id="Grupo_92569" data-name="Grupo 92569">
              <path id="Trazado_142775" data-name="Trazado 142775" d="M4120.135,572.874a1.134,1.134,0,0,1-.969-1.72,4.356,4.356,0,0,1,2.67-1.976c.823-.209,1.861-.393,2.865-.57,1.084-.191,2.205-.389,2.944-.6a.731.731,0,0,0,.525-.7v-1.178a8.523,8.523,0,0,1-2.182-3.3q-.042-.115-.079-.224a1.871,1.871,0,0,1-1.022-1.4,18.038,18.038,0,0,0-.373-1.823,5.074,5.074,0,0,1-.206-1.425,2.277,2.277,0,0,1,.563-1.693c-.019-.187-.031-.376-.034-.568a7.491,7.491,0,0,1,2.074-5.546,8.368,8.368,0,0,1,11.508-.037,7.631,7.631,0,0,1,2.17,5.565c0,.211-.013.408-.031.589a2.279,2.279,0,0,1,.559,1.688,5.039,5.039,0,0,1-.206,1.425,18.342,18.342,0,0,0-.373,1.822,1.869,1.869,0,0,1-.981,1.381,7.122,7.122,0,0,1-2.081,3.558v1.168a.725.725,0,0,0,.515.7c.844.244,1.989.5,3.1.751.8.18,1.626.367,2.337.547a4.4,4.4,0,0,1,2.434,1.625,1.134,1.134,0,1,1-1.816,1.357,2.123,2.123,0,0,0-1.176-.785c-.681-.173-1.492-.355-2.276-.532-1.141-.257-2.319-.523-3.228-.785a3,3,0,0,1-2.153-2.875v-1.411a1.763,1.763,0,0,1,.673-1.377,4.927,4.927,0,0,0,1.54-2.767c.014-.074.026-.148.037-.222a1.134,1.134,0,0,1,.884-.945c.148-.883.276-1.388.373-1.766a3.467,3.467,0,0,0,.132-.7,1.108,1.108,0,0,1-.286-.161,1.133,1.133,0,0,1-.4-1.208,3.858,3.858,0,0,0,.16-1.09,5.411,5.411,0,0,0-1.512-3.953,5.7,5.7,0,0,0-4.1-1.6,5.762,5.762,0,0,0-4.181,1.629,5.275,5.275,0,0,0-1.429,3.911,4.421,4.421,0,0,0,.159,1.109,1.134,1.134,0,0,1-.682,1.368,3.388,3.388,0,0,0,.131.7c.1.378.225.883.372,1.766a1.133,1.133,0,0,1,.885.945,2.509,2.509,0,0,0,.145.5,6.036,6.036,0,0,0,1.673,2.5,1.76,1.76,0,0,1,.653,1.36v1.42a3.009,3.009,0,0,1-2.165,2.878c-.855.246-2.036.455-3.178.656-.963.17-1.959.346-2.7.534a2.1,2.1,0,0,0-1.289.953A1.132,1.132,0,0,1,4120.135,572.874Zm18.453-12.316h0Z" transform="translate(-4119.002 -547.835)" fill="#ff6d60"/>
            </g>
          </g>
        </g>
      </g>
      <g id="Grupo_92577" data-name="Grupo 92577" transform="translate(44.703 71.046)">
        <g id="Grupo_92573" data-name="Grupo 92573">
          <line id="Línea_144" data-name="Línea 144" x2="28.81" transform="translate(1.133 1.133)" fill="#fff"/>
          <path id="Trazado_142776" data-name="Trazado 142776" d="M3991.045,744.2h-28.81a1.133,1.133,0,1,1,0-2.267h28.81a1.133,1.133,0,1,1,0,2.267Z" transform="translate(-3961.102 -741.931)" fill="#ff6d60"/>
        </g>
        <g id="Grupo_92574" data-name="Grupo 92574" transform="translate(0 13.864)">
          <line id="Línea_145" data-name="Línea 145" x2="28.81" transform="translate(1.133 1.133)" fill="#fff"/>
          <path id="Trazado_142777" data-name="Trazado 142777" d="M3991.045,790.568h-28.81a1.133,1.133,0,1,1,0-2.267h28.81a1.133,1.133,0,1,1,0,2.267Z" transform="translate(-3961.102 -788.301)" fill="#ff6d60"/>
        </g>
        <g id="Grupo_92575" data-name="Grupo 92575" transform="translate(0 6.932)">
          <line id="Línea_146" data-name="Línea 146" x2="28.81" transform="translate(1.133 1.133)" fill="#fff"/>
          <path id="Trazado_142778" data-name="Trazado 142778" d="M3991.045,767.383h-28.81a1.133,1.133,0,1,1,0-2.267h28.81a1.133,1.133,0,1,1,0,2.267Z" transform="translate(-3961.102 -765.116)" fill="#ff6d60"/>
        </g>
        <g id="Grupo_92576" data-name="Grupo 92576" transform="translate(0 20.796)">
          <line id="Línea_147" data-name="Línea 147" x2="15.267" transform="translate(1.133 1.133)" fill="#fff"/>
          <path id="Trazado_142779" data-name="Trazado 142779" d="M3977.5,813.752h-15.267a1.133,1.133,0,1,1,0-2.267H3977.5a1.133,1.133,0,1,1,0,2.267Z" transform="translate(-3961.102 -811.485)" fill="#ff6d60"/>
        </g>
      </g>
      <g id="Grupo_92585" data-name="Grupo 92585" transform="translate(6.277 62.473)">
        <g id="Grupo_92578" data-name="Grupo 92578">
          <path id="Trazado_147289" data-name="Trazado 147289" d="M16.9,0A16.9,16.9,0,1,1,0,16.9,16.9,16.9,0,0,1,16.9,0Z" transform="translate(1.134 1.133)" fill="#ffc967"/>
          <path id="Trazado_142780" data-name="Trazado 142780" d="M3850.619,749.331a18.036,18.036,0,1,1,18.036-18.035A18.056,18.056,0,0,1,3850.619,749.331Zm0-33.8a15.769,15.769,0,1,0,15.769,15.769A15.787,15.787,0,0,0,3850.619,715.527Z" transform="translate(-3832.583 -713.26)" fill="#ff6d60"/>
        </g>
        <g id="Grupo_92581" data-name="Grupo 92581" transform="translate(4.602 5.536)">
          <g id="Grupo_92580" data-name="Grupo 92580">
            <g id="Grupo_92579" data-name="Grupo 92579">
              <path id="Trazado_142781" data-name="Trazado 142781" d="M3849.108,756.813a1.134,1.134,0,0,1-.969-1.72,4.354,4.354,0,0,1,2.67-1.976c.823-.209,1.861-.393,2.865-.57,1.084-.191,2.2-.389,2.944-.6a.731.731,0,0,0,.525-.7v-1.178a8.527,8.527,0,0,1-2.182-3.3c-.028-.077-.055-.151-.079-.223a1.871,1.871,0,0,1-1.022-1.4,18.2,18.2,0,0,0-.373-1.822,5.039,5.039,0,0,1-.206-1.425,2.275,2.275,0,0,1,.563-1.692q-.029-.279-.035-.567a7.491,7.491,0,0,1,2.075-5.547,8.368,8.368,0,0,1,11.508-.036,7.63,7.63,0,0,1,2.17,5.565c0,.211-.014.408-.032.589a2.279,2.279,0,0,1,.559,1.688,5.056,5.056,0,0,1-.206,1.425,17.958,17.958,0,0,0-.373,1.822,1.869,1.869,0,0,1-.982,1.38,7.113,7.113,0,0,1-2.081,3.559v1.168a.725.725,0,0,0,.515.7c.844.244,1.989.5,3.1.751.8.18,1.625.367,2.336.547a4.4,4.4,0,0,1,2.435,1.625,1.133,1.133,0,0,1-1.816,1.356,2.126,2.126,0,0,0-1.177-.785c-.68-.173-1.492-.356-2.276-.533-1.14-.257-2.319-.523-3.228-.785a3,3,0,0,1-2.153-2.875v-1.411a1.766,1.766,0,0,1,.671-1.376,4.915,4.915,0,0,0,1.54-2.768c.015-.073.027-.145.038-.218a1.134,1.134,0,0,1,.884-.948c.148-.883.277-1.388.373-1.766a3.308,3.308,0,0,0,.132-.7,1.134,1.134,0,0,1-.682-1.369,3.9,3.9,0,0,0,.159-1.091,5.408,5.408,0,0,0-1.511-3.953,5.7,5.7,0,0,0-4.1-1.605,5.762,5.762,0,0,0-4.181,1.629,5.275,5.275,0,0,0-1.429,3.911,4.389,4.389,0,0,0,.16,1.108,1.133,1.133,0,0,1-.4,1.208,1.116,1.116,0,0,1-.286.161,3.314,3.314,0,0,0,.133.7c.1.378.224.882.372,1.766a1.134,1.134,0,0,1,.885.945,2.544,2.544,0,0,0,.144.5,6.044,6.044,0,0,0,1.673,2.5,1.758,1.758,0,0,1,.653,1.359v1.42a3.008,3.008,0,0,1-2.165,2.878c-.855.246-2.036.455-3.178.657-.963.17-1.959.346-2.7.534a2.1,2.1,0,0,0-1.289.953A1.133,1.133,0,0,1,3849.108,756.813Z" transform="translate(-3847.976 -731.774)" fill="#ff6d60"/>
            </g>
          </g>
        </g>
        <g id="Grupo_92582" data-name="Grupo 92582" transform="translate(10.095 16.495)">
          <path id="Trazado_142782" data-name="Trazado 142782" d="M3875.922,775.691a12.017,12.017,0,0,1-5.786-3.472" transform="translate(-3869.003 -771.086)" fill="#fff"/>
          <path id="Trazado_142783" data-name="Trazado 142783" d="M3873.265,774.167a1.129,1.129,0,0,1-.193-.017,13.116,13.116,0,0,1-6.4-3.787,1.133,1.133,0,0,1,1.6-1.6,11.165,11.165,0,0,0,5.184,3.157,1.134,1.134,0,0,1-.2,2.249Z" transform="translate(-3866.345 -768.429)" fill="#ff6d60"/>
        </g>
        <g id="Grupo_92583" data-name="Grupo 92583" transform="translate(22.475 12.939)">
          <path id="Trazado_142784" data-name="Trazado 142784" d="M3911.688,762.907c-.21,1.5-.332,2.729.671,2.869s1.984-.966,2.194-2.469-.433-2.835-1.435-2.975S3911.9,761.4,3911.688,762.907Z" transform="translate(-3910.41 -759.188)" fill="#ffc967"/>
          <path id="Trazado_142785" data-name="Trazado 142785" d="M3909.876,764.267a2.39,2.39,0,0,1-.331-.023,2.014,2.014,0,0,1-1.757-1.894,13.219,13.219,0,0,1,.621-4.453,2.014,2.014,0,0,1,2.208-1.342c1.647.229,2.7,2.1,2.4,4.254C3912.737,762.819,3911.391,764.267,3909.876,764.267Zm.571-5.375a9.886,9.886,0,0,0-.294,1.517h0a9.858,9.858,0,0,0-.131,1.539,2.459,2.459,0,0,0,.426-3.056Z" transform="translate(-3907.753 -756.535)" fill="#ff6d60"/>
        </g>
        <g id="Grupo_92584" data-name="Grupo 92584" transform="translate(8.378 12.942)">
          <path id="Trazado_142786" data-name="Trazado 142786" d="M3864.415,763.267c.148,1.51,1.086,2.654,2.093,2.555s.935-1.329.786-2.839-.319-2.73-1.325-2.631S3864.266,761.756,3864.415,763.267Z" transform="translate(-3863.261 -759.21)" fill="#ffc967"/>
          <path id="Trazado_142787" data-name="Trazado 142787" d="M3863.726,764.3c-1.556,0-2.893-1.521-3.1-3.583h0a4.676,4.676,0,0,1,.471-2.631,2.718,2.718,0,0,1,2.1-1.523c2.186-.215,2.422,2.2,2.565,3.648s.38,3.863-1.8,4.078C3863.882,764.294,3863.8,764.3,3863.726,764.3Zm-.45-5.392a.99.99,0,0,0-.175.244,2.435,2.435,0,0,0-.216,1.342h0a2.079,2.079,0,0,0,.693,1.482,14.558,14.558,0,0,0-.3-3.068Z" transform="translate(-3860.604 -756.547)" fill="#ff6d60"/>
        </g>
      </g>
    </g>
    <g id="Grupo_92599" data-name="Grupo 92599" transform="translate(0 22.11)">
      <g id="Grupo_92587" data-name="Grupo 92587" transform="translate(9.304 74.279)">
        <path id="Rectángulo_35305" data-name="Rectángulo 35305" d="M0,0H13.5a0,0,0,0,1,0,0V53.239a6.752,6.752,0,0,1-6.752,6.752h0A6.752,6.752,0,0,1,0,53.239V0A0,0,0,0,1,0,0Z" transform="translate(1.134 1.133)" fill="#fff"/>
        <path id="Trazado_142788" data-name="Trazado 142788" d="M3642.617,888.953h-.586a7.6,7.6,0,0,1-7.593-7.593V827.828a1.134,1.134,0,0,1,1.134-1.133h13.5a1.133,1.133,0,0,1,1.133,1.133v53.532A7.6,7.6,0,0,1,3642.617,888.953Zm-5.912-59.992v52.4a5.332,5.332,0,0,0,5.326,5.326h.586a5.332,5.332,0,0,0,5.326-5.326v-52.4Z" transform="translate(-3634.438 -826.695)" fill="#ff6d60"/>
      </g>
      <g id="Grupo_92588" data-name="Grupo 92588" transform="translate(22.809 74.279)">
        <path id="Rectángulo_35306" data-name="Rectángulo 35306" d="M0,0H13.5a0,0,0,0,1,0,0V53.239a6.752,6.752,0,0,1-6.752,6.752h0A6.752,6.752,0,0,1,0,53.239V0A0,0,0,0,1,0,0Z" transform="translate(1.134 1.133)" fill="#fff"/>
        <path id="Trazado_142789" data-name="Trazado 142789" d="M3687.784,888.953h-.585a7.6,7.6,0,0,1-7.593-7.593V827.828a1.134,1.134,0,0,1,1.134-1.133h13.5a1.133,1.133,0,0,1,1.133,1.133v53.532A7.6,7.6,0,0,1,3687.784,888.953Zm-5.912-59.992v52.4a5.332,5.332,0,0,0,5.326,5.326h.585a5.332,5.332,0,0,0,5.326-5.326v-52.4Z" transform="translate(-3679.606 -826.695)" fill="#ff6d60"/>
      </g>
      <g id="Grupo_92590" data-name="Grupo 92590" transform="translate(10.231 6.197)">
        <g id="Grupo_92589" data-name="Grupo 92589">
          <circle id="Elipse_4432" data-name="Elipse 4432" cx="10.536" cy="10.536" r="10.536" transform="translate(1.133 1.133)" fill="#fff"/>
          <path id="Trazado_142790" data-name="Trazado 142790" d="M3649.207,622.329a11.67,11.67,0,1,1,11.67-11.67A11.683,11.683,0,0,1,3649.207,622.329Zm0-21.073a9.4,9.4,0,1,0,9.4,9.4A9.413,9.413,0,0,0,3649.207,601.257Z" transform="translate(-3637.537 -598.99)" fill="#ff6d60"/>
        </g>
      </g>
      <g id="Grupo_92591" data-name="Grupo 92591" transform="translate(0 31.522)">
        <path id="Trazado_142791" data-name="Trazado 142791" d="M3630.536,730.238h-19.107a3.981,3.981,0,0,1-2.949-1.306,4.546,4.546,0,0,1-1.369-3.255V698.606a11.124,11.124,0,0,1,11.123-11.124h21.37c1.559,0,6.468-.2,8.7,4.765.066.147.139.291.2.441l5.555,13.816" transform="translate(-3605.978 -686.347)" fill="#fff"/>
        <path id="Trazado_142792" data-name="Trazado 142792" d="M3627.878,728.713h-19.107a5.139,5.139,0,0,1-3.765-1.652,5.651,5.651,0,0,1-1.687-4.042V695.948a12.271,12.271,0,0,1,12.256-12.256h21.543c1.756-.009,7.105-.031,9.564,5.435l.062.134c.054.115.107.23.154.347l5.556,13.818a1.133,1.133,0,1,1-2.1.846l-5.556-13.816c-.031-.077-.068-.155-.1-.232l-.077-.165c-1.854-4.123-5.806-4.11-7.487-4.1h-21.553a10,10,0,0,0-9.989,9.99v27.071a3.4,3.4,0,0,0,1.029,2.446l.043.045a2.83,2.83,0,0,0,2.112.937h19.107a1.133,1.133,0,1,1,0,2.267Z" transform="translate(-3603.32 -683.689)" fill="#ff6d60"/>
      </g>
      <g id="Grupo_92592" data-name="Grupo 92592" transform="translate(22.809 46.134)">
        <path id="Trazado_142793" data-name="Trazado 142793" d="M3704.835,758.354l-.465,6.142H3683.4l3.4-28.145h21.1l-1.952,12.294" transform="translate(-3682.264 -735.218)" fill="#ffc967"/>
        <path id="Trazado_142794" data-name="Trazado 142794" d="M3701.713,762.973H3680.74a1.134,1.134,0,0,1-1.125-1.269l3.4-28.146a1.133,1.133,0,0,1,1.125-1h21.1a1.134,1.134,0,0,1,1.119,1.311l-1.952,12.294a1.133,1.133,0,0,1-2.239-.356l1.744-10.983h-18.767l-3.129,25.879h18.643l.386-5.094a1.133,1.133,0,0,1,2.26.171l-.465,6.142A1.133,1.133,0,0,1,3701.713,762.973Z" transform="translate(-3679.607 -732.561)" fill="#ff6d60"/>
      </g>
      <g id="Grupo_92593" data-name="Grupo 92593" transform="translate(34.638 49.809)">
        <path id="Trazado_142795" data-name="Trazado 142795" d="M3735.214,748.645c1.468,6.581,2.588,12.645,2.674,13.11h0a3.952,3.952,0,0,1-3.148,4.617l-6.5,1.542a4.082,4.082,0,0,1-2.96-.424l-.247-.14a4.082,4.082,0,0,1-1.966-4.435h0a4.083,4.083,0,0,1,2.684-2.983l7.938-2.669Z" transform="translate(-3721.832 -747.512)" fill="#fff"/>
        <path id="Trazado_142796" data-name="Trazado 142796" d="M3724.63,766.5a5.2,5.2,0,0,1-2.574-.683l-.247-.14a5.189,5.189,0,0,1-2.513-5.667,5.244,5.244,0,0,1,3.429-3.811l7.3-2.454,1.41-7.957a1.133,1.133,0,0,1,1.091-.935h.025a1.133,1.133,0,0,1,1.106.886c1.441,6.462,2.56,12.486,2.683,13.151a5.09,5.09,0,0,1-4.025,5.931l-6.478,1.536A5.24,5.24,0,0,1,3724.63,766.5Zm8.026-14.608-.515,2.911a1.133,1.133,0,0,1-.755.876l-7.938,2.669a2.966,2.966,0,0,0-1.939,2.155,2.935,2.935,0,0,0,1.421,3.2l.247.14a2.94,2.94,0,0,0,2.139.306l6.5-1.542.051-.011a2.821,2.821,0,0,0,2.245-3.292C3734.027,758.847,3733.468,755.835,3732.656,751.893Zm-1.631,2.713h0Z" transform="translate(-3719.169 -744.854)" fill="#ff6d60"/>
      </g>
      <g id="Grupo_92597" data-name="Grupo 92597" transform="translate(41.598)">
        <g id="Grupo_92594" data-name="Grupo 92594">
          <path id="Trazado_142797" data-name="Trazado 142797" d="M3775.757,582.053h-24.3a5.222,5.222,0,0,0-5.222,5.222v13.356a4.77,4.77,0,0,0,4.77,4.77h0c1.669,3.953,1.584,4.329,2.318,6.273,0,0,6.84-6.18,7.394-6.18l15.038-.01a5.222,5.222,0,0,0,5.22-5.222V587.275A5.222,5.222,0,0,0,3775.757,582.053Z" transform="translate(-3745.105 -580.919)" fill="#ffc967"/>
          <path id="Trazado_142798" data-name="Trazado 142798" d="M3750.669,610.15a1.133,1.133,0,0,1-1.06-.733c-.262-.693-.421-1.187-.589-1.709-.285-.885-.579-1.8-1.444-3.882a5.913,5.913,0,0,1-5.129-5.852V584.618a6.363,6.363,0,0,1,6.356-6.356h24.3a6.363,6.363,0,0,1,6.356,6.356V597.6a6.364,6.364,0,0,1-6.354,6.356l-14.782.01c-.873.576-4.09,3.359-6.891,5.888A1.132,1.132,0,0,1,3750.669,610.15Zm-1.866-29.622a4.093,4.093,0,0,0-4.089,4.089v13.356a3.64,3.64,0,0,0,3.636,3.637,1.133,1.133,0,0,1,1.044.693,49.183,49.183,0,0,1,1.782,4.71.128.128,0,0,0,.006.018c5.952-5.327,6.423-5.328,6.879-5.328l15.038-.01a4.094,4.094,0,0,0,4.088-4.089V584.618a4.093,4.093,0,0,0-4.089-4.089Z" transform="translate(-3742.447 -578.262)" fill="#ff6d60"/>
        </g>
        <g id="Grupo_92596" data-name="Grupo 92596" transform="translate(10.069 6.798)">
          <g id="Grupo_92595" data-name="Grupo 92595">
            <path id="Trazado_142799" data-name="Trazado 142799" d="M3782.2,612.676a1.693,1.693,0,0,1-1.173-.469l-4.548-4.335a1.133,1.133,0,1,1,1.564-1.641l4.139,3.945,8.466-8.83a1.133,1.133,0,0,1,1.636,1.569l-8.857,9.239A1.693,1.693,0,0,1,3782.2,612.676Z" transform="translate(-3776.125 -600.997)" fill="#ff6d60"/>
          </g>
        </g>
      </g>
      <g id="Grupo_92598" data-name="Grupo 92598" transform="translate(9.123 50.462)">
        <path id="Trazado_142800" data-name="Trazado 142800" d="M3649.1,763.085h-11.552a3.72,3.72,0,0,1-3.716-3.716v-11.2a1.134,1.134,0,0,1,2.267,0v11.2a1.45,1.45,0,0,0,1.449,1.449H3649.1a1.133,1.133,0,1,1,0,2.267Z" transform="translate(-3633.832 -747.036)" fill="#ff6d60"/>
      </g>
    </g>
    <g id="Grupo_92609" data-name="Grupo 92609" transform="translate(72.803 121.146)">
      <g id="Grupo_92600" data-name="Grupo 92600" transform="translate(18.915)">
        <rect id="Rectángulo_35307" data-name="Rectángulo 35307" width="82.68" height="56.183" transform="translate(1.133 1.166)" fill="#fff"/>
        <path id="Trazado_142801" data-name="Trazado 142801" d="M3993.892,968.01h0l-82.679-.066a1.133,1.133,0,0,1-1.133-1.134V910.628a1.134,1.134,0,0,1,1.134-1.133h0l82.679.066a1.133,1.133,0,0,1,1.133,1.133v56.183a1.134,1.134,0,0,1-1.133,1.134Zm-81.546-2.332,80.413.064V911.826l-80.413-.064Z" transform="translate(-3910.079 -909.495)" fill="#ff6d60"/>
      </g>
      <g id="Grupo_92601" data-name="Grupo 92601" transform="translate(69.198 30.25)">
        <line id="Línea_148" data-name="Línea 148" x1="31.966" y1="25.449" transform="translate(1.133 1.133)" fill="#fff"/>
        <path id="Trazado_142802" data-name="Trazado 142802" d="M4111.352,1038.383a1.131,1.131,0,0,1-.705-.246l-31.966-25.449a1.133,1.133,0,0,1,1.412-1.773l31.966,25.449a1.133,1.133,0,0,1-.706,2.02Z" transform="translate(-4078.253 -1010.668)" fill="#ff6d60"/>
      </g>
      <g id="Grupo_92602" data-name="Grupo 92602" transform="translate(19.701 30.243)">
        <line id="Línea_149" data-name="Línea 149" x1="32.077" y2="25.019" transform="translate(1.133 1.133)" fill="#fff"/>
        <path id="Trazado_142803" data-name="Trazado 142803" d="M3913.84,1037.932a1.133,1.133,0,0,1-.7-2.027l32.077-25.019a1.133,1.133,0,0,1,1.394,1.787l-32.077,25.019A1.129,1.129,0,0,1,3913.84,1037.932Z" transform="translate(-3912.706 -1010.646)" fill="#ff6d60"/>
      </g>
      <g id="Grupo_92603" data-name="Grupo 92603" transform="translate(19.264 0.553)">
        <path id="Trazado_142804" data-name="Trazado 142804" d="M3996.935,915.136l-30.542,28.381a4.891,4.891,0,0,1-3.323,1.315l-13.639-.006a4.888,4.888,0,0,1-3.3-1.3l-31.1-28.395Z" transform="translate(-3913.902 -914.003)" fill="#ffc967"/>
        <path id="Trazado_142805" data-name="Trazado 142805" d="M3960.415,943.308h0l-13.639-.005a6.018,6.018,0,0,1-4.062-1.592l-31.1-28.395a1.133,1.133,0,0,1,.764-1.97h81.9a1.134,1.134,0,0,1,.772,1.964l-30.543,28.381A6.017,6.017,0,0,1,3960.415,943.308Zm-45.113-29.7,28.939,26.425a3.759,3.759,0,0,0,2.535,1l13.639.005h0a3.758,3.758,0,0,0,2.552-1.014l28.427-26.416Z" transform="translate(-3911.246 -911.345)" fill="#ff6d60"/>
      </g>
      <g id="Grupo_92608" data-name="Grupo 92608" transform="translate(0 20.898)">
        <g id="Grupo_92604" data-name="Grupo 92604">
          <circle id="Elipse_4433" data-name="Elipse 4433" cx="20.204" cy="20.204" r="20.204" transform="translate(1.134 1.133)" fill="#ffc967"/>
          <path id="Trazado_142806" data-name="Trazado 142806" d="M3868.152,1022.063a21.337,21.337,0,1,1,21.337-21.337A21.362,21.362,0,0,1,3868.152,1022.063Zm0-40.407a19.07,19.07,0,1,0,19.07,19.07A19.092,19.092,0,0,0,3868.152,981.656Z" transform="translate(-3846.815 -979.389)" fill="#ff6d60"/>
        </g>
        <g id="Grupo_92607" data-name="Grupo 92607" transform="translate(5.501 6.617)">
          <g id="Grupo_92606" data-name="Grupo 92606">
            <g id="Grupo_92605" data-name="Grupo 92605">
              <path id="Trazado_142807" data-name="Trazado 142807" d="M3869.006,1032.53a3.88,3.88,0,0,1,2.367-1.75c2-.508,5.193-.9,6.985-1.412a2.225,2.225,0,0,0,1.607-2.139v-1.7a.751.751,0,0,0-.285-.578,8.62,8.62,0,0,1-2.409-3.558,4.392,4.392,0,0,1-.244-.877,1,1,0,0,1-1-.8c-.392-2.475-.675-2.582-.675-3.669s.4-1.345.873-1.064a6.544,6.544,0,0,1-.243-1.667c-.109-5,3.623-8.007,8.06-8.007a7.737,7.737,0,0,1,8.06,8.007,6.028,6.028,0,0,1-.242,1.667c.476-.281.873-.022.873,1.064s-.283,1.194-.675,3.669a1,1,0,0,1-1,.8q-.024.166-.056.329a7.2,7.2,0,0,1-2.321,4.105.759.759,0,0,0-.3.589v1.687a2.218,2.218,0,0,0,1.595,2.135c1.792.518,4.534,1.055,6.536,1.564a3.885,3.885,0,0,1,2.158,1.44,17.729,17.729,0,0,1-14.088,6.713A23.079,23.079,0,0,1,3869.006,1032.53Z" transform="translate(-3867.873 -1004.177)" fill="#fff"/>
              <path id="Trazado_142808" data-name="Trazado 142808" d="M3881.919,1037.557a24.034,24.034,0,0,1-16.4-6.908,1.133,1.133,0,0,1-.144-1.362,4.986,4.986,0,0,1,3.057-2.262c.976-.248,2.212-.466,3.408-.677,1.3-.23,2.647-.467,3.542-.725a1.1,1.1,0,0,0,.788-1.05v-1.509a9.878,9.878,0,0,1-2.621-3.926q-.067-.18-.121-.347a2.03,2.03,0,0,1-1.186-1.552,21.682,21.682,0,0,0-.449-2.2,5.844,5.844,0,0,1-.239-1.648,2.428,2.428,0,0,1,.683-1.935c-.029-.253-.047-.51-.053-.771a8.742,8.742,0,0,1,2.417-6.47,9.782,9.782,0,0,1,13.44-.042,8.9,8.9,0,0,1,2.53,6.495,7.5,7.5,0,0,1-.048.793,2.434,2.434,0,0,1,.679,1.931,5.842,5.842,0,0,1-.24,1.648,21.641,21.641,0,0,0-.45,2.2,2.024,2.024,0,0,1-1.146,1.534,8.258,8.258,0,0,1-2.519,4.3v1.5a1.088,1.088,0,0,0,.776,1.046c1.015.293,2.386.6,3.712.9.955.215,1.942.437,2.789.653a5.035,5.035,0,0,1,2.786,1.861,1.132,1.132,0,0,1,.023,1.325A18.738,18.738,0,0,1,3881.919,1037.557Zm-14.018-7.779a21.986,21.986,0,0,0,14.018,5.512,16.67,16.67,0,0,0,12.567-5.5,2.76,2.76,0,0,0-.917-.424c-.817-.208-1.789-.427-2.729-.639-1.358-.306-2.763-.623-3.843-.935a3.366,3.366,0,0,1-2.413-3.224v-1.687a1.887,1.887,0,0,1,.721-1.473,6.028,6.028,0,0,0,1.918-3.439c.018-.09.033-.182.047-.275a1.058,1.058,0,0,1,1.032-.974c.186-1.141.347-1.774.465-2.243a3.73,3.73,0,0,0,.17-1.051,1.133,1.133,0,0,1-.83-1.414,4.886,4.886,0,0,0,.2-1.363,6.682,6.682,0,0,0-1.87-4.882,7.035,7.035,0,0,0-5.056-1.984,7.108,7.108,0,0,0-5.156,2.013,6.525,6.525,0,0,0-1.771,4.835,5.493,5.493,0,0,0,.2,1.381,1.134,1.134,0,0,1-.829,1.414,3.709,3.709,0,0,0,.169,1.051c.12.468.28,1.1.466,2.243a1.145,1.145,0,0,1,1.032.974,3.187,3.187,0,0,0,.184.642,7.449,7.449,0,0,0,2.067,3.08,1.882,1.882,0,0,1,.7,1.454v1.7a3.374,3.374,0,0,1-2.427,3.228c-1.01.291-2.417.539-3.776.78-1.155.2-2.349.415-3.244.642A2.751,2.751,0,0,0,3867.9,1029.779Zm-1.553.095h0Z" transform="translate(-3865.215 -1001.52)" fill="#ff6d60"/>
            </g>
          </g>
        </g>
      </g>
    </g>
  </g>
</svg>
