<svg xmlns="http://www.w3.org/2000/svg" width="87.164" height="87" viewBox="0 0 87.164 87">
  <g id="Grupo_94867" data-name="Grupo 94867" transform="translate(-284.095 -705.051)">
    <path id="Trazado_146124" data-name="Trazado 146124" d="M284.1,719.7a4.9,4.9,0,0,0,.406-1.6,15.49,15.49,0,0,1,3.016-5.919c.743-.914,1.122-.993,2.183-.465.694.363.621.94.394,1.526a5.336,5.336,0,0,1-.786,1.2,11.948,11.948,0,0,0-2.434,7.515,13.429,13.429,0,0,0,.321,2.089,11.2,11.2,0,0,0,2.895,5.492,17.623,17.623,0,0,0,13.141,5.606,19.491,19.491,0,0,0,7.566-1.332,4.234,4.234,0,0,1,.73-.226,1.473,1.473,0,0,1,1.661.876,1.438,1.438,0,0,1-.6,1.771,7.411,7.411,0,0,1-1.3.605,22.335,22.335,0,0,0,4.753,1.407c-.348-1.121-.828-2.019-1.2-2.959-.052-.132-.109-.262-.165-.391-1.007-2.3-.948-2.424,1-4.062a12.347,12.347,0,0,0,4.182-6.739,11.555,11.555,0,0,0-3.142-10.857c-3.914-4.1-8.824-5.59-14.325-5.359a17.211,17.211,0,0,0-7.648,2.065,14.229,14.229,0,0,1-1.527.745,1.167,1.167,0,0,1-1.634-.544c-.35-1.068-.221-1.48.631-2.012a22.071,22.071,0,0,1,25.443,2.092c7.07,6.287,7.074,16.316-.015,22.581a.941.941,0,0,0-.284,1.339c.527,1.093.979,2.223,1.45,3.343a2.582,2.582,0,0,1-.322,2.8,2.492,2.492,0,0,1-2.61.806,22.831,22.831,0,0,1-8.346-3.173,1.9,1.9,0,0,0-1.391-.116,21.636,21.636,0,0,1-14.015-3,16.059,16.059,0,0,1-7.779-10.656c-.057-.276-.07-.561-.1-.841-.172-.332.064-.723-.149-1.049Z"/>
    <path id="Trazado_146125" data-name="Trazado 146125" d="M606.433,723.4a15.179,15.179,0,0,1-5.51,9.8c-.362.315-.745.608-1.133.89-.859.625-1.273.6-2.1-.085a1.344,1.344,0,0,1,.374-2.07,18.37,18.37,0,0,0,2.5-2.269,11.419,11.419,0,0,0,2.92-5.536c1.064-5.017-.81-8.979-4.56-12.137a17.8,17.8,0,0,0-12.842-4.03,17.042,17.042,0,0,0-13.19,6.6,11.262,11.262,0,0,0-2.081,9.652,12.227,12.227,0,0,0,4.07,6.623c2.091,1.776,2.132,1.772,1.078,4.259a33.517,33.517,0,0,0-1.325,3.24,20.536,20.536,0,0,0,4.615-1.362,5.854,5.854,0,0,0-1.011-.542,1.478,1.478,0,0,1-.763-1.857,1.454,1.454,0,0,1,1.894-.827,26.587,26.587,0,0,0,4.247,1.205,20.071,20.071,0,0,0,9.737-.679c1.146-.382,1.762-.1,2.065.877.113,1.006-.119,1.394-1.066,1.72a21.984,21.984,0,0,1-9.8,1.015,2.634,2.634,0,0,0-1.832.383,21.845,21.845,0,0,1-8.164,2.951,2.472,2.472,0,0,1-2.749-3.457c.477-1.239,1.01-2.458,1.57-3.662a.814.814,0,0,0-.275-1.131c-3.723-3.359-5.743-7.479-5.33-12.573a14.872,14.872,0,0,1,6.021-10.719,21.007,21.007,0,0,1,15.45-4.4,19.9,19.9,0,0,1,13.267,6.293,14.289,14.289,0,0,1,3.917,8.21c.18.329-.062.72.153,1.043v1.532C606.368,722.672,606.6,723.063,606.433,723.4Z" transform="translate(-235.323 -0.092)"/>
    <path id="Trazado_146126" data-name="Trazado 146126" d="M383.787,1213.713a.19.19,0,0,1-.056-.143,1.3,1.3,0,0,1,1.109-.3q15.1-.013,30.195,0a2.041,2.041,0,0,1,1,.16.216.216,0,0,1,.1.286Z" transform="translate(-82.668 -421.661)" fill="#111"/>
    <path id="Trazado_146127" data-name="Trazado 146127" d="M573.988,1208.845q.02-.075.041-.15a3.814,3.814,0,0,1,.966-1.2,6.575,6.575,0,0,1,2.219-.009c.49.241.622.817,1.044,1.123a.184.184,0,0,1-.015.235Z" transform="translate(-240.523 -416.794)" fill="#fdfdfd"/>
    <path id="Trazado_146128" data-name="Trazado 146128" d="M598.851,1213.7a.17.17,0,0,0-.026-.159,1.384,1.384,0,0,1,1.117-.286q7.185-.013,14.37,0a1.307,1.307,0,0,1,1.108.3.194.194,0,0,1-.055.143Z" transform="translate(-261.13 -421.652)" fill="#121212"/>
    <path id="Trazado_146129" data-name="Trazado 146129" d="M794.8,807.113a1.225,1.225,0,0,1,.149-1.049v1.021A.934.934,0,0,1,794.8,807.113Z" transform="translate(-423.688 -83.81)" fill="#4d4d4d"/>
    <path id="Trazado_146130" data-name="Trazado 146130" d="M284.1,806.064a1.229,1.229,0,0,1,.149,1.049q-.075-.012-.149-.028Z" transform="translate(0 -83.81)" fill="#494949"/>
    <path id="Trazado_146131" data-name="Trazado 146131" d="M794.947,791.984a1.231,1.231,0,0,1-.153-1.043.207.207,0,0,0,.153.022Z" transform="translate(-423.688 -71.262)" fill="#4f4f4f"/>
    <path id="Trazado_146132" data-name="Trazado 146132" d="M432.874,951.509l-16.594-.016c-.563-.113-.678-.589-.836-1.031a1.226,1.226,0,0,1,1.09-1.555,7.229,7.229,0,0,1,1.525-.069c1.331,0,2.663.011,3.994-.006.878-.011.953-.1.971-.991.014-.736-.013-1.472.013-2.209-.055-2.438-.007-4.875-.025-7.313-.009-1.143-.056-1.2-1.2-1.2q-15.563-.006-31.126,0c-1.1,0-1.158.068-1.166,1.151-.02,2.466.029,4.932-.024,7.4.045.792.014,1.584.022,2.376,0,.528.238.78.769.777.311,0,.622.006.933.006q9.676,0,19.352,0a5.131,5.131,0,0,1,1.351.093,1.234,1.234,0,0,1,1.012,1.545c-.121.474-.285.912-.838,1.036q-12.1-.01-24.206-.019c-2.746,0-5.491.017-8.237.026a1.165,1.165,0,0,1-.826-1.309c0-3.574-.036-7.149.015-10.723a5.149,5.149,0,0,1,7.3-4.645c.4.177.639.272.968-.14s.867-.349,1.353-.348c3.234,0,6.468-.02,9.7.017.693.008.926-.15.9-.878-.056-1.5-.013-1.5-1.536-1.5-.539,0-1.078.008-1.617,0a3.824,3.824,0,0,1-4.04-3.981c-.032-1.1-.031-1.081-1.111-1.047a5.818,5.818,0,0,1-5.632-3.11,5.645,5.645,0,0,1,.316-6.335,5.719,5.719,0,0,1,5.827-2.526c.55.077.629-.064.606-.533a5.4,5.4,0,0,1,.166-1.855,3.783,3.783,0,0,1,3.794-2.7c2.752-.015,5.5-.026,8.255.012.683.01.921-.137.923-.872a1.378,1.378,0,0,0-.976-1.554,5.141,5.141,0,0,1-2.918-5.97,5.291,5.291,0,1,1,7.151,6.1,1.832,1.832,0,0,0-.7,2.1c.165.3.451.18.684.181,2.695.009,5.39,0,8.085.006,2.8,0,4.318,1.487,4.3,4.3-.006.709.1.842.864.764a6.011,6.011,0,1,1-.068,11.947c-.822-.1-.811.185-.784.757a4.749,4.749,0,0,1-.165,1.6,3.729,3.729,0,0,1-3.359,2.69c-1.017.064-2.041.035-3.062.032-.349,0-.562.028-.6.485-.143,1.886-.162,1.885,1.743,1.885q4.383,0,8.766,0a1.788,1.788,0,0,1,1.681.589c.246.347.449.007.643-.078a5.184,5.184,0,0,1,7.265,3.531,5.832,5.832,0,0,1,.132,1.348c.011,3.432,0,6.865.008,10.3C433.705,950.687,433.631,951.285,432.874,951.509Z" transform="translate(-78.585 -159.601)"/>
    <path id="Trazado_146133" data-name="Trazado 146133" d="M299.455,736.528a11.38,11.38,0,0,1,2.374-10.143c.563-.729.96-1.4.32-2.267a8.676,8.676,0,0,1,1.888-1.57c.736.684,1.439.485,2.231.028a19.471,19.471,0,0,1,21.45,1.372c3.513,2.8,5.432,6.407,5.1,11.021a4.987,4.987,0,0,1-.31,1.571,12.305,12.305,0,0,1-4.037,4.8,19.634,19.634,0,0,1-10.065,3.953,20.253,20.253,0,0,1-15.085-4.109A11.684,11.684,0,0,1,299.455,736.528Z" transform="translate(-12.449 -12.404)" fill="#81d261"/>
    <path id="Trazado_146135" data-name="Trazado 146135" d="M301.186,817.047c.763.9,1.349,1.931,2.166,2.8a18.677,18.677,0,0,0,10.29,5.511,20.654,20.654,0,0,0,13.582-1.862,15.942,15.942,0,0,0,6.777-6.2,1.277,1.277,0,0,1,.233-.231,12.425,12.425,0,0,1-4.039,6.721,10.46,10.46,0,0,1-1.116.916,1.405,1.405,0,0,0-.495,1.929c.69,1.578,1.361,3.165,2.092,4.868a19.273,19.273,0,0,1-5.686-1.762c.506-.211.925-.376,1.337-.56a1.309,1.309,0,0,0,.87-1.75,1.28,1.28,0,0,0-1.792-.615,18.538,18.538,0,0,1-5.493,1.387c-6.608.532-12.343-1.218-16.618-6.571A9.894,9.894,0,0,1,301.186,817.047Z" transform="translate(-14.18 -92.922)" fill="#6aca44"/>
    <path id="Trazado_146137" data-name="Trazado 146137" d="M463.526,1184.327c-.182-1.066-.54-1.372-1.657-1.372-7.061,0-14.122-.012-21.183.016-.7,0-.948-.142-.883-.869.076-.844.036-1.7.047-2.548a1.5,1.5,0,0,1,1.125-.273q15.884-.009,31.768,0a1.5,1.5,0,0,1,1.125.273c.011.932,0,1.864.041,2.794.022.476-.122.624-.608.617-1.865-.027-3.73-.015-5.595-.009-1.112,0-1.434.274-1.665,1.369Z" transform="translate(-129.182 -393.462)" fill="#d7d0d6"/>
    <path id="Trazado_146138" data-name="Trazado 146138" d="M473.928,1138H439.91c-.01-2.748,0-5.5-.044-8.245-.01-.664.385-.55.77-.55h19.9c4.223,0,8.447.01,12.67-.012.568,0,.782.108.772.732C473.929,1132.616,473.939,1135.308,473.928,1138Z" transform="translate(-129.242 -351.908)" fill="#e5e1e5"/>
    <path id="Trazado_146139" data-name="Trazado 146139" d="M470.549,986.707c.107-.814.653-1.048,1.379-1.048h6.113q7.217,0,14.433,0c1.134,0,1.424.221,1.6,1.171a1.779,1.779,0,0,1,.057.673q0,5.4,0,10.8c0,.936-.246,1.2-1.18,1.287-.311.029-.623.021-.935.021H472.633c-.142,0-.284,0-.425,0-1.556-.022-1.729-.2-1.729-1.776q0-5.1,0-10.2A2.177,2.177,0,0,1,470.549,986.707Z" transform="translate(-154.631 -232.818)" fill="#e5e1e5"/>
    <path id="Trazado_146140" data-name="Trazado 146140" d="M470.454,991.818q.015,5.7.029,11.4c0,1.052.162,1.221,1.241,1.221q10.469.005,20.938,0c1.133,0,1.277-.153,1.281-1.268q.02-5.616.041-11.233a1.676,1.676,0,0,1,.077.834q0,6.547-.008,13.094c0,1.557-.332,1.881-1.914,1.881q-9.948,0-19.9,0c-1.517,0-1.868-.344-1.87-1.838q-.009-6.632-.008-13.263A1.54,1.54,0,0,1,470.454,991.818Z" transform="translate(-154.536 -237.929)" fill="#d7d0d6"/>
    <path id="Trazado_146141" data-name="Trazado 146141" d="M655.447,1131.428a2.6,2.6,0,0,1,5.145.419c.033,2.095-.007,4.191-.016,6.287a1.218,1.218,0,0,1-.87.27c-1.132.016-2.263.012-3.394,0-.643-.005-.965-.224-.936-.96C655.454,1135.441,655.318,1133.433,655.447,1131.428Z" transform="translate(-308.048 -352.042)" fill="#c9bfc8"/>
    <path id="Trazado_146142" data-name="Trazado 146142" d="M393.937,1138.133c-.009-2.1-.049-4.193-.017-6.288a2.6,2.6,0,0,1,5.145-.415c.129,2.118.024,4.238.056,6.356,0,.255-.084.5-.338.511A12.31,12.31,0,0,1,393.937,1138.133Z" transform="translate(-91.111 -352.041)" fill="#c9bfc8"/>
    <path id="Trazado_146143" data-name="Trazado 146143" d="M517.21,1102.628c-1.3,0-2.608-.026-3.911.012-.574.017-.707-.194-.708-.732,0-1.651-.025-1.651,1.655-1.651,2.267,0,4.535.018,6.8-.012.625-.008.906.1.885.825-.045,1.556,0,1.558-1.577,1.558Z" transform="translate(-189.582 -327.89)" fill="#9b8e99"/>
    <path id="Trazado_146144" data-name="Trazado 146144" d="M393.85,1148.253c1.445,0,2.89-.022,4.334.013.59.015.785-.17.778-.769-.023-1.982.006-3.965.016-5.948a1.232,1.232,0,0,1,.134.819c0,2.859-.015,5.719.007,8.578,0,.539-.119.738-.7.719-1.329-.043-2.661-.032-3.991,0-.473.01-.651-.115-.627-.61C393.85,1150.12,393.838,1149.186,393.85,1148.253Z" transform="translate(-91.024 -362.16)" fill="#baafb9"/>
    <path id="Trazado_146145" data-name="Trazado 146145" d="M655.151,1141.534c.01,1.983.04,3.966.017,5.949-.007.6.185.785.777.771,1.444-.036,2.89-.013,4.335-.013.012.962.008,1.924.042,2.885.015.417-.143.527-.54.522-1.416-.019-2.832-.013-4.247,0-.332,0-.52-.054-.519-.456.015-3.115.01-6.229.019-9.344A.975.975,0,0,1,655.151,1141.534Z" transform="translate(-307.751 -362.148)" fill="#baafb9"/>
    <path id="Trazado_146146" data-name="Trazado 146146" d="M426.986,1017.849a3.4,3.4,0,0,1,4.337-2.746c.344.111.53.254.519.641-.032,1.1-.041,2.2-.059,3.3A3.9,3.9,0,0,1,426.986,1017.849Z" transform="translate(-118.556 -257.122)" fill="#c9bfc8"/>
    <path id="Trazado_146147" data-name="Trazado 146147" d="M624.557,1019.042c-.018-1.1-.027-2.2-.059-3.3-.011-.386.173-.53.518-.641a3.4,3.4,0,0,1,4.337,2.746A3.9,3.9,0,0,1,624.557,1019.042Z" transform="translate(-282.43 -257.12)" fill="#c9bfc8"/>
    <path id="Trazado_146148" data-name="Trazado 146148" d="M524.132,915.045a2.7,2.7,0,0,1,5.4,0A3.3,3.3,0,0,1,526,916.192C525.276,916,524.467,915.892,524.132,915.045Z" transform="translate(-199.158 -172.018)" fill="#fe4755"/>
    <path id="Trazado_146149" data-name="Trazado 146149" d="M624.577,1033.167a5.1,5.1,0,0,0,4.8-1.195,3.077,3.077,0,0,1-1.074,3.2,3.3,3.3,0,0,1-3.326.73.537.537,0,0,1-.45-.61C624.55,1034.581,624.56,1033.874,624.577,1033.167Z" transform="translate(-282.451 -271.245)" fill="#baafb9"/>
    <path id="Trazado_146150" data-name="Trazado 146150" d="M426.565,1031.973a5.106,5.106,0,0,0,4.8,1.195,14.929,14.929,0,0,0,.065,1.694c.124.847-.328,1.084-1.039,1.178A3.437,3.437,0,0,1,426.565,1031.973Z" transform="translate(-118.135 -271.246)" fill="#baafb9"/>
    <path id="Trazado_146151" data-name="Trazado 146151" d="M524.131,928.038a4.052,4.052,0,0,0,5.4,0,2.706,2.706,0,1,1-5.4,0Z" transform="translate(-199.157 -185.011)" fill="#fa2b3a"/>
    <path id="Trazado_146152" data-name="Trazado 146152" d="M353.481,772.037a1.52,1.52,0,0,1,1.04.629c.9.947,1.821,1.869,2.687,2.842.392.44.613.448,1.036.016,2.342-2.388,4.719-4.743,7.086-7.107a1.649,1.649,0,0,1,.9-.605,1.257,1.257,0,0,1,1.251,2.031c-.341.414-.746.775-1.127,1.156q-3.728,3.73-7.458,7.457c-.924.921-1.528.907-2.439-.046q-1.97-2.059-3.93-4.126a1.276,1.276,0,0,1,.957-2.247Z" transform="translate(-56.388 -52.052)"/>
    <path id="Trazado_146153" data-name="Trazado 146153" d="M659.712,769.024a1.4,1.4,0,0,1-.531,1.014c-.9.9-1.776,1.833-2.715,2.694-.5.46-.59.746-.029,1.243.889.788,1.7,1.668,2.537,2.511s.963,1.611.359,2.2c-.578.559-1.334.433-2.134-.364-.844-.84-1.731-1.642-2.509-2.539-.525-.6-.826-.49-1.3.031-.841.919-1.748,1.778-2.637,2.652a1.361,1.361,0,0,1-2.019.2c-.564-.566-.491-1.283.224-2.007.936-.948,1.866-1.9,2.832-2.819.367-.348.421-.554.019-.931-.992-.93-1.939-1.907-2.894-2.877-.673-.683-.734-1.379-.2-1.945a1.327,1.327,0,0,1,2.013.164c.97.953,1.942,1.906,2.882,2.889.33.346.527.363.867.009,1-1.043,2.039-2.048,3.062-3.07a1.242,1.242,0,0,1,1.413-.278A1.207,1.207,0,0,1,659.712,769.024Z" transform="translate(-302.225 -51.973)"/>
    <path id="Trazado_146154" data-name="Trazado 146154" d="M566.132,1025.665a1.993,1.993,0,1,1,1.988-2.006A2.011,2.011,0,0,1,566.132,1025.665Z" transform="translate(-232.303 -262.705)" fill="#010101"/>
    <path id="Trazado_146155" data-name="Trazado 146155" d="M494.174,1021.679a1.993,1.993,0,1,1,.031,3.986,1.993,1.993,0,1,1-.031-3.986Z" transform="translate(-172.652 -262.704)" fill="#010101"/>
  </g>
</svg>
